<svg width="60" height="60" viewBox="0 0 60 60" fill="none" xmlns="http://www.w3.org/2000/svg">
<rect width="60" height="60" rx="30" fill="#1F8578"/>
<path d="M35.375 20H33.875V21C33.8738 21.3975 33.7154 21.7783 33.4344 22.0594C33.1533 22.3404 32.7725 22.4988 32.375 22.5H23.375C22.9775 22.4988 22.5967 22.3404 22.3156 22.0594C22.0346 21.7783 21.8762 21.3975 21.875 21V20H20.375C20.11 20.0008 19.8561 20.1064 19.6687 20.2937C19.4814 20.4811 19.3758 20.735 19.375 21V41C19.3758 41.265 19.4814 41.5189 19.6688 41.7062C19.8561 41.8936 20.11 41.9992 20.375 42H31.755C31.0172 40.9824 30.6215 39.7569 30.625 38.5C30.625 38.33 30.63 38.165 30.645 38H27.255C27.1233 37.9987 26.9974 37.9454 26.9047 37.8518C26.812 37.7582 26.76 37.6317 26.76 37.5C26.76 37.3683 26.812 37.2418 26.9047 37.1482C26.9974 37.0546 27.1233 37.0013 27.255 37H30.815C31.1371 35.754 31.8516 34.6446 32.8529 33.8361C33.8542 33.0275 35.0891 32.5625 36.375 32.51V21C36.3742 20.735 36.2686 20.4811 36.0813 20.2937C35.8939 20.1064 35.64 20.0008 35.375 20ZM21.885 26.275L22.41 26.895L24.65 24.685C24.7445 24.593 24.8714 24.542 25.0032 24.5432C25.1351 24.5443 25.2612 24.5974 25.3541 24.6909C25.4469 24.7845 25.4992 24.9109 25.4993 25.0428C25.4995 25.1746 25.4476 25.3012 25.355 25.395L22.885 27.835C22.8165 27.9036 22.7344 27.9572 22.6441 27.9924C22.5537 28.0276 22.457 28.0436 22.3601 28.0394C22.2632 28.0351 22.1683 28.0108 22.0813 27.9678C21.9943 27.9249 21.9173 27.8643 21.855 27.79L21.12 26.92C21.0363 26.8183 20.996 26.6878 21.0079 26.5566C21.0198 26.4254 21.083 26.3042 21.1837 26.2193C21.2844 26.1344 21.4145 26.0927 21.5458 26.1031C21.6771 26.1135 21.799 26.1753 21.885 26.275ZM21.885 31.275L22.41 31.895L24.65 29.685C24.7445 29.593 24.8714 29.542 25.0032 29.5432C25.1351 29.5443 25.2612 29.5974 25.3541 29.6909C25.4469 29.7845 25.4992 29.9109 25.4993 30.0428C25.4995 30.1746 25.4476 30.3012 25.355 30.395L22.885 32.835C22.8165 32.9036 22.7344 32.9572 22.6441 32.9924C22.5537 33.0276 22.457 33.0436 22.3601 33.0394C22.2632 33.0351 22.1683 33.0108 22.0813 32.9678C21.9943 32.9249 21.9173 32.8643 21.855 32.79L21.12 31.92C21.0363 31.8183 20.996 31.6878 21.0079 31.5566C21.0198 31.4254 21.083 31.3042 21.1837 31.2193C21.2844 31.1344 21.4145 31.0927 21.5458 31.1031C21.6771 31.1135 21.799 31.1753 21.885 31.275ZM25.855 35.895L23.385 38.335C23.3165 38.4036 23.2344 38.4572 23.1441 38.4924C23.0537 38.5276 22.957 38.5436 22.8601 38.5394C22.7632 38.5351 22.6683 38.5108 22.5813 38.4678C22.4943 38.4249 22.4173 38.3643 22.355 38.29L21.62 37.42C21.5358 37.3184 21.4951 37.1876 21.5069 37.0562C21.5186 36.9247 21.5818 36.8033 21.6827 36.7182C21.7836 36.6331 21.914 36.5914 22.0455 36.602C22.1771 36.6126 22.2991 36.6748 22.385 36.775L22.91 37.395L25.15 35.185C25.2445 35.093 25.3714 35.042 25.5032 35.0432C25.6351 35.0443 25.7612 35.0974 25.8541 35.1909C25.9469 35.2845 25.9992 35.4109 25.9993 35.5428C25.9995 35.6746 25.9476 35.8012 25.855 35.895ZM34.255 32.5H27.255C27.1224 32.5 26.9952 32.4473 26.9014 32.3536C26.8077 32.2598 26.755 32.1326 26.755 32C26.755 31.8674 26.8077 31.7402 26.9014 31.6464C26.9952 31.5527 27.1224 31.5 27.255 31.5H34.255C34.3867 31.5013 34.5126 31.5546 34.6053 31.6482C34.698 31.7418 34.75 31.8683 34.75 32C34.75 32.1317 34.698 32.2582 34.6053 32.3518C34.5126 32.4454 34.3867 32.4987 34.255 32.5ZM34.255 27.5H27.255C27.1224 27.5 26.9952 27.4473 26.9014 27.3536C26.8077 27.2598 26.755 27.1326 26.755 27C26.755 26.8674 26.8077 26.7402 26.9014 26.6464C26.9952 26.5527 27.1224 26.5 27.255 26.5H34.255C34.3867 26.5013 34.5126 26.5546 34.6053 26.6482C34.698 26.7418 34.75 26.8683 34.75 27C34.75 27.1317 34.698 27.2582 34.6053 27.3518C34.5126 27.4454 34.3867 27.4987 34.255 27.5Z" fill="white"/>
<path d="M36.625 33.5C35.6533 33.4999 34.7026 33.7831 33.8892 34.3148C33.0758 34.8464 32.435 35.6036 32.0451 36.4937C31.6552 37.3839 31.5331 38.3683 31.6939 39.3267C31.8546 40.285 32.2911 41.1758 32.95 41.89C33.1467 41.6159 33.3731 41.3644 33.625 41.14C34.4518 40.4056 35.5192 40 36.625 40C37.7308 40 38.7983 40.4056 39.625 41.14C39.877 41.3644 40.1033 41.6159 40.3 41.89C40.959 41.1758 41.3955 40.285 41.5562 39.3267C41.7169 38.3683 41.5949 37.3839 41.205 36.4937C40.8151 35.6036 40.1743 34.8464 39.3609 34.3148C38.5475 33.7831 37.5968 33.4999 36.625 33.5ZM36.625 39.5C36.2295 39.5 35.8428 39.3827 35.5139 39.1629C35.185 38.9432 34.9286 38.6308 34.7773 38.2654C34.6259 37.8999 34.5863 37.4978 34.6635 37.1098C34.7406 36.7219 34.9311 36.3655 35.2108 36.0858C35.4905 35.8061 35.8469 35.6156 36.2348 35.5384C36.6228 35.4613 37.0249 35.5009 37.3904 35.6522C37.7558 35.8036 38.0682 36.06 38.288 36.3889C38.5077 36.7178 38.625 37.1044 38.625 37.5C38.625 38.0304 38.4143 38.5391 38.0392 38.9142C37.6642 39.2893 37.1555 39.5 36.625 39.5Z" fill="white"/>
<path d="M38.8659 41.81C38.2368 41.2866 37.4443 41 36.6259 41C35.8076 41 35.015 41.2866 34.3859 41.81C34.1241 42.0242 33.8965 42.2771 33.7109 42.56C34.56 43.1712 35.5798 43.5 36.6259 43.5C37.6721 43.5 38.6918 43.1712 39.5409 42.56C39.3554 42.2771 39.1278 42.0242 38.8659 41.81Z" fill="white"/>
<path d="M36.625 38.5C37.1773 38.5 37.625 38.0523 37.625 37.5C37.625 36.9477 37.1773 36.5 36.625 36.5C36.0727 36.5 35.625 36.9477 35.625 37.5C35.625 38.0523 36.0727 38.5 36.625 38.5Z" fill="white"/>
<path d="M32.375 18.5H30.705C30.4978 17.9151 30.1145 17.4086 29.6077 17.0505C29.1009 16.6923 28.4956 16.5 27.875 16.5C27.2544 16.5 26.6491 16.6923 26.1423 17.0505C25.6355 17.4086 25.2522 17.9151 25.045 18.5H23.375C23.2425 18.5004 23.1156 18.5532 23.0219 18.6469C22.9282 18.7406 22.8754 18.8676 22.875 19V21C22.8754 21.1325 22.9282 21.2595 23.0219 21.3532C23.1156 21.4468 23.2425 21.4996 23.375 21.5H32.375C32.5075 21.4996 32.6344 21.4468 32.7281 21.3532C32.8218 21.2595 32.8746 21.1325 32.875 21V19C32.8746 18.8676 32.8218 18.7406 32.7281 18.6469C32.6344 18.5532 32.5075 18.5004 32.375 18.5ZM27.875 18.25C27.7761 18.25 27.6794 18.2207 27.5972 18.1658C27.515 18.1108 27.4509 18.0327 27.4131 17.9414C27.3752 17.85 27.3653 17.7495 27.3846 17.6525C27.4039 17.5555 27.4515 17.4664 27.5214 17.3965C27.5914 17.3266 27.6805 17.2789 27.7775 17.2596C27.8744 17.2404 27.975 17.2503 28.0663 17.2881C28.1577 17.3259 28.2358 17.39 28.2907 17.4723C28.3457 17.5545 28.375 17.6511 28.375 17.75C28.3746 17.8825 28.3218 18.0095 28.2281 18.1032C28.1344 18.1968 28.0075 18.2496 27.875 18.25Z" fill="white"/>
</svg>
