<svg width="60" height="60" viewBox="0 0 60 60" fill="none" xmlns="http://www.w3.org/2000/svg">
<rect width="60" height="60" rx="30" fill="#1F8578"/>
<path d="M41.4542 39.146C40.8097 37.2279 38.2411 36.0273 36.4097 35.2225C35.6923 34.9082 33.706 34.3751 33.4673 33.4717C33.3819 33.1463 33.3934 32.8394 33.4635 32.5453C33.3531 32.5665 33.2411 32.5789 33.1252 32.5789H31.9319C30.9793 32.5789 30.2052 31.8039 30.2052 30.8519C30.2052 29.9005 30.9796 29.1271 31.9319 29.1271H33.1252C33.5195 29.1271 33.8932 29.2605 34.1947 29.4986C34.6366 29.4397 35.0628 29.3453 35.4603 29.2215C35.9822 28.1281 36.3892 26.8205 36.4804 25.6951C36.8699 20.8797 33.9179 18.0625 29.6852 18.5495C26.6078 18.9037 24.7694 21.1985 24.5707 24.1527C24.3697 27.1639 25.4862 29.3879 26.6721 31.0193C27.1915 31.7325 27.7371 32.1911 27.6532 33.0506C27.5559 34.0669 26.4692 34.3501 25.6919 34.6625C24.771 35.0324 23.779 35.5937 23.3105 35.8532C21.6967 36.7444 19.9255 37.8176 19.5275 39.2858C18.6459 42.5396 21.6231 43.5252 24.0811 43.9802C26.1905 44.3693 28.5691 44.4001 30.5255 44.4001C34.0644 44.4001 40.4279 44.2583 41.4542 41.5981C41.746 40.8433 41.6209 39.6404 41.4542 39.146Z" fill="white"/>
<path d="M33.8798 30.3654C33.7178 30.1186 33.441 29.9548 33.1252 29.9548H31.9319C31.434 29.9548 31.0324 30.357 31.0324 30.8524C31.0324 31.3497 31.434 31.7526 31.9319 31.7526H33.1252C33.4737 31.7526 33.7694 31.5538 33.9185 31.2665C35.5821 31.1356 37.0292 30.6274 38.0449 29.877C38.2782 30.0274 38.554 30.1154 38.8516 30.1154H38.9265C39.7559 30.1154 40.4266 29.4441 40.4266 28.6137V25.6159C40.4266 25.0188 40.0765 24.5036 39.5716 24.2642C39.3514 19.4505 35.3665 15.5996 30.4986 15.5996C25.6308 15.5996 21.6452 19.4505 21.426 24.2642C20.9201 24.5039 20.5703 25.0188 20.5703 25.6159V28.6137C20.5703 29.4441 21.2417 30.1154 22.0692 30.1154H22.145C22.9732 30.1154 23.6449 29.4441 23.6449 28.6137V25.6159C23.6449 25.0274 23.3047 24.5199 22.8103 24.2745C23.0244 20.2185 26.3902 16.9855 30.4986 16.9855C34.6055 16.9855 37.9729 20.2185 38.186 24.2745C37.6922 24.5202 37.3524 25.0274 37.3524 25.6159V28.6137C37.3524 28.8127 37.3911 28.998 37.4593 29.1711C36.585 29.7967 35.3124 30.2425 33.8798 30.3654Z" fill="white"/>
</svg>
