<svg width="81" height="80" viewBox="0 0 81 80" fill="none" xmlns="http://www.w3.org/2000/svg">
<g clip-path="url(#clip0_470_29766)">
<path d="M73.1578 22.759L70.8196 25.0972V21.389C70.8196 12.3649 63.4762 5.02148 54.4521 5.02148H47.4375V9.69791H54.4521C60.9004 9.69791 66.1432 14.9428 66.1432 21.389V25.0972L63.805 22.759L60.4986 26.0654L68.4814 34.0482L76.4642 26.0654L73.1578 22.759Z" fill="#443D66"/>
<path d="M14.8108 55.2015L17.0401 57.4308L20.3465 54.1244L12.3637 46.1416L4.38086 54.1244L7.68724 57.4308L10.1142 55.0039C10.5865 66.1928 19.7661 75.1685 31.0694 75.1685H33.4076V70.492H31.0694C22.4141 70.4917 15.3775 63.7164 14.8108 55.2015Z" fill="#5D4D80"/>
<path d="M22.6507 2.33887L6.2832 18.7063V38.6918H20.3125L22.6507 33.8595L24.9889 38.6918H39.0181V18.7063L22.6507 2.33887Z" fill="#FFDA80"/>
<path d="M24.9886 38.6918H39.0179V18.7063L22.6504 2.33887V33.8595L24.9886 38.6918Z" fill="#FFB54D"/>
<path d="M41.3567 25.3192L22.6511 6.61355L3.94537 25.3192L0.638672 22.0124L22.6511 0L44.6634 22.0124L41.3567 25.3192Z" fill="#FF5959"/>
<path d="M20.3125 24.3506H24.9889V38.6916H20.3125V24.3506Z" fill="#5D4D80"/>
<path d="M22.6504 24.3506H24.9886V38.6916H22.6504V24.3506Z" fill="#443D66"/>
<path d="M41.3561 25.3192L44.6628 22.0124L22.6504 0V6.61355L41.3561 25.3192Z" fill="#E63A57"/>
<path d="M58.3479 43.6475L41.9805 60.0149V80.0004H56.0097L58.3479 75.1681L60.6862 80.0004H74.7154V60.0149L58.3479 43.6475Z" fill="#FFDA80"/>
<path d="M60.6859 80.0004H74.7151V60.0149L58.3477 43.6475V75.1681L60.6859 80.0004Z" fill="#FFB54D"/>
<path d="M77.054 66.6278L58.3483 47.9221L39.6426 66.6278L36.3359 63.321L58.3483 41.3086L80.3607 63.321L77.054 66.6278Z" fill="#FF5959"/>
<path d="M56.0098 65.6592H60.6862V80.0002H56.0098V65.6592Z" fill="#5D4D80"/>
<path d="M58.3477 65.6592H60.6859V80.0002H58.3477V65.6592Z" fill="#443D66"/>
<path d="M77.0533 66.6278L80.36 63.321L58.3477 41.3086V47.9221L77.0533 66.6278Z" fill="#E63A57"/>
</g>
<defs>
<clipPath id="clip0_470_29766">
<rect width="80" height="80" fill="white" transform="translate(0.5)"/>
</clipPath>
</defs>
</svg>
