<svg width="60" height="60" viewBox="0 0 60 60" fill="none" xmlns="http://www.w3.org/2000/svg">
<rect width="60" height="60" rx="30" fill="#1F8578"/>
<path d="M32.667 23.333H22.0003C21.6467 23.333 21.3076 23.4735 21.0575 23.7235C20.8075 23.9736 20.667 24.3127 20.667 24.6663C20.667 25.02 20.8075 25.3591 21.0575 25.6091C21.3076 25.8592 21.6467 25.9997 22.0003 25.9997H32.667C33.0206 25.9997 33.3598 25.8592 33.6098 25.6091C33.8598 25.3591 34.0003 25.02 34.0003 24.6663C34.0003 24.3127 33.8598 23.9736 33.6098 23.7235C33.3598 23.4735 33.0206 23.333 32.667 23.333Z" fill="white"/>
<path d="M32.667 28.667H22.0003C21.6467 28.667 21.3076 28.8075 21.0575 29.0575C20.8075 29.3076 20.667 29.6467 20.667 30.0003C20.667 30.3539 20.8075 30.6931 21.0575 30.9431C21.3076 31.1932 21.6467 31.3337 22.0003 31.3337H32.667C33.0206 31.3337 33.3598 31.1932 33.6098 30.9431C33.8598 30.6931 34.0003 30.3539 34.0003 30.0003C34.0003 29.6467 33.8598 29.3076 33.6098 29.0575C33.3598 28.8075 33.0206 28.667 32.667 28.667Z" fill="white"/>
<path d="M27.3337 34H22.0003C21.6467 34 21.3076 34.1405 21.0575 34.3905C20.8075 34.6406 20.667 34.9797 20.667 35.3333C20.667 35.687 20.8075 36.0261 21.0575 36.2761C21.3076 36.5262 21.6467 36.6667 22.0003 36.6667H27.3337C27.6873 36.6667 28.0264 36.5262 28.2765 36.2761C28.5265 36.0261 28.667 35.687 28.667 35.3333C28.667 34.9797 28.5265 34.6406 28.2765 34.3905C28.0264 34.1405 27.6873 34 27.3337 34Z" fill="white"/>
<path d="M43.333 28.6663H39.333V19.333C39.333 18.2721 38.9116 17.2547 38.1614 16.5046C37.4113 15.7544 36.3939 15.333 35.333 15.333H19.333C18.2721 15.333 17.2547 15.7544 16.5046 16.5046C15.7544 17.2547 15.333 18.2721 15.333 19.333V40.6663C15.333 41.7272 15.7544 42.7446 16.5046 43.4948C17.2547 44.2449 18.2721 44.6663 19.333 44.6663H40.6663C41.7272 44.6663 42.7446 44.2449 43.4948 43.4948C44.2449 42.7446 44.6663 41.7272 44.6663 40.6663V29.9997C44.6663 29.6461 44.5259 29.3069 44.2758 29.0569C44.0258 28.8068 43.6866 28.6663 43.333 28.6663ZM36.6663 41.9997H19.333C18.9794 41.9997 18.6402 41.8592 18.3902 41.6092C18.1402 41.3591 17.9997 41.02 17.9997 40.6663V19.333C17.9997 18.9794 18.1402 18.6402 18.3902 18.3902C18.6402 18.1402 18.9794 17.9997 19.333 17.9997H35.333C35.6866 17.9997 36.0258 18.1402 36.2758 18.3902C36.5259 18.6402 36.6663 18.9794 36.6663 19.333V41.9997ZM41.9997 40.6663C41.9997 41.02 41.8592 41.3591 41.6092 41.6092C41.3591 41.8592 41.02 41.9997 40.6663 41.9997H39.333V31.333H41.9997V40.6663Z" fill="white"/>
</svg>
