<svg width="60" height="60" viewBox="0 0 60 60" fill="none" xmlns="http://www.w3.org/2000/svg">
<rect width="60" height="60" rx="30" fill="#1F8578"/>
<g clip-path="url(#clip0_476_17496)">
<path d="M40.4934 26C37.4609 26.0031 34.9959 28.4875 34.999 31.5387C35.0003 33.2056 35.8309 35.1056 37.4678 37.1869C38.6359 38.6725 39.7934 39.705 39.8422 39.7481C40.222 40.0853 40.7937 40.083 41.1709 39.7469C41.2197 39.7038 42.3753 38.6687 43.5409 37.1812C44.7914 35.5848 45.999 33.5484 45.999 31.5281C45.9965 28.4828 43.55 26 40.4934 26V26ZM38.999 31.5012C38.9977 30.6728 39.6682 30.0013 40.4972 30C41.8317 30 42.4996 31.6201 41.5603 32.5594C40.6255 33.4962 38.999 32.8438 38.999 31.5012Z" fill="white"/>
<path d="M18.8376 25.7475C19.2165 26.0839 19.7868 26.0844 20.1663 25.7475C20.2151 25.7044 21.372 24.6706 22.5388 23.1844C24.1732 21.1012 25.002 19.2006 25.002 17.5331C25.002 14.4825 22.5345 12 19.502 12C16.4695 12 14.002 14.4825 14.002 17.5331C14.002 19.2006 14.8307 21.1012 16.4651 23.1844C17.632 24.6706 18.7888 25.7044 18.8376 25.7475V25.7475ZM19.502 16C20.3288 16 21.002 16.6731 21.002 17.5C21.002 18.3269 20.3288 19 19.502 19C18.6751 19 18.002 18.3269 18.002 17.5C18.002 16.6731 18.6751 16 19.502 16Z" fill="white"/>
<path d="M42.0087 42.4987C42.0087 43.8688 40.3096 44.5241 39.3919 43.4999H18.5019C16.0207 43.4999 14.002 41.4812 14.002 39C14.002 36.5187 16.0207 34.5 18.5019 34.5H28.5331C29.8944 34.5 31.0019 33.3925 31.0019 32.0312C31.0019 30.67 29.8944 29.5625 28.5331 29.5625H20.6201C20.3182 29.8956 19.9164 30.0625 19.5019 30.0625C18.1722 30.0625 17.5006 28.4426 18.4401 27.5031C19.0577 26.8841 20.0611 26.9295 20.6194 27.5625H28.5331C30.9975 27.5625 33.0019 29.5669 33.0019 32.0312C33.0019 34.4956 30.9975 36.5 28.5331 36.5H18.5019C17.1232 36.5 16.0019 37.6212 16.0019 39C16.0019 40.3787 17.1232 41.5 18.5019 41.5C41.0028 41.5 39.3588 41.5293 39.4475 41.4406C40.3845 40.5014 42.0077 41.161 42.0087 42.4987Z" fill="white"/>
</g>
<defs>
<clipPath id="clip0_476_17496">
<rect width="32" height="32" fill="white" transform="translate(14 12)"/>
</clipPath>
</defs>
</svg>
