<svg width="60" height="60" viewBox="0 0 60 60" fill="none" xmlns="http://www.w3.org/2000/svg">
<rect width="60" height="60" rx="30" fill="#1F8578"/>
<g clip-path="url(#clip0_476_17524)">
<path d="M26.0078 10V12.6694H28.6772V14.0041C29.6115 13.8706 30.4123 13.8706 31.3466 14.0041V12.6694H34.016V10H26.0078Z" fill="white"/>
<path d="M39.0878 18.8085L40.0221 17.8742L41.0899 18.942L42.9584 17.0734L38.9544 13.0693L37.0858 14.9379L38.1535 16.0056L36.9523 17.2069C30.5458 13.3362 22.2707 15.3383 18.5335 21.7448C14.7964 28.1513 16.7984 36.1595 23.0715 40.0301C29.3446 43.9008 37.6196 41.8987 41.3568 35.4922C44.6935 30.0199 43.7593 23.0795 39.0878 18.8085ZM30.0119 37.8946C24.8066 37.8946 20.669 33.7571 20.669 28.5518C20.669 23.3465 24.8066 19.2089 30.0119 19.2089V28.5517H39.3547C39.3548 33.7571 35.2172 37.8946 30.0119 37.8946Z" fill="white"/>
</g>
<defs>
<clipPath id="clip0_476_17524">
<rect width="32" height="32" fill="white" transform="translate(14 10)"/>
</clipPath>
</defs>
</svg>
