<svg width="80" height="81" viewBox="0 0 80 81" fill="none" xmlns="http://www.w3.org/2000/svg">
<g clip-path="url(#clip0_470_29816)">
<path d="M76.5276 35.5815V27.377H55.7755C55.331 27.377 54.9707 27.7373 54.9707 28.1818V35.5815H76.5276Z" fill="#FED402"/>
<path d="M75.9148 27.2208H58.8207L58.444 27.3771H55.7755C55.331 27.3771 54.9707 27.7374 54.9707 28.1819V31.4013H76.5276V27.3771L76.0032 27.2119C75.974 27.2158 75.9451 27.2208 75.9148 27.2208Z" fill="#FE6C55"/>
<path d="M33.4004 26.0684H38.2293V31.0752H33.4004V26.0684Z" fill="#918291"/>
<path d="M44.6691 35.5814V33.3325C44.6691 31.9991 43.5882 30.918 42.2546 30.918H29.3774C28.044 30.918 26.9629 31.9989 26.9629 33.3325V35.5814H44.6691Z" fill="#A79BA7"/>
<path d="M32.0855 35.425V33.3325C32.0855 31.9991 33.1665 30.918 34.5001 30.918H29.3774C28.044 30.918 26.9629 31.9989 26.9629 33.3325V35.425H32.0855Z" fill="#918291"/>
<path d="M50.3256 25.0521H21.3047C20.8733 25.0521 20.5234 24.7023 20.5234 24.2709V7.14355C20.5234 6.71215 20.8733 6.3623 21.3047 6.3623H50.3256C50.757 6.3623 51.1069 6.71215 51.1069 7.14355V24.2709C51.1069 24.7025 50.7572 25.0521 50.3256 25.0521Z" fill="#EAF6FF"/>
<path d="M26.962 24.2473V7.16715C26.962 6.72262 27.3223 6.3623 27.7669 6.3623H21.3283C20.8837 6.3623 20.5234 6.72262 20.5234 7.16715V24.2475C20.5234 24.692 20.8837 25.0523 21.3283 25.0523H27.7669C27.3223 25.0521 26.962 24.6918 26.962 24.2473Z" fill="#D8ECFE"/>
<path d="M50.3022 26.224H21.3283C20.2383 26.224 19.3516 25.3373 19.3516 24.2473V7.16715C19.3516 6.07715 20.2383 5.19043 21.3283 5.19043H50.3256C51.4027 5.19043 52.2788 6.06652 52.2788 7.14355V24.2473C52.2789 25.3373 51.392 26.224 50.3022 26.224ZM21.6953 23.8803H49.935V7.53418H21.6953V23.8803Z" fill="#A79BA7"/>
<path d="M6.0318 30.9993V29.8274H3.94383C3.25867 29.8274 2.70117 29.2701 2.70117 28.5848V26.9751C2.70117 26.2899 3.25852 25.7324 3.94383 25.7324H6.03164V23.3887H3.94383C1.96633 23.3887 0.357422 24.9976 0.357422 26.9751V28.5848C0.357422 30.5623 1.96617 32.1712 3.94383 32.1712H6.16758C6.07977 31.7943 6.0318 31.4024 6.0318 30.9993Z" fill="#EAF6FF"/>
<path d="M8.50187 35.5821H13.8716C15.443 34.6595 16.4986 32.9532 16.4986 30.9993V24.1699C16.4986 23.7385 16.1488 23.3887 15.7173 23.3887H5.875V30.9993C5.875 32.9532 6.93063 34.6595 8.50187 35.5821Z" fill="#EAF6FF"/>
<path d="M8.25094 35.4259H12.2811C10.8467 34.4749 9.89906 32.8491 9.89906 30.9993V23.3887H5.875V30.9993C5.875 32.8473 6.81922 34.4743 8.25094 35.4259Z" fill="#D8ECFE"/>
<path d="M54.9707 31.4014H63.0315V35.4256H54.9707V31.4014Z" fill="#FAC600"/>
<path d="M63.8363 27.377H55.7755C55.331 27.377 54.9707 27.7373 54.9707 28.1818V31.4012H63.0315V28.1818C63.0315 27.7373 63.3918 27.377 63.8363 27.377Z" fill="#FD544D"/>
<path d="M79.1954 27.3777H58.4434V24.1584C58.4434 23.7138 58.8037 23.3535 59.2482 23.3535H79.1954C79.6399 23.3535 80.0002 23.7138 80.0002 24.1584V26.5729C80.0002 27.0174 79.6399 27.3777 79.1954 27.3777Z" fill="#00C27A"/>
<path d="M65.9284 23.3535H59.2482C58.8037 23.3535 58.4434 23.7138 58.4434 24.1584V27.3777H65.1235V24.1584C65.1235 23.7138 65.484 23.3535 65.9284 23.3535Z" fill="#09A755"/>
<path d="M7.24805 39.5088H44.9046V55.3853H7.24805V39.5088Z" fill="#FFBD86"/>
<path d="M7.4043 39.665H11.4062V55.3853H7.4043V39.665Z" fill="#F6A96C"/>
<path d="M44.748 39.5088V48.5377L45.208 48.6939H72.281L72.7515 48.5377V39.5088H44.748Z" fill="#EA9B58"/>
<path d="M44.748 39.665H49.6576V48.5377H44.748V39.665Z" fill="#D88A55"/>
<path d="M60.7652 45.25H56.5801C55.9329 45.25 55.4082 44.7253 55.4082 44.0781C55.4082 43.4309 55.9329 42.9062 56.5801 42.9062H60.7652C61.4124 42.9062 61.9371 43.4309 61.9371 44.0781C61.9371 44.7253 61.4124 45.25 60.7652 45.25Z" fill="#D88A55"/>
<path d="M44.748 48.5381V57.4107L45.0954 57.567H72.4041L72.7515 57.4107V48.5381H44.748Z" fill="#F6A96C"/>
<path d="M44.748 48.5381H49.6576V57.4107H44.748V48.5381Z" fill="#EA9B58"/>
<path d="M60.7652 54.123H56.5801C55.9329 54.123 55.4082 53.5984 55.4082 52.9512C55.4082 52.304 55.9329 51.7793 56.5801 51.7793H60.7652C61.4124 51.7793 61.9371 52.304 61.9371 52.9512C61.9371 53.5984 61.4124 54.123 60.7652 54.123Z" fill="#D88A55"/>
<path d="M72.7515 57.4102H44.748V68.5037C44.748 68.9483 45.1084 69.3086 45.5529 69.3086H72.7515V57.4102Z" fill="#EA9B58"/>
<path d="M49.6576 68.5037V57.4102H44.748V68.5037C44.748 68.9483 45.1084 69.3086 45.5529 69.3086H50.4624C50.0179 69.3086 49.6576 68.9483 49.6576 68.5037Z" fill="#D88A55"/>
<path d="M60.7652 62.9961H56.5801C55.9329 62.9961 55.4082 62.4714 55.4082 61.8242C55.4082 61.177 55.9329 60.6523 56.5801 60.6523H60.7652C61.4124 60.6523 61.9371 61.177 61.9371 61.8242C61.9371 62.4714 61.4124 62.9961 60.7652 62.9961Z" fill="#D88A55"/>
<path d="M2.57617 39.5088V74.8622C2.57617 75.3068 2.93648 75.6671 3.38102 75.6671H6.60039C7.04492 75.6671 7.40523 75.3068 7.40523 74.8622V39.5088H2.57617Z" fill="#A79BA7"/>
<path d="M4.6882 74.8622V39.5088H2.57617V74.8622C2.57617 75.3068 2.93648 75.6671 3.38102 75.6671H5.49305C5.04852 75.6671 4.6882 75.3068 4.6882 74.8622Z" fill="#918291"/>
<path d="M72.5957 39.5088V74.8622C72.5957 75.3068 72.956 75.6671 73.4005 75.6671H76.6199C77.0645 75.6671 77.4248 75.3068 77.4248 74.8622V39.5088H72.5957Z" fill="#A79BA7"/>
<path d="M74.7077 74.8622V39.5088H72.5957V74.8622C72.5957 75.3068 72.956 75.6671 73.4005 75.6671H75.5126C75.068 75.6671 74.7077 75.3068 74.7077 74.8622Z" fill="#918291"/>
<path d="M79.1952 35.4258H0.804844C0.360312 35.4258 0 35.7861 0 36.2306V38.8603C0 39.3048 0.360312 39.6652 0.804844 39.6652H79.1952C79.6397 39.6652 80 39.3048 80 38.8603V36.2306C80 35.7861 79.6397 35.4258 79.1952 35.4258Z" fill="#F6A96C"/>
<path d="M10.9375 38.8603V36.2306C10.9375 35.7861 11.2978 35.4258 11.7423 35.4258H0.804844C0.360312 35.4258 0 35.7861 0 36.2306V38.8603C0 39.3048 0.360312 39.6652 0.804844 39.6652H11.7423C11.2978 39.6652 10.9375 39.3048 10.9375 38.8603Z" fill="#EA9B58"/>
<path d="M45.7952 12.5684H33.7227C33.0755 12.5684 32.5508 12.0437 32.5508 11.3965C32.5508 10.7493 33.0755 10.2246 33.7227 10.2246H45.7952C46.4423 10.2246 46.967 10.7493 46.967 11.3965C46.967 12.0437 46.4425 12.5684 45.7952 12.5684Z" fill="#0593FC"/>
<path d="M30.0211 12.5684H25.8359C25.1887 12.5684 24.6641 12.0437 24.6641 11.3965C24.6641 10.7493 25.1887 10.2246 25.8359 10.2246H30.0211C30.6683 10.2246 31.193 10.7493 31.193 11.3965C31.193 12.0437 30.6683 12.5684 30.0211 12.5684Z" fill="#0593FC"/>
<path d="M45.7948 16.7539H41.9316C41.2845 16.7539 40.7598 16.2292 40.7598 15.582C40.7598 14.9348 41.2845 14.4102 41.9316 14.4102H45.7948C46.442 14.4102 46.9666 14.9348 46.9666 15.582C46.9666 16.2292 46.4421 16.7539 45.7948 16.7539Z" fill="#0593FC"/>
<path d="M37.7473 16.7529H25.8359C25.1887 16.7529 24.6641 16.2282 24.6641 15.5811C24.6641 14.9339 25.1887 14.4092 25.8359 14.4092H37.7473C38.3945 14.4092 38.9192 14.9339 38.9192 15.5811C38.9192 16.2282 38.3945 16.7529 37.7473 16.7529Z" fill="#0593FC"/>
<path d="M32.9184 20.9385H25.8359C25.1887 20.9385 24.6641 20.4138 24.6641 19.7666C24.6641 19.1194 25.1887 18.5947 25.8359 18.5947H32.9184C33.5656 18.5947 34.0903 19.1194 34.0903 19.7666C34.0903 20.4138 33.5656 20.9385 32.9184 20.9385Z" fill="#0593FC"/>
</g>
<defs>
<clipPath id="clip0_470_29816">
<rect width="80" height="80" fill="white" transform="translate(0 0.428711)"/>
</clipPath>
</defs>
</svg>
