<svg width="60" height="61" viewBox="0 0 60 61" fill="none" xmlns="http://www.w3.org/2000/svg">
<rect y="0.5" width="60" height="60" rx="30" fill="#1F8578"/>
<path d="M30.0005 42.2215C23.2505 42.2215 17.7785 36.7498 17.7785 29.9998C17.7785 23.2498 23.2505 17.7778 30.0005 17.7778C36.7507 17.7778 42.2225 23.2498 42.2225 29.9998C42.2225 30.4935 42.6232 30.894 43.1167 30.894C43.6102 30.894 44.0107 30.4933 44.0107 29.9998C44.0107 22.2623 37.738 15.9893 30.0005 15.9893C22.263 15.9893 15.9902 22.2623 15.9902 29.9998C15.9902 37.7373 22.263 44.0103 30.0005 44.0103C30.4942 44.0103 30.8947 43.6095 30.8947 43.116C30.8947 42.6225 30.4942 42.2215 30.0005 42.2215Z" fill="white"/>
<path d="M29.1063 20.4609V30.2977H24.0383C23.545 30.2977 23.1445 30.6984 23.1445 31.1919C23.1445 31.6862 23.5453 32.0867 24.0383 32.0867H30.0005C30.4943 32.0867 30.8948 31.6859 30.8948 31.1919V20.4609C30.8948 19.9669 30.494 19.5664 30.0005 19.5664C29.507 19.5664 29.1063 19.9672 29.1063 20.4609Z" fill="white"/>
<path d="M37.1551 30.2979C33.3683 30.2979 30.2988 33.3674 30.2988 37.1541C30.2988 40.9411 33.3681 44.0106 37.1551 44.0106C40.9416 44.0106 44.0111 40.9414 44.0111 37.1541C44.0111 33.3674 40.9418 30.2979 37.1551 30.2979ZM37.2381 40.2076C36.9403 40.6019 36.3788 40.6799 35.9851 40.3821L33.2506 38.3149C32.8573 38.0176 32.7791 37.4564 33.0773 37.0621C33.3748 36.6684 33.9363 36.5904 34.3296 36.8876L36.3508 38.4156L39.2003 34.6459C39.4981 34.2519 40.0593 34.1739 40.4531 34.4716C40.8468 34.7694 40.9251 35.3306 40.6271 35.7246L37.2381 40.2076Z" fill="white"/>
</svg>
