<svg width="60" height="60" viewBox="0 0 60 60" fill="none" xmlns="http://www.w3.org/2000/svg">
<rect width="60" height="60" rx="30" fill="#1F8578"/>
<g clip-path="url(#clip0_470_38179)">
<path d="M30 21.5625C25.3474 21.5625 21.5625 25.3474 21.5625 30C21.5625 34.6526 25.3474 38.4375 30 38.4375C34.6526 38.4375 38.4375 34.6526 38.4375 30C38.4375 25.3474 34.6526 21.5625 30 21.5625ZM29.99 29.3372C31.5408 29.3372 32.8025 30.5989 32.8025 32.1497C32.8025 33.3665 32.0212 34.3953 30.9375 34.7864V35.625C30.9375 36.1431 30.5181 36.5625 30 36.5625C29.4819 36.5625 29.0625 36.1431 29.0625 35.625V34.7925C27.9685 34.4072 27.1775 33.374 27.1775 32.1497C27.1775 31.6316 27.5967 31.2122 28.115 31.2122C28.6331 31.2122 29.0525 31.6316 29.0525 32.1497C29.0525 32.667 29.4727 33.0872 29.99 33.0872C30.5071 33.0872 30.9275 32.667 30.9275 32.1497C30.9275 31.6323 30.5071 31.2122 29.99 31.2122C28.439 31.2122 27.1775 29.9507 27.1775 28.3997C27.1775 27.1753 27.9685 26.1423 29.0625 25.7568V24.375C29.0625 23.8569 29.4819 23.4375 30 23.4375C30.5181 23.4375 30.9375 23.8569 30.9375 24.375V25.7632C32.0212 26.1541 32.8025 27.1829 32.8025 28.3997C32.8025 28.918 32.3831 29.3372 31.865 29.3372C31.3467 29.3372 30.9275 28.918 30.9275 28.3997C30.9275 27.8823 30.5071 27.4622 29.99 27.4622C29.4727 27.4622 29.0525 27.8823 29.0525 28.3997C29.0525 28.917 29.4727 29.3372 29.99 29.3372Z" fill="white"/>
<path d="M45.3591 27.2361L43.6687 26.6931C43.3264 25.2722 42.7678 23.9246 42.0024 22.6748L42.7708 21.1387C42.9512 20.7778 42.8806 20.342 42.595 20.0564L39.9436 17.405C39.658 17.1194 39.2239 17.0498 38.8613 17.2292L37.3252 17.9973C36.0737 17.2319 34.7258 16.6736 33.3069 16.3311L32.7639 14.6409C32.6367 14.2583 32.2788 14 31.875 14H28.125C27.7212 14 27.3633 14.2583 27.2361 14.6409L26.6931 16.3313C25.2739 16.6736 23.9263 17.2322 22.6748 17.9976L21.1387 17.2292C20.7769 17.0471 20.343 17.1177 20.0564 17.405L17.405 20.0564C17.1194 20.342 17.0488 20.7778 17.2292 21.1387L17.9973 22.6748C17.2319 23.9246 16.6736 25.2722 16.3311 26.6931L14.6409 27.2361C14.2583 27.3633 14 27.7212 14 28.125V31.875C14 32.2788 14.2583 32.6367 14.6409 32.7639L16.3313 33.3069C16.6736 34.7261 17.2322 36.0737 17.9976 37.3252L17.2292 38.8613C17.0488 39.2222 17.1194 39.658 17.405 39.9436L20.0564 42.595C20.344 42.8823 20.7798 42.9529 21.1387 42.7708L22.6748 42.0027C23.9263 42.7681 25.2742 43.3264 26.6931 43.6689L27.2361 45.3591C27.3633 45.7417 27.7212 46 28.125 46H31.875C32.2788 46 32.6367 45.7417 32.7639 45.3591L33.3069 43.6687C34.7261 43.3264 36.0737 42.7678 37.3252 42.0024L38.8613 42.7708C39.2212 42.9502 39.657 42.8806 39.9436 42.595L42.595 39.9436C42.8806 39.658 42.9512 39.2222 42.7708 38.8613L42.0027 37.3252C42.7681 36.0737 43.3264 34.7258 43.6689 33.3069L45.3591 32.7639C45.7417 32.6367 46 32.2788 46 31.875V28.125C46 27.7212 45.7417 27.3633 45.3591 27.2361ZM30 40.3125C24.3137 40.3125 19.6875 35.6863 19.6875 30C19.6875 24.3137 24.3137 19.6875 30 19.6875C35.6863 19.6875 40.3125 24.3137 40.3125 30C40.3125 35.6863 35.6863 40.3125 30 40.3125Z" fill="white"/>
</g>
<defs>
<clipPath id="clip0_470_38179">
<rect width="32" height="32" fill="white" transform="translate(14 14)"/>
</clipPath>
</defs>
</svg>
