<svg width="80" height="80" viewBox="0 0 80 80" fill="none" xmlns="http://www.w3.org/2000/svg">
<g clip-path="url(#clip0_470_29800)">
<path d="M9.41039 61.1766H7.05745H2.35156V58.8236V56.4707H7.05745H9.41039L11.7633 58.8236L9.41039 61.1766Z" fill="#FF6326"/>
<path d="M9.41016 30.5883V48.2354V68.2354H20.6196H39.9984L41.567 50.1439L39.9984 30.5883L26.9265 28.2354L9.41016 30.5883Z" fill="#ECEAE7"/>
<path d="M59.3788 68.2354H70.5882V48.2354V30.5884L54.1225 29.502L40 30.5884V37.6472L58.8235 68.2354H59.3788Z" fill="#E7DFDD"/>
<path d="M40 37.6465V52.9406V68.2347H49.4118H58.8235V52.9406V37.6465H49.4118H40Z" fill="#C30047"/>
<path d="M35.2934 51.7641H28.2346H21.1758V44.7053V37.6465H28.2346H35.2934V44.7053V51.7641Z" fill="#00DDC1"/>
<path d="M12.4687 0L6.90712 15.2941L1.3457 30.5882H39.999L41.5677 14.5882L39.999 0H12.4687Z" fill="#FF6326"/>
<path d="M73.0919 15.2941L67.5305 0H40V30.5882H78.6533L73.0919 15.2941Z" fill="#FF1F3D"/>
<path d="M25.887 80.0005C29.7854 80.0005 32.9458 76.8401 32.9458 72.9416C32.9458 69.0432 29.7854 65.8828 25.887 65.8828C21.9885 65.8828 18.8281 69.0432 18.8281 72.9416C18.8281 76.8401 21.9885 80.0005 25.887 80.0005Z" fill="#5C6366"/>
<path d="M54.1213 80.0005C58.0198 80.0005 61.1801 76.8401 61.1801 72.9416C61.1801 69.0432 58.0198 65.8828 54.1213 65.8828C50.2228 65.8828 47.0625 69.0432 47.0625 72.9416C47.0625 76.8401 50.2228 80.0005 54.1213 80.0005Z" fill="#41474D"/>
</g>
<defs>
<clipPath id="clip0_470_29800">
<rect width="80" height="80" fill="white"/>
</clipPath>
</defs>
</svg>
