<svg width="32" height="32" viewBox="0 0 32 32" fill="none" xmlns="http://www.w3.org/2000/svg">
<path d="M27.4473 24.6162C27.7594 24.3123 27.2992 23.8422 26.9884 24.1453C26.4775 24.6427 25.6607 24.8473 24.9546 24.6525C24.1263 24.4235 23.3938 23.6829 22.3226 23.7536C22.9763 23.1381 24.1264 23.5167 24.5561 22.0789C24.659 21.7339 24.6779 21.391 24.6961 21.0592C24.7192 20.6318 24.0637 20.5766 24.0394 21.0233C23.9342 22.9466 23.2291 22.458 22.2943 22.9706C23.7964 19.7229 24.2958 15.974 23.6614 12.3713C23.644 12.2737 23.5839 12.1889 23.4974 12.141C23.4962 12.1404 23.4947 12.1405 23.4935 12.1398C24.2066 10.7171 24.3494 8.94552 24.4642 7.45007C24.4817 7.21685 24.2571 7.04072 24.0385 7.11103C23.8853 7.15876 23.7268 7.20836 23.5663 7.25946C23.335 6.68658 22.9619 6.12408 22.4724 5.62729C22.3701 5.52327 22.2117 5.49887 22.0839 5.56779C21.668 5.78889 21.2971 6.0489 20.9766 6.34315C20.7302 5.79917 20.4276 5.27188 20.1282 4.77969C20.0268 4.61326 19.8083 4.5736 19.6543 4.68423C18.7358 5.35102 18.1227 6.04671 17.6932 6.90828C17.3712 6.72029 17.0386 6.54012 16.7007 6.36258C16.2515 4.93476 15.4969 3.59947 14.8097 2.38885C14.7165 2.22511 14.4787 2.14348 14.2839 2.32801C14.186 2.42076 14.0645 2.57972 13.855 2.8271C13.2241 2.36846 12.441 2.01407 11.5813 1.80366C11.4379 1.76856 11.29 1.8332 11.217 1.9612C10.9299 2.46826 10.7264 2.98795 10.6029 3.51091C9.95456 3.08224 9.24972 2.71173 8.57533 2.37815C8.39946 2.29158 8.19142 2.37579 8.12285 2.55452C7.63508 3.81875 7.4894 4.91818 7.65201 6.07731C7.02798 6.08438 6.42112 6.11836 5.86108 6.15255C5.62477 6.16712 5.47978 6.4204 5.58925 6.632C6.29004 7.98779 7.07384 9.49298 8.18597 10.7403C7.79687 10.7233 7.39308 10.7471 6.98651 10.8229C6.83689 10.8508 6.72602 10.9779 6.71853 11.1299C6.69958 11.5089 6.72896 11.8747 6.80018 12.2245C6.27733 12.1527 5.73699 12.1234 5.2044 12.1059C4.96532 12.1211 4.84851 12.2916 4.86643 12.4676C4.96275 13.4267 5.21847 14.1886 5.68332 14.8945C5.30982 15.0731 4.95349 15.26 4.62349 15.4355C4.4124 15.5474 4.38691 15.8434 4.5809 15.989C5.50936 16.6835 6.46636 17.3947 7.56228 17.8834C7.41871 17.9866 7.28889 18.0973 7.177 18.2198C7.08828 18.3168 7.07097 18.4523 7.11795 18.5665C7.10716 19.0413 7.11363 19.475 7.48988 19.9294C9.42093 22.2613 13.6637 22.9987 16.4809 24.6264C16.8581 24.8444 17.7378 25.303 18.238 25.4888L16.9931 26.9976C16.5462 27.534 16.0841 28.0888 16.43 28.998C16.5769 29.3842 16.9012 29.6648 17.2658 29.7318C18.0676 30.1043 18.4215 29.6118 18.9441 29.6743C19.4516 29.735 19.6561 30.2419 20.4238 30.1683C21.1052 30.2972 21.7037 30.0885 22.2189 29.6319C22.6779 29.4004 22.9126 28.813 23.2817 28.4854C23.5868 28.2146 24.0657 28.3266 24.4525 28.1973C24.7705 28.091 25.0141 27.802 25.0784 27.4735C25.317 27.0721 25.2275 26.5255 24.8527 26.1333C24.3461 25.6027 23.196 25.2911 21.75 24.734C21.7769 24.6965 21.7903 24.6816 21.823 24.609C21.8231 24.609 21.8231 24.6089 21.8232 24.6089C22.152 24.3092 22.7429 24.3893 23.1485 24.5507C23.8753 24.8387 24.4859 25.3811 25.4955 25.3811C26.2164 25.3811 26.9439 25.1067 27.4473 24.6162ZM20.6243 24.6496C20.2731 24.7903 19.8229 24.9581 19.458 25.037C19.456 25.0357 19.4551 25.0335 19.4531 25.0323C16.297 22.9792 9.98602 21.5042 7.87831 18.4682C9.3853 17.2846 12.263 18.0595 13.464 15.7604L13.4923 15.7069C14.6111 13.5691 14.131 13.5783 17.4623 13.6136C19.393 13.6417 21.2567 13.5248 23.0777 12.8752C23.7027 16.9793 22.8163 21.2447 20.6243 24.6496ZM9.21146 14.3276C9.20868 14.3178 9.20526 14.3079 9.20162 14.2981L9.20247 14.2977C8.97786 13.4732 9.0664 12.5983 9.23889 11.7494C10.0001 12.3543 10.8459 12.7902 11.7237 13.031C12.3417 13.7389 12.771 14.551 12.8609 15.4937C12.551 16.0737 12.2165 16.4235 11.213 16.7317C10.2929 16.1641 9.50894 15.3808 9.21146 14.3276ZM16.2212 11.8532C16.3719 12.2435 16.5647 12.6081 16.7897 12.9429C16.3127 12.9308 15.8166 12.9159 15.3283 12.9728C15.7127 12.5179 15.9394 12.277 16.2212 11.8532ZM13.8952 13.1968C14.1111 13.3197 14.1842 13.3316 14.2294 13.3463C13.8204 13.6483 13.5491 14.0974 13.3341 14.5342C13.191 14.0788 12.9706 13.6283 12.6863 13.2078C13.112 13.2444 13.4532 13.2309 13.8952 13.1968ZM22.6342 12.3304C21.5621 12.6819 20.4418 12.8715 19.0616 12.9338C19.1317 9.91884 20.9212 8.79104 23.7708 7.88414C23.6465 9.41996 23.4528 11.0327 22.6342 12.3304ZM22.1749 6.2707C22.5108 6.64634 22.7692 7.05441 22.9415 7.46682C22.4531 7.63634 21.9549 7.83465 21.4763 8.07475C21.4449 7.71869 21.3603 7.36354 21.2424 7.01235C21.5075 6.7356 21.8159 6.48442 22.1749 6.2707ZM19.7543 5.4338C20.3387 6.41925 20.8497 7.44718 20.8286 8.43498C20.5788 8.59262 20.3454 8.77241 20.1234 8.96569C19.6357 8.27621 18.9885 7.73383 18.2598 7.25882C18.5972 6.56329 19.0651 5.98217 19.7543 5.4338ZM19.6492 9.43129C18.7718 10.4299 18.4272 11.6387 18.4037 12.9568C18.1253 12.9618 17.8602 12.9607 17.6267 12.9579C17.1823 12.4321 16.8458 11.7815 16.6513 11.0441C17.0947 9.96344 17.235 8.68493 16.9259 7.23025C18.0072 7.82428 18.9663 8.44818 19.6492 9.43129ZM14.4685 3.12044C16.2991 6.36349 17.5477 9.4718 15.0606 12.2711C14.6505 12.7333 14.6801 12.8171 14.399 12.7129C13.3272 12.3153 9.8047 8.58635 14.4685 3.12044ZM11.6697 2.507C12.3353 2.69632 12.9373 2.981 13.4337 3.33475C13.0114 3.85546 12.6057 4.4064 12.2624 4.99362C11.9647 4.60043 11.5968 4.24946 11.1876 3.93016C11.2701 3.45381 11.4297 2.97629 11.6697 2.507ZM8.61236 3.13157C9.89709 3.78097 11.2366 4.56736 11.9155 5.65014C11.7575 5.98699 11.6317 6.33855 11.5324 6.70103C10.5141 6.26332 9.40097 6.11488 8.31677 6.08395C8.16443 5.1083 8.25457 4.17898 8.61236 3.13157ZM11.387 7.35937C11.1007 9.3282 12.0445 11.369 13.1391 12.5693C11.7069 12.5585 10.3355 11.8829 9.28467 10.927C8.02075 9.77413 7.18321 8.27156 6.40581 6.77883C8.08823 6.68181 9.86112 6.65478 11.387 7.35937ZM7.37071 11.4274C7.80872 11.3704 8.23648 11.3784 8.63002 11.4441C8.54216 11.8498 8.47069 12.2634 8.43439 12.6784C8.1453 12.5396 7.83612 12.436 7.51374 12.3579C7.42797 12.0636 7.37587 11.7539 7.37071 11.4274ZM5.56934 12.778C6.61244 12.8254 7.64993 12.9471 8.41531 13.4175C8.42323 13.6427 8.44447 13.8669 8.48493 14.0895C7.71871 14.1245 6.98324 14.3385 6.29895 14.6205C5.92109 14.0739 5.68401 13.4904 5.56934 12.778ZM8.61964 14.7373C8.63141 14.7373 8.64292 14.7383 8.65456 14.7383C8.98572 15.685 9.5912 16.3678 10.361 16.9466C9.67914 17.0958 8.95587 17.2305 8.32105 17.4815C7.2505 17.0975 6.30136 16.4463 5.3919 15.7733C6.38077 15.2587 7.47238 14.7583 8.61964 14.7373ZM24.3771 26.5871C24.5214 26.7382 24.6109 26.9882 24.5113 27.1448C24.2985 27.4796 23.4874 27.3312 22.8784 27.6456C22.6337 27.2569 22.313 26.9022 21.9422 26.6196C21.5968 26.3561 21.1973 26.879 21.5437 27.1427C22.0916 27.5604 22.2621 27.9271 22.3967 28.0871C22.2151 28.3775 22.1353 28.7536 21.9797 28.9411C21.3865 29.6531 20.5421 29.7074 19.9827 29.2788C19.7266 29.0812 19.4857 28.7719 19.1321 28.6201L19.384 27.8687C19.5219 27.4566 18.8986 27.2464 18.7603 27.6598C18.6864 27.8841 18.4842 28.4707 18.4598 28.5747C18.0257 28.6949 17.729 29.0787 17.4531 29.0918C17.2776 29.0892 17.1074 28.9291 17.0447 28.7643C16.7825 28.075 17.0498 27.9846 18.902 25.7175C19.5463 25.8122 20.445 25.4358 21.0773 25.1753C22.5179 25.7577 23.9807 26.1721 24.3771 26.5871Z" fill="#08080C"/>
<path d="M15.5848 17.3799C15.3436 17.0181 14.7962 17.3826 15.0377 17.7446C15.4949 18.4304 15.8883 19.1641 16.207 19.9261C16.3736 20.3255 16.9827 20.0771 16.8136 19.6727C16.4789 18.8718 16.0653 18.1004 15.5848 17.3799Z" fill="#08080C"/>
<path d="M18.2258 17.2219C18.9873 18.9912 19.5387 20.8508 19.8645 22.7485C19.9383 23.1764 20.5859 23.0661 20.5126 22.6371C20.178 20.6885 19.6119 18.7788 18.8298 16.9616C18.6576 16.5627 18.054 16.8219 18.2258 17.2219Z" fill="#08080C"/>
</svg>
