<svg width="61" height="60" viewBox="0 0 61 60" fill="none" xmlns="http://www.w3.org/2000/svg">
<rect x="0.5" width="60" height="60" rx="30" fill="#1F8578"/>
<g clip-path="url(#clip0_470_70708)">
<path d="M44.9888 33.2771C44.4768 33.1619 43.9583 33.2636 43.5109 33.5581L38.5884 36.9439C38.9341 37.9878 38.8316 38.8639 38.2563 39.5879C37.7372 40.2407 36.9308 40.6119 36.0603 40.6119C35.8747 40.6119 35.6891 40.5921 35.4971 40.5607L29.7048 39.511C29.3591 39.4464 29.1287 39.1142 29.1927 38.7685C29.2568 38.4165 29.5832 38.1862 29.9358 38.2495L35.7275 39.2998C36.3291 39.4086 36.9244 39.2096 37.2572 38.7942C37.4491 38.551 37.5324 38.2495 37.5003 37.8853C37.4427 37.1621 36.9051 36.5663 36.2266 36.3108L28.4055 33.3539C27.2855 32.9314 26.1141 32.7202 24.9173 32.7202H24.3668C23.5732 32.7202 22.7732 32.8162 22.0052 33.0083L14.9841 34.7428C14.8177 34.7805 14.6769 34.8894 14.5872 35.0372C14.4976 35.1908 14.4785 35.363 14.5232 35.5294L16.1937 41.7121C16.2769 42.0199 16.5714 42.2177 16.8849 42.18L22.5684 41.5329L30.1528 44.6825C30.7416 44.9187 31.3561 45.0409 31.9705 45.0409C32.5593 45.0409 33.1481 44.9321 33.705 44.7145L39.6061 42.3912C39.6829 42.3656 39.7533 42.3208 39.8109 42.2631L45.8977 36.5477C46.5633 35.9262 46.6913 34.9086 46.2112 34.1341C45.9297 33.6925 45.5008 33.3859 44.9888 33.2771V33.2771Z" fill="white"/>
<path d="M46.4988 15.599C46.4988 15.247 46.2172 14.959 45.8587 14.959H24.9994C24.6474 14.959 24.3594 15.247 24.3594 15.599V22.4263H46.4988V15.599ZM28.526 19.575C28.526 19.9289 28.2399 20.215 27.886 20.215C27.532 20.215 27.2459 19.9289 27.2459 19.575V17.7617C27.2459 17.4078 27.532 17.1217 27.886 17.1217C28.2399 17.1217 28.526 17.4079 28.526 17.7617V19.575ZM31.0996 19.575C31.0996 19.9289 30.8134 20.215 30.4595 20.215C30.1062 20.215 29.8195 19.9289 29.8195 19.575V17.7617C29.8195 17.4078 30.1062 17.1217 30.4595 17.1217C30.8134 17.1217 31.0996 17.4079 31.0996 17.7617V19.575ZM42.974 19.2549H34.4463C34.0923 19.2549 33.8063 18.9688 33.8063 18.6149C33.8063 18.261 34.0923 17.9749 34.4463 17.9749H42.974C43.328 17.9749 43.6141 18.261 43.6141 18.6149C43.6141 18.9688 43.328 19.2549 42.974 19.2549Z" fill="white"/>
<path d="M24.3594 30.5311C24.3594 30.8895 24.6474 31.1712 24.9994 31.1712H45.8587C46.2165 31.1712 46.4987 30.8895 46.4987 30.5311V23.7064H24.3594V30.5311ZM34.4463 26.8778H42.9741C43.328 26.8778 43.6142 27.1639 43.6142 27.5178C43.6142 27.8718 43.328 28.1579 42.9741 28.1579H34.4463C34.0923 28.1579 33.8062 27.8718 33.8062 27.5178C33.8062 27.1639 34.0923 26.8778 34.4463 26.8778ZM29.8195 26.5578C29.8195 26.2039 30.1063 25.9177 30.4596 25.9177C30.8135 25.9177 31.0996 26.2039 31.0996 26.5578V28.3717C31.0996 28.7256 30.8135 29.0116 30.4596 29.0116C30.1063 29.0116 29.8195 28.7255 29.8195 28.3717V26.5578ZM27.2459 26.5578C27.2459 26.2039 27.5321 25.9177 27.8859 25.9177C28.2398 25.9177 28.526 26.2039 28.526 26.5578V28.3717C28.526 28.7256 28.2398 29.0116 27.8859 29.0116C27.532 29.0116 27.2459 28.7255 27.2459 28.3717V26.5578Z" fill="white"/>
</g>
<defs>
<clipPath id="clip0_470_70708">
<rect width="32" height="32" fill="white" transform="translate(14.5 14)"/>
</clipPath>
</defs>
</svg>
