<svg width="32" height="32" viewBox="0 0 32 32" fill="none" xmlns="http://www.w3.org/2000/svg">
<g clip-path="url(#clip0_530_27506)">
<path fill-rule="evenodd" clip-rule="evenodd" d="M25.1576 10.2542C24.9889 10.2542 24.8577 10.1793 24.764 10.048C24.6327 9.84183 24.689 9.56063 24.8952 9.42941C25.645 8.96075 26.0574 8.4546 26.0762 8.04218C26.1137 7.76098 25.9075 7.55477 25.9075 7.55477C25.72 7.4048 25.7013 7.08611 25.87 6.89865C26.0387 6.72993 26.3386 6.69244 26.5261 6.8799C26.5823 6.93614 27.0698 7.36731 26.9948 8.11716C26.9385 8.84827 26.3949 9.56063 25.3826 10.198C25.3076 10.2355 25.2326 10.2542 25.1576 10.2542Z" fill="#08080C"/>
<path fill-rule="evenodd" clip-rule="evenodd" d="M21.4827 13.2349C21.464 13.2349 21.4265 13.2349 21.4077 13.2349C21.1453 13.2349 20.9766 13.0287 20.9766 12.7662C20.9766 12.5225 21.1828 12.2975 21.4265 12.335C23.6385 12.3913 24.7071 9.65431 24.7071 9.63557C24.7821 9.39186 25.0633 9.26064 25.307 9.37312C25.5319 9.4481 25.6631 9.7293 25.5694 9.973C25.5132 10.1042 24.2947 13.2349 21.4827 13.2349Z" fill="#08080C"/>
<path fill-rule="evenodd" clip-rule="evenodd" d="M21.0704 13.2724C20.0581 13.2724 19.1957 12.935 18.5209 12.2601C16.6837 10.4417 16.74 6.76742 16.815 5.68013C16.815 5.66139 16.815 5.6239 16.815 5.60515C16.8337 5.51142 16.8712 5.41769 16.8899 5.38019C17.4148 3.58054 18.9895 0.599876 21.689 0.674861C22.0264 0.637369 24.1448 0.468652 25.5695 1.91212C26.6755 3.05565 27.0692 4.87404 26.6755 7.29232C26.638 7.55477 26.4131 7.70474 26.1694 7.68599C25.9069 7.62975 25.7382 7.42354 25.7757 7.16109C26.1131 5.00527 25.832 3.46807 24.9134 2.5495C23.7136 1.33098 21.8015 1.55594 21.764 1.55594C21.7452 1.55594 21.7265 1.55594 21.689 1.55594C19.8331 1.48095 18.3522 3.59929 17.7523 5.6239C17.7148 5.68013 17.7148 5.73637 17.696 5.79261C17.5836 7.81722 17.9023 10.3855 19.1583 11.604C19.7206 12.1851 20.4518 12.4101 21.3516 12.3351C21.614 12.2976 21.8202 12.4851 21.8577 12.7475C21.8765 13.01 21.689 13.2162 21.4266 13.2349C21.3328 13.2349 21.2016 13.2724 21.0704 13.2724Z" fill="#08080C"/>
<path fill-rule="evenodd" clip-rule="evenodd" d="M26.2076 7.66719L23.4331 7.61095C23.1707 7.61095 23.002 7.40474 23.002 7.14229C23.002 6.87985 23.2082 6.69238 23.4706 6.69238L26.2451 6.74862C26.5075 6.74862 26.6762 6.95483 26.6762 7.21728C26.6762 7.44224 26.47 7.66719 26.2076 7.66719Z" fill="#08080C"/>
<path fill-rule="evenodd" clip-rule="evenodd" d="M23.8262 7.61106C23.6387 7.61106 23.4888 7.49858 23.4138 7.34861C23.3388 7.21739 21.6891 3.93678 17.5087 5.8864C17.2837 5.99888 17.0213 5.8864 16.9088 5.66144C16.8151 5.41774 16.9088 5.17404 17.1525 5.06156C22.1578 2.71827 24.2386 6.8987 24.2574 6.93619C24.3698 7.16115 24.2574 7.4236 24.0512 7.53608C23.9574 7.61106 23.9012 7.61106 23.8262 7.61106Z" fill="#08080C"/>
<path fill-rule="evenodd" clip-rule="evenodd" d="M23.4328 7.61099H20.4146C20.3021 7.61099 20.1897 7.55475 20.1147 7.47976C19.6648 7.02985 18.2963 5.94256 17.2465 6.14877C16.7966 6.26125 16.4216 6.61743 16.1404 7.27355C16.028 7.49851 15.7655 7.61099 15.5406 7.49851C15.3156 7.40478 15.2031 7.14233 15.3156 6.89863C15.6905 5.94256 16.2904 5.39892 17.0778 5.24895C18.5212 4.94901 20.1147 6.26125 20.6021 6.69242H23.4328C23.6952 6.69242 23.9014 6.89863 23.9014 7.16107C23.9014 7.42352 23.6952 7.61099 23.4328 7.61099Z" fill="#08080C"/>
<path fill-rule="evenodd" clip-rule="evenodd" d="M29.9188 27.4447C28.1004 27.4447 24.3136 24.8952 23.8825 24.5952C23.6763 24.464 23.62 24.1828 23.7513 23.9579C23.8825 23.7516 24.1637 23.7142 24.3699 23.8454C25.4384 24.5577 28.4191 26.4136 29.7688 26.5074C29.9563 26.2262 30.4812 25.0639 30.9311 20.1524C31.0998 18.5964 31.0998 18.5964 29.8063 17.7153C29.6376 17.6028 29.4689 17.4716 29.2439 17.3404C27.1818 15.9719 24.1637 14.3785 24.1449 14.3597C23.9012 14.2473 23.8262 13.9661 23.9575 13.7411C24.0512 13.4974 24.3511 13.4224 24.5761 13.5536C24.5948 13.5724 27.6692 15.1658 29.8251 16.6093C30.0313 16.7405 30.2187 16.8717 30.3687 16.9842C31.9059 18.0153 32.1121 18.2215 31.9247 20.2461C31.3248 26.6948 30.5937 27.1635 30.2937 27.3697C30.2187 27.4259 30.1438 27.4447 30.05 27.4447C29.975 27.4447 29.9563 27.4447 29.9188 27.4447Z" fill="#08080C"/>
<path fill-rule="evenodd" clip-rule="evenodd" d="M22.6639 31.3439C22.2328 31.3439 21.8016 31.2689 21.4079 31.0814C18.9147 30.2753 14.9405 29.0756 13.9282 29.0756C13.9094 29.0756 13.9094 29.0756 13.8719 29.0756C11.1724 29.338 9.35405 29.0006 8.45423 28.1008C7.85434 27.5009 7.91058 26.8448 7.91058 26.7885C7.92933 26.5636 8.11679 26.3761 8.34175 26.3761H13.3658C13.6095 26.3761 13.8344 26.5823 13.8344 26.8448C13.8344 27.1072 13.6095 27.3134 13.3658 27.3134H8.94163C8.99787 27.3697 9.05411 27.4447 9.0916 27.5196C9.52277 27.9133 10.6663 28.5132 13.7782 28.232H13.7969C15.1467 28.157 21.0143 30.0504 21.6891 30.2753C21.7266 30.2753 21.7266 30.2753 21.7454 30.2941C22.4952 30.6315 23.3763 30.5378 23.92 30.0129C23.9574 29.9942 27.613 26.5448 28.0816 26.2449C28.2879 26.1137 28.569 26.2074 28.7003 26.4136C28.8315 26.6198 28.7565 26.901 28.5503 27.0322C28.2691 27.2197 25.9821 29.338 24.5573 30.669C24.0512 31.1002 23.3763 31.3439 22.6639 31.3439Z" fill="#08080C"/>
<path fill-rule="evenodd" clip-rule="evenodd" d="M20.0018 20.546C19.9831 20.546 19.9831 20.546 19.9643 20.546C19.7769 20.5085 19.6269 20.3772 19.5707 20.2085L18.6334 16.7405C18.6334 16.7217 18.6334 16.703 18.6334 16.6655L18.3896 14.5659C18.3896 14.4909 18.3896 14.4159 18.4271 14.3597L19.1957 12.2976C19.2707 12.0726 19.5707 11.9414 19.7956 12.0539C20.0393 12.1289 20.1706 12.41 20.0581 12.635L19.3082 14.5846L19.5332 16.5342L20.1893 18.8963L21.3891 16.7967C21.3891 16.7967 21.3891 16.7967 21.3891 16.7779C21.4078 16.7405 21.4078 16.7217 21.4266 16.703L23.9011 13.966L23.3387 11.9976C23.245 11.7539 23.4137 11.5102 23.6386 11.4165C23.8823 11.3415 24.1448 11.5102 24.2198 11.7352L24.8571 13.9472C24.9134 14.0972 24.8571 14.2472 24.7634 14.3784L22.5326 16.8529L24.351 17.7902L26.1694 14.9033C26.3006 14.6971 26.5818 14.6221 26.788 14.7721C26.9942 14.9033 27.0692 15.1845 26.9192 15.3907L24.8384 18.6151C24.7072 18.8213 24.4447 18.8775 24.2385 18.7651L21.9327 17.584L20.3955 20.2835C20.3205 20.4335 20.1706 20.546 20.0018 20.546Z" fill="#08080C"/>
<path fill-rule="evenodd" clip-rule="evenodd" d="M17.1718 18.7463C17.1344 18.7463 17.0781 18.7463 17.0219 18.7276C16.8719 18.6713 16.7594 18.5401 16.7032 18.3901L16.1595 15.447C16.1033 15.2408 16.2345 15.0158 16.4407 14.9221L18.6903 14.0972C18.9153 14.0222 19.1777 14.116 19.2714 14.3597C19.3839 14.5846 19.2527 14.8471 19.0277 14.9596L17.1531 15.6532L17.5093 17.4153L18.8215 16.2718C18.9902 16.1218 19.2714 16.1218 19.4589 16.328C19.6276 16.5155 19.6276 16.7967 19.4027 16.9842L17.5093 18.6338C17.3781 18.6901 17.2843 18.7463 17.1718 18.7463Z" fill="#08080C"/>
<path fill-rule="evenodd" clip-rule="evenodd" d="M13.4035 27.2946H11.6789C10.9665 27.2946 10.4229 26.7135 10.4229 26.0386C10.4229 25.3638 11.004 24.8014 11.6789 24.8014L14.0596 24.8951H14.1159L22.0268 26.2261C22.3455 26.2823 23.2828 25.8699 24.9888 20.7522L25.1012 20.4335C25.1762 20.2085 25.4387 20.0773 25.6636 20.1523C25.9073 20.2273 26.0386 20.4897 25.9636 20.7147L25.8511 21.0334C24.7263 24.3515 23.489 27.3884 21.8769 27.1259L14.0034 25.8137L11.6789 25.7012C11.4914 25.7012 11.3414 25.8699 11.3414 26.0386C11.3414 26.2448 11.4914 26.3761 11.6789 26.3761H13.4035C13.666 26.3761 13.8722 26.5823 13.8722 26.8447C13.8722 27.1072 13.666 27.2946 13.4035 27.2946Z" fill="#08080C"/>
<path fill-rule="evenodd" clip-rule="evenodd" d="M8.37942 27.2947H1.25581C0.562199 27.2947 0.0185547 26.751 0.0185547 26.0386V16.5343C0.0185547 15.8594 0.580945 15.297 1.25581 15.297H12.8411C13.5347 15.297 14.0783 15.8406 14.0783 16.5343V25.3263C14.0783 25.57 13.8721 25.7762 13.6284 25.7762C13.3659 25.7762 13.1597 25.57 13.1597 25.3263V16.5343C13.1597 16.3655 12.991 16.1968 12.8223 16.1968H1.23707C1.0496 16.1968 0.899633 16.3655 0.899633 16.5343V26.0386C0.899633 26.2261 1.0496 26.3761 1.23707 26.3761H8.34193C8.60438 26.3761 8.81059 26.5823 8.81059 26.8447C8.81059 27.1072 8.64187 27.2947 8.37942 27.2947Z" fill="#08080C"/>
<path fill-rule="evenodd" clip-rule="evenodd" d="M8.37985 27.2947C8.1174 27.2947 7.9112 27.0884 7.9112 26.826V15.7657C7.9112 15.5032 8.1174 15.297 8.37985 15.297C8.6423 15.297 8.84851 15.5032 8.84851 15.7657V26.8447C8.81102 27.1072 8.6423 27.2947 8.37985 27.2947ZM5.69913 27.2947C5.43668 27.2947 5.23047 27.0884 5.23047 26.826V15.7657C5.23047 15.5032 5.43668 15.297 5.69913 15.297C5.96158 15.297 6.16779 15.5032 6.16779 15.7657V26.8447C6.16779 27.1072 5.96158 27.2947 5.69913 27.2947Z" fill="#08080C"/>
<path fill-rule="evenodd" clip-rule="evenodd" d="M13.6283 17.659C13.4596 17.659 13.3284 17.5841 13.2347 17.4528C13.1034 17.2466 13.1597 16.9467 13.3659 16.8342C14.7344 15.8969 16.3465 14.9783 16.3653 14.9783C16.5715 14.8471 16.8714 14.9221 17.0027 15.1658C17.1339 15.372 17.0402 15.6532 16.8152 15.7844C16.7965 15.7844 15.2218 16.703 13.872 17.6028C13.797 17.6216 13.7221 17.659 13.6283 17.659Z" fill="#08080C"/>
<path fill-rule="evenodd" clip-rule="evenodd" d="M19.7021 22.3644C19.4396 22.3644 19.2334 22.1207 19.2522 21.8957L19.2709 21.4271C19.2709 21.1646 19.5146 20.9772 19.7396 20.9772C20.002 20.9772 20.1895 21.2209 20.1895 21.4458L20.1707 21.9145C20.1332 22.1769 19.9645 22.3644 19.7021 22.3644Z" fill="#08080C"/>
<path fill-rule="evenodd" clip-rule="evenodd" d="M19.4963 24.2765H19.4588C19.1963 24.2577 19.0276 24.0515 19.0463 23.7891L19.0651 23.3204C19.1026 23.0579 19.3088 22.8705 19.5712 22.908C19.8337 22.9267 20.0024 23.1329 19.9837 23.3954L19.9649 23.864C19.9087 24.089 19.7212 24.2765 19.4963 24.2765Z" fill="#08080C"/>
</g>
<defs>
<clipPath id="clip0_530_27506">
<rect width="32" height="32" fill="white"/>
</clipPath>
</defs>
</svg>
