<svg width="60" height="60" viewBox="0 0 60 60" fill="none" xmlns="http://www.w3.org/2000/svg">
<rect width="60" height="60" rx="30" fill="#1F8578"/>
<path d="M38.971 16H21.029C18.2559 16 16 18.2559 16 21.029V38.9709C16 41.7441 18.2559 44 21.029 44H38.971C41.7441 44 44 41.7441 44 38.971V21.029C44 18.2559 41.7441 16 38.971 16ZM39.6627 37.851H30.689C29.9003 40.1856 26.5871 40.1892 25.7973 37.851H20.3373C19.2478 37.851 19.2475 36.2039 20.3373 36.2039H25.7973C26.5859 33.8693 29.8992 33.8657 30.689 36.2039H39.6627C40.7522 36.2039 40.7525 37.851 39.6627 37.851ZM39.6627 30.8235H37.7165C36.9278 33.1581 33.6146 33.1617 32.8247 30.8235H20.3373C19.2478 30.8235 19.2475 29.1765 20.3373 29.1765H32.8247C33.6134 26.8419 36.9266 26.8383 37.7165 29.1765H39.6628C40.7522 29.1765 40.7525 30.8235 39.6627 30.8235ZM39.6627 23.7961H27.1753C26.3866 26.1307 23.0734 26.1343 22.2835 23.7961H20.3373C19.2478 23.7961 19.2475 22.149 20.3373 22.149H22.2835C23.0722 19.8144 26.3854 19.8108 27.1753 22.149H39.6627C40.7522 22.149 40.7525 23.7961 39.6627 23.7961Z" fill="white"/>
<path d="M27.9918 36.9647C26.5805 36.9647 26.5812 39.098 27.9918 39.098C29.403 39.0981 29.4023 36.9647 27.9918 36.9647Z" fill="white"/>
<path d="M23.9762 20.902C22.5649 20.902 22.5656 23.0353 23.9762 23.0353C25.3874 23.0354 25.3867 20.902 23.9762 20.902Z" fill="white"/>
<path d="M36.023 28.9333C34.6117 28.9333 34.6125 31.0667 36.023 31.0667C37.4344 31.0667 37.4336 28.9333 36.023 28.9333Z" fill="white"/>
</svg>
