<svg width="32" height="32" viewBox="0 0 32 32" fill="none" xmlns="http://www.w3.org/2000/svg">
<path d="M5.5 24C6.05228 24 6.5 23.5523 6.5 23C6.5 22.4477 6.05228 22 5.5 22C4.94772 22 4.5 22.4477 4.5 23C4.5 23.5523 4.94772 24 5.5 24Z" fill="#08080C"/>
<path d="M26 24C26.5523 24 27 23.5523 27 23C27 22.4477 26.5523 22 26 22C25.4477 22 25 22.4477 25 23C25 23.5523 25.4477 24 26 24Z" fill="#08080C"/>
<path d="M14.5 19H16.5C16.6326 19 16.7598 18.9473 16.8536 18.8536C16.9473 18.7598 17 18.6326 17 18.5C17 18.3674 16.9473 18.2402 16.8536 18.1464C16.7598 18.0527 16.6326 18 16.5 18H14.5C14.3674 18 14.2402 18.0527 14.1464 18.1464C14.0527 18.2402 14 18.3674 14 18.5C14 18.6326 14.0527 18.7598 14.1464 18.8536C14.2402 18.9473 14.3674 19 14.5 19Z" fill="#08080C"/>
<path d="M9.5 18H7.5C7.36739 18 7.24021 18.0527 7.14645 18.1464C7.05268 18.2402 7 18.3674 7 18.5C7 18.6326 7.05268 18.7598 7.14645 18.8536C7.24021 18.9473 7.36739 19 7.5 19H9.5C9.63261 19 9.75979 18.9473 9.85355 18.8536C9.94732 18.7598 10 18.6326 10 18.5C10 18.3674 9.94732 18.2402 9.85355 18.1464C9.75979 18.0527 9.63261 18 9.5 18Z" fill="#08080C"/>
<path d="M11 13H13C13.1326 13 13.2598 12.9473 13.3536 12.8536C13.4473 12.7598 13.5 12.6326 13.5 12.5C13.5 12.3674 13.4473 12.2402 13.3536 12.1464C13.2598 12.0527 13.1326 12 13 12H11C10.8674 12 10.7402 12.0527 10.6464 12.1464C10.5527 12.2402 10.5 12.3674 10.5 12.5C10.5 12.6326 10.5527 12.7598 10.6464 12.8536C10.7402 12.9473 10.8674 13 11 13Z" fill="#08080C"/>
<path d="M30.5 20C30.5 20 30.4991 15.4678 30.4976 15.4518C30.4969 15.4447 28.3057 9.70181 28.3057 9.70181C28.1683 9.34898 27.9279 9.04566 27.6158 8.8313C27.3037 8.61695 26.9343 8.50149 26.5557 8.49994H22.25C21.9905 8.4997 21.7343 8.55751 21.5 8.66912V7.25C21.4996 6.9186 21.3678 6.60087 21.1335 6.36654C20.8991 6.1322 20.5814 6.00038 20.25 6H3.75C3.4186 6.00038 3.10087 6.1322 2.86654 6.36654C2.6322 6.60087 2.50038 6.9186 2.5 7.25V8H1.5C1.36739 8 1.24021 8.05268 1.14645 8.14645C1.05268 8.24021 1 8.36739 1 8.5C1 8.63261 1.05268 8.75979 1.14645 8.85355C1.24021 8.94732 1.36739 9 1.5 9H2.5V10H1.5C1.36739 10 1.24021 10.0527 1.14645 10.1464C1.05268 10.2402 1 10.3674 1 10.5C1 10.6326 1.05268 10.7598 1.14645 10.8536C1.24021 10.9473 1.36739 11 1.5 11H2.5V12H1.5C1.36739 12 1.24021 12.0527 1.14645 12.1464C1.05268 12.2402 1 12.3674 1 12.5C1 12.6326 1.05268 12.7598 1.14645 12.8536C1.24021 12.9473 1.36739 13 1.5 13H2.5V20H1.5C1.36739 20 1.24021 20.0527 1.14645 20.1464C1.05268 20.2402 1 20.3674 1 20.5V22.5C1 22.6326 1.05268 22.7598 1.14645 22.8536C1.24021 22.9473 1.36739 23 1.5 23H2.5C2.5 23.7956 2.81607 24.5587 3.37868 25.1213C3.94129 25.6839 4.70435 26 5.5 26C6.29565 26 7.05871 25.6839 7.62132 25.1213C8.18393 24.5587 8.5 23.7956 8.5 23H23C23 23.7956 23.3161 24.5587 23.8787 25.1213C24.4413 25.6839 25.2044 26 26 26C26.7956 26 27.5587 25.6839 28.1213 25.1213C28.6839 24.5587 29 23.7956 29 23H30.5C30.6326 23 30.7598 22.9473 30.8536 22.8536C30.9473 22.7598 31 22.6326 31 22.5V20.5C31 20.3674 30.9473 20.2402 30.8536 20.1464C30.7598 20.0527 30.6326 20 30.5 20ZM2.672 22H2V21H3.26631C3.00492 21.2914 2.80303 21.6311 2.672 22ZM5.5 25C5.10444 25 4.71776 24.8827 4.38886 24.6629C4.05996 24.4432 3.80362 24.1308 3.65224 23.7654C3.50087 23.3999 3.46126 22.9978 3.53843 22.6098C3.6156 22.2219 3.80608 21.8655 4.08579 21.5858C4.36549 21.3061 4.72186 21.1156 5.10982 21.0384C5.49778 20.9613 5.89991 21.0009 6.26537 21.1522C6.63082 21.3036 6.94318 21.56 7.16294 21.8889C7.3827 22.2178 7.5 22.6044 7.5 23C7.4994 23.5303 7.2885 24.0386 6.91356 24.4136C6.53861 24.7885 6.03025 24.9994 5.5 25ZM5.5 20V15H6.5V16.5C6.5 16.6326 6.55268 16.7598 6.64645 16.8536C6.74021 16.9473 6.86739 17 7 17H10C10.1326 17 10.2598 16.9473 10.3536 16.8536C10.4473 16.7598 10.5 16.6326 10.5 16.5V15H11.5V20H5.5ZM10.5 11H13.5C13.6326 11 13.7598 10.9473 13.8536 10.8536C13.9473 10.7598 14 10.6326 14 10.5V9H15V14H9V9H10V10.5C10 10.6326 10.0527 10.7598 10.1464 10.8536C10.2402 10.9473 10.3674 11 10.5 11ZM11 10V9H13V10H11ZM14 17H17C17.1326 17 17.2598 16.9473 17.3536 16.8536C17.4473 16.7598 17.5 16.6326 17.5 16.5V15H18.5V20H12.5V15H13.5V16.5C13.5 16.6326 13.5527 16.7598 13.6464 16.8536C13.7402 16.9473 13.8674 17 14 17ZM16.5 16H14.5V15H16.5V16ZM9.5 15V16H7.5V15H9.5ZM20.5 22H8.328C8.19697 21.6311 7.99508 21.2914 7.73369 21H20.5V22ZM20.5 10.25V20H19.5V14.5C19.5 14.3674 19.4473 14.2402 19.3536 14.1464C19.2598 14.0527 19.1326 14 19 14H16V8.5C16 8.36739 15.9473 8.24021 15.8536 8.14645C15.7598 8.05268 15.6326 8 15.5 8H8.5C8.36739 8 8.24021 8.05268 8.14645 8.14645C8.05268 8.24021 8 8.36739 8 8.5V14H5C4.86739 14 4.74021 14.0527 4.64645 14.1464C4.55268 14.2402 4.5 14.3674 4.5 14.5V20H3.5V13H4.5C4.63261 13 4.75979 12.9473 4.85355 12.8536C4.94732 12.7598 5 12.6326 5 12.5C5 12.3674 4.94732 12.2402 4.85355 12.1464C4.75979 12.0527 4.63261 12 4.5 12H3.5V11H5.5C5.63261 11 5.75979 10.9473 5.85355 10.8536C5.94732 10.7598 6 10.6326 6 10.5C6 10.3674 5.94732 10.2402 5.85355 10.1464C5.75979 10.0527 5.63261 10 5.5 10H3.5V9H6C6.13261 9 6.25979 8.94732 6.35355 8.85355C6.44732 8.75979 6.5 8.63261 6.5 8.5C6.5 8.36739 6.44732 8.24021 6.35355 8.14645C6.25979 8.05268 6.13261 8 6 8H3.5V7.25C3.5 7.1837 3.52634 7.12011 3.57322 7.07322C3.62011 7.02634 3.6837 7 3.75 7H20.25C20.3163 7 20.3799 7.02634 20.4268 7.07322C20.4737 7.12011 20.5 7.1837 20.5 7.25V10.25ZM27.9258 11.5L29.272 15H23.5V11.5H27.9258ZM23.172 22H21.5V21H23.7663C23.5049 21.2914 23.303 21.6311 23.172 22ZM21.5 20V10.25C21.5002 10.0512 21.5793 9.86051 21.7199 9.71991C21.8605 9.5793 22.0512 9.50022 22.25 9.5H26.5557C26.7324 9.50071 26.9048 9.5546 27.0504 9.65464C27.1961 9.75469 27.3082 9.89626 27.3723 10.0609L27.5411 10.5H23C22.8674 10.5 22.7402 10.5527 22.6464 10.6464C22.5527 10.7402 22.5 10.8674 22.5 11V15.5C22.5 15.6326 22.5527 15.7598 22.6464 15.8536C22.7402 15.9473 22.8674 16 23 16H29.5V18H28C27.9072 18 27.8161 18.0259 27.7372 18.0747C27.6582 18.1235 27.5943 18.1933 27.5528 18.2764L26.691 20H21.5ZM26 25C25.6044 25 25.2178 24.8827 24.8889 24.6629C24.56 24.4432 24.3036 24.1308 24.1522 23.7654C24.0009 23.3999 23.9613 22.9978 24.0384 22.6098C24.1156 22.2219 24.3061 21.8655 24.5858 21.5858C24.8655 21.3061 25.2219 21.1156 25.6098 21.0384C25.9978 20.9613 26.3999 21.0009 26.7654 21.1522C27.1308 21.3036 27.4432 21.56 27.6629 21.8889C27.8827 22.2178 28 22.6044 28 23C27.9994 23.5303 27.7885 24.0386 27.4136 24.4136C27.0386 24.7885 26.5303 24.9994 26 25ZM27.809 20L28.309 19H29.5V20H27.809ZM30 22H28.828C28.697 21.6311 28.4951 21.2914 28.2337 21H30V22Z" fill="#08080C"/>
<path d="M25 17H23.5C23.3674 17 23.2402 17.0527 23.1464 17.1464C23.0527 17.2402 23 17.3674 23 17.5C23 17.6326 23.0527 17.7598 23.1464 17.8536C23.2402 17.9473 23.3674 18 23.5 18H25C25.1326 18 25.2598 17.9473 25.3536 17.8536C25.4473 17.7598 25.5 17.6326 25.5 17.5C25.5 17.3674 25.4473 17.2402 25.3536 17.1464C25.2598 17.0527 25.1326 17 25 17Z" fill="#08080C"/>
</svg>
