<svg width="30" height="30" viewBox="0 0 30 30" fill="none" xmlns="http://www.w3.org/2000/svg">
<g clip-path="url(#clip0_530_27561)">
<path fill-rule="evenodd" clip-rule="evenodd" d="M12.5771 11.3525C12.8145 11.3525 13.0068 11.1602 13.0068 10.9229V4.92296H16.74V10.9229C16.74 11.1602 16.9324 11.3525 17.1697 11.3525C17.407 11.3525 17.5994 11.1602 17.5994 10.9229V4.49327C17.5994 4.25596 17.407 4.06358 17.1697 4.06358H12.5771C12.3398 4.06358 12.1475 4.25596 12.1475 4.49327V10.9229C12.1475 11.1602 12.3398 11.3525 12.5771 11.3525Z" fill="#08080C"/>
<path fill-rule="evenodd" clip-rule="evenodd" d="M13.9844 6.33032C13.9844 6.56763 14.1768 6.76001 14.4141 6.76001H15.3326C15.5699 6.76001 15.7622 6.56763 15.7622 6.33032C15.7622 6.09302 15.5699 5.90064 15.3326 5.90064H14.4141C14.1768 5.90064 13.9844 6.09302 13.9844 6.33032Z" fill="#08080C"/>
<path fill-rule="evenodd" clip-rule="evenodd" d="M12.1475 8.16736C12.1475 8.40467 12.3398 8.59705 12.5771 8.59705H17.1697C17.407 8.59705 17.5994 8.40467 17.5994 8.16736C17.5994 7.93005 17.407 7.73768 17.1697 7.73768H12.5771C12.3398 7.73768 12.1475 7.93005 12.1475 8.16736Z" fill="#08080C"/>
<path fill-rule="evenodd" clip-rule="evenodd" d="M16.7402 6.33032C16.7402 6.56763 16.9326 6.76001 17.1699 6.76001H19.9255C20.1628 6.76001 20.3551 6.56763 20.3551 6.33032C20.3551 6.09302 20.1628 5.90064 19.9255 5.90064H17.1699C16.9326 5.90064 16.7402 6.09302 16.7402 6.33032Z" fill="#08080C"/>
<path fill-rule="evenodd" clip-rule="evenodd" d="M8.37102 11.328C8.59507 11.2498 8.71329 11.0048 8.63508 10.7808C8.34611 9.95298 8.2845 8.9911 8.30098 8.21616C8.30913 7.83253 8.33618 7.5029 8.3611 7.26995C8.37355 7.15361 8.38542 7.06178 8.39404 6.99982C8.39836 6.96885 8.40186 6.94538 8.4042 6.93008L8.40682 6.91334L8.40741 6.90974C8.4074 6.9098 8.40746 6.90939 7.98362 6.83876C7.55978 6.76812 7.55977 6.76821 7.55975 6.76831L7.55929 6.77111L7.55827 6.7774L7.55478 6.79969C7.55197 6.81801 7.5481 6.84401 7.54347 6.87709C7.54328 6.87848 7.54308 6.87988 7.54289 6.88129C7.53312 6.95145 7.5201 7.05236 7.50661 7.17854C7.47964 7.43063 7.45057 7.78514 7.4418 8.1979C7.42441 9.01575 7.4857 10.0957 7.82373 11.064C7.90194 11.288 8.14697 11.4063 8.37102 11.328ZM8.34509 4.42515C8.34508 4.42513 8.3451 4.42517 8.34509 4.42515C8.27179 4.26952 8.0937 4.19329 7.93069 4.24764C7.75279 4.30695 7.65672 4.49916 7.71596 4.67694C7.71596 4.67694 7.71597 4.67695 7.71596 4.67694M7.54347 6.87709L6.90069 4.94869C6.69136 4.32062 7.03082 3.64177 7.65889 3.43238C8.23515 3.24027 8.86395 3.50965 9.12262 4.05913L11.4042 8.90764C11.5053 9.12236 11.4131 9.37834 11.1984 9.47938C10.9837 9.58043 10.7277 9.48827 10.6266 9.27355L8.34509 4.42515" fill="#08080C"/>
<path fill-rule="evenodd" clip-rule="evenodd" d="M7.36138 6.07886C7.45657 6.29624 7.70996 6.3953 7.92734 6.30012L9.28755 5.70451C9.50493 5.60933 9.60399 5.35594 9.50881 5.13856C9.41362 4.92118 9.16023 4.82212 8.94285 4.9173L7.58264 5.5129C7.36526 5.60809 7.2662 5.86148 7.36138 6.07886Z" fill="#08080C"/>
<path fill-rule="evenodd" clip-rule="evenodd" d="M9.9263 7.25085C10.1613 7.28403 10.3787 7.12045 10.4118 6.88547C10.503 6.2402 10.6659 5.64146 10.8073 5.20195C10.8777 4.98293 10.9422 4.80525 10.9887 4.68322C11.012 4.62225 11.0307 4.57529 11.0434 4.54414L11.0576 4.50954L11.0609 4.50157L11.0616 4.50007C11.0616 4.50011 11.0616 4.50007 10.6667 4.33075C10.2717 4.16143 10.2717 4.16149 10.2717 4.16156L10.271 4.16316L10.2696 4.16655L10.2646 4.17825L10.2472 4.22068C10.2421 4.23308 10.2364 4.24735 10.23 4.26342C10.2176 4.29468 10.2027 4.33274 10.1858 4.37708C10.1346 4.51126 10.0649 4.70339 9.98917 4.9388C9.8382 5.40815 9.66098 6.05672 9.56092 6.76531C9.52773 7.00028 9.69132 7.21767 9.9263 7.25085ZM11.1604 0.944777C11.7658 0.895068 12.3127 1.30605 12.4333 1.90139L12.9987 4.92261C13.0423 5.15587 12.8886 5.38034 12.6553 5.42399C12.4221 5.46763 12.1976 5.31392 12.1539 5.08065L11.5906 2.06955C11.5554 1.90235 11.4013 1.78726 11.2308 1.80127C11.044 1.81658 10.9049 1.98038 10.9202 2.16728C10.9202 2.16727 10.9202 2.16729 10.9202 2.16728M10.23 4.26342L10.0637 2.23758C10.0096 1.57775 10.5006 0.998929 11.1604 0.944777" fill="#08080C"/>
<path d="M10.666 3.37085L12.1288 3.11544" stroke="#08080C" stroke-width="0.859371" stroke-miterlimit="10" stroke-linecap="round" stroke-linejoin="round"/>
<path fill-rule="evenodd" clip-rule="evenodd" d="M19.9248 11.3525C20.1621 11.3525 20.3545 11.1602 20.3545 10.9229V6.71073C20.3545 6.58112 20.406 6.45674 20.4976 6.36513L20.8781 5.98466C21.131 5.73184 21.273 5.38882 21.273 5.03135V3.57477C21.273 3.55845 21.2862 3.54521 21.3025 3.54521H22.221C22.2374 3.54521 22.2507 3.55852 22.2507 3.57477V5.03135C22.2507 5.38882 22.3927 5.73181 22.6455 5.98464L23.026 6.36511C23.1176 6.4567 23.1692 6.58112 23.1692 6.71073V10.9229C23.1692 11.1602 23.3615 11.3525 23.5988 11.3525C23.8362 11.3525 24.0285 11.1602 24.0285 10.9229V6.71073C24.0285 6.35328 23.8865 6.01028 23.6336 5.75744C23.6336 5.75743 23.6337 5.75746 23.6336 5.75744L23.2532 5.37697C23.1616 5.28536 23.11 5.16097 23.11 5.03135V3.57477C23.11 3.08377 22.7119 2.68584 22.221 2.68584H21.3025C20.8116 2.68584 20.4136 3.08384 20.4136 3.57477V5.03135C20.4136 5.16096 20.3621 5.28534 20.2705 5.37695C20.2705 5.37696 20.2705 5.37694 20.2705 5.37695L19.89 5.75742C19.6371 6.01025 19.4951 6.35327 19.4951 6.71073V10.9229C19.4951 11.1602 19.6875 11.3525 19.9248 11.3525Z" fill="#08080C"/>
<path d="M20.8428 4.95251H22.6798" stroke="#08080C" stroke-width="0.859371" stroke-miterlimit="10" stroke-linecap="round" stroke-linejoin="round"/>
<path fill-rule="evenodd" clip-rule="evenodd" d="M26.912 11.3272C27.1354 11.4073 27.3814 11.2912 27.4615 11.0678L28.0817 9.33862C28.5043 8.16022 27.8916 6.86238 26.7132 6.43982C25.5349 6.01715 24.2369 6.62984 23.8144 7.80821L23.1943 9.53746C23.1142 9.76084 23.2303 10.0069 23.4537 10.087C23.6771 10.1671 23.9231 10.0509 24.0032 9.82753L24.6233 8.09832C24.6233 8.09832 24.6233 8.09831 24.6233 8.09832C24.8857 7.36672 25.6915 6.98632 26.4231 7.24873C27.1547 7.51105 27.5351 8.31683 27.2727 9.04852C27.2727 9.04852 27.2727 9.04852 27.2727 9.04852L26.6526 10.7777C26.5725 11.0011 26.6887 11.2471 26.912 11.3272Z" fill="#08080C"/>
<path fill-rule="evenodd" clip-rule="evenodd" d="M28.0826 9.33878C28.1627 9.1154 28.0466 8.86938 27.8232 8.78927L26.9586 8.47921C26.7353 8.3991 26.4892 8.51524 26.4091 8.73862C26.329 8.962 26.4452 9.20803 26.6685 9.28813L27.5331 9.5982C27.7565 9.6783 28.0025 9.56216 28.0826 9.33878Z" fill="#08080C"/>
<path fill-rule="evenodd" clip-rule="evenodd" d="M25.3326 8.84086C25.4127 8.61748 25.2966 8.37145 25.0732 8.29135L24.2086 7.98128C23.9853 7.90118 23.7392 8.01732 23.6591 8.2407C23.579 8.46408 23.6952 8.7101 23.9185 8.79021L24.7831 9.10027C25.0065 9.18038 25.2525 9.06424 25.3326 8.84086Z" fill="#08080C"/>
<path fill-rule="evenodd" clip-rule="evenodd" d="M26.4234 7.24883C26.6468 7.32894 26.8928 7.21279 26.9729 6.98941L28.3682 3.0987C28.4483 2.87532 28.3322 2.6293 28.1088 2.54919C27.8854 2.46908 27.6394 2.58523 27.5593 2.8086L26.164 6.69932C26.0839 6.9227 26.2 7.16872 26.4234 7.24883Z" fill="#08080C"/>
<path fill-rule="evenodd" clip-rule="evenodd" d="M26.1509 7.11873C26.388 7.11015 26.5733 6.91094 26.5647 6.67379L26.4753 4.20224C26.4667 3.96509 26.2675 3.77979 26.0304 3.78837C25.7932 3.79695 25.6079 3.99616 25.6165 4.23332L25.7059 6.70487C25.7145 6.94202 25.9137 7.12731 26.1509 7.11873Z" fill="#08080C"/>
<path fill-rule="evenodd" clip-rule="evenodd" d="M26.7151 7.32105C26.8928 7.47839 27.1643 7.46192 27.3217 7.28427L28.9614 5.43285C29.1187 5.25519 29.1023 4.98363 28.9246 4.82629C28.747 4.66895 28.4754 4.68542 28.3181 4.86307L26.6783 6.7145C26.521 6.89215 26.5375 7.16371 26.7151 7.32105Z" fill="#08080C"/>
<path fill-rule="evenodd" clip-rule="evenodd" d="M21.7618 11.3525C21.9991 11.3525 22.1915 11.1602 22.1915 10.9229V9.08581C22.1915 8.34126 21.5879 7.73762 20.8433 7.73762H19.9248C19.6875 7.73762 19.4951 7.93 19.4951 8.16731C19.4951 8.40462 19.6875 8.597 19.9248 8.597H20.8433C21.1133 8.597 21.3321 8.81584 21.3321 9.08581V10.9229C21.3321 11.1602 21.5245 11.3525 21.7618 11.3525Z" fill="#08080C"/>
<path fill-rule="evenodd" clip-rule="evenodd" d="M12.6565 22.0381C11.16 22.2469 9.71742 21.3949 9.17776 19.9835L6.70971 13.5287C6.62496 13.307 6.37656 13.196 6.1549 13.2808C5.93324 13.3656 5.82226 13.6139 5.90701 13.8356L8.37507 20.2905C9.05767 22.0757 10.8823 23.1533 12.7753 22.8892L27.6489 20.8138C28.9957 20.6259 29.9981 19.4739 29.9981 18.114V10.927C29.9981 10.6897 29.8057 10.4973 29.5684 10.4973H5.34277C5.10546 10.4973 4.91309 10.6897 4.91309 10.927C4.91309 11.1643 5.10546 11.3567 5.34277 11.3567H29.1387V18.114C29.1387 19.0452 28.4524 19.834 27.5302 19.9627M27.5302 19.9627L12.6565 22.0381C12.6565 22.0381 12.6565 22.0381 12.6565 22.0381" fill="#08080C"/>
<path fill-rule="evenodd" clip-rule="evenodd" d="M5.762 12.253C5.98366 12.1683 6.09464 11.9199 6.00989 11.6982L4.70314 8.28065C4.70313 8.28064 4.70313 8.28064 4.70313 8.28063C4.36761 7.40305 3.52545 6.82346 2.5859 6.82346H1.09472C0.857416 6.82346 0.665039 7.01583 0.665039 7.25314C0.665039 7.49045 0.857416 7.68283 1.09472 7.68283H2.5859C3.16927 7.68283 3.69213 8.0427 3.90043 8.58753L3.90043 8.58755L5.20719 12.0052C5.29195 12.2268 5.54034 12.3378 5.762 12.253Z" fill="#08080C"/>
<path fill-rule="evenodd" clip-rule="evenodd" d="M5.7168 27.4589C5.7168 28.7107 6.73165 29.7256 7.98347 29.7256C9.23535 29.7256 10.2502 28.7107 10.2502 27.4589C10.2502 26.207 9.23534 25.1922 7.98347 25.1922C6.73166 25.1922 5.7168 26.207 5.7168 27.4589ZM7.98347 28.8662C7.20627 28.8662 6.57617 28.2361 6.57617 27.4589C6.57617 26.6817 7.20626 26.0516 7.98347 26.0516C8.76076 26.0516 9.39084 26.6817 9.39084 27.4589C9.39084 28.2361 8.76075 28.8662 7.98347 28.8662Z" fill="#08080C"/>
<path fill-rule="evenodd" clip-rule="evenodd" d="M7.55371 27.4589C7.55371 27.6962 7.74609 27.8885 7.9834 27.8885H7.98804C8.22535 27.8885 8.41772 27.6962 8.41772 27.4589C8.41772 27.2216 8.22535 27.0292 7.98804 27.0292H7.9834C7.74609 27.0292 7.55371 27.2216 7.55371 27.4589Z" fill="#08080C"/>
<path fill-rule="evenodd" clip-rule="evenodd" d="M25.4648 27.4589C25.4648 28.7107 26.4797 29.7256 27.7316 29.7256C28.9834 29.7256 29.9983 28.7107 29.9983 27.4589C29.9983 26.207 28.9834 25.1922 27.7316 25.1922C26.4797 25.1922 25.4648 26.207 25.4648 27.4589ZM27.7316 28.8662C26.9543 28.8662 26.3242 28.2361 26.3242 27.4589C26.3242 26.6817 26.9543 26.0516 27.7316 26.0516C28.5088 26.0516 29.1389 26.6817 29.1389 27.4589C29.1389 28.2361 28.5088 28.8662 27.7316 28.8662Z" fill="#08080C"/>
<path fill-rule="evenodd" clip-rule="evenodd" d="M27.3027 27.4589C27.3027 27.6962 27.4951 27.8885 27.7324 27.8885H27.737C27.9743 27.8885 28.1667 27.6962 28.1667 27.4589C28.1667 27.2216 27.9743 27.0292 27.737 27.0292H27.7324C27.4951 27.0292 27.3027 27.2216 27.3027 27.4589Z" fill="#08080C"/>
<path fill-rule="evenodd" clip-rule="evenodd" d="M9.3916 27.4589C9.3916 27.6962 9.58398 27.8885 9.82129 27.8885H24.0582C24.2955 27.8885 24.4879 27.6962 24.4879 27.4589C24.4879 27.2216 24.2955 27.0292 24.0582 27.0292H9.82129C9.58398 27.0292 9.3916 27.2216 9.3916 27.4589Z" fill="#08080C"/>
<path fill-rule="evenodd" clip-rule="evenodd" d="M8.58387 26.0185C8.80292 26.1097 9.05449 26.0062 9.14576 25.7871L10.6766 22.1131C10.7679 21.894 10.6643 21.6424 10.4453 21.5512C10.2262 21.4599 9.97466 21.5635 9.88339 21.7825L8.3525 25.4566C8.26123 25.6756 8.36481 25.9272 8.58387 26.0185Z" fill="#08080C"/>
<path fill-rule="evenodd" clip-rule="evenodd" d="M12.1438 21.0627C12.3727 20.9999 12.5073 20.7635 12.4445 20.5346L10.2807 12.6503C10.2179 12.4215 9.98144 12.2869 9.7526 12.3497C9.52375 12.4125 9.38915 12.6489 9.45195 12.8778L11.6157 20.7621C11.6785 20.9909 11.915 21.1255 12.1438 21.0627Z" fill="#08080C"/>
<path fill-rule="evenodd" clip-rule="evenodd" d="M24 19.4561C24.2373 19.4561 24.4297 19.2637 24.4297 19.0264V12.7641C24.4297 12.5268 24.2373 12.3344 24 12.3344C23.7627 12.3344 23.5703 12.5268 23.5703 12.7641V19.0264C23.5703 19.2637 23.7627 19.4561 24 19.4561Z" fill="#08080C"/>
<path fill-rule="evenodd" clip-rule="evenodd" d="M15.1193 20.7073C15.3534 20.6684 15.5117 20.4471 15.4728 20.213L14.2237 12.6936C14.1849 12.4595 13.9636 12.3013 13.7295 12.3402C13.4954 12.3791 13.3371 12.6004 13.376 12.8345L14.6251 20.3538C14.6639 20.5879 14.8852 20.7461 15.1193 20.7073Z" fill="#08080C"/>
<path fill-rule="evenodd" clip-rule="evenodd" d="M21.0723 19.8406C21.3096 19.8406 21.5019 19.6482 21.5019 19.4109V12.7641C21.5019 12.5268 21.3096 12.3344 21.0723 12.3344C20.835 12.3344 20.6426 12.5268 20.6426 12.7641V19.4109C20.6426 19.6482 20.835 19.8406 21.0723 19.8406Z" fill="#08080C"/>
<path fill-rule="evenodd" clip-rule="evenodd" d="M18.1686 20.2805C18.4055 20.2668 18.5865 20.0637 18.5728 19.8268L18.1634 12.7393C18.1497 12.5024 17.9465 12.3214 17.7096 12.3351C17.4727 12.3488 17.2917 12.552 17.3054 12.7889L17.7149 19.8763C17.7286 20.1132 17.9317 20.2942 18.1686 20.2805Z" fill="#08080C"/>
<path fill-rule="evenodd" clip-rule="evenodd" d="M26.8135 18.9495C27.0508 18.9495 27.2432 18.7571 27.2432 18.5198V12.7627C27.2432 12.5254 27.0508 12.3331 26.8135 12.3331C26.5762 12.3331 26.3838 12.5254 26.3838 12.7627V18.5198C26.3838 18.7571 26.5762 18.9495 26.8135 18.9495Z" fill="#08080C"/>
</g>
<defs>
<clipPath id="clip0_530_27561">
<rect width="29.3332" height="29.3332" fill="white" transform="translate(0.666992 0.666748)"/>
</clipPath>
</defs>
</svg>
