<svg width="71" height="70" viewBox="0 0 71 70" fill="none" xmlns="http://www.w3.org/2000/svg">
<path d="M70.5 35C70.5 54.33 54.83 70 35.5 70C16.17 70 0.5 54.33 0.5 35C0.5 15.67 16.17 0 35.5 0C54.83 0 70.5 15.67 70.5 35Z" fill="#E4F0EF"/>
<path d="M49.7217 26.9368C49.3337 26.3112 48.6489 25.9316 47.9127 25.9341H43.9996V23.8007C43.9996 22.9171 43.2832 22.2008 42.3996 22.2008H26.3996C25.516 22.2008 24.7996 22.9171 24.7996 23.8007V25.9341H22.1329C21.8384 25.9341 21.5996 26.1729 21.5996 26.4674C21.5996 26.7619 21.8384 27.0007 22.1329 27.0007H28.5329C28.8275 27.0007 29.0662 26.7619 29.0662 26.4674C29.0662 26.1729 28.8274 25.9341 28.5329 25.9341H25.8663V23.8007C25.8663 23.5062 26.1051 23.2674 26.3996 23.2674H42.3996C42.6942 23.2674 42.9329 23.5062 42.9329 23.8007V38.7341H25.8663V35.5341H28.533C28.8275 35.5341 29.0663 35.2953 29.0663 35.0007C29.0663 34.7062 28.8275 34.4674 28.533 34.4674H22.133C21.8384 34.4674 21.5997 34.7062 21.5997 35.0007C21.5997 35.2953 21.8385 35.5341 22.133 35.5341H24.7996V43.0007C24.7996 43.8844 25.516 44.6007 26.3996 44.6007H28.0423C28.3059 46.4364 29.8785 47.7992 31.733 47.7992C33.5875 47.7992 35.16 46.4364 35.4237 44.6007H41.3757C41.6393 46.4364 43.2119 47.7992 45.0664 47.7992C46.9209 47.7992 48.4934 46.4364 48.757 44.6007H50.3996C51.2832 44.6007 51.9996 43.8844 51.9996 43.0007V31.3458C51.9998 30.8461 51.8592 30.3564 51.5937 29.933L49.7217 26.9368ZM50.9329 36.6007H49.3329V35.5341H50.9329V36.6007ZM48.8172 27.5021L50.6898 30.4983C50.8486 30.7524 50.9329 31.0461 50.933 31.3457V31.8007H46.6663C46.3717 31.8007 46.133 31.5619 46.133 31.2674V27.0007H47.9127C48.2807 26.9997 48.623 27.1894 48.8172 27.5021ZM43.9996 27.0007H45.0663V31.2674C45.0663 32.1511 45.7827 32.8674 46.6663 32.8674H50.933V34.4674H49.333C48.7439 34.4674 48.2663 34.945 48.2663 35.5341V36.6008C48.2663 37.1899 48.7439 37.6675 49.333 37.6675H50.933V38.7342H43.9996V27.0007ZM31.7329 46.7341C30.2602 46.7341 29.0662 45.5401 29.0662 44.0674C29.0662 42.5946 30.2602 41.4007 31.7329 41.4007C33.2057 41.4007 34.3996 42.5946 34.3996 44.0674C34.3979 45.5394 33.205 46.7323 31.7329 46.7341ZM45.0663 46.7341C43.5935 46.7341 42.3996 45.5401 42.3996 44.0674C42.3996 42.5946 43.5935 41.4007 45.0663 41.4007C46.539 41.4007 47.733 42.5946 47.733 44.0674C47.7312 45.5394 46.5383 46.7323 45.0663 46.7341ZM50.9329 43.0007C50.9329 43.2953 50.6942 43.5341 50.3996 43.5341H48.7569C48.4933 41.6984 46.9207 40.3356 45.0662 40.3356C43.2117 40.3356 41.6392 41.6984 41.3755 43.5341H35.4235C35.1599 41.6984 33.5874 40.3356 31.7329 40.3356C29.8784 40.3356 28.3058 41.6984 28.0422 43.5341H26.3996C26.105 43.5341 25.8663 43.2952 25.8663 43.0007V41.9341H26.933C27.2275 41.9341 27.4663 41.6952 27.4663 41.4007C27.4663 41.1062 27.2275 40.8674 26.933 40.8674H25.8663V39.8008H50.933L50.9329 43.0007Z" fill="#08080C"/>
<path fill-rule="evenodd" clip-rule="evenodd" d="M46.6664 34.4675H45.5997C45.3052 34.4675 45.0664 34.7063 45.0664 35.0008C45.0664 35.2953 45.3052 35.5341 45.5997 35.5341H46.6664C46.961 35.5341 47.1997 35.2953 47.1997 35.0008C47.1997 34.7062 46.961 34.4675 46.6664 34.4675Z" fill="#08080C"/>
<path d="M31.7328 42.4675C31.0857 42.4675 30.5023 42.8573 30.2546 43.4552C30.007 44.053 30.1439 44.7412 30.6015 45.1988C31.0591 45.6565 31.7473 45.7933 32.3451 45.5457C32.943 45.298 33.3328 44.7146 33.3328 44.0675C33.3328 43.1838 32.6165 42.4675 31.7328 42.4675ZM31.7328 44.6008C31.4383 44.6008 31.1995 44.362 31.1995 44.0675C31.1995 43.7729 31.4383 43.5342 31.7328 43.5342C32.0274 43.5342 32.2661 43.7729 32.2661 44.0675C32.2661 44.362 32.0274 44.6008 31.7328 44.6008Z" fill="#08080C"/>
<path d="M45.0667 42.4674C44.4196 42.4674 43.8361 42.8572 43.5885 43.4551C43.3409 44.053 43.4778 44.7412 43.9353 45.1988C44.3929 45.6564 45.0811 45.7933 45.679 45.5456C46.2769 45.298 46.6667 44.7146 46.6667 44.0674C46.6667 43.1837 45.9503 42.4674 45.0667 42.4674ZM45.0667 44.6007C44.7721 44.6007 44.5334 44.362 44.5334 44.0674C44.5334 43.7729 44.7721 43.5341 45.0667 43.5341C45.3613 43.5341 45.6 43.7729 45.6 44.0674C45.6 44.362 45.3613 44.6007 45.0667 44.6007Z" fill="#08080C"/>
<path d="M39.733 24.8674H38.6663C38.1016 24.8697 37.6365 25.3116 37.6055 25.8754L36.2028 24.6152C35.7839 24.2387 35.1486 24.2387 34.7297 24.6152L29.4263 29.3794C29.0918 29.6764 28.9772 30.15 29.1388 30.5672C29.2971 30.9803 29.6906 31.2558 30.133 31.2632V36.6008C30.133 37.1899 30.6105 37.6675 31.1997 37.6675H39.733C40.3221 37.6675 40.7997 37.1899 40.7997 36.6008V31.2631C41.2414 31.2562 41.6347 30.9819 41.7938 30.5698C41.9555 30.1526 41.8406 29.6788 41.5058 29.382L40.7997 28.7453V25.9341C40.7997 25.345 40.3221 24.8674 39.733 24.8674ZM38.6663 25.934H39.733V27.7868L38.6663 26.8268V25.934ZM35.4903 25.4087L40.7693 30.2007H35.4663L30.1394 30.173L35.4903 25.4087ZM34.933 36.6007V35.0007C34.933 34.7062 35.1718 34.4674 35.4663 34.4674C35.7608 34.4674 35.9996 34.7062 35.9996 35.0007V36.6007H34.933ZM37.0663 36.6007V35.0007C37.0663 34.1171 36.35 33.4007 35.4663 33.4007C34.5827 33.4007 33.8663 34.1171 33.8663 35.0007V36.6007H31.1997V31.2674H39.733V36.6007H37.0663Z" fill="#08080C"/>
<path fill-rule="evenodd" clip-rule="evenodd" d="M20.5333 33.4007H26.4C26.6946 33.4007 26.9333 33.1619 26.9333 32.8674C26.9333 32.5729 26.6945 32.3341 26.4 32.3341H20.5333C20.2387 32.3341 20 32.5729 20 32.8674C20 33.162 20.2388 33.4007 20.5333 33.4007Z" fill="#08080C"/>
<path fill-rule="evenodd" clip-rule="evenodd" d="M26.4 28.0674H20.5333C20.2387 28.0674 20 28.3062 20 28.6007C20 28.8953 20.2388 29.1341 20.5333 29.1341H26.4C26.6946 29.1341 26.9333 28.8952 26.9333 28.6007C26.9333 28.3062 26.6946 28.0674 26.4 28.0674Z" fill="#08080C"/>
<path fill-rule="evenodd" clip-rule="evenodd" d="M21.5996 30.7341C21.5996 31.0286 21.8384 31.2674 22.1329 31.2674H27.4662C27.7608 31.2674 27.9995 31.0286 27.9995 30.7341C27.9995 30.4395 27.7607 30.2007 27.4662 30.2007H22.1329C21.8384 30.2007 21.5996 30.4396 21.5996 30.7341Z" fill="#08080C"/>
</svg>
