<svg width="40" height="37" viewBox="0 0 40 37" fill="none" xmlns="http://www.w3.org/2000/svg">
<g filter="url(#filter0_d_530_27332)">
<path d="M33.7217 7.93681C33.3337 7.31124 32.6489 6.93168 31.9127 6.93412H27.9996V4.80081C27.9996 3.91718 27.2832 3.20081 26.3996 3.20081H10.3996C9.51598 3.20081 8.79961 3.91718 8.79961 4.80081V6.93412H6.13292C5.83836 6.93412 5.59961 7.17293 5.59961 7.46743C5.59961 7.76193 5.83842 8.00074 6.13292 8.00074H12.5329C12.8275 8.00074 13.0662 7.76193 13.0662 7.46743C13.0662 7.17293 12.8274 6.93412 12.5329 6.93412H9.8663V4.80081C9.8663 4.50624 10.1051 4.26749 10.3996 4.26749H26.3996C26.6942 4.26749 26.9329 4.50631 26.9329 4.80081V19.7341H9.8663V16.5341H12.533C12.8275 16.5341 13.0663 16.2954 13.0663 16.0008C13.0663 15.7062 12.8275 15.4675 12.533 15.4675H6.13298C5.83842 15.4675 5.59967 15.7063 5.59967 16.0008C5.59967 16.2954 5.83848 16.5341 6.13298 16.5341H8.79961V24.0008C8.79961 24.8844 9.51598 25.6008 10.3996 25.6008H12.0423C12.3059 27.4364 13.8785 28.7993 15.733 28.7993C17.5875 28.7993 19.16 27.4364 19.4237 25.6008H25.3757C25.6393 27.4364 27.2119 28.7993 29.0664 28.7993C30.9209 28.7993 32.4934 27.4364 32.757 25.6008H34.3996C35.2832 25.6008 35.9996 24.8844 35.9996 24.0008V12.3459C35.9998 11.8461 35.8592 11.3565 35.5937 10.9331L33.7217 7.93681ZM34.9329 17.6008H33.3329V16.5341H34.9329V17.6008ZM32.8172 8.50212L34.6898 11.4984C34.8486 11.7525 34.9329 12.0461 34.933 12.3458V12.8007H30.6663C30.3717 12.8007 30.133 12.5619 30.133 12.2674V8.00074H31.9127C32.2807 7.99981 32.623 8.18949 32.8172 8.50212ZM27.9996 8.0008H29.0663V12.2675C29.0663 13.1512 29.7827 13.8675 30.6663 13.8675H34.933V15.4675H33.333C32.7439 15.4675 32.2663 15.9451 32.2663 16.5342V17.6009C32.2663 18.19 32.7439 18.6676 33.333 18.6676H34.933V19.7342H27.9996V8.0008ZM15.7329 27.7341C14.2602 27.7341 13.0662 26.5402 13.0662 25.0674C13.0662 23.5947 14.2602 22.4007 15.7329 22.4007C17.2057 22.4007 18.3996 23.5947 18.3996 25.0674C18.3979 26.5395 17.205 27.7324 15.7329 27.7341V27.7341ZM29.0663 27.7341C27.5935 27.7341 26.3996 26.5402 26.3996 25.0674C26.3996 23.5947 27.5935 22.4007 29.0663 22.4007C30.539 22.4007 31.733 23.5947 31.733 25.0674C31.7312 26.5395 30.5383 27.7324 29.0663 27.7341V27.7341ZM34.9329 24.0008C34.9329 24.2954 34.6942 24.5341 34.3996 24.5341H32.7569C32.4933 22.6985 30.9207 21.3356 29.0662 21.3356C27.2117 21.3356 25.6392 22.6985 25.3755 24.5341H19.4235C19.1599 22.6985 17.5874 21.3356 15.7329 21.3356C13.8784 21.3356 12.3058 22.6985 12.0422 24.5341H10.3996C10.105 24.5341 9.8663 24.2953 9.8663 24.0008V22.9341H10.933C11.2275 22.9341 11.4663 22.6953 11.4663 22.4008C11.4663 22.1062 11.2275 21.8675 10.933 21.8675H9.8663V20.8008H34.933V24.0008H34.9329Z" fill="#08080C"/>
<path fill-rule="evenodd" clip-rule="evenodd" d="M30.6664 15.4675H29.5997C29.3052 15.4675 29.0664 15.7063 29.0664 16.0008C29.0664 16.2954 29.3052 16.5342 29.5997 16.5342H30.6664C30.961 16.5342 31.1997 16.2954 31.1997 16.0008C31.1997 15.7063 30.961 15.4675 30.6664 15.4675Z" fill="#08080C"/>
<path d="M15.7328 23.4675C15.0857 23.4675 14.5023 23.8573 14.2546 24.4552C14.007 25.0531 14.1439 25.7413 14.6015 26.1989C15.0591 26.6565 15.7473 26.7934 16.3451 26.5457C16.943 26.2981 17.3328 25.7147 17.3328 25.0675C17.3328 24.1838 16.6165 23.4675 15.7328 23.4675V23.4675ZM15.7328 25.6008C15.4383 25.6008 15.1995 25.3621 15.1995 25.0675C15.1995 24.773 15.4383 24.5342 15.7328 24.5342C16.0274 24.5342 16.2661 24.773 16.2661 25.0675C16.2661 25.3621 16.0274 25.6008 15.7328 25.6008Z" fill="#08080C"/>
<path d="M29.0668 23.4675C28.4197 23.4675 27.8362 23.8573 27.5886 24.4552C27.341 25.0531 27.4779 25.7413 27.9354 26.1989C28.3931 26.6565 29.0813 26.7934 29.6791 26.5457C30.277 26.2981 30.6668 25.7147 30.6668 25.0675C30.6668 24.1838 29.9504 23.4675 29.0668 23.4675V23.4675ZM29.0668 25.6008C28.7722 25.6008 28.5335 25.3621 28.5335 25.0675C28.5335 24.773 28.7722 24.5342 29.0668 24.5342C29.3614 24.5342 29.6001 24.773 29.6001 25.0675C29.6001 25.3621 29.3614 25.6008 29.0668 25.6008Z" fill="#08080C"/>
<path d="M23.733 5.86746H22.6663C22.1016 5.86971 21.6365 6.31165 21.6055 6.87546L20.2028 5.61521C19.7839 5.23878 19.1486 5.23878 18.7297 5.61521L13.4263 10.3795C13.0918 10.6765 12.9772 11.1501 13.1388 11.5672C13.2971 11.9804 13.6906 12.2559 14.133 12.2632V17.6008C14.133 18.19 14.6105 18.6675 15.1997 18.6675H23.733C24.3221 18.6675 24.7997 18.19 24.7997 17.6008V12.2632C25.2414 12.2563 25.6347 11.982 25.7938 11.5698C25.9555 11.1527 25.8406 10.6789 25.5058 10.3821L24.7997 9.74534V6.93415C24.7997 6.34503 24.3221 5.86746 23.733 5.86746V5.86746ZM22.6663 6.93409H23.733V8.7869L22.6663 7.8269V6.93409ZM19.4903 6.40878L24.7693 11.2008H19.4663L14.1394 11.173L19.4903 6.40878ZM18.933 17.6008V16.0008C18.933 15.7062 19.1718 15.4675 19.4663 15.4675C19.7608 15.4675 19.9996 15.7063 19.9996 16.0008V17.6008H18.933ZM21.0663 17.6008V16.0008C21.0663 15.1171 20.35 14.4008 19.4663 14.4008C18.5827 14.4008 17.8663 15.1171 17.8663 16.0008V17.6008H15.1997V12.2675H23.733V17.6008H21.0663Z" fill="#08080C"/>
<path fill-rule="evenodd" clip-rule="evenodd" d="M4.53331 14.4009H10.4C10.6946 14.4009 10.9333 14.162 10.9333 13.8675C10.9333 13.573 10.6945 13.3342 10.4 13.3342H4.53331C4.23875 13.3342 4 13.573 4 13.8675C4 14.1621 4.23881 14.4009 4.53331 14.4009V14.4009Z" fill="#08080C"/>
<path fill-rule="evenodd" clip-rule="evenodd" d="M10.4 9.0675H4.53331C4.23875 9.0675 4 9.30632 4 9.60082C4 9.89538 4.23881 10.1341 4.53331 10.1341H10.4C10.6946 10.1341 10.9333 9.89532 10.9333 9.60082C10.9333 9.30626 10.6946 9.0675 10.4 9.0675Z" fill="#08080C"/>
<path fill-rule="evenodd" clip-rule="evenodd" d="M5.59961 11.7341C5.59961 12.0287 5.83842 12.2674 6.13292 12.2674H11.4662C11.7608 12.2674 11.9995 12.0287 11.9995 11.7341C11.9995 11.4396 11.7607 11.2008 11.4662 11.2008H6.13292C5.83842 11.2008 5.59961 11.4396 5.59961 11.7341V11.7341Z" fill="#08080C"/>
</g>
<defs>
<filter id="filter0_d_530_27332" x="0" y="0" width="40" height="40" filterUnits="userSpaceOnUse" color-interpolation-filters="sRGB">
<feFlood flood-opacity="0" result="BackgroundImageFix"/>
<feColorMatrix in="SourceAlpha" type="matrix" values="0 0 0 0 0 0 0 0 0 0 0 0 0 0 0 0 0 0 127 0" result="hardAlpha"/>
<feOffset dy="4"/>
<feGaussianBlur stdDeviation="2"/>
<feComposite in2="hardAlpha" operator="out"/>
<feColorMatrix type="matrix" values="0 0 0 0 0 0 0 0 0 0 0 0 0 0 0 0 0 0 0.25 0"/>
<feBlend mode="normal" in2="BackgroundImageFix" result="effect1_dropShadow_530_27332"/>
<feBlend mode="normal" in="SourceGraphic" in2="effect1_dropShadow_530_27332" result="shape"/>
</filter>
</defs>
</svg>
