<svg width="61" height="60" viewBox="0 0 61 60" fill="none" xmlns="http://www.w3.org/2000/svg">
<rect x="0.5" width="60" height="60" rx="30" fill="#1F8578"/>
<path d="M35.875 20H34.375V21C34.3738 21.3975 34.2154 21.7783 33.9344 22.0594C33.6533 22.3404 33.2725 22.4988 32.875 22.5H23.875C23.4775 22.4988 23.0967 22.3404 22.8156 22.0594C22.5346 21.7783 22.3762 21.3975 22.375 21V20H20.875C20.61 20.0008 20.3561 20.1064 20.1687 20.2937C19.9814 20.4811 19.8758 20.735 19.875 21V41C19.8758 41.265 19.9814 41.5189 20.1688 41.7062C20.3561 41.8936 20.61 41.9992 20.875 42H32.255C31.5172 40.9824 31.1215 39.7569 31.125 38.5C31.125 38.33 31.13 38.165 31.145 38H27.755C27.6233 37.9987 27.4974 37.9454 27.4047 37.8518C27.312 37.7582 27.26 37.6317 27.26 37.5C27.26 37.3683 27.312 37.2418 27.4047 37.1482C27.4974 37.0546 27.6233 37.0013 27.755 37H31.315C31.6371 35.754 32.3516 34.6446 33.3529 33.8361C34.3542 33.0275 35.5891 32.5625 36.875 32.51V21C36.8742 20.735 36.7686 20.4811 36.5813 20.2937C36.3939 20.1064 36.14 20.0008 35.875 20ZM22.385 26.275L22.91 26.895L25.15 24.685C25.2445 24.593 25.3714 24.542 25.5032 24.5432C25.6351 24.5443 25.7612 24.5974 25.8541 24.6909C25.9469 24.7845 25.9992 24.9109 25.9993 25.0428C25.9995 25.1746 25.9476 25.3012 25.855 25.395L23.385 27.835C23.3165 27.9036 23.2344 27.9572 23.1441 27.9924C23.0537 28.0276 22.957 28.0436 22.8601 28.0394C22.7632 28.0351 22.6683 28.0108 22.5813 27.9678C22.4943 27.9249 22.4173 27.8643 22.355 27.79L21.62 26.92C21.5363 26.8183 21.496 26.6878 21.5079 26.5566C21.5198 26.4254 21.583 26.3042 21.6837 26.2193C21.7844 26.1344 21.9145 26.0927 22.0458 26.1031C22.1771 26.1135 22.299 26.1753 22.385 26.275ZM22.385 31.275L22.91 31.895L25.15 29.685C25.2445 29.593 25.3714 29.542 25.5032 29.5432C25.6351 29.5443 25.7612 29.5974 25.8541 29.6909C25.9469 29.7845 25.9992 29.9109 25.9993 30.0428C25.9995 30.1746 25.9476 30.3012 25.855 30.395L23.385 32.835C23.3165 32.9036 23.2344 32.9572 23.1441 32.9924C23.0537 33.0276 22.957 33.0436 22.8601 33.0394C22.7632 33.0351 22.6683 33.0108 22.5813 32.9678C22.4943 32.9249 22.4173 32.8643 22.355 32.79L21.62 31.92C21.5363 31.8183 21.496 31.6878 21.5079 31.5566C21.5198 31.4254 21.583 31.3042 21.6837 31.2193C21.7844 31.1344 21.9145 31.0927 22.0458 31.1031C22.1771 31.1135 22.299 31.1753 22.385 31.275ZM26.355 35.895L23.885 38.335C23.8165 38.4036 23.7344 38.4572 23.6441 38.4924C23.5537 38.5276 23.457 38.5436 23.3601 38.5394C23.2632 38.5351 23.1683 38.5108 23.0813 38.4678C22.9943 38.4249 22.9173 38.3643 22.855 38.29L22.12 37.42C22.0358 37.3184 21.9951 37.1876 22.0069 37.0562C22.0186 36.9247 22.0818 36.8033 22.1827 36.7182C22.2836 36.6331 22.414 36.5914 22.5455 36.602C22.6771 36.6126 22.7991 36.6748 22.885 36.775L23.41 37.395L25.65 35.185C25.7445 35.093 25.8714 35.042 26.0032 35.0432C26.1351 35.0443 26.2612 35.0974 26.3541 35.1909C26.4469 35.2845 26.4992 35.4109 26.4993 35.5428C26.4995 35.6746 26.4476 35.8012 26.355 35.895ZM34.755 32.5H27.755C27.6224 32.5 27.4952 32.4473 27.4014 32.3536C27.3077 32.2598 27.255 32.1326 27.255 32C27.255 31.8674 27.3077 31.7402 27.4014 31.6464C27.4952 31.5527 27.6224 31.5 27.755 31.5H34.755C34.8867 31.5013 35.0126 31.5546 35.1053 31.6482C35.198 31.7418 35.25 31.8683 35.25 32C35.25 32.1317 35.198 32.2582 35.1053 32.3518C35.0126 32.4454 34.8867 32.4987 34.755 32.5ZM34.755 27.5H27.755C27.6224 27.5 27.4952 27.4473 27.4014 27.3536C27.3077 27.2598 27.255 27.1326 27.255 27C27.255 26.8674 27.3077 26.7402 27.4014 26.6464C27.4952 26.5527 27.6224 26.5 27.755 26.5H34.755C34.8867 26.5013 35.0126 26.5546 35.1053 26.6482C35.198 26.7418 35.25 26.8683 35.25 27C35.25 27.1317 35.198 27.2582 35.1053 27.3518C35.0126 27.4454 34.8867 27.4987 34.755 27.5Z" fill="white"/>
<path d="M37.125 33.5C36.1533 33.4999 35.2026 33.7831 34.3892 34.3148C33.5758 34.8464 32.935 35.6036 32.5451 36.4937C32.1552 37.3839 32.0331 38.3683 32.1939 39.3267C32.3546 40.285 32.7911 41.1758 33.45 41.89C33.6467 41.6159 33.8731 41.3644 34.125 41.14C34.9518 40.4056 36.0192 40 37.125 40C38.2308 40 39.2983 40.4056 40.125 41.14C40.377 41.3644 40.6033 41.6159 40.8 41.89C41.459 41.1758 41.8955 40.285 42.0562 39.3267C42.2169 38.3683 42.0949 37.3839 41.705 36.4937C41.3151 35.6036 40.6743 34.8464 39.8609 34.3148C39.0475 33.7831 38.0968 33.4999 37.125 33.5ZM37.125 39.5C36.7295 39.5 36.3428 39.3827 36.0139 39.1629C35.685 38.9432 35.4286 38.6308 35.2773 38.2654C35.1259 37.8999 35.0863 37.4978 35.1635 37.1098C35.2406 36.7219 35.4311 36.3655 35.7108 36.0858C35.9905 35.8061 36.3469 35.6156 36.7348 35.5384C37.1228 35.4613 37.5249 35.5009 37.8904 35.6522C38.2558 35.8036 38.5682 36.06 38.788 36.3889C39.0077 36.7178 39.125 37.1044 39.125 37.5C39.125 38.0304 38.9143 38.5391 38.5392 38.9142C38.1642 39.2893 37.6555 39.5 37.125 39.5Z" fill="white"/>
<path d="M39.3659 41.81C38.7368 41.2866 37.9443 41 37.1259 41C36.3076 41 35.515 41.2866 34.8859 41.81C34.6241 42.0242 34.3965 42.2771 34.2109 42.56C35.06 43.1712 36.0798 43.5 37.1259 43.5C38.1721 43.5 39.1918 43.1712 40.0409 42.56C39.8554 42.2771 39.6278 42.0242 39.3659 41.81Z" fill="white"/>
<path d="M37.125 38.5C37.6773 38.5 38.125 38.0523 38.125 37.5C38.125 36.9477 37.6773 36.5 37.125 36.5C36.5727 36.5 36.125 36.9477 36.125 37.5C36.125 38.0523 36.5727 38.5 37.125 38.5Z" fill="white"/>
<path d="M32.875 18.5H31.205C30.9978 17.9151 30.6145 17.4086 30.1077 17.0505C29.6009 16.6923 28.9956 16.5 28.375 16.5C27.7544 16.5 27.1491 16.6923 26.6423 17.0505C26.1355 17.4086 25.7522 17.9151 25.545 18.5H23.875C23.7425 18.5004 23.6156 18.5532 23.5219 18.6469C23.4282 18.7406 23.3754 18.8676 23.375 19V21C23.3754 21.1325 23.4282 21.2595 23.5219 21.3532C23.6156 21.4468 23.7425 21.4996 23.875 21.5H32.875C33.0075 21.4996 33.1344 21.4468 33.2281 21.3532C33.3218 21.2595 33.3746 21.1325 33.375 21V19C33.3746 18.8676 33.3218 18.7406 33.2281 18.6469C33.1344 18.5532 33.0075 18.5004 32.875 18.5ZM28.375 18.25C28.2761 18.25 28.1794 18.2207 28.0972 18.1658C28.015 18.1108 27.9509 18.0327 27.9131 17.9414C27.8752 17.85 27.8653 17.7495 27.8846 17.6525C27.9039 17.5555 27.9515 17.4664 28.0214 17.3965C28.0914 17.3266 28.1805 17.2789 28.2775 17.2596C28.3744 17.2404 28.475 17.2503 28.5663 17.2881C28.6577 17.3259 28.7358 17.39 28.7907 17.4723C28.8457 17.5545 28.875 17.6511 28.875 17.75C28.8746 17.8825 28.8218 18.0095 28.7281 18.1032C28.6344 18.1968 28.5075 18.2496 28.375 18.25Z" fill="white"/>
</svg>
