<svg width="61" height="60" viewBox="0 0 61 60" fill="none" xmlns="http://www.w3.org/2000/svg">
<rect x="0.5" width="60" height="60" rx="30" fill="#1F8578"/>
<path d="M23 34.14V23.86C22.9717 22.8674 23.3377 21.904 24.018 21.1806C24.6983 20.4572 25.6375 20.0327 26.63 20H36V19.03C35.9976 18.2351 35.6808 17.4734 35.1187 16.9113C34.5566 16.3492 33.7949 16.0324 33 16.03H21C20.2051 16.0324 19.4434 16.3492 18.8813 16.9113C18.3192 17.4734 18.0024 18.2351 18 19.03V41.03C18 41.8257 18.3161 42.5887 18.8787 43.1513C19.4413 43.714 20.2044 44.03 21 44.03H33C33.7956 44.03 34.5587 43.714 35.1213 43.1513C35.6839 42.5887 36 41.8257 36 41.03V38H26.63C25.6375 37.9674 24.6983 37.5429 24.018 36.8195C23.3377 36.0961 22.9717 35.1327 23 34.14Z" fill="white"/>
<path d="M25 33C25 33.7956 25.3161 34.5587 25.8787 35.1213C26.4413 35.6839 27.2044 36 28 36H41C41.7956 36 42.5587 35.6839 43.1213 35.1213C43.6839 34.5587 44 33.7956 44 33V29H25V33Z" fill="white"/>
<path d="M41 22H28C27.2044 22 26.4413 22.3161 25.8787 22.8787C25.3161 23.4413 25 24.2044 25 25V27H44V25C44 24.2044 43.6839 23.4413 43.1213 22.8787C42.5587 22.3161 41.7956 22 41 22Z" fill="white"/>
</svg>
