<svg width="60" height="60" viewBox="0 0 60 60" fill="none" xmlns="http://www.w3.org/2000/svg">
<rect width="60" height="60" rx="30" fill="#1F8578"/>
<path d="M35.164 19.6178L24.4004 24.3882L29.348 26.5811L40.1115 21.8105L35.164 19.6178Z" fill="white"/>
<path d="M22.7949 23.6761L33.5585 18.9057L29.8767 17.2742C29.7106 17.2005 29.5308 17.1625 29.3491 17.1625C29.1674 17.1625 28.9877 17.2005 28.8215 17.2742L18.5859 21.8107L22.7949 23.6761Z" fill="white"/>
<path d="M28.6967 27.7167L17.6289 22.8113V35.6168C17.6289 35.8689 17.7021 36.1155 17.8396 36.3268C17.9771 36.5381 18.173 36.7049 18.4034 36.807L28.6966 41.3689L28.6967 27.7167Z" fill="white"/>
<path d="M30 36.5104V41.3691L31.395 40.7508C30.4876 39.5233 29.9985 38.0368 30 36.5104Z" fill="white"/>
<path d="M37.1614 29.3489C38.5491 29.3478 39.9069 29.7523 41.0677 30.5127V22.8113L30 27.7167V36.5104C30.0021 34.6118 30.7573 32.7914 32.0999 31.4489C33.4425 30.1063 35.2628 29.3511 37.1614 29.3489Z" fill="white"/>
<path d="M37.1602 30.651C36.0013 30.651 34.8684 30.9946 33.9049 31.6385C32.9413 32.2823 32.1903 33.1974 31.7468 34.2681C31.3033 35.3388 31.1873 36.5169 31.4134 37.6535C31.6395 38.7901 32.1975 39.8341 33.017 40.6536C33.8364 41.473 34.8804 42.0311 36.0171 42.2572C37.1537 42.4832 38.3318 42.3672 39.4024 41.9237C40.4731 41.4803 41.3882 40.7292 42.0321 39.7657C42.6759 38.8021 43.0195 37.6693 43.0195 36.5104C43.0195 34.9564 42.4022 33.466 41.3034 32.3672C40.2045 31.2683 38.7142 30.651 37.1602 30.651ZM40.2246 35.6686L36.9694 38.9238C36.909 38.9842 36.8372 39.0322 36.7582 39.0649C36.6793 39.0976 36.5946 39.1145 36.5091 39.1145C36.4236 39.1145 36.339 39.0976 36.26 39.0649C36.181 39.0322 36.1093 38.9842 36.0488 38.9238L34.4212 37.2961C34.3014 37.1736 34.2348 37.0088 34.2358 36.8374C34.2368 36.666 34.3053 36.502 34.4265 36.3808C34.5476 36.2597 34.7117 36.1911 34.8831 36.1902C35.0544 36.1892 35.2192 36.2558 35.3418 36.3755L36.5091 37.5427L39.304 34.7479C39.3642 34.6863 39.436 34.6373 39.5153 34.6036C39.5946 34.57 39.6797 34.5524 39.7659 34.5519C39.852 34.5514 39.9374 34.568 40.017 34.6008C40.0967 34.6335 40.169 34.6817 40.2299 34.7426C40.2908 34.8035 40.3391 34.8759 40.3718 34.9555C40.4045 35.0352 40.4211 35.1205 40.4206 35.2067C40.4201 35.2928 40.4025 35.378 40.3689 35.4572C40.3352 35.5365 40.2862 35.6083 40.2246 35.6685V35.6686Z" fill="white"/>
</svg>
