<svg width="32" height="32" viewBox="0 0 32 32" fill="none" xmlns="http://www.w3.org/2000/svg">
<g clip-path="url(#clip0_530_27489)">
<path d="M8.00013 2.66664H8.53346C8.828 2.66664 9.0668 2.42784 9.0668 2.13331C9.0668 1.83878 8.828 1.59998 8.53346 1.59998H8.00013C7.7056 1.59998 7.4668 1.83878 7.4668 2.13331C7.4668 2.42784 7.7056 2.66664 8.00013 2.66664Z" fill="#08080C"/>
<path d="M10.6671 2.66664H11.2005C11.495 2.66664 11.7338 2.42784 11.7338 2.13331C11.7338 1.83878 11.495 1.59998 11.2005 1.59998H10.6671C10.3726 1.59998 10.1338 1.83878 10.1338 2.13331C10.1338 2.42784 10.3726 2.66664 10.6671 2.66664Z" fill="#08080C"/>
<path d="M31.4667 5.33333H19.2V2.66667C19.2 1.19393 18.0061 0 16.5333 0H2.66667C1.19393 0 0 1.19393 0 2.66667V26.6667C0 28.1394 1.19393 29.3333 2.66667 29.3333H12.8V31.4667C12.8 31.7612 13.0388 32 13.3333 32H24C24.2945 32 24.5333 31.7612 24.5333 31.4667V28.2667C24.5333 27.9721 24.2945 27.7333 24 27.7333H23.4667V27.5253C23.4671 27.4191 23.4987 27.3153 23.5573 27.2267L23.904 26.704C24.3144 26.0899 24.5334 25.3679 24.5333 24.6293V19.2H31.4667C31.7612 19.2 32 18.9612 32 18.6667V5.86667C32 5.57213 31.7612 5.33333 31.4667 5.33333ZM1.06667 2.66667C1.06933 1.78413 1.78413 1.06933 2.66667 1.06667H16.5333C17.4159 1.06933 18.1307 1.78413 18.1333 2.66667V3.2H1.06667V2.66667ZM1.06667 4.26667H18.1333V5.33333H16.5333C16.2388 5.33333 16 5.57213 16 5.86667V11.8347C15.3562 12.0827 14.932 12.7021 14.9333 13.392V18.1333H14.4C13.5175 18.136 12.8027 18.8508 12.8 19.7333V24H1.06667V4.26667ZM12.8 28.2667H2.66667C1.78413 28.264 1.06933 27.5492 1.06667 26.6667V25.0667H12.832C12.8993 25.6519 13.1039 26.2129 13.4293 26.704L13.776 27.2267C13.8347 27.3153 13.8662 27.4191 13.8667 27.5253V27.7333H13.3333C13.0388 27.7333 12.8 27.9721 12.8 28.2667ZM23.4667 30.9333H13.8667V28.8H23.4667V30.9333ZM23.4667 24.6293C23.4668 25.1569 23.3109 25.6727 23.0187 26.112L22.6667 26.6347C22.4916 26.8986 22.3988 27.2086 22.4 27.5253V27.7333H14.9333V27.5253C14.9345 27.2086 14.8417 26.8986 14.6667 26.6347L14.3147 26.112C14.0224 25.6727 13.8665 25.1569 13.8667 24.6293V19.7333C13.8667 19.4388 14.1055 19.2 14.4 19.2H14.9333V21.8667C14.9333 22.1612 15.1721 22.4 15.4667 22.4C15.7612 22.4 16 22.1612 16 21.8667V13.392C15.9911 13.1011 16.1984 12.8484 16.4853 12.8C16.6453 12.787 16.8025 12.8479 16.912 12.9653C17.0129 13.0609 17.0691 13.1944 17.0667 13.3333V19.7333C17.0667 20.0279 17.3055 20.2667 17.6 20.2667C17.8945 20.2667 18.1333 20.0279 18.1333 19.7333V17.0667C18.1333 16.7721 18.3721 16.5333 18.6667 16.5333C18.8107 16.5321 18.9484 16.5922 19.0453 16.6987C19.1463 16.7942 19.2024 16.9277 19.2 17.0667V19.7333C19.2 20.0279 19.4388 20.2667 19.7333 20.2667C20.0279 20.2667 20.2667 20.0279 20.2667 19.7333V17.6C20.2667 17.3055 20.5055 17.0667 20.8 17.0667C20.944 17.0654 21.0817 17.1255 21.1787 17.232C21.2796 17.3275 21.3357 17.4611 21.3333 17.6V19.7333C21.3333 20.0279 21.5721 20.2667 21.8667 20.2667C22.1612 20.2667 22.4 20.0279 22.4 19.7333V18.6667C22.4 18.3721 22.6388 18.1333 22.9333 18.1333C23.0773 18.1321 23.2151 18.1922 23.312 18.2987C23.4129 18.3942 23.4691 18.5277 23.4667 18.6667V24.6293ZM30.9333 18.1333H24.4373C24.3601 17.9111 24.2344 17.7089 24.0693 17.5413C23.6151 17.0947 22.9425 16.9531 22.3467 17.1787C22.2742 16.9119 22.1325 16.6691 21.936 16.4747C21.4219 15.9782 20.646 15.8704 20.016 16.208C19.9555 16.1111 19.8839 16.0216 19.8027 15.9413C19.3631 15.5088 18.7177 15.3603 18.1333 15.5573V13.3333C18.1357 12.9112 17.9685 12.5058 17.6693 12.208C17.4989 12.0388 17.2931 11.9095 17.0667 11.8293V6.4H30.9333V18.1333Z" fill="#08080C"/>
<path d="M4.26686 16.5333H3.73353C3.439 16.5333 3.2002 16.7721 3.2002 17.0667C3.2002 17.3612 3.439 17.6 3.73353 17.6H4.26686C4.5614 17.6 4.8002 17.3612 4.8002 17.0667C4.8002 16.7721 4.5614 16.5333 4.26686 16.5333Z" fill="#08080C"/>
<path d="M11.7329 16.5333H6.39954C6.10501 16.5333 5.86621 16.7721 5.86621 17.0667C5.86621 17.3612 6.10501 17.6 6.39954 17.6H11.7329C12.0274 17.6 12.2662 17.3612 12.2662 17.0667C12.2662 16.7721 12.0274 16.5333 11.7329 16.5333Z" fill="#08080C"/>
<path d="M4.26686 18.6666H3.73353C3.439 18.6666 3.2002 18.9054 3.2002 19.2C3.2002 19.4945 3.439 19.7333 3.73353 19.7333H4.26686C4.5614 19.7333 4.8002 19.4945 4.8002 19.2C4.8002 18.9054 4.5614 18.6666 4.26686 18.6666Z" fill="#08080C"/>
<path d="M10.6662 18.6666H6.39954C6.10501 18.6666 5.86621 18.9054 5.86621 19.2C5.86621 19.4945 6.10501 19.7333 6.39954 19.7333H10.6662C10.9607 19.7333 11.1995 19.4945 11.1995 19.2C11.1995 18.9054 10.9607 18.6666 10.6662 18.6666Z" fill="#08080C"/>
<path d="M4.26686 20.8H3.73353C3.439 20.8 3.2002 21.0388 3.2002 21.3334C3.2002 21.6279 3.439 21.8667 3.73353 21.8667H4.26686C4.5614 21.8667 4.8002 21.6279 4.8002 21.3334C4.8002 21.0388 4.5614 20.8 4.26686 20.8Z" fill="#08080C"/>
<path d="M10.6662 20.8H6.39954C6.10501 20.8 5.86621 21.0388 5.86621 21.3334C5.86621 21.6279 6.10501 21.8667 6.39954 21.8667H10.6662C10.9607 21.8667 11.1995 21.6279 11.1995 21.3334C11.1995 21.0388 10.9607 20.8 10.6662 20.8Z" fill="#08080C"/>
<path d="M22.9329 15.4667C23.522 15.4667 23.9995 14.9891 23.9995 14.4C23.9995 13.8109 23.522 13.3334 22.9329 13.3334C22.3438 13.3334 21.8662 13.8109 21.8662 14.4C21.8662 14.9891 22.3438 15.4667 22.9329 15.4667Z" fill="#08080C"/>
<path d="M25.5999 15.4667C26.189 15.4667 26.6665 14.9891 26.6665 14.4C26.6665 13.8109 26.189 13.3334 25.5999 13.3334C25.0108 13.3334 24.5332 13.8109 24.5332 14.4C24.5332 14.9891 25.0108 15.4667 25.5999 15.4667Z" fill="#08080C"/>
<path d="M20.7999 9.06667H21.3957L21.4698 9.6592V9.67467L21.8687 12.8661C21.9022 13.1338 22.1302 13.3343 22.3999 13.3333H26.1333C26.3629 13.3334 26.5668 13.1864 26.6394 12.9685L27.7061 9.76853C27.7991 9.48907 27.6481 9.18707 27.3686 9.094C27.3142 9.07587 27.2573 9.06667 27.1999 9.06667H22.4709L22.3957 8.4672C22.3623 8.20033 22.1355 8.00007 21.8666 8H20.7999C20.5054 8 20.2666 8.2388 20.2666 8.53333C20.2666 8.82787 20.5054 9.06667 20.7999 9.06667ZM26.4602 10.1333L25.7487 12.2667H22.8687L22.6021 10.1333H26.4602Z" fill="#08080C"/>
<path d="M10.6667 26.1333H8.53333C8.2388 26.1333 8 26.3721 8 26.6666C8 26.9612 8.2388 27.2 8.53333 27.2H10.6667C10.9612 27.2 11.2 26.9612 11.2 26.6666C11.2 26.3721 10.9612 26.1333 10.6667 26.1333Z" fill="#08080C"/>
<path d="M14.5301 6.94936L12.4058 6.41602C12.3634 6.40536 12.3199 6.39996 12.2762 6.40003H11.1999C10.9054 6.40003 10.6666 6.63883 10.6666 6.93336C10.6666 7.52249 10.1891 8.00003 9.59994 8.00003C9.0108 8.00003 8.53327 7.52249 8.53327 6.93336C8.53327 6.63883 8.29447 6.40003 7.99994 6.40003H6.91994C6.87607 6.40003 6.83233 6.40536 6.7898 6.41602L4.6698 6.94936C4.43273 7.00902 4.26653 7.22223 4.2666 7.46669V9.60003C4.2666 9.89456 4.5054 10.1334 4.79993 10.1334C4.8436 10.1334 4.88713 10.128 4.92953 10.1174L6.39994 9.74989V14.4C6.39994 14.6946 6.63874 14.9334 6.93327 14.9334H12.2666C12.5611 14.9334 12.7999 14.6946 12.7999 14.4V9.74989L14.2703 10.1174C14.5561 10.189 14.8457 10.0154 14.9173 9.72963C14.9279 9.68723 14.9333 9.64376 14.9333 9.60003V7.46669C14.9333 7.22223 14.7671 7.00902 14.5301 6.94936ZM13.8666 8.91683L12.3962 8.54936C12.2369 8.51023 12.0683 8.54603 11.9386 8.64643C11.8091 8.74743 11.7333 8.90249 11.7333 9.06669V13.8667H7.4666V9.06669C7.4666 8.77216 7.2278 8.53336 6.93327 8.53336C6.8896 8.53336 6.84607 8.53876 6.80367 8.54936L5.33327 8.91683V7.88269L6.9866 7.46669H7.53433C7.82773 8.60776 8.9906 9.29496 10.1317 9.00163C10.8849 8.80796 11.4729 8.21983 11.6666 7.46669H12.2106L13.8666 7.88269V8.91683Z" fill="#08080C"/>
</g>
<defs>
<clipPath id="clip0_530_27489">
<rect width="32" height="32" fill="white"/>
</clipPath>
</defs>
</svg>
