<svg width="20" height="21" viewBox="0 0 20 21" fill="none" xmlns="http://www.w3.org/2000/svg">
<g clip-path="url(#clip0_645_28807)">
<path d="M10 0.5C4.48578 0.5 0 4.98578 0 10.5C0 16.0142 4.48578 20.5 10 20.5C15.5142 20.5 20 16.0142 20 10.5C20 4.98578 15.5142 0.5 10 0.5ZM15.0684 8.38086L9.65164 13.7974C9.48914 13.9599 9.27582 14.0417 9.0625 14.0417C8.84918 14.0417 8.63586 13.9599 8.47336 13.7974L5.76508 11.0891C5.43915 10.7634 5.43915 10.2366 5.76508 9.91086C6.09085 9.58493 6.61743 9.58493 6.94336 9.91086L9.0625 12.03L13.8901 7.20258C14.2159 6.87665 14.7424 6.87665 15.0684 7.20258C15.3941 7.52835 15.3941 8.05493 15.0684 8.38086V8.38086Z" fill="#1F8578"/>
</g>
<defs>
<clipPath id="clip0_645_28807">
<rect width="20" height="20" fill="white" transform="translate(0 0.5)"/>
</clipPath>
</defs>
</svg>
