<svg width="61" height="60" viewBox="0 0 61 60" fill="none" xmlns="http://www.w3.org/2000/svg">
<rect x="0.5" width="60" height="60" rx="30" fill="#1F8578"/>
<g clip-path="url(#clip0_470_70673)">
<path d="M41.459 36.1311L40.3699 37.5837L41.8227 38.6738H38.5449C38.1388 37.1112 36.7292 35.9492 35.041 35.9492H25.959C24.2708 35.9492 22.8612 37.1112 22.4551 38.6738H20.4492C18.4457 38.6738 16.8164 37.0445 16.8164 35.041C16.8164 33.0375 18.4457 31.4082 20.4492 31.4082H22.4551C22.8612 32.9708 24.2708 34.1328 25.959 34.1328H35.041C36.7292 34.1328 38.1388 32.9708 38.5449 31.4082H40.5508C43.5557 31.4082 46 28.9639 46 25.959C46 22.9541 43.5557 20.5098 40.5508 20.5098H38.5449C38.1388 18.9471 36.7292 17.7852 35.041 17.7852H25.959C24.2708 17.7852 22.8612 18.9471 22.4551 20.5098H21.6602L18.2691 17.967L17.1802 19.4197L18.633 20.5098H15V22.3262H18.633L17.1802 23.4163L18.2691 24.8689L21.6602 22.3262H22.4551C22.8612 23.8888 24.2708 25.0508 25.959 25.0508H35.041C36.7292 25.0508 38.1388 23.8888 38.5449 22.3262H40.5508C42.5543 22.3262 44.1836 23.9555 44.1836 25.959C44.1836 27.9625 42.5543 29.5918 40.5508 29.5918H38.5449C38.1388 28.0292 36.7292 26.8672 35.041 26.8672H25.959C24.2708 26.8672 22.8612 28.0292 22.4551 29.5918H20.4492C17.4443 29.5918 15 32.0361 15 35.041C15 38.0459 17.4443 40.4902 20.4492 40.4902H22.4551C22.8612 42.0529 24.2708 43.2148 25.959 43.2148H35.041C36.7292 43.2148 38.1388 42.0529 38.5449 40.4902H41.8227L40.3699 41.5803L41.459 43.033L46 39.582L41.459 36.1311Z" fill="white"/>
</g>
<defs>
<clipPath id="clip0_470_70673">
<rect width="31" height="31" fill="white" transform="translate(15 15)"/>
</clipPath>
</defs>
</svg>
