<svg width="61" height="60" viewBox="0 0 61 60" fill="none" xmlns="http://www.w3.org/2000/svg">
<rect x="0.5" width="60" height="60" rx="30" fill="#1F8578"/>
<path d="M41.9542 39.1458C41.3097 37.2278 38.7411 36.0271 36.9097 35.2223C36.1923 34.9081 34.206 34.375 33.9673 33.4716C33.8819 33.1462 33.8934 32.8393 33.9635 32.5452C33.8531 32.5663 33.7411 32.5788 33.6252 32.5788H32.4319C31.4793 32.5788 30.7052 31.8038 30.7052 30.8518C30.7052 29.9004 31.4796 29.127 32.4319 29.127H33.6252C34.0195 29.127 34.3932 29.2604 34.6947 29.4985C35.1366 29.4396 35.5628 29.3452 35.9603 29.2214C36.4822 28.1279 36.8892 26.8204 36.9804 25.695C37.3699 20.8796 34.4179 18.0623 30.1852 18.5494C27.1078 18.9036 25.2694 21.1983 25.0707 24.1526C24.8697 27.1638 25.9862 29.3878 27.1721 31.0191C27.6915 31.7324 28.2371 32.191 28.1532 33.0505C28.0559 34.0668 26.9692 34.35 26.1919 34.6623C25.271 35.0322 24.279 35.5935 23.8105 35.8531C22.1967 36.7442 20.4255 37.8175 20.0275 39.2857C19.1459 42.5394 22.1231 43.525 24.5811 43.9801C26.6905 44.3692 29.0691 44.3999 31.0255 44.3999C34.5644 44.3999 40.9279 44.2582 41.9542 41.598C42.246 40.8431 42.1209 39.6402 41.9542 39.1458Z" fill="white"/>
<path d="M34.3798 30.3657C34.2178 30.119 33.941 29.9552 33.6252 29.9552H32.4319C31.934 29.9552 31.5324 30.3574 31.5324 30.8528C31.5324 31.3501 31.934 31.7529 32.4319 31.7529H33.6252C33.9737 31.7529 34.2694 31.5542 34.4185 31.2669C36.0821 31.136 37.5292 30.6278 38.5449 29.8774C38.7782 30.0278 39.054 30.1158 39.3516 30.1158H39.4265C40.2559 30.1158 40.9266 29.4445 40.9266 28.6141V25.6163C40.9266 25.0192 40.5765 24.504 40.0716 24.2646C39.8514 19.4509 35.8665 15.6 30.9986 15.6C26.1308 15.6 22.1452 19.4509 21.926 24.2646C21.4201 24.5043 21.0703 25.0192 21.0703 25.6163V28.6141C21.0703 29.4445 21.7417 30.1158 22.5692 30.1158H22.645C23.4732 30.1158 24.1449 29.4445 24.1449 28.6141V25.6163C24.1449 25.0278 23.8047 24.5203 23.3103 24.2749C23.5244 20.2189 26.8902 16.9859 30.9986 16.9859C35.1055 16.9859 38.4729 20.2189 38.686 24.2749C38.1922 24.5206 37.8524 25.0278 37.8524 25.6163V28.6141C37.8524 28.8131 37.8911 28.9984 37.9593 29.1715C37.085 29.7971 35.8124 30.2429 34.3798 30.3657Z" fill="white"/>
</svg>
