<svg width="32" height="32" viewBox="0 0 32 32" fill="none" xmlns="http://www.w3.org/2000/svg">
<g clip-path="url(#clip0_530_27542)">
<path d="M5.4502 20.9127V14.9764" stroke="#08080C" stroke-miterlimit="10" stroke-linecap="round" stroke-linejoin="round"/>
<path d="M5.3877 13.7602V13.7533" stroke="#08080C" stroke-miterlimit="10" stroke-linecap="round" stroke-linejoin="round"/>
<path d="M8.94238 20.9127V16.1615" stroke="#08080C" stroke-miterlimit="10" stroke-linecap="round" stroke-linejoin="round"/>
<path d="M12.4961 20.9127V16.1615" stroke="#08080C" stroke-miterlimit="10" stroke-linecap="round" stroke-linejoin="round"/>
<path d="M15.9883 20.9127V14.9764" stroke="#08080C" stroke-miterlimit="10" stroke-linecap="round" stroke-linejoin="round"/>
<path d="M16.0508 13.7595V13.7533" stroke="#08080C" stroke-miterlimit="10" stroke-linecap="round" stroke-linejoin="round"/>
<path d="M25.3965 25.7266V25.7336" stroke="#08080C" stroke-miterlimit="10" stroke-linecap="round" stroke-linejoin="round"/>
<path d="M7.24121 25.723V25.7301" stroke="#08080C" stroke-miterlimit="10" stroke-linecap="round" stroke-linejoin="round"/>
<path d="M7.24108 23.1929C8.64539 23.1929 9.78489 24.3294 9.78489 25.7301C9.78489 27.1308 8.64545 28.2674 7.24108 28.2674C5.8367 28.2674 4.69727 27.1309 4.69727 25.7301C4.69727 24.3294 5.83677 23.1929 7.24108 23.1929Z" stroke="#08080C" stroke-miterlimit="10" stroke-linecap="round" stroke-linejoin="round"/>
<path d="M20.2788 25.9977H13.4029H9.77112M4.712 25.9977H0.875812C0.651812 25.9977 0.46875 25.8151 0.46875 25.5917V24.1254C0.46875 23.902 0.651875 23.7194 0.875812 23.7194H5.69144M8.79169 23.7194H13.4029H20.2788" stroke="#08080C" stroke-miterlimit="10" stroke-linecap="round" stroke-linejoin="round"/>
<path d="M25.3964 23.1929C26.8007 23.1929 27.9402 24.3294 27.9402 25.7301C27.9402 27.1308 26.8007 28.2674 25.3964 28.2674C23.992 28.2674 22.8525 27.1309 22.8525 25.7301C22.8525 24.3294 23.992 23.1929 25.3964 23.1929Z" stroke="#08080C" stroke-miterlimit="10" stroke-linecap="round" stroke-linejoin="round"/>
<path d="M20.2784 23.7194V25.9978H22.7884M27.9258 25.9978H30.8251V23.1929M30.8251 20.9411V19.1663C30.8038 18.4038 30.8251 18.3099 30.3398 17.5741L27.54 13.0617C27.204 12.5209 26.9054 12.4766 26.4948 12.4766H20.2783" stroke="#08080C" stroke-miterlimit="10" stroke-linecap="round" stroke-linejoin="round"/>
<path d="M31.0123 23.1929C31.2968 23.1929 31.5314 22.9606 31.5314 22.6751V21.4588C31.5314 21.1751 31.2968 20.941 31.0123 20.941H30.8257H30.0898C29.4676 20.941 28.9609 21.4481 28.9609 22.0669C28.9609 22.6857 29.4676 23.1928 30.0898 23.1928H30.8257H31.0123V23.1929Z" stroke="#08080C" stroke-miterlimit="10" stroke-linecap="round" stroke-linejoin="round"/>
<path d="M28.7063 14.9429H25.0888C24.4755 14.9429 23.9707 15.4446 23.9707 16.0581V18.0511C23.9707 18.6646 24.4756 19.1663 25.0888 19.1663H30.8253" stroke="#08080C" stroke-miterlimit="10" stroke-linecap="round" stroke-linejoin="round"/>
<path d="M13.6862 5.52229C13.2172 5.24404 12.7045 5.0301 12.1605 4.89098V4.2701C12.1605 3.97442 11.9181 3.73267 11.6217 3.73267H9.81691C9.52047 3.73267 9.27809 3.97442 9.27809 4.2701V4.89098C8.73403 5.0301 8.22141 5.24404 7.75234 5.52229L7.31116 5.08229C7.10191 4.8736 6.75841 4.8736 6.54916 5.08229L5.27278 6.35535C5.06178 6.56404 5.06178 6.90667 5.27278 7.1171L5.71397 7.55535C5.43497 8.02492 5.21878 8.53629 5.08103 9.07717H4.45853C4.16209 9.07717 3.91797 9.31892 3.91797 9.6146V11.4147C3.91797 11.7104 4.16209 11.9538 4.45853 11.9538H5.08103C5.21878 12.4947 5.43503 13.006 5.71397 13.4739L5.27278 13.9139C5.06178 14.1225 5.06178 14.4652 5.27278 14.6756L6.54916 15.947C6.75841 16.1574 7.10191 16.1574 7.31116 15.947L7.75234 15.5087C8.22141 15.787 8.73403 16.0009 9.27809 16.1383V16.7592C9.27809 17.0565 9.52047 17.2983 9.81691 17.2983H11.6217C11.9181 17.2983 12.1605 17.0565 12.1605 16.7592V16.1383C12.7045 16.0009 13.2172 15.787 13.6862 15.5087L14.1274 15.947C14.3367 16.1574 14.6802 16.1574 14.8894 15.947L16.1658 14.6756C16.3768 14.4652 16.3768 14.1225 16.1658 13.9139L15.7246 13.4739C16.0036 13.006 16.2198 12.4947 16.3575 11.9538H16.98C17.2765 11.9538 17.5206 11.7103 17.5206 11.4147V9.6146C17.5206 9.31892 17.2765 9.07717 16.98 9.07717H16.3575C16.2198 8.53629 16.0035 8.02498 15.7246 7.55535L16.1658 7.1171C16.3768 6.90667 16.3768 6.56404 16.1658 6.35535L14.8894 5.08229C14.6802 4.8736 14.3367 4.8736 14.1274 5.08229L13.6862 5.52229Z" stroke="#08080C" stroke-miterlimit="10" stroke-linecap="round" stroke-linejoin="round"/>
<path d="M20.2787 23.7194V18.6307M20.2787 16.464V11.4676C20.2787 11.2885 20.1312 11.1414 19.9498 11.1414H17.6532M3.78572 11.1414H1.48903C1.30772 11.1414 1.16016 11.2885 1.16016 11.4676V16.464M1.16016 18.6307V23.7194" stroke="#08080C" stroke-miterlimit="10" stroke-linecap="round" stroke-linejoin="round"/>
<path d="M10.719 13.587C9.0189 13.587 7.63965 12.2113 7.63965 10.5156C7.63965 8.81813 9.0189 7.44238 10.719 7.44238C12.4209 7.44238 13.8001 8.81807 13.8001 10.5156C13.8001 12.2113 12.4209 13.587 10.719 13.587Z" stroke="#08080C" stroke-miterlimit="10" stroke-linecap="round" stroke-linejoin="round"/>
</g>
<defs>
<clipPath id="clip0_530_27542">
<rect width="32" height="32" fill="white"/>
</clipPath>
</defs>
</svg>
