<svg width="18" height="18" viewBox="0 0 18 18" fill="none" xmlns="http://www.w3.org/2000/svg">
<path d="M8.4375 3.375V3.9375H7.875C7.56411 3.9375 7.3125 4.18911 7.3125 4.5C7.3125 4.81089 7.56411 5.0625 7.875 5.0625H9C9.31089 5.0625 9.5625 4.81089 9.5625 4.5V3.375C9.5625 3.06411 9.31089 2.8125 9 2.8125C8.68911 2.8125 8.4375 3.06411 8.4375 3.375Z" fill="white"/>
<path d="M9 1.125C7.13891 1.125 5.625 2.63891 5.625 4.5C5.625 6.28622 7.02067 7.74872 8.77832 7.86375L8.60231 8.03981C8.3826 8.25953 8.3826 8.61548 8.60231 8.83524C8.71217 8.94504 8.85606 9 9 9C9.14394 9 9.28783 8.94504 9.39769 8.83519L10.5227 7.71019C10.7424 7.49047 10.7424 7.13452 10.5227 6.91476L9.39769 5.78976C9.17798 5.57004 8.82203 5.57004 8.60226 5.78976C8.38249 6.00947 8.38254 6.36542 8.60226 6.58519L8.74086 6.72379C7.62322 6.59346 6.75 5.65217 6.75 4.5C6.75 3.25907 7.75907 2.25 9 2.25C10.2409 2.25 11.25 3.25907 11.25 4.5C11.25 4.81089 11.5016 5.0625 11.8125 5.0625C12.1234 5.0625 12.375 4.81089 12.375 4.5C12.375 2.63891 10.8611 1.125 9 1.125Z" fill="white"/>
<path d="M5.0625 4.5H1.6875C1.37661 4.5 1.125 4.75161 1.125 5.0625V7.3125H6.25494C5.51925 6.59497 5.0625 5.59626 5.0625 4.5Z" fill="white"/>
<path d="M11.0944 7.875C11.0459 7.95831 10.9904 8.0379 10.9204 8.10793L9.79543 9.23293C9.58281 9.4455 9.30049 9.5625 9 9.5625C8.69951 9.5625 8.41719 9.4455 8.20457 9.23293C7.99194 9.02036 7.875 8.73799 7.875 8.4375C7.875 8.38204 7.87882 8.32708 7.88709 8.27325C7.57249 8.18027 7.28139 8.0388 7.00526 7.875H1.125V16.3125C1.125 16.6234 1.37661 16.875 1.6875 16.875H16.3125C16.6234 16.875 16.875 16.6234 16.875 16.3125V7.875H11.0944ZM5.0625 14.625C5.0625 14.9359 4.81089 15.1875 4.5 15.1875H3.375C3.06411 15.1875 2.8125 14.9359 2.8125 14.625V13.5C2.8125 13.1891 3.06411 12.9375 3.375 12.9375H4.5C4.81089 12.9375 5.0625 13.1891 5.0625 13.5V14.625ZM5.0625 11.25C5.0625 11.5609 4.81089 11.8125 4.5 11.8125H3.375C3.06411 11.8125 2.8125 11.5609 2.8125 11.25V10.125C2.8125 9.81411 3.06411 9.5625 3.375 9.5625H4.5C4.81089 9.5625 5.0625 9.81411 5.0625 10.125V11.25ZM8.4375 14.625C8.4375 14.9359 8.18589 15.1875 7.875 15.1875H6.75C6.43911 15.1875 6.1875 14.9359 6.1875 14.625V13.5C6.1875 13.1891 6.43911 12.9375 6.75 12.9375H7.875C8.18589 12.9375 8.4375 13.1891 8.4375 13.5V14.625ZM8.4375 11.25C8.4375 11.5609 8.18589 11.8125 7.875 11.8125H6.75C6.43911 11.8125 6.1875 11.5609 6.1875 11.25V10.125C6.1875 9.81411 6.43911 9.5625 6.75 9.5625H7.875C8.18589 9.5625 8.4375 9.81411 8.4375 10.125V11.25ZM11.8125 14.625C11.8125 14.9359 11.5609 15.1875 11.25 15.1875H10.125C9.81411 15.1875 9.5625 14.9359 9.5625 14.625V13.5C9.5625 13.1891 9.81411 12.9375 10.125 12.9375H11.25C11.5609 12.9375 11.8125 13.1891 11.8125 13.5V14.625ZM11.8125 11.25C11.8125 11.5609 11.5609 11.8125 11.25 11.8125H10.125C9.81411 11.8125 9.5625 11.5609 9.5625 11.25V10.125C9.5625 9.81411 9.81411 9.5625 10.125 9.5625H11.25C11.5609 9.5625 11.8125 9.81411 11.8125 10.125V11.25ZM15.1875 14.625C15.1875 14.9359 14.9359 15.1875 14.625 15.1875H13.5C13.1891 15.1875 12.9375 14.9359 12.9375 14.625V13.5C12.9375 13.1891 13.1891 12.9375 13.5 12.9375H14.625C14.9359 12.9375 15.1875 13.1891 15.1875 13.5V14.625ZM15.1875 11.25C15.1875 11.5609 14.9359 11.8125 14.625 11.8125H13.5C13.1891 11.8125 12.9375 11.5609 12.9375 11.25V10.125C12.9375 9.81411 13.1891 9.5625 13.5 9.5625H14.625C14.9359 9.5625 15.1875 9.81411 15.1875 10.125V11.25Z" fill="white"/>
<path d="M16.3126 4.5H12.9376C12.9376 5.60244 12.4833 6.59773 11.7532 7.3125H16.8751V5.0625C16.8751 4.75161 16.6235 4.5 16.3126 4.5Z" fill="white"/>
</svg>
