<svg width="18" height="18" viewBox="0 0 18 18" fill="none" xmlns="http://www.w3.org/2000/svg">
<g clip-path="url(#clip0_818_248945)">
<path d="M7.65645 5.68191L8.99984 4.97566L10.3432 5.68191C10.4129 5.71855 10.4914 5.73496 10.57 5.72929C10.6485 5.72362 10.7238 5.69609 10.7875 5.64983C10.8512 5.60356 10.9007 5.5404 10.9303 5.46748C10.96 5.39457 10.9687 5.31481 10.9554 5.23722L10.6987 3.74129L11.7856 2.68189C11.842 2.62694 11.8819 2.55732 11.9007 2.4809C11.9196 2.40448 11.9167 2.3243 11.8924 2.24944C11.8681 2.17458 11.8233 2.10801 11.7631 2.05727C11.7029 2.00653 11.6297 1.97364 11.5518 1.96231L10.0499 1.74406L9.37816 0.383129C9.34332 0.312535 9.28943 0.253097 9.22257 0.211536C9.15572 0.169975 9.07857 0.147949 8.99984 0.147949C8.92112 0.147949 8.84397 0.169975 8.77712 0.211536C8.71026 0.253097 8.65637 0.312535 8.62153 0.383129L7.94983 1.74406L6.44785 1.96231C6.36996 1.97364 6.29678 2.00653 6.2366 2.05727C6.17642 2.10801 6.13164 2.17458 6.10732 2.24944C6.08299 2.3243 6.0801 2.40448 6.09896 2.4809C6.11783 2.55732 6.1577 2.62694 6.21406 2.68189L7.30088 3.74129L7.04424 5.23722C7.03094 5.31481 7.03961 5.39457 7.06928 5.46748C7.09894 5.5404 7.14841 5.60356 7.2121 5.64983C7.27579 5.69609 7.35115 5.72362 7.42966 5.72929C7.50818 5.73496 7.58671 5.71855 7.65638 5.68191H7.65645Z" fill="white"/>
<path d="M17.6847 6.41205L16.4704 5.50151L16.5321 3.98497C16.5353 3.9063 16.5165 3.8283 16.4777 3.75979C16.4388 3.69129 16.3816 3.63501 16.3125 3.59734C16.2434 3.55966 16.165 3.54208 16.0864 3.54659C16.0078 3.5511 15.9321 3.57752 15.8677 3.62286L14.6266 4.49632L13.2034 3.96898C13.1296 3.94163 13.0496 3.93549 12.9724 3.95123C12.8953 3.96698 12.8241 4.00398 12.767 4.05807C12.7098 4.11215 12.6688 4.18115 12.6488 4.25728C12.6288 4.3334 12.6305 4.41361 12.6537 4.48883L13.1008 5.93924L12.1595 7.12987C12.1107 7.19162 12.0801 7.2658 12.0713 7.34402C12.0624 7.42224 12.0756 7.50138 12.1094 7.57249C12.1432 7.6436 12.1961 7.70384 12.2624 7.7464C12.3286 7.78897 12.4054 7.81216 12.4841 7.81335L14.0017 7.83623L14.8432 9.0994C14.8817 9.1572 14.9339 9.20461 14.9951 9.2374C15.0563 9.27019 15.1247 9.28736 15.1942 9.28738C15.2124 9.28736 15.2305 9.28618 15.2486 9.28386C15.3266 9.27372 15.4003 9.24194 15.4613 9.19212C15.5222 9.14229 15.568 9.0764 15.5935 9.00191L16.0842 7.56567L17.5455 7.15571C17.6213 7.13445 17.6897 7.0924 17.7428 7.03433C17.7959 6.97626 17.8318 6.90448 17.8463 6.82711C17.8607 6.74974 17.8533 6.66986 17.8247 6.5965C17.7962 6.52315 17.7477 6.45928 17.6847 6.41205Z" fill="white"/>
<path d="M5.51577 7.81338C5.59448 7.81219 5.67128 7.789 5.7375 7.74644C5.80372 7.70387 5.85671 7.64363 5.89048 7.57252C5.92425 7.50141 5.93745 7.42228 5.92858 7.34406C5.91972 7.26584 5.88915 7.19166 5.84033 7.12991L4.89906 5.93927L5.34621 4.48887C5.3694 4.41364 5.37108 4.33343 5.35106 4.2573C5.33105 4.18117 5.29013 4.11216 5.23294 4.05807C5.17575 4.00398 5.10457 3.96697 5.02744 3.95123C4.95031 3.93548 4.87032 3.94163 4.7965 3.96898L3.37327 4.49632L2.13226 3.62286C2.06788 3.57752 1.99211 3.5511 1.9135 3.54659C1.83489 3.54208 1.75659 3.55966 1.68745 3.59734C1.61831 3.63501 1.5611 3.69129 1.52228 3.75979C1.48347 3.8283 1.4646 3.9063 1.46781 3.98497L1.5295 5.50151L0.315243 6.41205C0.252269 6.45928 0.203765 6.52318 0.175214 6.59654C0.146663 6.66989 0.139204 6.74977 0.153681 6.82715C0.168157 6.90452 0.203992 6.9763 0.257133 7.03437C0.310275 7.09244 0.378602 7.13448 0.454391 7.15575L1.91573 7.56571L2.40641 9.00194C2.43186 9.07643 2.47765 9.14231 2.53859 9.19214C2.59953 9.24196 2.6732 9.27374 2.75126 9.28389C2.82932 9.29403 2.90866 9.28213 2.98031 9.24953C3.05196 9.21694 3.11307 9.16494 3.15671 9.09943L3.99821 7.83627L5.51577 7.81338Z" fill="white"/>
<path d="M14.2031 12.2342C14.3902 12.2342 14.572 12.1721 14.7199 12.0575C14.8678 11.943 14.9735 11.7825 15.0203 11.6014C14.9735 11.4203 14.8678 11.2599 14.7199 11.1453C14.572 11.0308 14.3902 10.9686 14.2031 10.9686H11.1094V9.03502C11.1094 8.50901 11.1094 7.46034 9.72942 7.32643C9.69042 7.32276 9.65109 7.32729 9.61393 7.33971C9.57678 7.35213 9.54264 7.37218 9.51368 7.39857C9.48473 7.42495 9.46161 7.45709 9.4458 7.49293C9.42999 7.52877 9.42184 7.56752 9.42188 7.60669V9.51793C9.42187 9.56997 9.40742 9.62098 9.38014 9.6653L8.57812 10.9686H8.61328L7.45312 11.7263V17.1458C7.62402 17.2449 7.81809 17.297 8.01562 17.2967H13.6406C13.8277 17.2967 14.0095 17.2346 14.1574 17.12C14.3053 17.0055 14.411 16.845 14.4578 16.6639C14.411 16.4828 14.3053 16.3224 14.1574 16.2078C14.0095 16.0933 13.8277 16.0311 13.6406 16.0311H12.7969V15.6092H13.9219C14.109 15.6092 14.2907 15.5471 14.4386 15.4325C14.5865 15.318 14.6922 15.1575 14.739 14.9764C14.6922 14.7953 14.5865 14.6349 14.4386 14.5203C14.2907 14.4058 14.109 14.3436 13.9219 14.3436H12.7969V13.9217H14.2031C14.3902 13.9217 14.572 13.8596 14.7199 13.745C14.8678 13.6305 14.9735 13.47 15.0203 13.2889C14.9735 13.1078 14.8678 12.9474 14.7199 12.8328C14.572 12.7183 14.3902 12.6561 14.2031 12.6561H12.7969V12.2342H14.2031Z" fill="white"/>
<path d="M6.60938 10.9688H3.79688C3.68499 10.9688 3.57768 11.0132 3.49856 11.0923C3.41945 11.1714 3.375 11.2787 3.375 11.3906V17.2969C3.375 17.4088 3.41945 17.5161 3.49856 17.5952C3.57768 17.6743 3.68499 17.7188 3.79688 17.7188H6.60938C6.72126 17.7188 6.82857 17.6743 6.90769 17.5952C6.9868 17.5161 7.03125 17.4088 7.03125 17.2969V11.3906C7.03125 11.2787 6.9868 11.1714 6.90769 11.0923C6.82857 11.0132 6.72126 10.9688 6.60938 10.9688ZM5.20312 17.0508C5.11969 17.0508 5.03812 17.026 4.96874 16.9797C4.89937 16.9333 4.84529 16.8674 4.81336 16.7904C4.78143 16.7133 4.77308 16.6284 4.78936 16.5466C4.80563 16.4648 4.84581 16.3896 4.90481 16.3306C4.96381 16.2716 5.03899 16.2314 5.12082 16.2151C5.20266 16.1989 5.28748 16.2072 5.36457 16.2391C5.44166 16.2711 5.50754 16.3251 5.5539 16.3945C5.60026 16.4639 5.625 16.5455 5.625 16.6289C5.625 16.7408 5.58055 16.8481 5.50144 16.9272C5.42232 17.0063 5.31501 17.0508 5.20312 17.0508Z" fill="white"/>
</g>
<defs>
<clipPath id="clip0_818_248945">
<rect width="18" height="18" fill="white"/>
</clipPath>
</defs>
</svg>
