<svg width="18" height="18" viewBox="0 0 18 18" fill="none" xmlns="http://www.w3.org/2000/svg">
<g clip-path="url(#clip0_818_164732)">
<path d="M12.6748 7.28964C13.3473 8.18494 13.7462 9.29687 13.7462 10.5003C13.7462 13.4541 11.3431 15.8573 8.38923 15.8573C5.43537 15.8573 3.03221 13.4541 3.03221 10.5003C3.03221 7.35256 5.75504 4.8538 8.92493 5.16997V3.00049H8.38923C4.25382 3.00049 0.889404 6.36487 0.889404 10.5003C0.889404 14.6357 4.25382 18.0001 8.38923 18.0001C12.5246 18.0001 15.889 14.6357 15.889 10.5003V4.60759H12.6748V7.28964Z" fill="white"/>
<path d="M8.92485 6.24805V7.28602H7.85345V6.24805C7.07207 6.34594 6.35548 6.65504 5.76267 7.1162L6.49516 7.84869L5.73757 8.60628L5.00509 7.87379C4.54395 8.4666 4.23482 9.18316 4.13696 9.96457H5.17494V11.036H4.13696C4.23485 11.8173 4.54395 12.5339 5.00509 13.1267L5.73757 12.3943L6.49516 13.1518L5.76267 13.8843C6.35548 14.3455 7.07204 14.6546 7.85345 14.7525V13.7145H8.92485V14.7525C9.70626 14.6546 10.4228 14.3455 11.0156 13.8843L10.2831 13.1518L11.0407 12.3943L11.7732 13.1267C12.2343 12.5339 12.5434 11.8174 12.6414 11.036H11.6034V9.96457H12.6414C12.5435 9.18316 12.2343 8.4666 11.7732 7.87379L11.0407 8.60628L10.2831 7.84869L11.0156 7.1162C10.4228 6.65507 9.70622 6.34594 8.92485 6.24805ZM8.92485 11.036H6.78204V9.96457H7.85345V8.35746H8.92485V11.036Z" fill="white"/>
<path d="M14.282 0L11.4531 3.53606H17.1108L14.282 0Z" fill="white"/>
</g>
<defs>
<clipPath id="clip0_818_164732">
<rect width="18" height="18" fill="white"/>
</clipPath>
</defs>
</svg>
