<svg width="18" height="18" viewBox="0 0 18 18" fill="none" xmlns="http://www.w3.org/2000/svg">
<g clip-path="url(#clip0_818_164728)">
<path d="M4.2182 0.561035C2.20225 0.561035 0.562511 2.20132 0.5625 4.21728C0.562489 5.6079 1.44836 7.04082 2.30823 8.1515C3.16812 9.26218 4.02924 10.0516 4.02924 10.0516C4.08111 10.0991 4.14893 10.1255 4.2193 10.1255C4.28967 10.1255 4.35749 10.0991 4.40936 10.0516C4.40936 10.0516 5.2683 9.26218 6.12818 8.1515C6.98806 7.04082 7.87445 5.60789 7.87445 4.21728C7.87446 2.20132 6.23416 0.561035 4.2182 0.561035ZM4.2182 2.24908C5.30218 2.24908 6.1864 3.1333 6.1864 4.21728C6.1864 5.30126 5.30218 6.18768 4.2182 6.18768C3.13423 6.18768 2.25 5.30126 2.25 4.21728C2.25 3.1333 3.13423 2.24908 4.2182 2.24908ZM8.35071 5.06159C8.09537 6.36248 7.30537 7.54994 6.57257 8.49646C5.6806 9.64861 4.78949 10.4669 4.78949 10.4669C4.47068 10.7588 3.96848 10.7588 3.64966 10.4669C3.64966 10.4669 2.75608 9.64895 1.86383 8.49646C1.80557 8.4212 1.74674 8.34066 1.68805 8.26247V13.4991H3.76117C4.19582 13.1482 4.74672 12.936 5.3443 12.936C5.94187 12.936 6.49223 13.1482 6.92688 13.4991H11.8136V5.90642C11.8136 5.44385 11.4308 5.06159 10.9682 5.06159H8.35071ZM12.6562 7.31159C12.5017 7.31216 12.3766 7.43774 12.3761 7.5923V13.4991H12.7612C13.1958 13.1482 13.7467 12.936 14.3443 12.936C14.9419 12.936 15.4922 13.1482 15.9269 13.4991H17.4375V10.9678C17.4373 10.9404 17.4332 10.9133 17.4254 10.8871L16.5882 8.09651C16.5475 7.90666 16.4687 7.72004 16.3311 7.56917C16.1936 7.4183 15.9828 7.31156 15.7494 7.31156L12.6562 7.31159ZM13.2188 8.43492H15.3056C15.4302 8.43494 15.54 8.517 15.5753 8.63654L16.2499 10.8871C16.3036 11.0675 16.1684 11.2486 15.9802 11.2485H14.6245C14.5498 11.2491 14.4781 11.2197 14.425 11.1672L13.9455 10.6855H13.2188C13.0634 10.686 12.937 10.5606 12.9364 10.4053V8.71728C12.9358 8.5611 13.0626 8.43433 13.2188 8.43492ZM13.2188 11.811H13.7818C14.165 11.8025 14.165 12.3818 13.7818 12.3735H13.2188C12.8356 12.382 12.8356 11.8028 13.2188 11.811ZM5.3443 13.4991C4.26032 13.4991 3.3761 14.3828 3.3761 15.4667C3.3761 16.5507 4.26032 17.4371 5.3443 17.4371C6.42827 17.4371 7.31195 16.5507 7.31195 15.4667C7.31195 14.3828 6.42827 13.4991 5.3443 13.4991ZM14.3443 13.4991C13.2603 13.4991 12.3761 14.3828 12.3761 15.4667C12.3761 16.5507 13.2603 17.4371 14.3443 17.4371C15.4283 17.4371 16.3125 16.5507 16.3125 15.4667C16.3125 14.3828 15.4283 13.4991 14.3443 13.4991ZM1.68805 14.0616V15.4667C1.68749 15.6221 1.81282 15.7485 1.9682 15.7491H2.83063C2.82 15.6563 2.81415 15.5622 2.81415 15.4667C2.81415 14.9475 2.97188 14.464 3.24206 14.0616H1.68805ZM7.44598 14.0616C7.71616 14.464 7.8739 14.9475 7.8739 15.4667C7.8739 15.5622 7.86752 15.6563 7.85742 15.7491H11.8312C11.8205 15.6563 11.8142 15.5622 11.8142 15.4667C11.8142 14.9475 11.9719 14.464 12.2421 14.0616H7.44598ZM16.446 14.0616C16.7162 14.464 16.8745 14.9475 16.8745 15.4667C16.8745 15.5622 16.8681 15.6563 16.8574 15.7491H17.1552C17.3114 15.7497 17.4381 15.6229 17.4375 15.4667V14.0616H16.446ZM5.3443 14.6241C5.80695 14.6241 6.18695 15.0041 6.18695 15.4667C6.18696 15.9294 5.80696 16.3121 5.3443 16.3121C4.88164 16.3121 4.4989 15.9294 4.4989 15.4667C4.49892 15.0041 4.88165 14.6241 5.3443 14.6241ZM14.3443 14.6241C14.807 14.6241 15.187 15.0041 15.187 15.4667C15.187 15.9294 14.807 16.3121 14.3443 16.3121C13.8816 16.3121 13.4989 15.9294 13.4989 15.4667C13.4989 15.0041 13.8817 14.6241 14.3443 14.6241Z" fill="white"/>
</g>
<defs>
<clipPath id="clip0_818_164728">
<rect width="18" height="18" fill="white"/>
</clipPath>
</defs>
</svg>
