<svg width="18" height="18" viewBox="0 0 18 18" fill="none" xmlns="http://www.w3.org/2000/svg">
<g clip-path="url(#clip0_818_164769)">
<path fill-rule="evenodd" clip-rule="evenodd" d="M3.36223 11.1032C3.30953 11.1142 3.25969 11.136 3.2159 11.1672L1.24997 12.5719C-0.250274 13.6435 -0.43023 15.8244 0.874028 17.1275C2.1774 18.4301 4.35673 18.2494 5.42786 16.7501L5.428 16.7499L6.83679 14.7798C6.86814 14.736 6.88998 14.686 6.9009 14.6332C6.91182 14.5804 6.91158 14.526 6.9002 14.4733C6.88882 14.4206 6.86655 14.3708 6.83482 14.3273C6.80309 14.2837 6.7626 14.2472 6.71594 14.2202C6.10476 13.8665 5.54106 13.4365 5.03826 12.9406C4.54978 12.4444 4.12536 11.889 3.77497 11.2873C3.74788 11.2408 3.71138 11.2005 3.66781 11.1689C3.62424 11.1373 3.57456 11.1152 3.52194 11.1039C3.46932 11.0925 3.41493 11.0923 3.36223 11.1032Z" fill="white"/>
<path fill-rule="evenodd" clip-rule="evenodd" d="M10.9446 0C9.13751 1.93359e-07 7.33047 0.688235 5.95396 2.06475C3.20095 4.81777 3.20086 9.29309 5.95389 12.0461C8.70691 14.7991 13.1822 14.7991 15.9352 12.046C18.6883 9.29302 18.6883 4.81777 15.9352 2.06474C14.5587 0.688236 12.7516 -1.75781e-07 10.9446 0ZM14.5367 5.12925C14.6392 5.12926 14.7376 5.17002 14.8101 5.24255C14.8826 5.31507 14.9233 5.41342 14.9233 5.51597C14.9233 5.61852 14.8826 5.71687 14.8101 5.78939L12.2443 8.35532C11.8132 8.78646 11.1024 8.78644 10.6713 8.35532L9.64475 7.32892C9.50915 7.19334 9.30106 7.19334 9.16547 7.32892L7.62594 8.86838C7.59003 8.90429 7.5474 8.93278 7.50048 8.95221C7.45356 8.97165 7.40327 8.98165 7.35249 8.98165C7.3017 8.98165 7.25141 8.97165 7.20449 8.95221C7.15757 8.93278 7.11494 8.90429 7.07903 8.86838C7.04312 8.83247 7.01463 8.78984 6.99519 8.74292C6.97576 8.696 6.96575 8.64571 6.96575 8.59492C6.96575 8.54414 6.97576 8.49385 6.99519 8.44693C7.01463 8.40001 7.04312 8.35738 7.07903 8.32147L8.61862 6.78201C9.04978 6.35089 9.7605 6.35089 10.1917 6.78201L11.2181 7.8084C11.3537 7.94398 11.5618 7.94398 11.6974 7.8084L14.2632 5.24255C14.2991 5.20662 14.3417 5.17813 14.3887 5.15869C14.4356 5.13925 14.4859 5.12925 14.5367 5.12925Z" fill="white"/>
</g>
<defs>
<clipPath id="clip0_818_164769">
<rect width="18" height="18" fill="white"/>
</clipPath>
</defs>
</svg>
