<svg width="18" height="18" viewBox="0 0 18 18" fill="none" xmlns="http://www.w3.org/2000/svg">
<g clip-path="url(#clip0_818_164793)">
<path d="M17.6262 3.43981L15.6584 0.971108C15.4726 0.737903 15.1906 0.602051 14.8923 0.602051H4.72206C4.42385 0.602051 4.14188 0.737903 3.956 0.971079L1.98827 3.43981C1.78271 3.69772 1.61451 4.17857 1.61451 4.54157V6.34986C1.7708 6.10397 1.99924 5.91942 2.27318 5.825C2.28851 5.61836 2.35115 5.41795 2.4583 5.23545C2.64392 4.91927 2.94168 4.69445 3.29659 4.60213C3.42383 4.56889 3.54032 4.55383 3.6568 4.55383C4.12606 4.55383 4.55129 4.79254 4.80029 5.16754C4.87444 5.15462 4.94926 5.14792 5.02438 5.14792C5.25479 5.14792 5.47252 5.21127 5.6622 5.32045L6.75217 5.03695C6.88875 5.0013 7.02911 4.98339 7.16975 4.98339C7.9236 4.98339 8.58254 5.4933 8.77246 6.2235L10.9085 14.4333C11.02 14.8617 10.9578 15.3077 10.7339 15.6894C10.5098 16.0712 10.1503 16.3426 9.72198 16.4541L8.76866 16.7021H16.7754C17.4517 16.7021 18 16.1538 18 15.4775L17.9999 4.50839C17.9999 4.17857 17.8318 3.69772 17.6262 3.43981ZM2.6313 3.41892L3.28294 2.60137H7.72899L8.16772 1.88002H3.85794L4.33903 1.27643C4.4325 1.15917 4.57211 1.0919 4.72206 1.0919H14.8924C15.0423 1.0919 15.182 1.15917 15.2754 1.27643L15.7565 1.88002H11.3699L11.6149 2.60137H16.3315L16.9831 3.41892H2.6313ZM2.83006 6.43533L2.55521 6.50683C2.26248 6.583 2.08689 6.88206 2.16303 7.17479L2.16583 7.1855C2.24201 7.47826 2.54106 7.65382 2.83383 7.57767L5.16476 6.97127C5.45752 6.89512 5.63308 6.59606 5.55694 6.30327L5.55414 6.29256C5.47797 5.99983 5.17891 5.82424 4.88617 5.90039L4.61132 5.97189C4.46447 6.01009 4.31441 5.922 4.2762 5.77515L4.27385 5.76621C4.18512 5.42515 3.83674 5.22059 3.49568 5.30933L3.48141 5.31304C3.14036 5.40177 2.93583 5.75015 3.02453 6.09121L3.02689 6.10015C3.06503 6.24709 2.97694 6.39712 2.83006 6.43533ZM3.58138 5.66824C3.72924 5.62977 3.88029 5.71848 3.91874 5.8663C3.95721 6.01415 3.86853 6.16521 3.72065 6.20365C3.5728 6.24209 3.42177 6.15341 3.3833 6.00559C3.34485 5.85774 3.43353 5.70668 3.58138 5.66824ZM7.01661 14.1119C7.04225 14.2105 6.98314 14.3112 6.88458 14.3368L3.49344 15.219C3.39488 15.2446 3.29418 15.1855 3.26853 15.0869L3.22209 14.9085C3.19644 14.8099 3.25556 14.7092 3.35415 14.6836L6.74525 13.8014C6.84384 13.7757 6.94452 13.8349 6.97017 13.9334L7.01661 14.1119ZM7.43019 10.5743L7.47664 10.7527C7.50228 10.8513 7.44316 10.952 7.34458 10.9776L2.70412 12.1849C2.60553 12.2105 2.50486 12.1514 2.47921 12.0528L2.43277 11.8743C2.40712 11.7757 2.46624 11.6751 2.56483 11.6495L7.20528 10.4423C7.30387 10.4166 7.40455 10.4757 7.43019 10.5743ZM6.9267 9.37135L2.28624 10.5785C2.18765 10.6042 2.08698 10.545 2.06133 10.4465L2.01489 10.268C1.98924 10.1694 2.04836 10.0688 2.14695 10.0431L6.7874 8.83594C6.88599 8.81029 6.98667 8.86941 7.01231 8.96796L7.05875 9.14646C7.0844 9.24499 7.02528 9.3457 6.9267 9.37135ZM6.82364 12.6376L3.07556 13.6127C2.97697 13.6383 2.8763 13.5792 2.85065 13.4806L2.80421 13.3022C2.77856 13.2036 2.83768 13.1029 2.93627 13.0772L6.68431 12.1022C6.7829 12.0766 6.88358 12.1357 6.90922 12.2343L6.95567 12.4127C6.98134 12.5113 6.92223 12.612 6.82364 12.6376ZM10.1973 14.6184L8.06146 6.4083C7.93325 5.91544 7.42975 5.61986 6.9369 5.74806L5.84855 6.03121C5.87429 6.08436 5.89564 6.14047 5.91108 6.19971C6.04111 6.69959 5.74673 7.20103 5.25755 7.32829L2.96089 7.92576C2.49206 8.04773 1.98727 7.80632 1.82989 7.34818C1.80024 7.26188 1.78421 7.17515 1.77962 7.08971L0.690157 7.37315C0.197306 7.50135 -0.0982813 8.00485 0.0299242 8.49767L2.16574 16.7077C2.29398 17.2006 2.79744 17.4962 3.2903 17.368L9.5371 15.7429C10.0299 15.6147 10.3255 15.1112 10.1973 14.6184ZM3.05812 16.4756L1.20089 9.33643L7.44766 7.71135L9.30492 14.8505L3.05812 16.4756Z" fill="white"/>
</g>
<defs>
<clipPath id="clip0_818_164793">
<rect width="18" height="18" fill="white"/>
</clipPath>
</defs>
</svg>
