<svg width="18" height="18" viewBox="0 0 18 18" fill="none" xmlns="http://www.w3.org/2000/svg">
<g clip-path="url(#clip0_818_164759)">
<path d="M9.00006 5.2583C5.48725 5.2583 2.62939 8.11615 2.62939 11.6293C2.62939 15.1421 5.48725 18 9.00006 18C12.5129 18 15.3707 15.1421 15.3707 11.6293C15.3707 8.11615 12.5129 5.2583 9.00006 5.2583ZM11.9648 14.9013C11.9585 14.9017 11.9525 14.9017 11.9462 14.9017C11.6635 14.9017 11.4294 14.6774 11.4195 14.3926L11.4107 14.131C10.7055 14.7027 9.85963 15.017 9.00006 15.0736C8.90478 15.0803 8.80916 15.0834 8.71354 15.0834C7.6149 15.0834 6.51662 14.6654 5.68061 13.829C5.47459 13.623 5.47459 13.2894 5.68061 13.0834C5.88662 12.8774 6.22061 12.8774 6.42627 13.0834C7.03729 13.694 7.84939 14.0305 8.71354 14.0305C8.80986 14.0305 8.90549 14.0263 9.00006 14.0178C9.58576 13.9669 10.1384 13.7591 10.6106 13.416L10.4369 13.41C10.1458 13.3998 9.91799 13.1558 9.92818 12.8647C9.93803 12.5799 10.1718 12.3556 10.4548 12.3556C10.4608 12.3556 10.4671 12.3556 10.4731 12.356L11.9152 12.4056C12.1813 12.4108 12.4151 12.6397 12.4232 12.9062C12.4232 12.909 12.4239 12.9115 12.4239 12.9143L12.4738 14.3564C12.4837 14.6475 12.2559 14.8915 11.9648 14.9013ZM12.3195 10.1749C12.1135 10.3806 11.7795 10.3806 11.5738 10.1749C10.8704 9.47143 9.92115 9.16029 9.00006 9.24221C8.43123 9.29213 7.8726 9.49217 7.3899 9.84232L7.56322 9.8483C7.85432 9.85814 8.08213 10.1021 8.07193 10.3932C8.06209 10.6783 7.8283 10.9026 7.54529 10.9026C7.53932 10.9026 7.53299 10.9023 7.52701 10.9023L6.0849 10.8524C5.81912 10.8474 5.58498 10.6189 5.57689 10.3521C5.57689 10.3493 5.57619 10.3465 5.57619 10.3437L5.52627 8.90189C5.51643 8.6108 5.74424 8.36646 6.03533 8.35662C6.32572 8.34643 6.57041 8.57424 6.58061 8.86533L6.58939 9.12689C7.29463 8.5556 8.14049 8.24166 9.00006 8.18471C10.1919 8.10525 11.4107 8.5201 12.3195 9.42889C12.5255 9.6349 12.5255 9.96889 12.3195 10.1749Z" fill="white"/>
<path d="M14.162 3.85066C13.3481 2.71617 11.983 2.01691 10.5827 2.025C9.65879 2.025 9.02 2.29641 9.00032 2.30484L8.99996 2.3052C8.51832 0.961523 7.27625 0 5.76562 0C3.84328 0 2.28516 1.55672 2.28516 3.47625C2.28516 3.66785 2.30063 3.85523 2.33051 4.03805C1.79754 4.2198 1.32082 4.54148 0.931289 4.9602C0.33082 5.60988 0 6.45609 0 7.34098C0 8.60871 0.676055 9.72176 1.68715 10.3391C2.29922 6.85723 5.34551 4.20363 8.99996 4.20363C12.6548 4.20363 15.7014 6.85793 16.3131 10.3405C17.3239 9.72387 17.9999 8.61117 17.9999 7.34414C18.0109 5.29488 16.2031 3.65098 14.162 3.85066Z" fill="white"/>
</g>
<defs>
<clipPath id="clip0_818_164759">
<rect width="18" height="18" fill="white"/>
</clipPath>
</defs>
</svg>
