<svg width="18" height="18" viewBox="0 0 18 18" fill="none" xmlns="http://www.w3.org/2000/svg">
<g clip-path="url(#clip0_818_164754)">
<path d="M9.00005 11.7172C8.44248 11.7172 7.90144 11.6451 7.38557 11.5103V13.5363H5.50513L8.99966 17.9999L12.4942 13.5363H10.6138V11.5105C10.0981 11.6452 9.55733 11.7172 9.00005 11.7172Z" fill="white"/>
<path d="M9.00002 10.6627C11.9397 10.6627 14.3314 8.27107 14.3314 5.33135C14.3314 2.39164 11.9397 0 9.00002 0C6.06034 0 3.6687 2.39164 3.6687 5.33135C3.6687 8.27107 6.06031 10.6627 9.00002 10.6627ZM8.47156 2.83555V2.14736H9.52615V2.83109H10.4483V3.88568H8.58145C8.33904 3.88568 8.14186 4.08289 8.14186 4.32531C8.14186 4.56772 8.33907 4.76493 8.58145 4.76493H9.68719C10.5327 4.76493 11.2205 5.45277 11.2205 6.29824C11.2205 7.14374 10.5327 7.83158 9.68719 7.83158H9.52615V8.51531H8.47156V7.83158H7.30448V6.77699H9.68716C9.95116 6.77699 10.1659 6.56224 10.1659 6.29824C10.1659 6.03427 9.95116 5.81952 9.68716 5.81952H8.58142C7.7575 5.81952 7.08723 5.14922 7.08723 4.32531C7.08723 3.5384 7.69883 2.89208 8.47156 2.83555Z" fill="white"/>
</g>
<defs>
<clipPath id="clip0_818_164754">
<rect width="18" height="18" fill="white"/>
</clipPath>
</defs>
</svg>
