<svg width="18" height="18" viewBox="0 0 18 18" fill="none" xmlns="http://www.w3.org/2000/svg">
<g clip-path="url(#clip0_818_248959)">
<path d="M17.9999 4.2605V11.0687C17.9999 11.3611 17.7629 11.5981 17.4705 11.5981H16.6516V6.22856C16.6516 5.59383 16.1372 5.07939 15.5024 5.07939H8.53819C8.50372 5.07939 8.47227 5.05989 8.45703 5.02885L7.73853 3.57152C7.54324 3.17587 7.14842 2.9306 6.7076 2.9306H4.81396V2.11143C4.81396 1.81906 5.05099 1.58203 5.34337 1.58203H9.11456C9.14958 1.58203 9.18062 1.60139 9.19572 1.63257L9.91437 3.09018C10.1095 3.48541 10.5045 3.73109 10.9453 3.73109H17.4705C17.7629 3.73109 17.9999 3.96812 17.9999 4.2605Z" fill="white"/>
<path d="M15.5928 6.22841V13.4757C15.5928 13.7681 15.3557 14.0051 15.0634 14.0051H14.2446V8.63538C14.2446 8.00078 13.73 7.48621 13.0954 7.48621H6.13121C6.0966 7.48621 6.06516 7.46684 6.05005 7.43581L5.33141 5.97847C5.1331 5.57678 4.73457 5.33755 4.30048 5.33755H2.40698V4.51866C2.40698 4.22629 2.64401 3.98926 2.93639 3.98926H6.70758C6.74246 3.98926 6.7735 4.00835 6.78874 4.03938L7.50725 5.49699C7.70253 5.89236 8.09735 6.13805 8.53818 6.13805H15.5024C15.5521 6.13805 15.5928 6.1787 15.5928 6.22841Z" fill="white"/>
<path d="M13.0956 8.54514H6.13133C5.69051 8.54514 5.29555 8.29959 5.1004 7.90422C4.73827 7.16937 4.89771 7.49347 4.38176 6.44688C4.36665 6.41557 4.33548 6.39648 4.3006 6.39648H0.529404C0.23703 6.39648 0 6.63351 0 6.92589V15.8832C0 16.1756 0.23703 16.4126 0.529404 16.4126H12.6565C12.9489 16.4126 13.1859 16.1756 13.1859 15.8832V8.6355C13.1859 8.58578 13.1453 8.54514 13.0956 8.54514ZM9.98822 14.6967C9.98822 14.9903 9.74899 15.2261 9.45882 15.2261C9.16905 15.2261 8.92941 14.9905 8.92941 14.6967C8.92941 14.5036 8.92941 14.5448 8.92941 14.3521C8.92941 14.0612 9.16548 13.8227 9.45882 13.8227C9.75174 13.8227 9.98822 14.0612 9.98822 14.3521V14.6967ZM11.7241 14.6967C11.7241 14.9903 11.4847 15.2261 11.1947 15.2261C10.9031 15.2261 10.6651 14.9896 10.6651 14.6967C10.6651 14.5036 10.6651 14.5448 10.6651 14.3521C10.6651 14.061 10.9013 13.8227 11.1947 13.8227C11.4876 13.8227 11.7241 14.0612 11.7241 14.3521V14.6967Z" fill="white"/>
</g>
<defs>
<clipPath id="clip0_818_248959">
<rect width="18" height="18" fill="white"/>
</clipPath>
</defs>
</svg>
