<svg width="600" height="532" viewBox="0 0 600 532" fill="none" xmlns="http://www.w3.org/2000/svg">
<g filter="url(#filter0_d_127_235)">
<path d="M148.576 381.318C226.7 422.126 353.308 422.126 431.414 381.318C509.52 340.509 509.538 274.37 431.414 233.562C353.289 192.753 226.682 192.763 148.576 233.562C70.4701 274.361 70.4793 340.519 148.576 381.318Z" fill="#F5F5F5"/>
<path d="M125.405 316.263H128.696C130.204 311.227 131.192 306.05 131.646 300.813C132.363 291.117 127.666 276.273 119.063 271.3C110.461 266.328 105.801 272.477 108.687 277.734C111.573 282.992 121.306 297.945 121.435 310.813L125.405 316.263Z" fill="#31B78A"/>
<path d="M124.615 316.263H125.534C126.432 309.913 126.432 303.468 125.534 297.118C124.045 284.536 119.909 278.69 116.067 274.628C115.983 274.539 115.867 274.487 115.745 274.483C115.622 274.48 115.504 274.525 115.415 274.609C115.326 274.693 115.274 274.809 115.27 274.932C115.267 275.054 115.312 275.173 115.396 275.262C119.137 279.205 123.163 284.903 124.587 297.219C125.498 303.534 125.507 309.946 124.615 316.263Z" fill="white"/>
<path d="M125.672 316.263C123.981 308.285 116.297 298.8 109.045 297.164C100.635 295.326 96.5452 299.765 97.7493 303.598C98.9533 307.431 105.598 309.214 112.051 312.219C114.223 313.225 116.209 314.592 117.924 316.263H125.672Z" fill="#31B78A"/>
<path d="M122.611 316.263H123.595C120.038 307.32 111.949 300.942 105.332 300.354C105.272 300.347 105.211 300.353 105.154 300.37C105.096 300.388 105.043 300.417 104.996 300.455C104.95 300.494 104.912 300.541 104.884 300.595C104.857 300.649 104.84 300.707 104.836 300.767C104.828 300.827 104.833 300.888 104.85 300.947C104.867 301.005 104.895 301.059 104.934 301.105C104.973 301.152 105.021 301.19 105.075 301.217C105.129 301.244 105.189 301.26 105.249 301.263C111.499 301.824 119.137 307.817 122.611 316.263Z" fill="white"/>
<path d="M422.37 232.174L429.254 235.786L429.833 231.475C426.423 221.862 429.226 210.961 432.912 206.421C436.597 201.88 435.89 198.544 434.557 197.055C433.224 195.566 428.169 194.435 423.169 200.281C418.169 206.126 417.02 213.222 417.857 220.382C418.39 224.858 420.743 229.453 422.37 232.174Z" fill="#31B78A"/>
<path opacity="0.2" d="M422.37 232.174L429.254 235.786L429.833 231.475C426.423 221.862 429.226 210.961 432.912 206.421C436.597 201.88 435.89 198.544 434.557 197.055C433.224 195.566 428.169 194.435 423.169 200.281C418.169 206.126 417.02 213.222 417.857 220.382C418.39 224.858 420.743 229.453 422.37 232.174Z" fill="black"/>
<path d="M425.21 233.663L426.57 234.38C426.557 234.354 426.541 234.33 426.524 234.306C424.575 231.99 422.057 220.648 423.114 214.003C424.419 205.796 428.629 200.437 432.232 198.167C432.276 198.14 432.314 198.104 432.344 198.062C432.374 198.02 432.395 197.972 432.406 197.921C432.418 197.871 432.418 197.818 432.409 197.767C432.399 197.716 432.38 197.668 432.351 197.625C432.293 197.537 432.203 197.475 432.1 197.453C431.997 197.431 431.889 197.449 431.8 197.505C428.123 199.867 423.675 205.41 422.324 213.884C421.349 220.069 423.298 229.867 425.21 233.663Z" fill="white"/>
<path d="M429.392 215.768C431.404 220.704 431.395 223.121 428.114 223.626C425.154 224.067 421.561 227.661 424.897 233.498L444.419 243.736C444.468 242.645 444.738 241.575 445.212 240.591C445.686 239.607 446.354 238.729 447.176 238.01C450.384 234.803 453.344 232.385 452.884 228.819C452.424 225.253 449.327 221.816 448.812 218.709C448.298 215.602 449.879 213.829 453.252 210.345C456.625 206.862 459.685 201.457 455.182 198.994C450.678 196.531 445.522 200.75 443.371 203.59C441.221 206.43 439.254 207.68 435.017 207.441C430.779 207.202 427.379 210.832 429.392 215.768Z" fill="#31B78A"/>
<path d="M434.915 238.755C434.824 223.608 445.678 205.869 451.717 202.285C451.806 202.228 451.87 202.139 451.895 202.036C451.921 201.934 451.906 201.825 451.855 201.733C451.799 201.645 451.712 201.581 451.611 201.555C451.51 201.53 451.403 201.544 451.312 201.595C445.191 205.272 434.244 223.02 434.125 238.36L434.915 238.755Z" fill="white"/>
<path d="M437.82 223.01C437.737 223.029 437.65 223.02 437.573 222.983C437.496 222.946 437.434 222.885 437.397 222.808C435.644 219.537 434.168 216.124 432.985 212.606C432.97 212.557 432.964 212.505 432.968 212.453C432.973 212.401 432.987 212.351 433.011 212.305C433.035 212.259 433.068 212.218 433.108 212.184C433.147 212.151 433.193 212.126 433.243 212.11C433.292 212.094 433.344 212.088 433.396 212.093C433.448 212.097 433.498 212.112 433.544 212.136C433.59 212.16 433.631 212.192 433.665 212.232C433.698 212.272 433.723 212.318 433.739 212.367C434.911 215.837 436.368 219.203 438.096 222.431C438.145 222.525 438.155 222.635 438.124 222.736C438.093 222.838 438.023 222.923 437.93 222.974L437.82 223.01Z" fill="white"/>
<path d="M435.21 232.293C435.134 232.307 435.057 232.3 434.985 232.273C434.914 232.245 434.852 232.198 434.805 232.137C434.745 232.049 434.721 231.941 434.74 231.836C434.759 231.731 434.819 231.638 434.906 231.577C438.864 228.806 443.666 227.505 448.482 227.9C448.586 227.914 448.682 227.968 448.746 228.052C448.811 228.135 448.84 228.241 448.826 228.346C448.813 228.451 448.758 228.546 448.675 228.611C448.591 228.675 448.485 228.704 448.38 228.691C443.77 228.34 439.178 229.575 435.366 232.192C435.321 232.236 435.268 232.271 435.21 232.293Z" fill="white"/>
<path d="M319.861 139.767L297.463 126.835L275.073 139.767L297.463 152.699L319.861 139.767Z" fill="#F5F5F5"/>
<path d="M297.463 178.572L319.861 165.64V139.767L297.463 152.699V178.572Z" fill="#EBEBEB"/>
<path d="M301.782 169.987C301.664 169.989 301.547 169.961 301.442 169.904C301.299 169.8 301.186 169.661 301.112 169.5C301.038 169.339 301.006 169.162 301.02 168.985V166.228V166.026H301.157L303.308 164.766V167.827C303.305 168.221 303.208 168.609 303.024 168.958C302.84 169.306 302.575 169.606 302.251 169.831C302.112 169.925 301.95 169.979 301.782 169.987ZM301.369 166.43V168.967C301.354 169.085 301.368 169.205 301.412 169.316C301.455 169.427 301.526 169.525 301.617 169.601C301.691 169.634 301.773 169.647 301.854 169.637C301.935 169.627 302.012 169.596 302.077 169.546C302.352 169.354 302.578 169.1 302.738 168.805C302.897 168.509 302.986 168.181 302.996 167.846V167.625H302.196L302.04 166.55L301.369 166.43ZM302.472 167.276H302.968V165.391L301.681 166.136L302.316 166.255L302.472 167.276Z" fill="white"/>
<path d="M302.168 172.175C302.122 172.175 302.078 172.156 302.045 172.123C302.012 172.091 301.994 172.046 301.994 172V169.702C301.992 169.679 301.996 169.656 302.004 169.634C302.013 169.612 302.026 169.592 302.042 169.576C302.059 169.559 302.078 169.546 302.1 169.538C302.122 169.53 302.145 169.526 302.168 169.527C302.215 169.527 302.259 169.546 302.292 169.579C302.325 169.611 302.343 169.656 302.343 169.702V171.963C302.347 171.989 302.345 172.015 302.339 172.04C302.332 172.065 302.32 172.088 302.303 172.108C302.287 172.128 302.266 172.144 302.243 172.156C302.22 172.167 302.194 172.174 302.168 172.175Z" fill="white"/>
<path d="M301.167 172.754C301.136 172.753 301.106 172.745 301.08 172.728C301.054 172.712 301.033 172.689 301.02 172.662C301.007 172.643 300.998 172.622 300.995 172.599C300.991 172.577 300.992 172.554 300.998 172.532C301.005 172.51 301.015 172.49 301.03 172.472C301.045 172.455 301.063 172.441 301.084 172.432L303.078 171.274C303.098 171.262 303.12 171.255 303.143 171.252C303.166 171.249 303.189 171.25 303.211 171.256C303.233 171.262 303.254 171.273 303.272 171.287C303.291 171.301 303.306 171.318 303.317 171.338C303.338 171.379 303.343 171.426 303.331 171.47C303.32 171.514 303.292 171.552 303.253 171.577L301.249 172.726L301.167 172.754Z" fill="white"/>
<path d="M308.299 168.783C308.236 168.802 308.169 168.802 308.106 168.783C308.039 168.738 307.985 168.676 307.949 168.603C307.914 168.531 307.898 168.45 307.904 168.369V167.901C307.902 167.878 307.906 167.856 307.914 167.835C307.921 167.813 307.933 167.794 307.949 167.778C307.964 167.761 307.983 167.748 308.004 167.739C308.024 167.731 308.047 167.726 308.069 167.726C308.092 167.725 308.116 167.728 308.138 167.737C308.159 167.745 308.179 167.758 308.196 167.774C308.212 167.791 308.225 167.81 308.233 167.832C308.242 167.854 308.245 167.877 308.244 167.901V168.287C308.244 168.36 308.244 168.397 308.244 168.397C308.244 168.397 308.299 168.397 308.354 168.397C308.461 168.3 308.545 168.18 308.601 168.047C308.657 167.913 308.682 167.769 308.676 167.625V164.61C308.676 164.588 308.68 164.565 308.689 164.545C308.698 164.524 308.711 164.505 308.727 164.49C308.744 164.474 308.763 164.462 308.784 164.455C308.805 164.447 308.828 164.444 308.85 164.445C308.894 164.445 308.936 164.462 308.967 164.493C308.998 164.524 309.016 164.566 309.016 164.61V167.68C309.023 167.885 308.982 168.088 308.898 168.275C308.813 168.461 308.687 168.626 308.529 168.755C308.455 168.779 308.377 168.788 308.299 168.783Z" fill="white"/>
<path d="M306.479 166.108V165.814C306.522 165.049 306.744 164.304 307.127 163.64C307.51 162.976 308.044 162.411 308.685 161.991C308.914 161.798 309.198 161.68 309.496 161.653C309.795 161.627 310.095 161.693 310.355 161.842C310.614 161.992 310.822 162.218 310.949 162.489C311.076 162.761 311.117 163.065 311.065 163.36V163.461L306.479 166.108ZM309.714 162.028C309.41 162.037 309.115 162.129 308.86 162.294C308.314 162.654 307.851 163.127 307.502 163.68C307.154 164.233 306.927 164.854 306.838 165.502L310.716 163.268C310.731 163.051 310.69 162.834 310.596 162.638C310.503 162.442 310.361 162.273 310.183 162.147C310.04 162.066 309.878 162.025 309.714 162.028Z" fill="white"/>
<path d="M314.448 165.254C314.403 165.254 314.36 165.237 314.327 165.206C314.295 165.175 314.275 165.133 314.273 165.088V159.224C314.273 159.178 314.292 159.134 314.324 159.101C314.357 159.068 314.401 159.05 314.448 159.05C314.494 159.05 314.538 159.068 314.571 159.101C314.604 159.134 314.622 159.178 314.622 159.224V165.088C314.62 165.133 314.601 165.175 314.568 165.206C314.536 165.237 314.493 165.254 314.448 165.254Z" fill="white"/>
<path d="M313.979 160.557H313.915C313.893 160.548 313.874 160.535 313.858 160.518C313.842 160.502 313.83 160.483 313.821 160.461C313.812 160.44 313.808 160.417 313.808 160.394C313.809 160.371 313.814 160.348 313.823 160.327L314.439 158.912L315.119 159.702C315.133 159.719 315.144 159.739 315.151 159.76C315.158 159.781 315.161 159.803 315.159 159.825C315.157 159.848 315.151 159.869 315.141 159.889C315.131 159.909 315.117 159.927 315.1 159.941C315.083 159.956 315.064 159.967 315.043 159.974C315.021 159.98 314.999 159.983 314.977 159.981C314.955 159.98 314.933 159.974 314.913 159.964C314.893 159.954 314.876 159.94 314.861 159.923L314.53 159.555L314.135 160.474C314.12 160.501 314.097 160.524 314.069 160.538C314.041 160.553 314.01 160.559 313.979 160.557Z" fill="white"/>
<path d="M316.075 164.353C316.03 164.351 315.988 164.331 315.957 164.299C315.926 164.266 315.909 164.223 315.909 164.178V158.314C315.903 158.289 315.903 158.262 315.909 158.236C315.915 158.211 315.926 158.187 315.942 158.166C315.959 158.145 315.979 158.129 316.003 158.117C316.027 158.106 316.053 158.1 316.079 158.1C316.105 158.1 316.131 158.106 316.155 158.117C316.179 158.129 316.2 158.145 316.216 158.166C316.232 158.187 316.244 158.211 316.25 158.236C316.255 158.262 316.255 158.289 316.249 158.314V164.178C316.249 164.225 316.231 164.269 316.198 164.302C316.165 164.334 316.121 164.353 316.075 164.353Z" fill="white"/>
<path d="M315.569 159.647H315.505C315.484 159.638 315.464 159.625 315.448 159.608C315.432 159.592 315.42 159.573 315.411 159.551C315.403 159.53 315.398 159.507 315.399 159.484C315.399 159.461 315.404 159.438 315.413 159.417L316.029 158.002L316.709 158.792C316.739 158.825 316.756 158.867 316.756 158.912C316.756 158.956 316.739 158.999 316.709 159.031C316.675 159.062 316.631 159.079 316.585 159.079C316.539 159.079 316.495 159.062 316.461 159.031L316.139 158.654L315.744 159.574C315.725 159.601 315.698 159.623 315.667 159.636C315.636 159.649 315.602 159.653 315.569 159.647Z" fill="white"/>
<path d="M297.463 178.572L275.064 165.64L275.073 139.767L297.463 152.699V178.572Z" fill="#E0E0E0"/>
<path d="M287.481 146.936L309.861 133.995L307.334 132.533L284.944 145.474L287.481 146.936Z" fill="white"/>
<path d="M278.465 154.601L286.488 159.197C286.95 159.501 287.334 159.908 287.61 160.387C287.886 160.866 288.047 161.402 288.079 161.954V166.899C288.079 167.919 287.362 168.333 286.488 167.818L278.465 163.222C278.003 162.919 277.618 162.511 277.342 162.033C277.066 161.554 276.906 161.017 276.875 160.465V155.52C276.875 154.5 277.591 154.096 278.465 154.601Z" fill="#31B78A"/>
<path d="M277.849 155.833L278.152 156.017V161.504L277.849 161.329V155.833Z" fill="#31B78A"/>
<path d="M279.09 156.55L279.613 156.862V162.349L279.09 162.046V156.55Z" fill="#31B78A"/>
<path d="M280.33 157.267L280.634 157.441V162.937L280.33 162.763V157.267Z" fill="#31B78A"/>
<path d="M281.259 157.8L281.874 158.158V163.654L281.259 163.287V157.8Z" fill="#31B78A"/>
<path d="M282.803 158.7L283.115 158.875V164.371L282.803 164.187V158.7Z" fill="#31B78A"/>
<path d="M283.704 159.206L284.347 159.592V165.079L283.694 164.693L283.704 159.206Z" fill="#31B78A"/>
<path d="M285.284 160.134L285.588 160.309V165.796L285.284 165.621V160.134Z" fill="#31B78A"/>
<path d="M285.992 160.529L286.148 160.621V166.108L285.992 166.026V160.529Z" fill="#31B78A"/>
<path d="M284.724 159.831L284.871 159.923V165.41L284.724 165.327V159.831Z" fill="#31B78A"/>
<path d="M282.224 158.369L282.371 158.452V163.948L282.224 163.857V158.369Z" fill="#31B78A"/>
<path d="M280.854 157.579L281.011 157.671V163.167L280.854 163.075V157.579Z" fill="#31B78A"/>
<path d="M279.871 157.037L280.027 157.129V162.625L279.871 162.533V157.037Z" fill="#31B78A"/>
<path d="M278.538 156.228L278.694 156.32V161.816L278.538 161.724V156.228Z" fill="#31B78A"/>
<path d="M286.525 160.842L286.829 161.017V166.513L286.525 166.338V160.842Z" fill="#31B78A"/>
<path d="M289.999 135.456L263.86 120.373L237.73 135.456L263.86 150.548L289.999 135.456Z" fill="#F5F5F5"/>
<path d="M252.656 144.077L278.796 128.995L276.259 127.533L250.128 142.616L252.656 144.077Z" fill="white"/>
<path d="M263.86 197.965L289.999 182.882V135.456L263.86 150.548V197.965Z" fill="#EBEBEB"/>
<path d="M268.18 189.426C268.06 189.428 267.942 189.396 267.84 189.334C267.695 189.232 267.579 189.093 267.505 188.931C267.431 188.77 267.4 188.592 267.417 188.415V185.658V185.456H267.564L269.706 184.196V187.257C269.701 187.651 269.603 188.038 269.419 188.387C269.235 188.735 268.971 189.035 268.649 189.261C268.51 189.358 268.348 189.415 268.18 189.426ZM267.766 185.869V188.406C267.751 188.524 267.766 188.644 267.809 188.755C267.852 188.866 267.923 188.964 268.014 189.04C268.089 189.073 268.171 189.086 268.252 189.076C268.333 189.066 268.409 189.035 268.474 188.985C268.749 188.793 268.976 188.539 269.135 188.244C269.295 187.949 269.383 187.62 269.393 187.285V187.064H268.593L268.437 185.989L267.766 185.869ZM268.869 186.715H269.411V184.831L268.125 185.584L268.759 185.695L268.869 186.715Z" fill="white"/>
<path d="M268.566 191.577C268.519 191.577 268.475 191.559 268.442 191.526C268.41 191.493 268.391 191.449 268.391 191.402V189.095C268.391 189.073 268.396 189.051 268.405 189.03C268.413 189.009 268.426 188.99 268.443 188.975C268.459 188.959 268.479 188.947 268.5 188.94C268.521 188.932 268.543 188.929 268.566 188.93C268.611 188.93 268.654 188.947 268.686 188.978C268.719 189.009 268.738 189.051 268.74 189.095V191.402C268.738 191.448 268.719 191.491 268.687 191.523C268.655 191.556 268.611 191.575 268.566 191.577Z" fill="white"/>
<path d="M267.573 192.184C267.543 192.184 267.514 192.177 267.488 192.162C267.462 192.148 267.441 192.127 267.426 192.101C267.405 192.06 267.4 192.013 267.412 191.969C267.424 191.925 267.452 191.887 267.49 191.862L269.485 190.713C269.505 190.701 269.527 190.694 269.55 190.691C269.572 190.688 269.596 190.69 269.618 190.695C269.64 190.701 269.661 190.712 269.679 190.726C269.697 190.74 269.712 190.757 269.724 190.777C269.735 190.797 269.742 190.818 269.745 190.84C269.748 190.862 269.747 190.884 269.741 190.906C269.735 190.927 269.724 190.947 269.71 190.965C269.696 190.982 269.679 190.997 269.66 191.007L267.656 192.165C267.631 192.18 267.602 192.186 267.573 192.184Z" fill="white"/>
<path d="M274.696 188.185C274.629 188.186 274.563 188.17 274.503 188.139C274.436 188.094 274.382 188.032 274.347 187.96C274.311 187.887 274.295 187.806 274.301 187.726V187.248C274.301 187.225 274.306 187.203 274.314 187.182C274.323 187.162 274.336 187.143 274.353 187.128C274.369 187.112 274.388 187.1 274.41 187.092C274.431 187.085 274.453 187.081 274.476 187.082C274.497 187.082 274.519 187.087 274.539 187.095C274.559 187.103 274.577 187.116 274.593 187.131C274.608 187.146 274.62 187.165 274.629 187.185C274.637 187.205 274.641 187.226 274.641 187.248V187.726C274.641 187.79 274.641 187.827 274.641 187.836C274.641 187.845 274.696 187.836 274.751 187.836C274.859 187.737 274.943 187.616 274.999 187.481C275.054 187.346 275.08 187.201 275.073 187.055V183.994C275.073 183.948 275.091 183.904 275.124 183.871C275.157 183.838 275.201 183.82 275.248 183.82C275.293 183.822 275.336 183.841 275.369 183.873C275.401 183.906 275.42 183.949 275.422 183.994V187.055C275.431 187.261 275.391 187.466 275.304 187.653C275.218 187.84 275.088 188.003 274.926 188.13C274.855 188.166 274.776 188.185 274.696 188.185Z" fill="white"/>
<path d="M272.876 185.511V185.207C272.92 184.443 273.142 183.7 273.525 183.038C273.908 182.375 274.442 181.812 275.082 181.393C275.312 181.2 275.595 181.082 275.894 181.056C276.192 181.029 276.492 181.095 276.752 181.245C277.012 181.394 277.219 181.62 277.347 181.892C277.474 182.163 277.514 182.467 277.463 182.763V182.864L272.876 185.511ZM276.112 181.421C275.809 181.435 275.514 181.526 275.257 181.687C274.71 182.048 274.247 182.522 273.898 183.077C273.549 183.632 273.323 184.255 273.235 184.904L277.114 182.671C277.127 182.453 277.085 182.235 276.992 182.037C276.899 181.839 276.757 181.668 276.58 181.54C276.437 181.462 276.275 181.421 276.112 181.421Z" fill="white"/>
<path d="M280.882 184.656C280.836 184.656 280.791 184.638 280.758 184.605C280.726 184.572 280.707 184.528 280.707 184.481V178.617C280.707 178.571 280.726 178.527 280.758 178.494C280.791 178.461 280.836 178.443 280.882 178.443C280.928 178.443 280.973 178.461 281.005 178.494C281.038 178.527 281.057 178.571 281.057 178.617V184.481C281.057 184.528 281.038 184.572 281.005 184.605C280.973 184.638 280.928 184.656 280.882 184.656Z" fill="white"/>
<path d="M280.376 179.959H280.312C280.291 179.951 280.272 179.939 280.256 179.924C280.24 179.908 280.228 179.889 280.219 179.869C280.21 179.848 280.206 179.826 280.206 179.804C280.206 179.781 280.211 179.759 280.22 179.739L280.836 178.323L281.516 179.114C281.545 179.148 281.56 179.192 281.556 179.237C281.553 179.282 281.532 179.324 281.498 179.353C281.464 179.382 281.419 179.397 281.374 179.393C281.33 179.39 281.288 179.369 281.259 179.334L280.928 178.958L280.533 179.877C280.517 179.904 280.494 179.926 280.466 179.941C280.439 179.955 280.408 179.962 280.376 179.959Z" fill="white"/>
<path d="M282.472 183.746C282.428 183.746 282.386 183.729 282.355 183.698C282.324 183.667 282.307 183.625 282.307 183.581V177.717C282.305 177.694 282.309 177.672 282.316 177.651C282.324 177.629 282.336 177.61 282.352 177.594C282.367 177.577 282.386 177.564 282.406 177.556C282.427 177.547 282.449 177.542 282.472 177.542C282.495 177.541 282.519 177.544 282.54 177.553C282.562 177.561 282.582 177.574 282.598 177.59C282.615 177.607 282.628 177.627 282.636 177.648C282.644 177.67 282.648 177.693 282.647 177.717V183.581C282.647 183.603 282.642 183.625 282.633 183.646C282.624 183.667 282.611 183.686 282.595 183.701C282.579 183.717 282.559 183.729 282.538 183.736C282.517 183.744 282.494 183.747 282.472 183.746Z" fill="white"/>
<path d="M281.976 179.049H281.902C281.861 179.029 281.829 178.995 281.812 178.952C281.795 178.91 281.794 178.863 281.81 178.82L282.426 177.404L283.115 178.195C283.144 178.228 283.159 178.27 283.159 178.314C283.159 178.358 283.144 178.4 283.115 178.434C283.099 178.45 283.08 178.463 283.058 178.472C283.037 178.481 283.014 178.485 282.991 178.485C282.968 178.485 282.945 178.481 282.924 178.472C282.903 178.463 282.883 178.45 282.867 178.434L282.545 178.057L282.15 178.976C282.132 179.005 282.106 179.027 282.074 179.04C282.043 179.053 282.009 179.057 281.976 179.049Z" fill="white"/>
<path d="M263.86 197.965L237.73 182.882V135.456L263.86 150.548V197.965Z" fill="#E0E0E0"/>
<path d="M243.042 173.02L251.057 177.616C251.52 177.918 251.907 178.325 252.184 178.804C252.462 179.283 252.624 179.82 252.656 180.373V185.327C252.656 186.338 251.939 186.752 251.057 186.246L243.042 181.651C242.579 181.349 242.193 180.942 241.917 180.462C241.64 179.983 241.481 179.446 241.452 178.893V173.948C241.452 172.882 242.169 172.515 243.042 173.02Z" fill="#F5F5F5"/>
<path d="M242.426 174.252L242.73 174.436V179.923L242.426 179.748V174.252Z" fill="#E0E0E0"/>
<path d="M243.667 174.969L244.191 175.281V180.777L243.667 180.465V174.969Z" fill="#E0E0E0"/>
<path d="M244.899 175.686L245.211 175.86L245.202 181.356L244.899 181.182V175.686Z" fill="#E0E0E0"/>
<path d="M245.836 176.219L246.443 176.577V182.073L245.836 181.706V176.219Z" fill="#E0E0E0"/>
<path d="M247.38 177.119L247.684 177.294V182.79L247.38 182.606V177.119Z" fill="#E0E0E0"/>
<path d="M248.272 177.625L248.924 178.011V183.498L248.272 183.112V177.625Z" fill="#E0E0E0"/>
<path d="M249.862 178.544L250.165 178.728V184.215L249.862 184.04V178.544Z" fill="#E0E0E0"/>
<path d="M250.57 178.948L250.726 179.04V184.537L250.57 184.445V178.948Z" fill="#E0E0E0"/>
<path d="M249.301 178.25L249.448 178.342V183.829L249.301 183.746V178.25Z" fill="#E0E0E0"/>
<path d="M246.801 176.788L246.948 176.871V182.367L246.801 182.276V176.788Z" fill="#E0E0E0"/>
<path d="M245.432 175.998L245.579 176.09V181.586L245.432 181.494V175.998Z" fill="#E0E0E0"/>
<path d="M244.448 175.456L244.605 175.548V181.044L244.448 180.952V175.456Z" fill="#E0E0E0"/>
<path d="M243.116 174.647L243.272 174.739V180.235L243.116 180.143V174.647Z" fill="#E0E0E0"/>
<path d="M251.103 179.261L251.406 179.435V184.932L251.103 184.757V179.261Z" fill="#E0E0E0"/>
<path d="M250.128 148.737L252.656 150.199V144.077L250.128 142.616V148.737Z" fill="#F0F0F0"/>
<path d="M211.59 185.033L192.923 174.261L166.793 189.343L185.46 200.125L211.59 185.033Z" fill="#F5F5F5"/>
<path d="M185.46 243.231L211.59 228.148V185.033L185.46 200.125V243.231Z" fill="#EBEBEB"/>
<path d="M189.771 234.656C189.654 234.658 189.539 234.626 189.44 234.564C189.295 234.46 189.18 234.321 189.106 234.16C189.032 233.999 189.001 233.821 189.017 233.645V230.887V230.685H189.155L191.305 229.426V232.487C191.301 232.88 191.203 233.268 191.019 233.616C190.835 233.964 190.571 234.264 190.248 234.49C190.106 234.586 189.942 234.643 189.771 234.656ZM189.366 231.099V233.635C189.349 233.754 189.363 233.874 189.406 233.985C189.45 234.096 189.522 234.194 189.614 234.27C189.689 234.299 189.771 234.31 189.851 234.3C189.931 234.29 190.008 234.261 190.074 234.214C190.349 234.022 190.576 233.769 190.735 233.473C190.895 233.178 190.983 232.85 190.993 232.514V232.293H190.193L190.037 231.218L189.366 231.099ZM190.469 231.944H190.965V230.051L189.679 230.805L190.313 230.915L190.469 231.944Z" fill="white"/>
<path d="M190.166 236.843C190.119 236.843 190.075 236.825 190.042 236.792C190.01 236.759 189.991 236.715 189.991 236.668V234.361C189.991 234.339 189.996 234.317 190.005 234.296C190.013 234.275 190.026 234.257 190.043 234.241C190.059 234.226 190.078 234.214 190.1 234.206C190.121 234.198 190.143 234.195 190.166 234.196C190.21 234.196 190.252 234.213 190.283 234.245C190.314 234.276 190.331 234.318 190.331 234.361V236.668C190.331 236.713 190.314 236.756 190.283 236.789C190.253 236.821 190.21 236.841 190.166 236.843Z" fill="white"/>
<path d="M189.164 237.413C189.134 237.415 189.104 237.408 189.078 237.393C189.052 237.378 189.031 237.357 189.017 237.33C189.004 237.311 188.995 237.29 188.99 237.267C188.986 237.244 188.986 237.221 188.991 237.199C188.997 237.176 189.006 237.155 189.02 237.136C189.034 237.118 189.052 237.103 189.072 237.091L191.076 235.942C191.096 235.931 191.118 235.923 191.14 235.92C191.163 235.917 191.186 235.919 191.209 235.925C191.231 235.931 191.252 235.941 191.27 235.955C191.288 235.969 191.303 235.987 191.315 236.007C191.326 236.026 191.333 236.047 191.336 236.069C191.339 236.091 191.337 236.114 191.331 236.135C191.325 236.157 191.315 236.177 191.301 236.194C191.287 236.212 191.27 236.226 191.25 236.236L189.247 237.395C189.222 237.409 189.193 237.416 189.164 237.413Z" fill="white"/>
<path d="M196.296 233.452C196.229 233.452 196.163 233.436 196.103 233.406C196.036 233.361 195.982 233.299 195.947 233.226C195.911 233.153 195.895 233.073 195.901 232.992V232.514C195.901 232.47 195.918 232.428 195.949 232.397C195.98 232.366 196.023 232.349 196.066 232.349C196.089 232.347 196.111 232.351 196.133 232.358C196.154 232.366 196.173 232.378 196.189 232.394C196.206 232.409 196.219 232.428 196.228 232.449C196.237 232.469 196.241 232.492 196.241 232.514V232.992C196.241 233.056 196.241 233.093 196.241 233.102C196.241 233.111 196.296 233.102 196.351 233.102C196.457 233.002 196.54 232.88 196.595 232.746C196.651 232.611 196.677 232.467 196.673 232.321V229.26C196.667 229.235 196.667 229.208 196.673 229.182C196.678 229.157 196.69 229.133 196.706 229.112C196.723 229.092 196.743 229.075 196.767 229.063C196.791 229.052 196.817 229.046 196.843 229.046C196.869 229.046 196.895 229.052 196.919 229.063C196.943 229.075 196.964 229.092 196.98 229.112C196.996 229.133 197.008 229.157 197.013 229.182C197.019 229.208 197.019 229.235 197.013 229.26V232.321C197.021 232.526 196.981 232.729 196.896 232.916C196.812 233.103 196.685 233.267 196.526 233.396C196.455 233.432 196.376 233.451 196.296 233.452Z" fill="white"/>
<path d="M194.476 230.786V230.483C194.52 229.719 194.742 228.976 195.125 228.313C195.508 227.651 196.042 227.087 196.682 226.669C196.911 226.473 197.194 226.354 197.493 226.326C197.792 226.299 198.092 226.365 198.352 226.515C198.612 226.665 198.819 226.892 198.945 227.165C199.071 227.438 199.108 227.743 199.054 228.038V228.139L194.476 230.786ZM197.712 226.696C197.409 226.71 197.114 226.802 196.857 226.963C196.31 227.324 195.847 227.798 195.498 228.352C195.149 228.907 194.923 229.53 194.835 230.18L198.713 227.937C198.726 227.72 198.684 227.504 198.591 227.308C198.498 227.112 198.357 226.942 198.18 226.816C198.04 226.736 197.882 226.691 197.721 226.687L197.712 226.696Z" fill="white"/>
<path d="M202.482 229.922C202.435 229.922 202.391 229.904 202.358 229.871C202.326 229.838 202.307 229.794 202.307 229.748V223.884C202.307 223.837 202.326 223.793 202.358 223.76C202.391 223.727 202.435 223.709 202.482 223.709C202.528 223.709 202.573 223.727 202.605 223.76C202.638 223.793 202.656 223.837 202.656 223.884V229.748C202.656 229.794 202.638 229.838 202.605 229.871C202.573 229.904 202.528 229.922 202.482 229.922Z" fill="white"/>
<path d="M201.976 225.271H201.912C201.891 225.263 201.872 225.251 201.856 225.236C201.84 225.22 201.828 225.201 201.819 225.181C201.81 225.16 201.806 225.138 201.806 225.116C201.806 225.093 201.811 225.071 201.82 225.051L202.436 223.635L203.116 224.426C203.145 224.46 203.16 224.504 203.156 224.549C203.153 224.594 203.132 224.636 203.098 224.665C203.081 224.679 203.061 224.69 203.04 224.697C203.019 224.704 202.997 224.707 202.974 224.705C202.93 224.702 202.888 224.681 202.859 224.647L202.528 224.27L202.133 225.189C202.117 225.216 202.094 225.238 202.066 225.253C202.039 225.267 202.008 225.274 201.976 225.271Z" fill="white"/>
<path d="M204.072 229.012C204.027 229.012 203.984 228.995 203.952 228.964C203.919 228.934 203.9 228.892 203.897 228.847V222.983C203.897 222.937 203.916 222.892 203.948 222.859C203.981 222.827 204.026 222.808 204.072 222.808C204.095 222.807 204.118 222.811 204.14 222.819C204.162 222.827 204.182 222.84 204.198 222.856C204.215 222.873 204.228 222.893 204.236 222.915C204.244 222.936 204.248 222.96 204.247 222.983V228.847C204.247 228.869 204.242 228.892 204.233 228.912C204.224 228.933 204.211 228.952 204.195 228.967C204.178 228.983 204.159 228.995 204.138 229.002C204.117 229.01 204.094 229.014 204.072 229.012Z" fill="white"/>
<path d="M203.566 224.352C203.546 224.36 203.523 224.36 203.502 224.352C203.481 224.344 203.462 224.332 203.446 224.317C203.43 224.301 203.418 224.282 203.409 224.262C203.4 224.241 203.396 224.219 203.396 224.197C203.396 224.174 203.401 224.152 203.41 224.132L204.026 222.716L204.706 223.507C204.736 223.539 204.753 223.582 204.753 223.626C204.753 223.671 204.736 223.713 204.706 223.746C204.69 223.762 204.671 223.775 204.649 223.784C204.628 223.793 204.605 223.798 204.582 223.798C204.559 223.798 204.536 223.793 204.515 223.784C204.493 223.775 204.474 223.762 204.458 223.746L204.136 223.369L203.741 224.288C203.721 224.314 203.694 224.334 203.663 224.345C203.632 224.357 203.599 224.359 203.566 224.352Z" fill="white"/>
<path d="M185.46 243.231L166.793 232.459V189.343L185.46 200.125V243.231Z" fill="#E0E0E0"/>
<path d="M175.46 200.474L177.988 201.935V195.814L175.46 194.353V200.474Z" fill="#F5F5F5"/>
<path d="M177.988 195.814L204.127 180.722L201.59 179.261L175.46 194.353L177.988 195.814Z" fill="white"/>
<path d="M177.988 221.678L144.394 202.285L110.791 221.678L144.394 241.08L177.988 221.678Z" fill="#F5F5F5"/>
<path d="M144.394 266.944L177.988 247.551V221.678L144.394 241.08V266.944Z" fill="#EBEBEB"/>
<path d="M148.705 258.359C148.588 258.357 148.475 258.326 148.374 258.268C148.23 258.164 148.116 258.025 148.042 257.863C147.968 257.702 147.936 257.525 147.951 257.348V254.591V254.389H148.089L150.24 253.12V256.19C150.234 256.583 150.135 256.968 149.951 257.315C149.767 257.661 149.504 257.96 149.183 258.185C149.041 258.284 148.876 258.344 148.705 258.359ZM148.291 254.802V257.339C148.275 257.456 148.289 257.575 148.333 257.685C148.376 257.794 148.447 257.89 148.539 257.964C148.615 257.999 148.698 258.012 148.78 258.004C148.862 257.996 148.941 257.967 149.008 257.918C149.282 257.725 149.508 257.471 149.667 257.176C149.827 256.881 149.916 256.553 149.927 256.218V255.988H149.1L148.944 254.913L148.291 254.802ZM149.394 255.648H149.927V253.764L148.65 254.518L149.284 254.628L149.394 255.648Z" fill="white"/>
<path d="M149.091 260.547C149.069 260.547 149.047 260.543 149.027 260.534C149.007 260.526 148.989 260.514 148.974 260.498C148.958 260.483 148.946 260.465 148.938 260.445C148.93 260.425 148.925 260.403 148.925 260.381V258.075C148.919 258.049 148.919 258.022 148.925 257.997C148.931 257.971 148.942 257.947 148.958 257.926C148.975 257.906 148.996 257.889 149.019 257.877C149.043 257.866 149.069 257.86 149.095 257.86C149.122 257.86 149.148 257.866 149.171 257.877C149.195 257.889 149.216 257.906 149.232 257.926C149.249 257.947 149.26 257.971 149.266 257.997C149.271 258.022 149.271 258.049 149.265 258.075V260.381C149.265 260.404 149.261 260.426 149.252 260.447C149.243 260.468 149.23 260.486 149.214 260.502C149.197 260.517 149.178 260.529 149.157 260.537C149.136 260.545 149.113 260.548 149.091 260.547Z" fill="white"/>
<path d="M148.089 261.117C148.052 261.114 148.017 261.101 147.989 261.077C147.96 261.054 147.94 261.022 147.931 260.986C147.922 260.95 147.924 260.913 147.937 260.878C147.951 260.844 147.975 260.815 148.006 260.795L150.01 259.646C150.028 259.633 150.049 259.624 150.071 259.62C150.093 259.616 150.116 259.616 150.137 259.621C150.159 259.626 150.18 259.636 150.197 259.65C150.215 259.664 150.229 259.681 150.24 259.701C150.253 259.72 150.262 259.742 150.266 259.764C150.271 259.787 150.27 259.811 150.265 259.833C150.26 259.856 150.25 259.877 150.236 259.895C150.222 259.914 150.205 259.929 150.184 259.94L148.181 261.117H148.089Z" fill="white"/>
<path d="M155.221 257.165C155.161 257.178 155.098 257.178 155.037 257.165C154.967 257.12 154.91 257.057 154.873 256.982C154.836 256.908 154.82 256.825 154.826 256.742V256.273C154.826 256.227 154.844 256.182 154.877 256.15C154.91 256.117 154.954 256.098 155.001 256.098C155.047 256.098 155.091 256.117 155.124 256.15C155.157 256.182 155.175 256.227 155.175 256.273V256.742C155.163 256.781 155.163 256.822 155.175 256.861C155.175 256.861 155.23 256.861 155.295 256.861C155.398 256.76 155.48 256.638 155.534 256.504C155.587 256.369 155.613 256.225 155.607 256.08V253.019C155.609 252.974 155.629 252.931 155.661 252.898C155.693 252.866 155.736 252.847 155.782 252.845C155.828 252.845 155.873 252.863 155.905 252.896C155.938 252.929 155.956 252.973 155.956 253.019V256.08C155.964 256.285 155.924 256.488 155.839 256.675C155.755 256.862 155.628 257.026 155.469 257.155C155.389 257.178 155.303 257.181 155.221 257.165Z" fill="white"/>
<path d="M153.411 254.49V254.187C153.45 253.422 153.671 252.677 154.055 252.014C154.438 251.351 154.973 250.788 155.616 250.372C155.845 250.177 156.128 250.058 156.427 250.03C156.726 250.003 157.026 250.068 157.286 250.219C157.546 250.369 157.753 250.596 157.879 250.869C158.005 251.142 158.043 251.447 157.988 251.742V251.843L153.411 254.49ZM156.646 250.4C156.34 250.415 156.043 250.507 155.782 250.666C155.237 251.028 154.775 251.503 154.428 252.057C154.081 252.612 153.856 253.235 153.769 253.883L157.638 251.641C157.653 251.425 157.613 251.209 157.521 251.012C157.43 250.816 157.29 250.647 157.115 250.519C156.972 250.438 156.81 250.397 156.646 250.4Z" fill="white"/>
<path d="M161.416 253.635C161.393 253.637 161.369 253.633 161.348 253.625C161.326 253.616 161.306 253.604 161.29 253.587C161.273 253.571 161.26 253.551 161.252 253.529C161.244 253.507 161.24 253.484 161.241 253.461V247.597C161.235 247.571 161.235 247.544 161.241 247.519C161.247 247.493 161.258 247.469 161.275 247.448C161.291 247.428 161.312 247.411 161.335 247.4C161.359 247.388 161.385 247.382 161.411 247.382C161.438 247.382 161.464 247.388 161.487 247.4C161.511 247.411 161.532 247.428 161.548 247.448C161.565 247.469 161.576 247.493 161.582 247.519C161.588 247.544 161.587 247.571 161.581 247.597V253.461C161.583 253.483 161.579 253.506 161.572 253.527C161.564 253.548 161.552 253.567 161.536 253.584C161.521 253.6 161.502 253.613 161.482 253.622C161.461 253.631 161.439 253.635 161.416 253.635Z" fill="white"/>
<path d="M160.956 248.939H160.883C160.862 248.93 160.843 248.917 160.827 248.9C160.811 248.883 160.799 248.864 160.791 248.842C160.783 248.82 160.78 248.797 160.782 248.774C160.783 248.751 160.789 248.729 160.8 248.709L161.407 247.293L162.096 248.084C162.127 248.119 162.142 248.165 162.138 248.212C162.135 248.258 162.113 248.301 162.078 248.332C162.042 248.362 161.996 248.378 161.95 248.374C161.903 248.371 161.86 248.349 161.83 248.314L161.508 247.937L161.113 248.856C161.096 248.882 161.073 248.904 161.046 248.918C161.018 248.933 160.987 248.94 160.956 248.939Z" fill="white"/>
<path d="M163.006 252.725C162.96 252.725 162.915 252.707 162.883 252.674C162.85 252.641 162.831 252.597 162.831 252.551V246.687C162.831 246.64 162.85 246.596 162.883 246.563C162.915 246.53 162.96 246.512 163.006 246.512C163.052 246.512 163.097 246.53 163.13 246.563C163.162 246.596 163.181 246.64 163.181 246.687V252.551C163.181 252.597 163.162 252.641 163.13 252.674C163.097 252.707 163.052 252.725 163.006 252.725Z" fill="white"/>
<path d="M162.501 248.029H162.436C162.415 248.021 162.396 248.008 162.38 247.993C162.364 247.977 162.352 247.959 162.343 247.938C162.335 247.917 162.33 247.895 162.33 247.873C162.331 247.851 162.335 247.829 162.344 247.808L162.96 246.383L163.64 247.174C163.657 247.19 163.67 247.209 163.679 247.231C163.687 247.252 163.692 247.275 163.692 247.298C163.692 247.321 163.687 247.344 163.679 247.365C163.67 247.386 163.657 247.406 163.64 247.422C163.625 247.438 163.606 247.451 163.586 247.46C163.565 247.469 163.543 247.473 163.521 247.473C163.498 247.473 163.476 247.469 163.456 247.46C163.435 247.451 163.417 247.438 163.401 247.422L163.07 247.045L162.675 247.964C162.656 247.991 162.629 248.012 162.598 248.023C162.567 248.035 162.533 248.037 162.501 248.029Z" fill="white"/>
<path d="M144.394 266.944L110.791 247.551V221.678L144.394 241.08V266.944Z" fill="#E0E0E0"/>
<path d="M126.324 236.77L128.852 238.231V232.11L126.324 230.648V236.77Z" fill="#F5F5F5"/>
<path d="M128.852 232.11L162.455 212.716L159.927 211.246L126.324 230.648L128.852 232.11Z" fill="white"/>
<path d="M116.113 237.689L124.128 242.284C124.591 242.587 124.978 242.994 125.255 243.473C125.533 243.951 125.695 244.489 125.727 245.042V249.996C125.727 251.007 125.01 251.42 124.128 250.915L116.113 246.319C115.65 246.017 115.264 245.61 114.988 245.131C114.711 244.652 114.552 244.114 114.523 243.562V238.617C114.523 237.588 115.24 237.22 116.113 237.689Z" fill="#F5F5F5"/>
<path d="M115.497 238.92L115.801 239.095V244.591L115.497 244.417V238.92Z" fill="#E0E0E0"/>
<path d="M116.729 239.637L117.262 239.95V245.437L116.729 245.133V239.637Z" fill="#E0E0E0"/>
<path d="M117.97 240.354L118.282 240.529L118.273 246.025L117.97 245.85V240.354Z" fill="#E0E0E0"/>
<path d="M118.907 240.887L119.523 241.246L119.514 246.742L118.907 246.374V240.887Z" fill="#E0E0E0"/>
<path d="M120.451 241.788L120.755 241.963V247.459L120.451 247.275V241.788Z" fill="#E0E0E0"/>
<path d="M121.343 242.293L121.995 242.679V248.166L121.343 247.78V242.293Z" fill="#E0E0E0"/>
<path d="M122.933 243.222L123.236 243.396V248.883L122.933 248.709V243.222Z" fill="#E0E0E0"/>
<path d="M123.641 243.617L123.797 243.709V249.196L123.641 249.113V243.617Z" fill="#E0E0E0"/>
<path d="M122.372 242.918L122.519 243.001V248.497L122.372 248.415V242.918Z" fill="#E0E0E0"/>
<path d="M119.872 241.457L120.019 241.54V247.036L119.872 246.944V241.457Z" fill="#E0E0E0"/>
<path d="M118.503 240.667L118.659 240.758V246.246L118.503 246.163V240.667Z" fill="#E0E0E0"/>
<path d="M117.519 240.124L117.676 240.216V245.712L117.519 245.621V240.124Z" fill="#E0E0E0"/>
<path d="M116.187 239.315L116.343 239.407V244.894L116.187 244.812V239.315Z" fill="#E0E0E0"/>
<path d="M124.174 243.929L124.477 244.113V249.6L124.174 249.426V243.929Z" fill="#E0E0E0"/>
<path d="M170.524 169.95L144.394 154.858L118.255 169.95L144.394 185.033L170.524 169.95Z" fill="#F5F5F5"/>
<path d="M144.394 236.77L170.524 221.678V169.95L144.394 185.033V236.77Z" fill="#EBEBEB"/>
<path d="M148.705 228.185C148.589 228.186 148.475 228.158 148.374 228.102C148.23 227.999 148.116 227.859 148.042 227.698C147.968 227.537 147.936 227.36 147.951 227.183V224.426V224.224H148.089L150.24 222.965V226.025C150.234 226.419 150.136 226.806 149.952 227.154C149.768 227.502 149.505 227.802 149.183 228.029C149.04 228.122 148.875 228.176 148.705 228.185ZM148.291 224.628V227.174C148.277 227.291 148.292 227.409 148.335 227.518C148.378 227.628 148.449 227.724 148.539 227.799C148.615 227.833 148.698 227.847 148.78 227.839C148.862 227.831 148.941 227.801 149.008 227.753C149.282 227.558 149.508 227.302 149.668 227.006C149.827 226.709 149.916 226.38 149.927 226.044V225.823H149.1L148.944 224.748L148.291 224.628ZM149.394 225.474H149.927V223.59L148.65 224.343L149.284 224.453L149.394 225.474Z" fill="white"/>
<path d="M149.091 230.373C149.068 230.373 149.046 230.368 149.025 230.359C149.005 230.35 148.986 230.337 148.97 230.321C148.955 230.305 148.943 230.285 148.935 230.264C148.927 230.243 148.924 230.22 148.925 230.198V227.9C148.924 227.878 148.927 227.855 148.935 227.834C148.943 227.813 148.955 227.794 148.97 227.777C148.986 227.761 149.005 227.748 149.025 227.739C149.046 227.73 149.068 227.725 149.091 227.726C149.114 227.724 149.137 227.728 149.159 227.736C149.181 227.744 149.201 227.757 149.217 227.774C149.234 227.79 149.246 227.81 149.255 227.832C149.263 227.854 149.267 227.877 149.265 227.9V230.198C149.267 230.221 149.263 230.244 149.255 230.266C149.246 230.288 149.234 230.308 149.217 230.324C149.201 230.341 149.181 230.354 149.159 230.362C149.137 230.37 149.114 230.374 149.091 230.373Z" fill="white"/>
<path d="M148.089 230.952C148.052 230.949 148.017 230.935 147.989 230.912C147.96 230.888 147.94 230.856 147.931 230.821C147.922 230.785 147.924 230.747 147.937 230.713C147.951 230.679 147.975 230.65 148.006 230.63L150.01 229.472C150.05 229.449 150.098 229.442 150.143 229.454C150.187 229.467 150.226 229.496 150.249 229.536C150.272 229.576 150.278 229.624 150.266 229.669C150.254 229.714 150.225 229.752 150.184 229.775L148.181 230.924C148.154 230.943 148.122 230.952 148.089 230.952Z" fill="white"/>
<path d="M155.221 226.99C155.156 226.99 155.092 226.971 155.037 226.935C154.967 226.893 154.91 226.831 154.873 226.758C154.835 226.685 154.819 226.603 154.826 226.521V226.053C154.826 226.006 154.844 225.962 154.877 225.929C154.91 225.897 154.954 225.878 155.001 225.878C155.047 225.878 155.091 225.897 155.124 225.929C155.157 225.962 155.175 226.006 155.175 226.053V226.521C155.163 226.56 155.163 226.602 155.175 226.641C155.214 226.652 155.256 226.652 155.295 226.641C155.4 226.543 155.482 226.423 155.536 226.289C155.59 226.156 155.614 226.013 155.607 225.869V222.808C155.607 222.762 155.626 222.718 155.658 222.685C155.691 222.652 155.736 222.634 155.782 222.634C155.805 222.632 155.828 222.636 155.85 222.644C155.872 222.653 155.892 222.665 155.908 222.682C155.925 222.698 155.938 222.718 155.946 222.74C155.954 222.762 155.958 222.785 155.956 222.808V225.869C155.964 226.074 155.924 226.277 155.839 226.464C155.755 226.651 155.628 226.815 155.469 226.944C155.392 226.979 155.306 226.995 155.221 226.99Z" fill="white"/>
<path d="M153.411 224.352V224.058C153.452 223.292 153.673 222.547 154.057 221.883C154.44 221.219 154.974 220.654 155.616 220.235C155.847 220.044 156.13 219.929 156.428 219.904C156.726 219.879 157.024 219.947 157.283 220.097C157.541 220.247 157.748 220.473 157.874 220.744C158 221.016 158.039 221.319 157.988 221.613V221.705L153.411 224.352ZM156.646 220.272C156.34 220.287 156.043 220.379 155.782 220.538C155.238 220.899 154.777 221.372 154.43 221.925C154.083 222.478 153.857 223.099 153.769 223.746L157.638 221.512C157.655 221.296 157.616 221.079 157.524 220.883C157.432 220.686 157.291 220.517 157.115 220.391C156.976 220.294 156.814 220.237 156.646 220.226V220.272Z" fill="white"/>
<path d="M161.416 223.433C161.37 223.433 161.325 223.415 161.293 223.382C161.26 223.349 161.241 223.305 161.241 223.259V217.395C161.235 217.369 161.235 217.342 161.241 217.317C161.247 217.291 161.258 217.267 161.275 217.246C161.291 217.226 161.312 217.209 161.335 217.198C161.359 217.186 161.385 217.18 161.411 217.18C161.438 217.18 161.464 217.186 161.487 217.198C161.511 217.209 161.532 217.226 161.548 217.246C161.565 217.267 161.576 217.291 161.582 217.317C161.588 217.342 161.587 217.369 161.581 217.395V223.259C161.581 223.303 161.564 223.346 161.534 223.379C161.503 223.411 161.461 223.431 161.416 223.433Z" fill="white"/>
<path d="M160.956 218.755H160.883C160.862 218.746 160.843 218.733 160.827 218.716C160.811 218.7 160.799 218.68 160.791 218.658C160.783 218.637 160.78 218.614 160.782 218.591C160.783 218.568 160.789 218.546 160.8 218.525L161.407 217.11L162.096 217.9C162.127 217.933 162.143 217.975 162.143 218.02C162.143 218.064 162.127 218.107 162.096 218.139C162.062 218.17 162.018 218.187 161.972 218.187C161.926 218.187 161.882 218.17 161.848 218.139L161.526 217.762L161.131 218.681C161.113 218.71 161.087 218.733 161.055 218.746C161.024 218.759 160.99 218.762 160.956 218.755Z" fill="white"/>
<path d="M163.006 222.514C162.96 222.512 162.917 222.493 162.885 222.461C162.853 222.428 162.834 222.385 162.831 222.34V216.476C162.831 216.429 162.85 216.385 162.883 216.352C162.915 216.319 162.96 216.301 163.006 216.301C163.052 216.301 163.097 216.319 163.13 216.352C163.162 216.385 163.181 216.429 163.181 216.476V222.34C163.178 222.385 163.159 222.428 163.127 222.461C163.095 222.493 163.052 222.512 163.006 222.514Z" fill="white"/>
<path d="M162.501 217.854H162.436C162.415 217.845 162.396 217.832 162.38 217.816C162.364 217.799 162.351 217.78 162.343 217.758C162.334 217.737 162.33 217.714 162.33 217.691C162.33 217.668 162.335 217.646 162.344 217.624L162.96 216.209L163.64 216.999C163.657 217.016 163.67 217.035 163.679 217.056C163.687 217.078 163.692 217.1 163.692 217.124C163.692 217.147 163.687 217.169 163.679 217.191C163.67 217.212 163.657 217.231 163.64 217.248C163.607 217.276 163.565 217.292 163.521 217.292C163.477 217.292 163.435 217.276 163.401 217.248L163.07 216.871L162.675 217.79C162.655 217.816 162.628 217.836 162.597 217.847C162.566 217.859 162.533 217.861 162.501 217.854Z" fill="white"/>
<path d="M144.394 236.77L118.255 221.678V169.95L144.394 185.033V236.77Z" fill="#E0E0E0"/>
<path d="M130.653 183.222L133.19 184.684V178.572L130.653 177.101V183.222Z" fill="#F5F5F5"/>
<path d="M133.19 178.572L159.32 163.48L156.793 162.018L130.653 177.101L133.19 178.572Z" fill="white"/>
<path d="M123.576 211.816L131.591 216.411C132.055 216.713 132.441 217.12 132.717 217.599C132.994 218.078 133.153 218.616 133.181 219.169V224.113C133.181 225.124 132.473 225.538 131.591 225.033L123.576 220.437C123.111 220.136 122.724 219.729 122.446 219.25C122.168 218.771 122.007 218.233 121.977 217.68V212.735C121.986 211.724 122.694 211.31 123.576 211.816Z" fill="#F5F5F5"/>
<path d="M122.951 213.057L123.255 213.231V218.727L122.951 218.544V213.057Z" fill="#E0E0E0"/>
<path d="M124.192 213.773L124.716 214.077V219.573L124.192 219.261V213.773Z" fill="#E0E0E0"/>
<path d="M125.433 214.481L125.736 214.665V220.152L125.433 219.977V214.481Z" fill="#E0E0E0"/>
<path d="M126.37 215.014L126.977 215.382V220.869L126.37 220.51V215.014Z" fill="#E0E0E0"/>
<path d="M127.914 215.915L128.218 216.09V221.586L127.914 221.411V215.915Z" fill="#E0E0E0"/>
<path d="M128.806 216.42L129.459 216.806V222.303L128.806 221.917V216.42Z" fill="#E0E0E0"/>
<path d="M130.396 217.349L130.699 217.523V223.02L130.396 222.836V217.349Z" fill="#E0E0E0"/>
<path d="M131.104 217.753L131.251 217.836V223.332L131.104 223.24V217.753Z" fill="#E0E0E0"/>
<path d="M129.826 217.045L129.982 217.137V222.634L129.826 222.542V217.045Z" fill="#E0E0E0"/>
<path d="M127.326 215.584L127.482 215.676V221.163L127.326 221.08V215.584Z" fill="#E0E0E0"/>
<path d="M125.957 214.803L126.113 214.886V220.382L125.957 220.29V214.803Z" fill="#E0E0E0"/>
<path d="M124.982 214.261L125.13 214.343V219.84L124.982 219.748V214.261Z" fill="#E0E0E0"/>
<path d="M123.65 213.452L123.797 213.534V219.031L123.65 218.939V213.452Z" fill="#E0E0E0"/>
<path d="M131.628 218.066L131.94 218.24V223.727L131.628 223.553V218.066Z" fill="#E0E0E0"/>
<path d="M118.503 312.357L218.814 370.261C220.048 370.887 221.411 371.213 222.794 371.213C224.177 371.213 225.541 370.887 226.774 370.261L446.561 243.424C448.757 242.156 448.757 240.097 446.561 238.828L346.249 180.924C345.017 180.294 343.653 179.966 342.269 179.966C340.885 179.966 339.521 180.294 338.289 180.924L118.503 307.762C116.306 309.03 116.306 311.089 118.503 312.357Z" fill="#455A64"/>
<path d="M172.721 339.241C174.431 340.104 176.32 340.553 178.236 340.553C180.151 340.553 182.04 340.104 183.75 339.241C186.811 337.476 186.811 334.646 183.75 332.853C182.041 331.986 180.152 331.534 178.236 331.534C176.319 331.534 174.43 331.986 172.721 332.853C169.66 334.646 169.66 337.495 172.721 339.241Z" fill="#263238"/>
<path d="M220.699 370.261L120.387 312.357C118.42 311.217 118.218 309.453 119.771 308.184C118.79 308.96 117.983 309.934 117.404 311.043C116.824 312.151 116.485 313.37 116.407 314.618V318.359C116.483 319.74 116.882 321.083 117.574 322.281C118.265 323.479 119.229 324.496 120.387 325.252L220.699 383.156C221.925 383.797 223.295 384.113 224.678 384.075V371.217C223.292 371.244 221.922 370.914 220.699 370.261Z" fill="#37474F"/>
<path d="M446.551 256.31C447.712 255.556 448.679 254.539 449.372 253.341C450.065 252.143 450.465 250.798 450.54 249.417V245.676C450.466 244.426 450.127 243.206 449.545 242.096C448.964 240.987 448.153 240.014 447.167 239.242C448.73 240.51 448.527 242.275 446.561 243.406L226.774 370.261C225.546 370.899 224.177 371.216 222.794 371.18V384.112C224.177 384.148 225.546 383.831 226.774 383.193L446.551 256.31Z" fill="#263238"/>
<path d="M235.34 358.267L139.33 302.808C138.006 302.045 138.006 300.804 139.33 300.05L324.916 192.873C325.657 192.497 326.476 192.301 327.306 192.301C328.137 192.301 328.955 192.497 329.696 192.873L425.743 248.323C427.057 249.086 427.057 250.317 425.743 251.08L240.083 358.267C239.347 358.637 238.535 358.83 237.711 358.83C236.888 358.83 236.076 358.637 235.34 358.267Z" fill="white"/>
<path d="M196.655 327.302L207.859 320.831L204.127 318.681L192.923 325.142L196.655 327.302Z" fill="#31B78A"/>
<path d="M331.065 249.701L342.269 243.231L338.528 241.08L327.334 247.551L331.065 249.701Z" fill="#31B78A"/>
<path d="M353.464 236.77L364.668 230.299L360.936 228.148L349.732 234.61L353.464 236.77Z" fill="#31B78A"/>
<path d="M389.42 214.114C389.855 214.331 390.335 214.444 390.821 214.444C391.308 214.444 391.788 214.331 392.223 214.114C392.391 214.056 392.538 213.947 392.642 213.802C392.745 213.657 392.801 213.483 392.801 213.305C392.801 213.126 392.745 212.953 392.642 212.808C392.538 212.663 392.391 212.554 392.223 212.496C391.789 212.274 391.308 212.158 390.821 212.158C390.334 212.158 389.853 212.274 389.42 212.496C389.251 212.554 389.104 212.663 389.001 212.808C388.897 212.953 388.841 213.126 388.841 213.305C388.841 213.483 388.897 213.657 389.001 213.802C389.104 213.947 389.251 214.056 389.42 214.114Z" fill="#263238"/>
<path d="M393.896 226.806C394.763 227.246 395.722 227.475 396.694 227.475C397.667 227.475 398.625 227.246 399.493 226.806C401.037 225.887 401.037 224.463 399.493 223.571C398.625 223.132 397.667 222.903 396.694 222.903C395.722 222.903 394.763 223.132 393.896 223.571C392.351 224.463 392.351 225.915 393.896 226.806Z" fill="#263238"/>
<path d="M389.943 221.181C390.973 220.584 390.918 219.591 389.824 218.957L371.442 208.323C370.85 208.006 370.192 207.834 369.52 207.821C368.849 207.808 368.185 207.955 367.581 208.25C366.552 208.847 366.607 209.84 367.701 210.474L386.138 221.108C386.723 221.415 387.372 221.582 388.032 221.595C388.693 221.608 389.347 221.466 389.943 221.181Z" fill="#263238"/>
<path d="M358.565 178.057L359.19 177.689C358.758 179.258 358.548 180.879 358.565 182.505V184.748C358.565 192.799 368.225 213.369 371.782 220.648C372.149 221.411 367.269 226.604 367.269 226.604L373.069 223.259C373.069 223.259 387.563 211.31 387.563 201.494V199.251C387.563 189.389 381.074 177.652 373.069 173.029C369.024 170.704 365.376 170.621 362.747 172.386L357.232 175.548L358.565 178.057ZM365.817 185.584C365.817 180.989 369.061 179.086 373.069 181.402C372.738 184.371 378.16 193.617 380.311 193.957C380.311 198.553 377.067 200.456 373.069 198.139C370.964 196.761 369.214 194.905 367.961 192.724C366.707 190.543 365.985 188.097 365.854 185.584H365.817Z" fill="#31B78A"/>
<path d="M352.6 188.342C352.765 198.195 367.729 226.604 367.729 226.604C367.729 226.604 382.03 214.454 381.874 204.601V202.358C381.708 192.505 375.026 180.869 366.938 176.384C358.85 171.899 352.435 176.237 352.6 186.099V188.342ZM359.861 189.059C359.787 184.463 363.004 182.505 367.039 184.748C369.172 186.089 370.958 187.914 372.253 190.074C373.549 192.235 374.316 194.671 374.493 197.183C374.576 201.779 371.359 203.737 367.315 201.494C365.185 200.151 363.4 198.325 362.105 196.165C360.811 194.005 360.042 191.571 359.861 189.059Z" fill="#31B78A"/>
<path opacity="0.1" d="M352.6 188.342C352.765 198.195 367.729 226.604 367.729 226.604C367.729 226.604 382.03 214.454 381.874 204.601V202.358C381.708 192.505 375.026 180.869 366.938 176.384C358.85 171.899 352.435 176.237 352.6 186.099V188.342ZM359.861 189.059C359.787 184.463 363.004 182.505 367.039 184.748C369.172 186.089 370.958 187.914 372.253 190.074C373.549 192.235 374.316 194.671 374.493 197.183C374.576 201.779 371.359 203.737 367.315 201.494C365.185 200.151 363.4 198.325 362.105 196.165C360.811 194.005 360.042 191.571 359.861 189.059Z" fill="black"/>
<path d="M212.427 319.747C221.719 325.096 243.502 321.208 261.084 311.052L309.383 283.175C326.966 273.019 333.675 260.464 324.365 255.124C315.054 249.784 293.253 253.69 275.652 263.837L227.445 291.677C209.871 301.824 203.144 314.425 212.427 319.747Z" fill="#F0F0F0"/>
<path d="M353.05 86.0448H353.096L361.047 81.4492H361.111C366.12 78.9125 372.811 79.611 380.017 84.2985C394.502 93.6182 405.559 115.125 404.723 132.322C404.3 140.897 401.046 146.78 396.019 149.371H395.973L388.013 153.967H387.958C382.949 156.513 376.249 155.805 369.034 151.127C354.558 141.798 343.501 120.3 344.337 103.103C344.778 94.519 348.078 88.6367 353.05 86.0448Z" fill="#37474F"/>
<path d="M388.418 153.728L396 149.316H396.055C401.037 146.715 404.327 140.833 404.75 132.267C405.118 124.601 403.123 116.081 399.52 108.168L391.561 112.763C395.173 120.677 397.168 129.197 396.791 136.872C396.396 145.235 393.234 151.053 388.418 153.728Z" fill="#263238"/>
<path d="M369.07 151.118C354.594 141.789 343.538 120.291 344.374 103.094C345.21 85.8977 357.646 79.5099 372.094 88.8297C386.543 98.1494 397.636 119.657 396.8 136.853C395.964 154.05 383.546 160.438 369.07 151.118Z" fill="#455A64"/>
<path d="M381.203 149.905C389.741 150.318 391.129 140.713 391.313 136.577C392.048 121.412 381.883 101.651 369.116 93.4252C366.396 91.5198 363.231 90.3485 359.925 90.0245C351.396 89.6109 350.008 99.2156 349.815 103.352C349.08 118.517 359.236 138.278 372.012 146.55C374.732 148.455 377.897 149.627 381.203 149.95V149.905Z" fill="#FAFAFA"/>
<path d="M368.914 122.818C369.015 122.819 369.115 122.8 369.208 122.763C369.4 122.701 369.566 122.577 369.681 122.411C369.796 122.245 369.852 122.046 369.842 121.844V99.9417C369.842 99.6979 369.746 99.4642 369.573 99.2918C369.401 99.1194 369.167 99.0226 368.923 99.0226C368.68 99.0226 368.446 99.1194 368.273 99.2918C368.101 99.4642 368.004 99.6979 368.004 99.9417V119.179L357.775 106.035C357.623 105.84 357.401 105.713 357.156 105.682C356.911 105.651 356.664 105.719 356.469 105.87C356.274 106.021 356.147 106.243 356.116 106.488C356.085 106.733 356.153 106.98 356.304 107.175L368.206 122.46C368.29 122.569 368.397 122.657 368.52 122.719C368.642 122.781 368.777 122.815 368.914 122.818Z" fill="#37474F"/>
<path d="M374.19 139.022C374.232 139.031 374.276 139.031 374.319 139.022C374.416 138.992 374.498 138.926 374.548 138.837C374.598 138.748 374.611 138.643 374.585 138.544L369.429 121.182C369.4 121.084 369.332 121.001 369.242 120.951C369.151 120.902 369.045 120.891 368.946 120.92C368.848 120.95 368.765 121.017 368.715 121.107C368.666 121.198 368.655 121.304 368.684 121.403L373.831 138.765C373.858 138.839 373.906 138.904 373.97 138.95C374.034 138.996 374.111 139.021 374.19 139.022Z" fill="#31B78A"/>
<path d="M369.208 117.497C367.499 116.403 366.037 117.157 365.945 119.179C365.951 120.282 366.217 121.368 366.722 122.348C367.226 123.329 367.956 124.176 368.85 124.822C370.55 125.925 372.012 125.171 372.113 123.149C372.105 122.045 371.838 120.959 371.334 119.977C370.829 118.995 370.101 118.146 369.208 117.497Z" fill="#31B78A"/>
<path d="M219.063 314.37L230.257 307.899L226.526 305.749L215.331 312.21L219.063 314.37Z" fill="#31B78A"/>
<path d="M241.461 301.438L252.665 294.968L248.924 292.817L237.73 299.278L241.461 301.438Z" fill="#31B78A"/>
<path d="M236.856 298.8C236.856 304.205 233.07 310.749 228.391 313.506C225.901 314.949 223.658 314.995 222.114 313.91C221.491 313.421 220.98 312.805 220.614 312.103C220.248 311.401 220.036 310.629 219.991 309.839C220.305 309.692 220.612 309.529 220.91 309.352C225.588 306.659 229.375 300.087 229.375 294.646C229.379 294.243 229.355 293.841 229.301 293.442C230.003 293.071 230.773 292.85 231.564 292.793C232.356 292.736 233.15 292.844 233.897 293.111C235.735 293.883 236.856 295.878 236.856 298.8Z" fill="#263238"/>
<path d="M237.619 287.697L237.463 287.606C235.11 286.356 231.948 286.585 228.391 288.626C221.176 292.789 215.322 302.918 215.322 311.254C215.322 315.445 216.802 318.377 219.191 319.738C221.581 321.098 224.807 320.868 228.382 318.818C235.597 314.655 241.443 304.517 241.443 296.181C241.452 291.99 240 289.058 237.619 287.697ZM228.428 313.488C225.928 314.931 223.686 314.977 222.142 313.883C220.781 312.964 219.954 311.126 219.954 308.598C219.954 303.203 223.75 296.65 228.428 293.892C230.561 292.661 232.5 292.449 233.943 293.083C235.726 293.846 236.847 295.841 236.847 298.782C236.856 304.223 233.07 310.795 228.391 313.506L228.428 313.488Z" fill="#37474F"/>
<path d="M234.375 293.332L234.274 293.276C232.748 292.458 230.68 292.615 228.391 293.929C223.713 296.631 219.917 303.203 219.917 308.635C219.917 311.392 220.836 313.23 222.426 314.149C224.017 315.069 226.103 314.885 228.391 313.543C233.07 310.841 236.856 304.269 236.856 298.837C236.856 296.116 235.91 294.205 234.375 293.332ZM228.391 311.576C226.388 312.734 224.586 312.771 223.336 311.888C222.252 311.126 221.581 309.664 221.581 307.642C221.71 305.28 222.393 302.981 223.577 300.932C224.76 298.883 226.41 297.142 228.391 295.85C229.035 295.4 229.775 295.107 230.552 294.994C231.329 294.881 232.122 294.95 232.868 295.197C234.301 295.813 235.202 297.412 235.202 299.793C235.074 302.154 234.391 304.452 233.207 306.5C232.024 308.547 230.374 310.286 228.391 311.576Z" fill="#31B78A"/>
<path d="M263.86 288.497L275.064 282.036L271.332 279.876L260.128 286.346L263.86 288.497Z" fill="#31B78A"/>
<path d="M286.268 275.565L297.463 269.104L293.731 266.944L282.527 273.414L286.268 275.565Z" fill="#31B78A"/>
<path d="M308.667 262.633L319.861 256.172L316.13 254.012L304.926 260.483L308.667 262.633Z" fill="#31B78A"/>
<path d="M252.923 202.496C253.04 202.34 253.204 202.225 253.39 202.168C253.577 202.111 253.777 202.115 253.962 202.179C254.146 202.244 254.305 202.366 254.416 202.527C254.526 202.688 254.583 202.88 254.577 203.075C254.649 203.598 254.595 204.131 254.421 204.629C254.247 205.128 253.957 205.578 253.575 205.943C252.84 206.577 252.095 206.319 251.921 205.364C251.85 204.84 251.903 204.308 252.077 203.81C252.252 203.311 252.541 202.861 252.923 202.496Z" fill="#31B78A"/>
<path d="M261.544 206.558L254.053 202.229L252.408 206.191L259.926 210.529L261.544 206.558Z" fill="#31B78A"/>
<path d="M260.395 206.807C261.13 206.182 261.865 206.439 262.049 207.395C262.117 207.917 262.061 208.448 261.885 208.945C261.709 209.441 261.419 209.89 261.038 210.253C260.303 210.887 259.559 210.63 259.384 209.674C259.317 209.15 259.373 208.618 259.549 208.12C259.725 207.622 260.014 207.172 260.395 206.807Z" fill="#31B78A"/>
<path d="M317.968 243.056C317.968 243.24 317.968 243.406 317.968 243.589C317.968 243.957 317.968 244.334 317.968 244.711C316.479 244.076 314.54 244.288 312.407 245.519C307.729 248.222 303.933 254.793 303.933 260.225C303.933 262.744 304.76 264.563 306.121 265.51C305.739 265.782 305.343 266.033 304.935 266.264L304.503 266.484L303.207 271.365L295.707 267.183C293.336 265.813 291.874 262.891 291.874 258.718C291.874 250.382 297.72 240.253 304.935 236.08C308.501 234.021 311.727 233.81 314.126 235.161L321.479 239.279L321.635 239.371L317.968 243.056Z" fill="#455A64"/>
<path d="M321.626 239.288L321.47 239.196C319.117 237.946 315.955 238.176 312.398 240.216C305.183 244.38 299.328 254.508 299.328 262.845C299.328 267.036 300.808 269.968 303.198 271.328C305.588 272.688 308.814 272.459 312.389 270.409C319.604 266.245 325.449 256.108 325.449 247.771C325.477 243.58 323.997 240.648 321.626 239.288ZM312.435 265.078C309.935 266.521 307.692 266.567 306.148 265.473C304.788 264.554 303.961 262.716 303.961 260.188C303.961 254.793 307.757 248.24 312.435 245.483C314.567 244.251 316.507 244.04 317.995 244.674C319.779 245.437 320.9 247.431 320.9 250.372C320.881 255.814 317.076 262.385 312.398 265.078H312.435Z" fill="#37474F"/>
<path d="M320.882 250.409C320.882 255.814 317.095 262.358 312.417 265.115C309.926 266.558 307.683 266.604 306.139 265.519C305.516 265.03 305.005 264.414 304.639 263.712C304.273 263.01 304.061 262.238 304.016 261.448C304.33 261.301 304.637 261.138 304.935 260.961C309.613 258.268 313.4 251.696 313.4 246.255C313.404 245.852 313.38 245.45 313.326 245.051C314.028 244.68 314.798 244.459 315.589 244.402C316.381 244.345 317.175 244.453 317.922 244.72C319.742 245.492 320.882 247.468 320.882 250.409Z" fill="#263238"/>
<path d="M318.382 244.922L318.28 244.858C316.755 244.049 314.678 244.196 312.398 245.519C307.72 248.222 303.924 254.784 303.924 260.225C303.924 262.983 304.843 264.821 306.433 265.74C308.023 266.659 310.11 266.466 312.398 265.124C317.076 262.431 320.863 255.859 320.863 250.418C320.882 247.707 319.962 245.804 318.382 244.922ZM312.398 263.157C310.385 264.324 308.584 264.361 307.343 263.479C306.249 262.716 305.588 261.255 305.588 259.233C305.716 256.87 306.4 254.571 307.583 252.522C308.767 250.474 310.416 248.733 312.398 247.44C314.108 246.448 315.67 246.273 316.865 246.788C318.299 247.404 319.2 249.003 319.2 251.383C319.072 253.743 318.389 256.038 317.208 258.084C316.026 260.13 314.378 261.868 312.398 263.157Z" fill="#31B78A"/>
<path d="M304.926 253.157L326.065 240.951C328.519 239.527 320.551 231.209 314.622 230.648C311.359 230.254 308.048 230.567 304.917 231.567C304.917 231.567 309.429 237.349 308.657 240.63C307.885 243.911 304.926 253.157 304.926 253.157Z" fill="#31B78A"/>
<path d="M275.064 218.663C275.064 218.663 305.707 234.123 307.031 235.051C308.354 235.979 307.031 246.76 304.926 253.157C302.821 259.554 299.586 269.389 298.29 272.146C296.994 274.903 295.303 275.933 292.196 277.725L270.137 290.473L240.276 294.113L228.419 287.679L231.507 268.277C231.507 268.277 263.244 251.393 267.592 248.883C271.939 246.374 284.797 234.6 275.064 218.663Z" fill="#31B78A"/>
<path opacity="0.2" d="M275.064 218.663C275.064 218.663 305.707 234.123 307.031 235.051C308.354 235.979 307.031 246.76 304.926 253.157C302.821 259.554 299.586 269.389 298.29 272.146C296.994 274.903 295.303 275.933 292.196 277.725L270.137 290.473L240.276 294.113L228.419 287.679L231.507 268.277C231.507 268.277 263.244 251.393 267.592 248.883C271.939 246.374 284.797 234.6 275.064 218.663Z" fill="black"/>
<path d="M307.619 249.472C310.376 242.064 312.435 235.924 312.086 231.779C311.663 226.862 309.825 222.845 301.718 220.823C293.612 218.801 282.279 218.838 282.279 218.838L278.832 220.832C278.832 220.832 302.141 234.343 304.788 235.814C306.406 236.733 308.133 240.786 304.963 253.166L305.505 253.479C305.771 253.644 306.736 251.852 307.619 249.472Z" fill="#31B78A"/>
<path opacity="0.3" d="M307.619 249.472C310.376 242.064 312.435 235.924 312.086 231.779C311.663 226.862 309.825 222.845 301.718 220.823C293.612 218.801 282.279 218.838 282.279 218.838L278.832 220.832C278.832 220.832 302.141 234.343 304.788 235.814C306.406 236.733 308.133 240.786 304.963 253.166L305.505 253.479C305.771 253.644 306.736 251.852 307.619 249.472Z" fill="white"/>
<path d="M289.963 227.284L293.731 225.134C293.731 225.134 293.51 212.073 288.014 208.902C282.518 205.731 263.86 207.891 263.86 207.891L260.128 210.042L289.963 227.284Z" fill="#31B78A"/>
<path d="M277.738 211.889C275.946 212.928 275.946 214.601 277.738 215.63C278.743 216.142 279.855 216.408 280.983 216.408C282.111 216.408 283.222 216.142 284.227 215.63C286.01 214.601 286.01 212.919 284.227 211.889C283.221 211.382 282.11 211.118 280.983 211.118C279.856 211.118 278.745 211.382 277.738 211.889Z" fill="#F0F0F0"/>
<path d="M283.474 218.13C282.215 218.865 282.215 220.051 283.474 220.777C284.185 221.141 284.973 221.331 285.772 221.331C286.57 221.331 287.358 221.141 288.069 220.777C289.338 220.051 289.338 218.865 288.069 218.13C287.357 217.77 286.57 217.583 285.772 217.583C284.973 217.583 284.186 217.77 283.474 218.13Z" fill="#F0F0F0"/>
<path d="M269.035 210.226C267.766 210.952 267.766 212.137 269.035 212.873C269.747 213.232 270.534 213.42 271.332 213.42C272.13 213.42 272.917 213.232 273.63 212.873C274.898 212.137 274.898 210.952 273.63 210.226C272.919 209.862 272.131 209.672 271.332 209.672C270.533 209.672 269.746 209.862 269.035 210.226Z" fill="#F0F0F0"/>
<path d="M290.551 223.498C291.286 222.863 292.021 223.121 292.205 224.077C292.273 224.6 292.217 225.133 292.041 225.631C291.866 226.129 291.576 226.579 291.194 226.944C291.077 227.101 290.913 227.216 290.726 227.273C290.54 227.33 290.339 227.325 290.155 227.261C289.971 227.196 289.811 227.075 289.701 226.914C289.59 226.753 289.534 226.561 289.54 226.365C289.469 225.841 289.524 225.308 289.7 224.81C289.876 224.311 290.167 223.861 290.551 223.498Z" fill="#31B78A"/>
<path d="M299.126 227.56L291.626 223.231L289.99 227.192L297.499 231.521L299.126 227.56Z" fill="#31B78A"/>
<path d="M297.968 227.808C298.085 227.652 298.249 227.537 298.436 227.48C298.623 227.423 298.823 227.427 299.007 227.492C299.192 227.556 299.351 227.678 299.461 227.839C299.572 228 299.628 228.192 299.622 228.387C299.692 228.911 299.637 229.444 299.462 229.943C299.286 230.441 298.994 230.891 298.611 231.255C297.876 231.889 297.141 231.623 296.957 230.676C296.889 230.152 296.944 229.62 297.12 229.121C297.296 228.623 297.586 228.173 297.968 227.808Z" fill="#31B78A"/>
<path d="M297.968 227.808C298.085 227.652 298.249 227.537 298.436 227.48C298.623 227.423 298.823 227.427 299.007 227.492C299.192 227.556 299.351 227.678 299.461 227.839C299.572 228 299.628 228.192 299.622 228.387C299.692 228.911 299.637 229.444 299.462 229.943C299.286 230.441 298.994 230.891 298.611 231.255C297.876 231.889 297.141 231.623 296.957 230.676C296.889 230.152 296.944 229.62 297.12 229.121C297.296 228.623 297.586 228.173 297.968 227.808Z" fill="black"/>
<path d="M233.961 291.447C233.961 291.631 233.961 291.797 233.961 291.98C233.961 292.348 233.961 292.725 233.961 293.102C232.472 292.468 230.533 292.679 228.447 293.911C223.768 296.613 219.972 303.184 219.972 308.616C219.972 311.135 220.8 312.955 222.16 313.901C221.778 314.173 221.382 314.424 220.974 314.655L220.542 314.875L219.246 319.756L211.746 315.574C209.375 314.205 207.914 311.282 207.914 307.109C207.914 298.773 213.759 288.644 220.974 284.471C224.54 282.413 227.767 282.201 230.165 283.552L237.518 287.67L237.675 287.762L233.961 291.447Z" fill="#455A64"/>
<path d="M211.59 276.861L205.993 296.264L217.197 302.734L222.996 283.451L211.59 276.861Z" fill="#31B78A"/>
<path opacity="0.2" d="M211.59 276.861L205.993 296.264L217.197 302.734L222.996 283.451L211.59 276.861Z" fill="black"/>
<path d="M211.59 276.861C211.59 276.861 217.941 282.256 222.996 283.451C229.632 285.06 240.184 285.234 243.924 285.492C249.641 285.887 253.961 285.878 255.983 285.151C258.603 284.232 265.643 280.142 267.592 279.021C271.323 276.87 272.913 268.405 262.628 266.089C255.674 264.648 248.591 263.925 241.489 263.929L211.59 276.861Z" fill="#31B78A"/>
<path d="M274.926 274.38C274.606 275.179 274.39 276.016 274.283 276.87C273.986 277.758 273.917 278.706 274.08 279.628C274.781 280.786 275.884 281.647 277.178 282.045C278.11 282.252 279.075 282.265 280.013 282.084C280.951 281.902 281.841 281.529 282.628 280.988C284.531 279.848 285.964 278.47 288.667 277.698C290.598 277.289 292.417 276.464 293.998 275.28C295.496 274.076 297.499 270.749 294.632 269.977C291.764 269.205 285.533 271.926 279.852 272.174L274.926 274.38Z" fill="#37474F"/>
<path d="M274.926 270.832V275.078C275.1 275.555 275.402 275.975 275.8 276.291C276.197 276.608 276.674 276.808 277.178 276.87C277.639 276.938 278.111 276.887 278.547 276.723C279.236 276.46 279.832 276.002 280.264 275.404C280.695 274.806 280.942 274.096 280.974 273.359L281.139 270.832H274.926Z" fill="#FFA8A7"/>
<path d="M283.014 244.573C283.014 249.858 281.525 272.707 281.525 272.707C281.525 272.707 279.365 275.464 274.669 272.707L273.088 247.174L283.014 244.573Z" fill="#37474F"/>
<path d="M258.382 267.091L273.088 258.617C273.69 258.301 274.195 257.826 274.547 257.243C274.899 256.661 275.085 255.993 275.085 255.313C275.085 254.632 274.899 253.964 274.547 253.382C274.195 252.8 273.69 252.325 273.088 252.008L262.132 245.685C261.515 245.372 260.834 245.21 260.142 245.21C259.451 245.21 258.769 245.372 258.152 245.685L243.447 254.159C242.847 254.478 242.345 254.953 241.995 255.535C241.644 256.118 241.46 256.784 241.46 257.463C241.46 258.143 241.644 258.809 241.995 259.391C242.345 259.973 242.847 260.449 243.447 260.768L254.402 267.091C255.019 267.403 255.701 267.566 256.392 267.566C257.084 267.566 257.765 267.403 258.382 267.091Z" fill="#31B78A"/>
<path d="M258.382 267.091L273.088 258.617C273.69 258.301 274.195 257.826 274.547 257.243C274.899 256.661 275.085 255.993 275.085 255.313C275.085 254.632 274.899 253.964 274.547 253.382C274.195 252.8 273.69 252.325 273.088 252.008L262.132 245.685C261.515 245.372 260.834 245.21 260.142 245.21C259.451 245.21 258.769 245.372 258.152 245.685L243.447 254.159C242.847 254.478 242.345 254.953 241.995 255.535C241.644 256.118 241.46 256.784 241.46 257.463C241.46 258.143 241.644 258.809 241.995 259.391C242.345 259.973 242.847 260.449 243.447 260.768L254.402 267.091C255.019 267.403 255.701 267.566 256.392 267.566C257.084 267.566 257.765 267.403 258.382 267.091Z" fill="white"/>
<path d="M243.447 256.457L254.402 262.78C255.019 263.093 255.701 263.256 256.392 263.256C257.084 263.256 257.765 263.093 258.382 262.78L273.088 254.306C273.328 254.225 273.536 254.07 273.684 253.864C273.832 253.658 273.911 253.411 273.911 253.157C273.911 252.904 273.832 252.657 273.684 252.451C273.536 252.244 273.328 252.09 273.088 252.008L262.132 245.685C261.515 245.372 260.834 245.21 260.142 245.21C259.451 245.21 258.769 245.372 258.152 245.685L243.447 254.159C243.206 254.241 242.998 254.395 242.85 254.601C242.703 254.807 242.623 255.054 242.623 255.308C242.623 255.562 242.703 255.809 242.85 256.015C242.998 256.221 243.206 256.375 243.447 256.457Z" fill="#31B78A"/>
<path d="M252.408 200.207L250.542 207.9L242.527 208.387L244.255 197.726L252.408 200.207Z" fill="#FFA8A7"/>
<path d="M260.22 194.417C260.22 194.417 261.139 197.671 260.763 197.854C260.184 197.943 259.595 197.943 259.016 197.854L260.22 194.417Z" fill="#F28F8F"/>
<path d="M258.685 184.031C259.972 185.548 261.149 188.038 260.239 194.141C259.246 200.814 258.014 201.586 257.022 202.229C255.726 203.075 250.542 202.625 249.081 201.558C247.325 200.281 244.614 196.228 243.97 192.23C243.217 187.533 244.788 182.321 248.244 181.43C253.106 180.171 257.592 182.744 258.685 184.031Z" fill="#FFA8A7"/>
<path d="M243.446 199.886C244.687 201.172 247.233 201.522 248.832 201.816C250.432 202.11 255.349 202.432 256.801 198.93C258.253 195.428 257.261 192.91 259.044 192.064C260.827 191.218 262.61 190.667 263.079 190.226C263.547 189.785 263.557 184.022 258.768 181.035C253.979 178.048 246.645 177.358 241.82 183.415C238.162 188.094 239.66 195.934 243.446 199.886Z" fill="#455A64"/>
<path d="M248.272 201.862C249.513 201.972 253.437 201.356 254.623 199.739C255.809 198.121 256.286 195.226 256.461 193.709C256.477 193.112 256.696 192.538 257.082 192.082C257.468 191.626 257.998 191.315 258.584 191.2C259.77 190.823 262.389 189.537 262.389 189.537V188.82C263.234 188.767 264.081 188.767 264.926 188.82C265.478 188.921 265.174 189.739 263.777 190.446C262.38 191.154 258.547 192.524 257.959 192.992C257.371 193.461 257.095 195.437 256.627 197.542C256.158 199.647 254.706 202.79 248.272 201.862Z" fill="#37474F"/>
<path d="M259.301 210.566L263.897 207.928C264.338 206.595 263.63 205.924 262.38 206.007C261.13 206.09 261.516 204.876 260.753 204.536C259.752 204.077 259.182 204.334 258.731 204.123C258.281 203.911 258.088 203.378 257.5 203.314C254.871 203.066 253.079 206.816 253.079 206.816L259.301 210.566Z" fill="#F28F8F"/>
<path d="M228.107 244.315C228.107 244.315 248.41 234.251 251.948 232.624C255.487 230.998 261.038 228.635 263.989 228.635C265.142 228.731 266.221 229.239 267.03 230.066C267.839 230.893 268.322 231.984 268.391 233.139C268.429 234.912 268.328 236.685 268.088 238.442C262.51 240.272 256.809 241.707 251.029 242.735C242.583 244.205 228.107 244.315 228.107 244.315Z" fill="#37474F"/>
<path d="M230.312 238.497C230.312 242.67 229.917 247.008 231.654 250.06C233.391 253.111 242.803 260.17 251.663 258.69C257.454 257.716 274.641 249.803 274.641 249.803C274.641 249.803 282.977 246.742 283.014 244.564C283.069 241.356 282.849 236.834 275.579 237.027C268.952 237.202 249.402 241.282 249.402 241.282L230.312 238.497Z" fill="#455A64"/>
<path d="M235.983 205.437C239.127 202.156 241.25 201.88 242.757 202.285C246.221 203.276 249.575 204.619 252.766 206.292C252.766 206.292 251.553 218.038 257.298 221.42V239.729C257.298 239.729 257.123 241.714 254.623 243.69C252.417 245.428 247.426 247.183 241.47 246.687C234.393 246.099 230.312 238.497 230.312 238.497C230.312 238.497 230.129 223.525 231.13 217.579C232.307 210.639 234.899 206.577 235.983 205.437Z" fill="#455A64"/>
<path d="M257.298 222.312C257.298 222.312 253.823 219.555 252.766 215.97C252.766 215.97 253.18 221.595 257.298 224.444V222.312Z" fill="#37474F"/>
<path d="M289.457 230.952C291.107 231.02 292.73 230.516 294.053 229.527C294.053 229.527 295.652 226.42 297.619 226.687C297.619 226.687 297.968 225.363 297.159 224.931C296.35 224.499 296.001 224.619 295.67 224.159C295.339 223.7 295.303 222.845 293.832 222.845C293.225 222.845 293.308 222.413 291.838 222.238C290.367 222.064 288.915 225.455 287.84 225.455L289.457 230.952Z" fill="#FFA8A7"/>
<path d="M252.766 206.292C257.812 207.073 259.641 208.571 261.479 210.272C263.318 211.972 274.568 223.259 274.568 223.259L288.189 225.216C288.905 225.796 289.43 226.577 289.696 227.459C290.248 229.058 289.751 230.805 289.227 231.218C289.227 231.218 275.716 232.027 273.06 231.521C270.404 231.016 257.252 222.284 257.252 222.284C255.994 221.336 254.94 220.146 254.151 218.784C253.361 217.421 252.853 215.915 252.656 214.352C251.801 208.81 252.766 206.292 252.766 206.292Z" fill="#455A64"/>
<path d="M240.652 254.839L219.779 280.317C219.548 280.346 219.314 280.362 219.081 280.363C218.253 280.376 217.435 280.183 216.7 279.802L199.072 269.619L197.877 268.929C197.224 268.552 196.682 267.008 196.682 265.483V261.19C196.681 256.781 197.841 252.449 200.045 248.631C202.249 244.812 205.419 241.64 209.237 239.435L230.285 227.284L252.684 240.216L240.652 254.839Z" fill="#31B78A"/>
<g opacity="0.1">
<path d="M240.652 254.839L219.779 280.317C219.548 280.346 219.314 280.362 219.081 280.363C218.253 280.376 217.435 280.183 216.7 279.802L199.072 269.619L197.877 268.929C197.224 268.552 196.682 267.008 196.682 265.483V261.19C196.681 256.781 197.841 252.449 200.045 248.631C202.249 244.812 205.419 241.64 209.237 239.435L230.285 227.284L252.684 240.216L240.652 254.839Z" fill="black"/>
</g>
<path d="M233.456 263.626L252.656 240.225L230.257 227.294L209.219 239.435C206.497 241.011 204.097 243.084 202.142 245.547L233.456 263.626Z" fill="#31B78A"/>
<path d="M252.656 259.012C252.656 260.538 252.123 262.082 251.461 262.459L250.266 263.148L221.443 279.793C220.919 280.076 220.344 280.254 219.752 280.317C219.52 280.346 219.287 280.362 219.053 280.363V274.122C219.053 269.712 220.213 265.379 222.419 261.56C224.625 257.741 227.797 254.57 231.618 252.367L233.998 250.997L252.656 240.216V259.012Z" fill="#31B78A"/>
<g opacity="0.2">
<path d="M252.656 259.012C252.656 260.538 252.123 262.082 251.461 262.459L250.266 263.148L221.443 279.793C220.919 280.076 220.344 280.254 219.752 280.317C219.52 280.346 219.287 280.362 219.053 280.363V274.122C219.053 269.712 220.213 265.379 222.419 261.56C224.625 257.741 227.797 254.57 231.618 252.367L233.998 250.997L252.656 240.216V259.012Z" fill="black"/>
</g>
<path d="M258.842 290.537L270.119 290.501L286.259 281.181L270.45 292.605L258.547 292.771L258.842 290.537Z" fill="#E0E0E0"/>
<path d="M231.461 306.585C231.461 306.585 251.792 298.92 253.52 298.019C255.548 296.776 257.472 295.372 259.274 293.819C259.641 293.332 259.814 292.726 259.758 292.119C259.702 291.512 259.421 290.948 258.97 290.537C258.97 290.537 250.698 290.161 248.575 290.813C247.389 291.172 228.254 297.311 228.254 297.311L231.461 306.585Z" fill="#E0E0E0"/>
<path d="M230.551 298.019C228.869 296.576 227.178 297.173 226.765 299.343C226.607 300.539 226.733 301.757 227.134 302.895C227.535 304.034 228.199 305.062 229.072 305.896C230.754 307.339 232.445 306.751 232.858 304.572C233.016 303.376 232.889 302.159 232.488 301.02C232.087 299.881 231.424 298.853 230.551 298.019Z" fill="#455A64"/>
</g>
<defs>
<filter id="filter0_d_127_235" x="0" y="0" width="600" height="531.924" filterUnits="userSpaceOnUse" color-interpolation-filters="sRGB">
<feFlood flood-opacity="0" result="BackgroundImageFix"/>
<feColorMatrix in="SourceAlpha" type="matrix" values="0 0 0 0 0 0 0 0 0 0 0 0 0 0 0 0 0 0 127 0" result="hardAlpha"/>
<feOffset dx="10" dy="20"/>
<feGaussianBlur stdDeviation="50"/>
<feComposite in2="hardAlpha" operator="out"/>
<feColorMatrix type="matrix" values="0 0 0 0 0 0 0 0 0 0 0 0 0 0 0 0 0 0 0.25 0"/>
<feBlend mode="normal" in2="BackgroundImageFix" result="effect1_dropShadow_127_235"/>
<feBlend mode="normal" in="SourceGraphic" in2="effect1_dropShadow_127_235" result="shape"/>
</filter>
</defs>
</svg>
