<svg width="32" height="33" viewBox="0 0 32 33" fill="none" xmlns="http://www.w3.org/2000/svg">
<g clip-path="url(#clip0_807_2723)">
<path d="M25.4375 0.5H6.5625C2.94394 0.5 0 3.44394 0 7.0625V25.9375C0 29.5561 2.94394 32.5 6.5625 32.5H25.4375C29.0561 32.5 32 29.5561 32 25.9375V7.0625C32 3.44394 29.0561 0.5 25.4375 0.5ZM30.125 25.9375C30.125 28.5222 28.0222 30.625 25.4375 30.625H6.5625C3.97781 30.625 1.875 28.5222 1.875 25.9375V7.0625C1.875 4.47781 3.97781 2.375 6.5625 2.375H25.4375C28.0222 2.375 30.125 4.47781 30.125 7.0625V25.9375Z" fill="white"/>
<path d="M19.1029 8.22065C18.9948 7.81752 18.7363 7.48052 18.3749 7.2719C17.6289 6.84115 16.6714 7.09759 16.2405 7.84384L16 8.26034L15.7595 7.84377C15.3287 7.09771 14.3713 6.84115 13.6251 7.27184H13.6251C12.8789 7.70265 12.6224 8.66009 13.0532 9.40628L14.1958 11.3853L9.97988 18.6875H6.90625C6.04469 18.6875 5.34375 19.3884 5.34375 20.25C5.34375 21.1115 6.04469 21.8125 6.90625 21.8125H18.7725L16.9683 18.6875H13.5883L18.9468 9.40634C19.1554 9.0449 19.2109 8.62377 19.1029 8.22065Z" fill="white"/>
<path d="M25.0937 18.6875H22.0201L18.5259 12.6354L16.7217 15.7604L22.1469 25.1571C22.3556 25.5186 22.6925 25.7772 23.0957 25.8853C23.2304 25.9213 23.3669 25.9392 23.5027 25.9392C23.7734 25.9392 24.0407 25.8682 24.2815 25.7291C25.0276 25.2983 25.2841 24.3408 24.8533 23.5948L23.8242 21.8125H25.0937C25.9552 21.8125 26.6562 21.1116 26.6562 20.25C26.6562 19.3884 25.9552 18.6875 25.0937 18.6875Z" fill="white"/>
<path d="M7.45406 23.0625L7.14675 23.5947C6.716 24.3409 6.97256 25.2984 7.71869 25.7291C7.96413 25.8708 8.23237 25.9382 8.49731 25.9381C9.03769 25.9381 9.564 25.6579 9.85313 25.1572L11.0625 23.0625H7.45406Z" fill="white"/>
</g>
<defs>
<clipPath id="clip0_807_2723">
<rect width="32" height="32" fill="white" transform="translate(0 0.5)"/>
</clipPath>
</defs>
</svg>
