<svg width="40" height="40" viewBox="0 0 40 40" fill="none" xmlns="http://www.w3.org/2000/svg">
<g clip-path="url(#clip0_18_61)">
<path d="M8.76 0H31.24C36.0781 0 40 3.92187 40 8.76V31.24C40 36.0781 36.0781 40 31.24 40H8.76C3.92187 40 0 36.0781 0 31.24V8.76C0 3.92187 3.92187 0 8.76 0Z" fill="url(#paint0_linear_18_61)"/>
<path d="M12.8191 29.0327L12.8228 29.034L11.4552 31.4027C10.9559 32.2674 9.85032 32.5637 8.98564 32.0644C8.1211 31.5652 7.8247 30.4596 8.32392 29.5949L9.33142 27.8499L9.42814 27.6824C9.60079 27.4343 10.0269 27.0059 10.8792 27.0865C10.8792 27.0865 12.885 27.3041 13.0302 28.3466C13.0302 28.3466 13.0499 28.6896 12.8191 29.0327ZM32.2164 22.9827H27.9517C27.6613 22.9632 27.5345 22.8594 27.4845 22.7991L27.4814 22.7937L22.9163 14.8865L22.9103 14.8904L22.6366 14.4979C22.1878 13.8116 21.4753 15.5666 21.4753 15.5666C20.6245 17.5223 21.5961 19.7455 21.9347 20.4176L28.2756 31.4004C28.7747 32.2649 29.8803 32.5613 30.7452 32.062C31.6097 31.5627 31.9061 30.4571 31.4067 29.5924L29.8213 26.8462C29.7905 26.7796 29.737 26.599 30.0622 26.5982H32.2164C33.2149 26.5982 34.0242 25.7888 34.0242 24.7904C34.0242 23.792 33.2149 22.9826 32.2164 22.9826V22.9827ZM23.933 25.4402C23.933 25.4402 24.1606 26.5982 23.2799 26.5982H7.51439C6.51595 26.5982 5.70657 25.7888 5.70657 24.7904C5.70657 23.792 6.51595 22.9826 7.51439 22.9826H11.5675C12.2219 22.9448 12.3769 22.567 12.3769 22.567L12.3806 22.5688L17.6713 13.4051L17.6697 13.4048C17.7661 13.2277 17.6858 13.0604 17.6719 13.034L15.9245 10.0076C15.4253 9.14305 15.7216 8.03726 16.5863 7.5382C17.4509 7.03898 18.5566 7.33508 19.0558 8.19976L19.8661 9.60336L20.675 8.20226C21.1742 7.33773 22.2799 7.04133 23.1445 7.5407C24.0092 8.03992 24.3055 9.14539 23.8063 10.0101L16.4441 22.7616C16.4119 22.8393 16.402 22.9612 16.6416 22.9826H21.0422L21.0431 23.0255C21.0431 23.0255 23.5866 23.0651 23.933 25.4402Z" fill="white"/>
</g>
<defs>
<linearGradient id="paint0_linear_18_61" x1="20" y1="0" x2="20" y2="40" gradientUnits="userSpaceOnUse">
<stop stop-color="#17C9FB"/>
<stop offset="1" stop-color="#1A74E8"/>
</linearGradient>
<clipPath id="clip0_18_61">
<rect width="40" height="40" fill="white"/>
</clipPath>
</defs>
</svg>
