<svg width="60" height="60" viewBox="0 0 60 60" fill="none" xmlns="http://www.w3.org/2000/svg">
<rect width="60" height="60" rx="30" fill="#1F8578"/>
<path d="M35.165 19.6182L24.4014 24.3885L29.349 26.5814L40.1125 21.8109L35.165 19.6182Z" fill="white"/>
<path d="M22.7949 23.6758L33.5585 18.9054L29.8767 17.2738C29.7106 17.2002 29.5308 17.1621 29.3491 17.1621C29.1674 17.1621 28.9877 17.2002 28.8215 17.2738L18.5859 21.8103L22.7949 23.6758Z" fill="white"/>
<path d="M28.6976 27.7169L17.6299 22.8115V35.6171C17.6299 35.8691 17.7031 36.1158 17.8406 36.327C17.9781 36.5383 18.174 36.7051 18.4044 36.8073L28.6976 41.3691L28.6976 27.7169Z" fill="white"/>
<path d="M30 36.5107V41.3694L31.395 40.7512C30.4876 39.5237 29.9985 38.0372 30 36.5107Z" fill="white"/>
<path d="M37.1614 29.3492C38.5491 29.348 39.9069 29.7525 41.0677 30.5129V22.8115L30 27.7169V36.5107C30.0021 34.612 30.7573 32.7917 32.0999 31.4491C33.4425 30.1065 35.2628 29.3513 37.1614 29.3492Z" fill="white"/>
<path d="M37.1611 30.6514C36.0023 30.6514 34.8694 30.995 33.9058 31.6389C32.9423 32.2827 32.1913 33.1978 31.7478 34.2685C31.3043 35.3391 31.1883 36.5172 31.4143 37.6538C31.6404 38.7905 32.1985 39.8345 33.0179 40.6539C33.8374 41.4734 34.8814 42.0314 36.018 42.2575C37.1546 42.4836 38.3328 42.3676 39.4034 41.9241C40.4741 41.4806 41.3892 40.7296 42.033 39.766C42.6769 38.8025 43.0205 37.6696 43.0205 36.5107C43.0205 34.9567 42.4032 33.4664 41.3043 32.3675C40.2055 31.2687 38.7151 30.6514 37.1611 30.6514ZM40.2256 35.6689L36.9704 38.9241C36.91 38.9846 36.8382 39.0326 36.7592 39.0653C36.6802 39.098 36.5956 39.1149 36.5101 39.1149C36.4246 39.1149 36.34 39.098 36.261 39.0653C36.182 39.0326 36.1102 38.9846 36.0498 38.9241L34.4222 37.2965C34.3024 37.174 34.2358 37.0091 34.2368 36.8378C34.2378 36.6664 34.3063 36.5024 34.4275 36.3812C34.5486 36.26 34.7127 36.1915 34.884 36.1905C35.0554 36.1895 35.2202 36.2562 35.3428 36.3759L36.5101 37.543L39.305 34.7483C39.3652 34.6867 39.437 34.6377 39.5163 34.604C39.5956 34.5704 39.6807 34.5528 39.7668 34.5523C39.853 34.5518 39.9383 34.5684 40.018 34.6011C40.0977 34.6338 40.17 34.6821 40.2309 34.743C40.2918 34.8039 40.34 34.8762 40.3728 34.9559C40.4055 35.0356 40.4221 35.1209 40.4216 35.207C40.4211 35.2932 40.4035 35.3783 40.3699 35.4576C40.3362 35.5369 40.2872 35.6087 40.2256 35.6689V35.6689Z" fill="white"/>
</svg>
