<svg width="48" height="48" viewBox="0 0 48 48" fill="none" xmlns="http://www.w3.org/2000/svg">
<path fill-rule="evenodd" clip-rule="evenodd" d="M31.294 25.3137L29.89 29.6357H25.346C24.112 29.6357 23.02 30.4277 22.64 31.6017C22.258 32.7737 22.676 34.0577 23.674 34.7817L27.35 37.4537L25.946 41.7757C25.564 42.9477 25.982 44.2317 26.978 44.9557C27.976 45.6817 29.326 45.6817 30.324 44.9557L34 42.2857L37.676 44.9557C38.674 45.6817 40.024 45.6817 41.022 44.9557C42.018 44.2317 42.436 42.9477 42.054 41.7757L40.65 37.4537L44.326 34.7817C45.324 34.0577 45.742 32.7737 45.36 31.6017C44.98 30.4277 43.888 29.6357 42.654 29.6357H38.11L36.706 25.3137C36.326 24.1417 35.232 23.3477 34 23.3477C32.768 23.3477 31.674 24.1417 31.294 25.3137ZM34 26.6937L35.594 31.5977C35.794 32.2157 36.37 32.6357 37.02 32.6357H42.178L38.006 35.6677C37.48 36.0497 37.26 36.7257 37.46 37.3437L39.054 42.2497L34.882 39.2177C34.356 38.8357 33.644 38.8357 33.118 39.2177L28.946 42.2497L30.54 37.3437C30.74 36.7257 30.52 36.0497 29.994 35.6677L25.822 32.6357H30.98C31.63 32.6357 32.206 32.2157 32.406 31.5977L34 26.6937Z" fill="#1F8578"/>
<path fill-rule="evenodd" clip-rule="evenodd" d="M23 40.5256H5.9C5.794 40.5256 5.692 40.4816 5.618 40.4076C5.542 40.3316 5.5 40.2316 5.5 40.1256C5.5 40.1236 5.5 37.2256 5.5 37.2256C5.5 35.5636 6.686 34.0996 8.514 32.8556C11.778 30.6276 17.06 29.2236 23 29.2236C23.828 29.2236 24.5 28.5516 24.5 27.7236C24.5 26.8976 23.828 26.2236 23 26.2236C16.356 26.2236 10.474 27.8856 6.822 30.3756C4.036 32.2756 2.5 34.6896 2.5 37.2236V40.1256C2.5 41.0256 2.858 41.8916 3.496 42.5296C4.134 43.1656 4.998 43.5256 5.9 43.5256H23C23.828 43.5236 24.5 42.8516 24.5 42.0236C24.5 41.1976 23.828 40.5236 23 40.5256Z" fill="#1F8578"/>
<path fill-rule="evenodd" clip-rule="evenodd" d="M23 2.5C16.928 2.5 12 7.428 12 13.5C12 19.572 16.928 24.5 23 24.5C29.072 24.5 34 19.572 34 13.5C34 7.428 29.072 2.5 23 2.5ZM23 5.5C27.416 5.5 31 9.084 31 13.5C31 17.916 27.416 21.5 23 21.5C18.584 21.5 15 17.916 15 13.5C15 9.084 18.584 5.5 23 5.5Z" fill="#1F8578"/>
</svg>
