<svg width="48" height="48" viewBox="0 0 48 48" fill="none" xmlns="http://www.w3.org/2000/svg">
<path d="M40.5 6H34.5V4.5C34.5 4.10218 34.342 3.72064 34.0607 3.43934C33.7794 3.15804 33.3978 3 33 3C32.6022 3 32.2206 3.15804 31.9393 3.43934C31.658 3.72064 31.5 4.10218 31.5 4.5V6H16.5V4.5C16.5 4.10218 16.342 3.72064 16.0607 3.43934C15.7794 3.15804 15.3978 3 15 3C14.6022 3 14.2206 3.15804 13.9393 3.43934C13.658 3.72064 13.5 4.10218 13.5 4.5V6H7.5C6.30653 6 5.16193 6.47411 4.31802 7.31802C3.47411 8.16193 3 9.30653 3 10.5V40.5C3 41.6935 3.47411 42.8381 4.31802 43.682C5.16193 44.5259 6.30653 45 7.5 45H40.5C41.6935 45 42.8381 44.5259 43.682 43.682C44.5259 42.8381 45 41.6935 45 40.5V10.5C45 9.30653 44.5259 8.16193 43.682 7.31802C42.8381 6.47411 41.6935 6 40.5 6ZM7.5 9H40.5C40.8978 9 41.2794 9.15804 41.5607 9.43934C41.842 9.72064 42 10.1022 42 10.5V15H6V10.5C6 10.1022 6.15804 9.72064 6.43934 9.43934C6.72064 9.15804 7.10218 9 7.5 9ZM40.5 42H7.5C7.10218 42 6.72064 41.842 6.43934 41.5607C6.15804 41.2794 6 40.8978 6 40.5V18H42V40.5C42 40.8978 41.842 41.2794 41.5607 41.5607C41.2794 41.842 40.8978 42 40.5 42Z" fill="#1F8578"/>
<path d="M30.525 22.8615L21.075 30.9615L17.556 27.444C17.2731 27.1708 16.8942 27.0196 16.5009 27.023C16.1076 27.0264 15.7314 27.1842 15.4533 27.4623C15.1751 27.7404 15.0174 28.1166 15.014 28.5099C15.0106 28.9032 15.1617 29.2821 15.435 29.565L19.935 34.065C20.2022 34.3318 20.5601 34.4881 20.9375 34.5025C21.3148 34.517 21.6837 34.3886 21.9705 34.143L32.4705 25.143C32.6285 25.0177 32.7597 24.8617 32.8561 24.6845C32.9525 24.5073 33.0121 24.3124 33.0315 24.1116C33.0508 23.9108 33.0295 23.7082 32.9687 23.5158C32.9079 23.3234 32.8089 23.1453 32.6777 22.9921C32.5465 22.8389 32.3857 22.7137 32.205 22.624C32.0243 22.5344 31.8273 22.4821 31.6259 22.4703C31.4245 22.4586 31.2228 22.4875 31.0329 22.5555C30.8429 22.6235 30.6687 22.7291 30.5205 22.866L30.525 22.8615Z" fill="#1F8578"/>
</svg>
