<svg width="84" height="84" viewBox="0 0 84 84" fill="none" xmlns="http://www.w3.org/2000/svg">
<path d="M33.1515 39.3687C30.8903 32.694 21.3109 32.3358 18.5434 38.7912C13.9859 36.4995 8.16698 39.6725 7.479 44.6187C7.53156 44.6055 7.58403 44.6055 7.6365 44.6055H16.824C18.9634 44.6055 20.8797 45.6424 22.074 47.2305C23.2684 45.6424 25.1846 44.6055 27.324 44.6055C28.0968 44.6796 32.7373 44.4069 33.3616 44.8155L35.199 39.5262C34.5428 39.3949 33.8603 39.3293 33.1515 39.3687L33.1515 39.3687Z" fill="white"/>
<path d="M75.4437 11.6342C73.9556 10.1473 71.362 10.1473 69.8751 11.6342L63.3786 18.13C62.169 19.3396 61.9274 21.141 62.6237 22.6041L59.6771 25.5612L52.9703 18.8543C50.3923 16.1138 45.4265 17.2626 44.2947 20.8494C44.2946 20.8493 34.1884 49.9212 34.1884 49.9212C33.519 51.8375 33.9915 53.9243 35.4352 55.3549C36.8628 56.809 38.983 57.2705 40.869 56.6018L69.9409 46.4956C73.5228 45.3627 74.6812 40.3986 71.9357 37.8198C71.9358 37.8199 65.2421 31.1262 65.2421 31.1262L68.1898 28.168C69.6736 28.8872 71.4585 28.6081 72.659 27.411L79.1555 20.9139C80.6823 19.4493 80.6827 16.8114 79.1555 15.346L75.4436 11.6341L75.4437 11.6342ZM56.8815 35.7593C55.6566 36.9468 53.8083 35.1181 55.0309 33.9086C55.0309 33.9087 64.3095 24.63 64.3095 24.63L66.1602 26.4807L56.8815 35.7593V35.7593ZM77.2996 19.058L70.8031 25.5551C70.2911 26.0678 69.4573 26.0665 68.9465 25.5551L65.2346 21.8432C64.7226 21.3305 64.7226 20.4987 65.2346 19.986L71.7318 13.4901C72.2265 12.9928 73.091 12.9928 73.5871 13.4901L77.299 17.202C77.8078 17.69 77.8087 18.5705 77.2996 19.058Z" fill="white"/>
<path d="M75.8862 61.668H47.0112C44.8366 61.668 43.0737 63.4308 43.0737 65.6055V69.543C43.0737 71.7176 44.8366 73.4805 47.0112 73.4805H75.8862C78.0609 73.4805 79.8237 71.7176 79.8237 69.543V65.6055C79.8237 63.4308 78.0609 61.668 75.8862 61.668Z" fill="white"/>
<path d="M36.5112 61.668H7.63623C5.46161 61.668 3.69873 63.4308 3.69873 65.6055V69.543C3.69873 71.7176 5.46161 73.4805 7.63623 73.4805H36.5112C38.6859 73.4805 40.4487 71.7176 40.4487 69.543V65.6055C40.4487 63.4308 38.6859 61.668 36.5112 61.668Z" fill="white"/>
<path d="M32.3377 47.231H27.324C25.1453 47.231 23.3865 48.9897 23.3865 51.1685V55.106C23.3865 57.2847 25.1453 59.0435 27.324 59.0435H36.4459C32.4843 57.6645 30.2257 53.0315 31.7078 49.0553C31.7078 49.0553 32.3377 47.231 32.3377 47.231Z" fill="white"/>
<path d="M58.8241 55.106V53.1372L41.8535 59.0435H54.8866C57.0654 59.0435 58.8241 57.2847 58.8241 55.106Z" fill="white"/>
<path d="M75.8867 47.231H73.6554C72.868 47.9922 71.8967 48.5959 70.8073 48.9765L61.4492 52.2316V55.106C61.4492 57.2847 63.208 59.0435 65.3867 59.0435H75.8867C78.0655 59.0435 79.8242 57.2847 79.8242 55.106V51.1685C79.8242 48.9897 78.0655 47.231 75.8867 47.231H75.8867Z" fill="white"/>
<path d="M16.8237 47.2305H7.63623C5.46161 47.2305 3.69873 48.9933 3.69873 51.168V55.1055C3.69873 57.2801 5.46161 59.043 7.63623 59.043H16.8237C18.9984 59.043 20.7612 57.2801 20.7612 55.1055V51.168C20.7612 48.9933 18.9984 47.2305 16.8237 47.2305Z" fill="white"/>
</svg>
