<svg width="85" height="84" viewBox="0 0 85 84" fill="none" xmlns="http://www.w3.org/2000/svg">
<g clip-path="url(#clip0_645_33701)">
<path d="M12.0864 58.0908H32.3623V69.6771H12.0864V58.0908Z" fill="white"/>
<path d="M46.8452 46.7655V55.1942H67.1211V43.6079H61.6756L46.8452 46.7655Z" fill="white"/>
<path d="M31.4932 43.6079H23.6726V55.1942H43.9485V47.3737L34.7084 49.3431C34.4796 49.3886 34.247 49.4129 34.0131 49.4155C32.8326 49.402 31.7444 48.7759 31.1388 47.7627C30.5331 46.7495 30.4973 45.494 31.0439 44.4481L31.4932 43.6079Z" fill="white"/>
<path d="M3.39674 49.4014H0.5V55.1942H20.7759V43.6079H0.5V46.5047H3.39674C4.19655 46.5047 4.84511 47.1532 4.84511 47.953C4.84511 48.7528 4.19655 49.4014 3.39674 49.4014ZM9.18958 46.5047H14.9831C15.7829 46.5047 16.4308 47.1532 16.4308 47.953C16.4308 48.7528 15.7829 49.4014 14.9831 49.4014H9.18958C8.38978 49.4014 7.74121 48.7528 7.74121 47.953C7.74121 47.1532 8.38978 46.5047 9.18958 46.5047Z" fill="white"/>
<path d="M35.259 58.0908H55.5349V69.6771H35.259V58.0908Z" fill="white"/>
<path d="M49.6114 35.7875C49.1564 35.7843 48.7283 35.5702 48.4527 35.2081C47.9752 34.5679 48.1047 33.6617 48.7424 33.1804L54.7236 28.6911L48.1777 19.972C48.0867 19.8464 47.9419 19.7715 47.7862 19.7695H47.7573C47.6458 19.7772 47.5471 19.8432 47.4971 19.9432L33.5934 45.8094C33.5184 45.9741 33.5389 46.1671 33.6479 46.3119C33.7562 46.4567 33.9356 46.5304 34.1145 46.5048L62.8486 40.3928C62.9614 40.3825 63.055 40.3005 63.0806 40.1903C63.1376 40.0384 63.1101 39.8673 63.0082 39.741L56.4617 31.0079L50.4804 35.4978C50.2285 35.683 49.9241 35.7843 49.6114 35.7875Z" fill="white"/>
<path d="M58.4309 58.0908H78.7075V69.6771H58.4309V58.0908Z" fill="white"/>
<path d="M46.8452 72.5732H67.1211V84.1596H46.8452V72.5732Z" fill="white"/>
<path d="M0.5 72.5732H20.7759V84.1596H0.5V72.5732Z" fill="white"/>
<path d="M23.6726 72.5732H43.9485V84.1596H23.6726V72.5732Z" fill="white"/>
<path d="M82.8207 1.89758C81.3775 -0.0167002 78.6589 -0.405069 76.7376 1.02856L64.7892 9.99372C64.1515 10.475 64.022 11.3806 64.4995 12.0214L65.7742 13.7159L62.7615 15.975C61.415 16.9818 60.6639 18.5981 60.7632 20.2765L60.908 22.8836C60.9459 23.5924 60.6248 24.2724 60.0538 24.6934L54.7236 28.6912L56.4617 31.0079L61.7912 27.0108C63.1376 26.0098 63.8887 24.3986 63.7901 22.724L63.6452 20.1169C63.61 19.4049 63.9304 18.7211 64.4995 18.2924L67.5122 16.0327L68.7863 17.7271C69.0208 18.0315 69.3631 18.2341 69.7425 18.2924C69.8091 18.3046 69.8771 18.3097 69.945 18.3065C70.2584 18.3058 70.5634 18.2046 70.814 18.0168L82.7624 9.05228C84.6812 7.61224 85.0702 4.88918 83.6315 2.96912L82.8207 1.89758ZM81.0244 6.73489L70.2347 14.831L68.9606 13.1366L67.6859 11.4421L78.4756 3.34596C79.1159 2.86722 80.0227 2.99668 80.5034 3.63563L81.3141 4.70717C81.5467 5.01286 81.646 5.39931 81.5896 5.77935C81.5345 6.16003 81.3314 6.50353 81.0244 6.73489Z" fill="white"/>
</g>
<defs>
<clipPath id="clip0_645_33701">
<rect width="84" height="84" fill="white" transform="translate(0.5)"/>
</clipPath>
</defs>
</svg>
