<svg width="85" height="84" viewBox="0 0 85 84" fill="none" xmlns="http://www.w3.org/2000/svg">
<path d="M21.5686 0V27.0049H21.7059H63.4313V0H21.5686ZM30.1642 21C30.1642 21.9265 29.4264 22.7328 28.4313 22.7328C27.5049 22.7328 26.6985 21.9951 26.6985 21V9.93382C26.6985 9.00735 27.4363 8.20098 28.4313 8.20098C29.3578 8.20098 30.1642 8.93873 30.1642 9.93382V21Z" fill="white"/>
<path d="M21.5686 79.4021H25.4289V84.0001H33.3554V79.4021H51.6274V84.0001H59.5539V79.4021H63.4313V30.4707H21.5686V79.4021ZM26.6985 37.608C26.6985 36.6815 27.4363 35.8751 28.4313 35.8751C29.3578 35.8751 30.1642 36.6129 30.1642 37.608V48.6741C30.1642 49.6006 29.4264 50.407 28.4313 50.407C27.5049 50.407 26.6985 49.6692 26.6985 48.6741V37.608Z" fill="white"/>
</svg>
