<svg width="60" height="60" viewBox="0 0 60 60" fill="none" xmlns="http://www.w3.org/2000/svg">
<rect width="60" height="60" rx="30" fill="#08080C"/>
<g clip-path="url(#clip0_408_8837)">
<path fill-rule="evenodd" clip-rule="evenodd" d="M21.9146 22.4709C22.0709 22.804 22.4031 23.0173 22.7717 23.0173H27.3755V24.6436C27.3755 25.1667 27.7999 25.5906 28.3247 25.5906C28.8468 25.5906 29.2712 25.1667 29.2712 24.6436V23.0173H29.7067C30.2316 23.0173 30.6531 22.5934 30.6531 22.07C30.6531 21.5471 30.2316 21.1233 29.7067 21.1233H29.2712V15.4401C29.2712 15.0417 29.0227 14.686 28.6486 14.5507C28.2745 14.4144 27.8529 14.5269 27.5988 14.8323L22.0458 21.4622C21.8084 21.7438 21.7582 22.1376 21.9146 22.4709ZM45.9375 29.7432C45.9375 33.9153 44.3129 37.8415 41.3625 40.7918C38.4119 43.7424 34.4853 45.3682 30.3125 45.3682C26.1397 45.3682 22.2131 43.7424 19.2625 40.7918C16.3121 37.8415 14.6875 33.9153 14.6875 29.7432C14.6875 28.9591 15.3232 28.3224 16.1074 28.3224C16.8931 28.3224 17.5273 28.9578 17.5273 29.7432C17.5273 36.7915 23.2645 42.5272 30.3124 42.5272C37.3605 42.5272 43.0976 36.7915 43.0976 29.7432C43.0976 23.3502 38.3248 17.8945 31.9822 17.0674C31.2062 16.9662 30.6585 16.2513 30.7587 15.4758C30.8589 14.6995 31.5746 14.149 32.3505 14.2503C36.0903 14.7386 39.5198 16.5701 42.0189 19.3943C44.5475 22.2519 45.9375 25.9275 45.9375 29.7432ZM27.3754 18.046V21.1232H24.8013L27.3754 18.046ZM32.1691 38.1618C31.8871 38.6021 32.0156 39.1881 32.4567 39.4698C32.613 39.5709 32.7917 39.6194 32.9648 39.6194C33.2775 39.6194 33.5818 39.4656 33.7632 39.1833L39.6597 29.9799C39.8467 29.6879 39.8579 29.318 39.6932 29.0145C39.5256 28.7107 39.2074 28.522 38.8612 28.522H33.4785C32.9536 28.522 32.532 28.9458 32.532 29.469C32.532 29.9922 32.9536 30.416 33.4785 30.416H37.1302L32.1691 38.1618ZM37.1274 20.7603C37.496 21.1302 37.496 21.7299 37.1274 22.0999L23.1681 36.0593C22.9811 36.2441 22.741 36.3365 22.498 36.3365C22.2552 36.3365 22.0123 36.2441 21.828 36.0593C21.4595 35.6893 21.4595 35.0899 21.828 34.72L35.7874 20.7603C36.1559 20.3904 36.7562 20.3904 37.1274 20.7603ZM20.5158 18.7764C20.7559 17.8987 20.6052 17.237 20.0663 16.8104C19.4604 16.3326 18.4582 16.2487 17.777 16.6185C17.2605 16.8997 17.0316 17.3854 17.0986 18.0619C17.1461 18.5829 16.7664 19.0458 16.2443 19.0955C15.725 19.1446 15.2615 18.7641 15.2112 18.2437C15.0745 16.8031 15.6775 15.6045 16.8724 14.9554C18.2098 14.2262 20.0468 14.382 21.2417 15.3254C22.3808 16.2274 22.7828 17.6672 22.3445 19.2753C22.0485 20.3608 21.0323 21.1523 19.8597 22.0691C19.2231 22.5644 18.5391 23.0977 17.9668 23.6965H21.8894C22.4115 23.6965 22.8359 24.1203 22.8359 24.6436C22.8359 25.1667 22.4115 25.5906 21.8894 25.5906H16.127C15.8031 25.5906 15.4988 25.4225 15.3257 25.1461C15.1526 24.8697 15.1331 24.5235 15.2755 24.2299C16.046 22.6415 17.4531 21.5441 18.6927 20.5764C19.5247 19.9264 20.3874 19.2546 20.5158 18.7764Z" fill="white"/>
</g>
<defs>
<clipPath id="clip0_408_8837">
<rect width="31.25" height="31.25" fill="white" transform="translate(14.6875 14.1777)"/>
</clipPath>
</defs>
</svg>
