<svg width="60" height="60" viewBox="0 0 60 60" fill="none" xmlns="http://www.w3.org/2000/svg">
<rect width="60" height="60" rx="30" fill="#FB6340"/>
<g clip-path="url(#clip0_408_8845)">
<path d="M15.2432 34.3672H18.7152C19.1946 34.3672 19.5833 34.7557 19.5833 35.235V43.9157C19.5833 44.3951 19.1946 44.7839 18.7152 44.7839H15.2432C14.7638 44.7839 14.375 44.3951 14.375 43.9157V35.235C14.375 34.7557 14.7638 34.3672 15.2432 34.3672Z" fill="white"/>
<path d="M23.9235 27.4229H27.3958C27.8752 27.4229 28.264 27.8116 28.264 28.291V43.916C28.264 44.3954 27.8752 44.7842 27.3958 44.7842H23.9235C23.4441 44.7842 23.0557 44.3954 23.0557 43.916V28.291C23.0557 27.8116 23.4441 27.4229 23.9235 27.4229Z" fill="white"/>
<path d="M32.6045 30.8955H36.0768C36.5562 30.8955 36.9447 31.2843 36.9447 31.7637V43.9163C36.9447 44.3957 36.5562 44.7845 36.0768 44.7845H32.6045C32.1251 44.7845 31.7363 44.3957 31.7363 43.9163V31.7637C31.7363 31.2843 32.1251 30.8955 32.6045 30.8955Z" fill="white"/>
<path d="M41.2852 25.6865H44.7572C45.2365 25.6865 45.6253 26.0753 45.6253 26.5547V43.9157C45.6253 44.3951 45.2365 44.7839 44.7572 44.7839H41.2852C40.8058 44.7839 40.417 44.3951 40.417 43.9157V26.5547C40.417 26.0753 40.8058 25.6865 41.2852 25.6865Z" fill="white"/>
<path d="M43.0208 15.2705C41.5833 15.2721 40.4183 16.4372 40.4167 17.8747C40.4202 18.1582 40.4704 18.4392 40.5654 18.7063L36.2199 21.2895C35.6496 20.6845 34.8227 20.3914 33.9988 20.5017C33.1745 20.612 32.4541 21.1124 32.0628 21.8461L28.23 19.9476C28.2487 19.8361 28.2599 19.7235 28.264 19.6107C28.2659 18.5566 27.6323 17.6054 26.659 17.2007C25.6856 16.7964 24.5644 17.0186 23.8189 17.7637C23.0731 18.5089 22.8503 19.6298 23.2543 20.6035L18.2825 24.3139C17.8883 24.079 17.4382 23.9537 16.9792 23.9512C15.541 23.9512 14.375 25.1169 14.375 26.5553C14.375 27.9935 15.541 29.1595 16.9792 29.1595C18.4173 29.1595 19.5833 27.9935 19.5833 26.5553C19.5811 26.2419 19.522 25.932 19.4088 25.6398L24.4302 21.8922C25.4125 22.4399 26.6377 22.2794 27.4454 21.4967L31.804 23.6555C32.0946 24.9497 33.3124 25.8181 34.6307 25.6713C35.949 25.5244 36.9459 24.4096 36.9443 23.083C36.9443 23.0169 36.9297 22.9546 36.9249 22.8897L41.6514 20.0799C42.0611 20.339 42.5357 20.4773 43.0208 20.4788C44.459 20.4788 45.625 19.3128 45.625 17.8747C45.625 16.4365 44.459 15.2705 43.0208 15.2705Z" fill="white"/>
</g>
<defs>
<clipPath id="clip0_408_8845">
<rect width="31.25" height="31.25" fill="white" transform="translate(14.375 14.375)"/>
</clipPath>
</defs>
</svg>
