<svg width="41" height="44" viewBox="0 0 41 44" fill="none" xmlns="http://www.w3.org/2000/svg">
<path d="M38.6434 0H3.03426C2.44832 0 1.88637 0.25195 1.47204 0.700423C1.05772 1.1489 0.824951 1.75716 0.824951 2.39139V40.9359C0.825099 41.57 1.05793 42.1781 1.47224 42.6265C1.88655 43.0748 2.44841 43.3267 3.03426 43.3267H22.2048V26.5484H16.9884V20.0097H22.2048V15.1872C22.2048 9.59085 25.3625 6.54414 29.9746 6.54414C32.1839 6.54414 34.0825 6.72166 34.6362 6.80169V12.6502L31.4373 12.652C28.9289 12.652 28.4436 13.9422 28.4436 15.8353V20.0103H34.4255L33.6466 26.549H28.4436V43.3267H38.644C39.2298 43.3265 39.7916 43.0745 40.2058 42.6261C40.62 42.1776 40.8527 41.5694 40.8527 40.9353V2.39139C40.8527 1.75716 40.62 1.1489 40.2056 0.700423C39.7913 0.25195 39.2294 0 38.6434 0Z" fill="white"/>
</svg>
