<svg width="84" height="84" viewBox="0 0 84 84" fill="none" xmlns="http://www.w3.org/2000/svg">
<path d="M76.125 31.5H7.875C6.42535 31.5 5.25 32.6741 5.25 34.125V39.375C5.25 40.8259 6.42535 42 7.875 42H76.125C77.5746 42 78.75 40.8259 78.75 39.375V34.125C78.75 32.6741 77.5746 31.5 76.125 31.5Z" fill="white"/>
<path d="M47.25 18.375L44.625 13.125H36.75L34.125 18.375C32.7641 21.0966 31.7953 25.3222 31.5 28.875H49.875C49.5797 25.3222 48.6109 21.0966 47.25 18.375Z" fill="white"/>
<path d="M44.625 7.875C44.625 6.42407 43.4496 5.25 42 5.25H39.375C37.9254 5.25 36.75 6.42407 36.75 7.875V10.5H44.625V7.875Z" fill="white"/>
<path d="M13.1481 71.9158C13.6672 75.8123 17.0228 78.75 20.9539 78.75H63C66.9311 78.75 70.2867 75.8123 70.7878 72.0337C70.7878 72.0337 76.1253 44.7811 76.125 44.625H7.875C7.87484 44.7793 13.1481 71.9158 13.1481 71.9158ZM57.7896 71.8685L63.0396 50.8685C63.2126 50.1636 63.924 49.7431 64.6302 49.9123C65.3339 50.0892 65.762 50.8019 65.5851 51.5042L60.3351 72.5042C60.1864 73.1015 59.6519 73.4989 59.0636 73.4989C58.9585 73.4989 58.8509 73.4861 58.7445 73.4604C58.0408 73.2835 57.6127 72.5709 57.7896 71.8685ZM49.8853 51.0255C49.975 50.3077 50.6287 49.7874 51.3503 49.8873C52.0693 49.9771 52.5795 50.6333 52.4897 51.3536L49.8647 72.3536C49.7814 73.0176 49.2162 73.5021 48.5638 73.5021C48.5099 73.5021 48.4548 73.4995 48.3997 73.4918C47.6807 73.4021 47.1705 72.7459 47.2603 72.0255L49.8853 51.0255ZM32.6497 49.8853C33.3713 49.7853 34.025 50.3057 34.1147 51.0234L36.7397 72.0234C36.8295 72.7438 36.3193 73.4 35.6003 73.4897C35.5452 73.4974 35.4901 73.5 35.4362 73.5C34.7838 73.5 34.2186 73.0155 34.1353 72.3516L31.5103 51.3516C31.4205 50.6312 31.9307 49.975 32.6497 49.8853ZM19.3698 49.9102C20.076 49.7411 20.7874 50.1615 20.9604 50.8664L26.2104 71.8664C26.3873 72.5688 25.9592 73.2815 25.2555 73.4583C25.1491 73.484 25.0415 73.4968 24.9364 73.4968C24.3481 73.4968 23.8136 73.0995 23.6649 72.5022L18.4149 51.5022C18.238 50.7998 18.6661 50.0871 19.3698 49.9102Z" fill="white"/>
<path d="M57.75 13.125H70.875C72.3259 13.125 73.5 11.9496 73.5 10.5V7.875C73.5 6.42535 72.3259 5.25 70.875 5.25H57.75C56.2991 5.25 55.125 6.42535 55.125 7.875V10.5C55.125 11.9496 56.2991 13.125 57.75 13.125Z" fill="white"/>
<path d="M76.125 26.25C76.125 22.8636 73.9169 19.8482 70.875 18.8146V15.75H57.75V18.8146C54.7081 19.8482 52.5 22.8636 52.5 26.25V28.875H76.125V26.25Z" fill="white"/>
<path d="M13.1252 28.875H28.8752L25.0755 21.4057L20.6157 25.8655C20.3593 26.1218 20.0235 26.25 19.6877 26.25C19.3519 26.25 19.0161 26.1218 18.7597 25.8655C18.247 25.3528 18.247 24.5222 18.7597 24.0095L23.8239 18.9454L20.6498 12.7064L15.3657 17.9905C15.1093 18.2468 14.7735 18.375 14.4377 18.375C14.1019 18.375 13.7661 18.2468 13.5097 17.9905C12.997 17.4778 12.997 16.6472 13.5097 16.1345L19.3982 10.2461L19.0307 9.52348C17.8757 6.92475 15.2984 5.25 12.4545 5.25C7.247 5.25 3.76356 10.6101 5.87859 15.3688L13.1252 28.875Z" fill="white"/>
</svg>
