<svg width="60" height="60" viewBox="0 0 60 60" fill="none" xmlns="http://www.w3.org/2000/svg">
<path d="M7.4699 17.1699H18.7022C19.0183 17.1699 19.3312 17.2322 19.6233 17.3531C19.9153 17.4741 20.1806 17.6514 20.4041 17.8749C20.6276 18.0984 20.8049 18.3637 20.9258 18.6557C21.0468 18.9477 21.109 19.2607 21.109 19.5768V28.4019C21.109 29.0402 20.8555 29.6524 20.4041 30.1038C19.9527 30.5552 19.3405 30.8088 18.7021 30.8088H7.46984C6.83151 30.8088 6.21931 30.5552 5.76794 30.1038C5.31657 29.6525 5.06299 29.0403 5.06299 28.4019V19.5768C5.06299 19.2608 5.12524 18.9478 5.2462 18.6558C5.36716 18.3637 5.54445 18.0984 5.76796 17.8749C5.99146 17.6514 6.25679 17.4741 6.54881 17.3531C6.84083 17.2322 7.15382 17.1699 7.4699 17.1699V17.1699Z" fill="white"/>
<path d="M30.7363 13.9599C32.9516 13.9599 34.7475 12.164 34.7475 9.94871C34.7475 7.73338 32.9516 5.9375 30.7363 5.9375C28.521 5.9375 26.7251 7.73338 26.7251 9.94871C26.7251 12.164 28.521 13.9599 30.7363 13.9599Z" fill="white"/>
<path d="M13.8901 33.0951C13.8904 34.3407 14.3802 35.5363 15.254 36.4241H28.2959V33.0908C28.2959 32.8789 28.2118 32.6757 28.062 32.526C27.9122 32.3762 27.709 32.292 27.4972 32.292H14.6889C14.4766 32.293 14.2734 32.378 14.1237 32.5286C13.974 32.6791 13.89 32.8828 13.8901 33.0951V33.0951Z" fill="white"/>
<path d="M53.7887 45.5348C53.3975 44.0885 52.5202 42.8209 51.3044 41.9452C50.0885 41.0695 48.6083 40.6391 47.1125 40.7264C47.2382 40.2577 47.303 39.7749 47.3052 39.2897C47.2901 38.5205 47.0885 37.7664 46.7177 37.0922C46.3469 36.418 45.818 35.844 45.1765 35.4193C43.4535 34.2766 42.1655 31.3703 41.9708 28.3131H43.5072C44.1425 28.3134 44.7519 28.0616 45.2018 27.6131C45.6517 27.1646 45.9053 26.556 45.9071 25.9207V24.3275C45.9053 23.6923 45.6517 23.0837 45.2018 22.6353C44.7519 22.1869 44.1424 21.9352 43.5072 21.9356H38.0203C33.3814 20.5996 31.9859 19.061 31.1518 18.1392C31.1346 18.1204 31.1177 18.1016 31.1013 18.0832C31.1846 17.4681 31.0732 16.8424 30.7829 16.2938C30.4927 15.7452 30.0379 15.3012 29.4826 15.0241C29.0861 14.8348 28.652 14.7375 28.2127 14.7393C27.7733 14.7411 27.34 14.842 26.9451 15.0345C26.5502 15.2271 26.2038 15.5062 25.9318 15.8512C25.6597 16.1962 25.469 16.5981 25.3739 17.027L23.072 28.026C23.0042 28.3527 23.0054 28.69 23.0757 29.0162C23.1459 29.3424 23.2836 29.6503 23.4799 29.9201C23.6762 30.1899 23.9268 30.4157 24.2155 30.5829C24.5042 30.7502 24.8248 30.8552 25.1565 30.8912L29.1006 31.3276C29.3039 31.3491 29.4912 31.4479 29.6237 31.6036C29.7563 31.7592 29.824 31.9598 29.8128 32.1639L29.1912 42.678C28.5461 42.1142 28.0875 41.3678 27.8759 40.5376C27.6643 39.7074 27.7098 38.8325 28.0063 38.0287H15.7437C14.4502 40.1713 12.3798 44.1888 13.2175 46.8021C13.3737 47.294 13.6451 47.7414 14.0091 48.1071C14.3731 48.4729 14.8192 48.7464 15.3103 48.905C15.6709 49.0153 16.0491 49.0564 16.425 49.026C16.5161 50.3236 17.0958 51.5384 18.0473 52.4254C18.9987 53.3125 20.2511 53.8057 21.5519 53.8057C22.8527 53.8057 24.1051 53.3124 25.0565 52.4253C26.0079 51.5383 26.5876 50.3235 26.6786 49.0259L40.4288 49.0257C40.5625 49.0183 40.6933 48.9846 40.8138 48.9263C40.9343 48.8681 41.0421 48.7865 41.1309 48.6863C41.2283 49.1602 41.3866 49.6195 41.6018 50.0528C41.662 50.179 41.7543 50.2872 41.8695 50.3665C41.9846 50.4458 42.1186 50.4935 42.258 50.5048C42.3973 50.5161 42.5372 50.4906 42.6636 50.4309C42.7901 50.3712 42.8986 50.2793 42.9784 50.1645C43.0716 50.0304 43.1731 49.8995 43.2797 49.7706C43.3863 50.4633 43.6337 51.1269 44.0065 51.7204C44.3794 52.3139 44.8698 52.8248 45.4475 53.2216C46.0253 53.6184 46.6781 53.8927 47.3659 54.0277C48.0537 54.1626 48.7618 54.1553 49.4467 54.0063C50.1315 53.8572 50.7786 53.5695 51.3481 53.1609C51.9176 52.7523 52.3973 52.2314 52.7579 51.6303C53.1184 51.0293 53.3521 50.3608 53.4445 49.666C53.5369 48.9712 53.4861 48.2649 53.2952 47.5905C53.5021 47.5679 53.6917 47.4648 53.823 47.3033C53.9544 47.1419 54.0168 46.9352 53.9967 46.7281C53.9663 46.3245 53.8966 45.9249 53.7887 45.5348V45.5348ZM21.5516 52.2082C20.6752 52.2082 19.83 51.8826 19.18 51.2946C18.5301 50.7066 18.1217 49.8981 18.0342 49.026L25.0694 49.0259C24.9818 49.898 24.5734 50.7065 23.9234 51.2946C23.2734 51.8826 22.4281 52.2082 21.5516 52.2082V52.2082ZM37.1048 43.4449H33.9882L35.3663 30.4168C35.4214 29.8891 35.2995 29.3581 35.0198 28.9073C34.7401 28.4565 34.3185 28.1114 33.8213 27.9265L29.89 26.4594C29.7093 26.3923 29.5591 26.262 29.4673 26.0925C29.3755 25.923 29.3484 25.726 29.3909 25.538L29.9891 22.9588C32.0342 24.5895 34.5034 25.6006 37.1048 25.8728V43.4449ZM48.8064 52.4452C48.2742 52.5152 47.733 52.4632 47.2237 52.2932C46.7145 52.1232 46.2507 51.8397 45.8672 51.4639C45.4838 51.0882 45.1908 50.6302 45.0104 50.1246C44.8301 49.619 44.7671 49.0789 44.8262 48.5454L45.0706 48.2412C46.9077 47.1024 49.0968 46.6718 51.2283 47.0299L51.4178 47.1762C51.7091 47.6802 51.8713 48.2483 51.8899 48.8301C51.9086 49.4119 51.7831 49.9892 51.5246 50.5107C51.2661 51.0323 50.8827 51.4818 50.4084 51.8193C49.9342 52.1568 49.3838 52.3718 48.8064 52.4452V52.4452Z" fill="white"/>
</svg>
