<svg width="84" height="84" viewBox="0 0 84 84" fill="none" xmlns="http://www.w3.org/2000/svg">
<g clip-path="url(#clip0_645_33703)">
<path d="M10.8845 63.8159L10.1074 66.9635C9.81785 68.1357 10.0731 69.3527 10.8076 70.3047C11.5422 71.2568 12.6482 71.8031 13.8408 71.8031C15.6093 71.8031 17.1456 70.5895 17.5742 68.8526L18.8094 63.8557H11.8972C11.5569 63.8557 11.2183 63.8424 10.8845 63.8159Z" fill="white"/>
<path d="M73.1154 63.8159C72.7816 63.8424 72.443 63.8557 72.1027 63.8557H65.1921L66.4257 68.8526C66.8543 70.5895 68.3906 71.8031 70.1591 71.8031C71.3517 71.8031 72.4577 71.2568 73.1923 70.3047C73.9268 69.3527 74.1821 68.1357 73.8925 66.9635L73.1154 63.8159Z" fill="white"/>
<path d="M8.13438 26.8003C12.298 27.1496 15.8073 30.269 16.6384 34.4713L18.6523 44.6639C18.8781 45.8064 19.8777 46.6359 21.0295 46.6359H62.9704C64.1221 46.6359 65.1217 45.8064 65.3475 44.6639L67.3614 34.4713C68.1336 30.5654 71.2208 27.595 74.9951 26.9145L75.3239 25.0535C75.8867 21.8596 75.0294 18.6011 72.9713 16.1126C70.9132 13.624 67.8931 12.1968 64.6865 12.1968H18.4086C15.13 12.1968 12.0674 13.677 10.006 16.2566C7.9446 18.8379 7.15604 22.1792 7.84317 25.4227L8.13438 26.8003Z" fill="white"/>
<path d="M81.6517 31.6138C80.3608 30.2175 78.5369 29.4166 76.6475 29.4166C75.8987 29.4166 75.1731 29.5421 74.4911 29.7724L74.4914 29.7709C72.1943 30.5322 70.3865 32.5867 69.9281 34.9916L67.914 45.1834C67.4443 47.5601 65.365 49.2852 62.9701 49.2852H21.0301C18.6352 49.2852 16.556 47.5602 16.0863 45.1834L14.0722 34.9916C13.567 32.3072 11.3669 30.0809 8.71864 29.5573L8.7188 29.558C6.4256 29.0656 3.94196 29.8733 2.34848 31.6138C1.05767 33.0102 0.389353 34.9052 0.514999 36.8131L1.42691 50.6554C1.45096 56.3533 5.94215 61.0016 11.5316 61.1971L11.5309 61.1999C11.652 61.2049 11.7747 61.2066 11.8974 61.2066H19.464H64.5379H72.1028C72.2255 61.2066 72.3482 61.2049 72.4693 61.1999L72.4686 61.1971C78.0581 61.0016 82.5493 56.3533 82.5731 50.6554L83.4851 36.8131C83.6107 34.9052 82.9426 33.01 81.6517 31.6138Z" fill="white"/>
</g>
<defs>
<clipPath id="clip0_645_33703">
<rect width="83" height="84" fill="white" transform="translate(0.5)"/>
</clipPath>
</defs>
</svg>
