<svg width="32" height="32" viewBox="0 0 32 32" fill="none" xmlns="http://www.w3.org/2000/svg">
<rect width="32" height="32" rx="16" fill="#1F8578"/>
<path d="M14 17.5998L19.9 11.6998C20.0834 11.5165 20.3167 11.4248 20.6 11.4248C20.8834 11.4248 21.1167 11.5165 21.3 11.6998C21.4834 11.8831 21.575 12.1165 21.575 12.3998C21.575 12.6831 21.4834 12.9165 21.3 13.0998L14.7 19.6998C14.5 19.8998 14.2667 19.9998 14 19.9998C13.7334 19.9998 13.5 19.8998 13.3 19.6998L10.7 17.0998C10.5167 16.9165 10.425 16.6831 10.425 16.3998C10.425 16.1165 10.5167 15.8831 10.7 15.6998C10.8834 15.5165 11.1167 15.4248 11.4 15.4248C11.6834 15.4248 11.9167 15.5165 12.1 15.6998L14 17.5998Z" fill="white"/>
</svg>
