<svg width="40" height="40" viewBox="0 0 40 40" fill="none" xmlns="http://www.w3.org/2000/svg">
<g clip-path="url(#clip0_18_56)">
<path d="M29.502 26.1132C34.5739 23.5113 38.4188 21.5287 38.7502 21.3746C39.8103 20.8478 40.9052 19.4537 38.7502 18.3708C38.0544 18.0302 34.3083 16.1093 29.502 13.6321L22.8392 19.9189L29.502 26.1131V26.1132Z" fill="#FFD900"/>
<path d="M22.8392 19.9189L1.62405 39.896C2.12202 39.9576 2.68421 39.8343 3.34702 39.4938C4.73859 38.7822 19.4905 31.2553 29.502 26.1147L22.8392 19.9189Z" fill="#F43249"/>
<path d="M22.8392 19.9191L29.502 13.6631C29.502 13.6631 4.83922 1.08782 3.34703 0.345481C2.78484 0.0343856 2.15484 -0.0580231 1.59109 0.0343856L22.8392 19.9191Z" fill="#00EE76"/>
<path d="M22.8392 19.9189L1.59109 0.0341797C0.72875 0.220457 0 0.932282 0 2.38805V37.5421C0 38.8745 0.563906 39.8342 1.62406 39.9267L22.8392 19.9189Z" fill="#00D3FF"/>
</g>
<defs>
<clipPath id="clip0_18_56">
<rect width="40" height="40" fill="white"/>
</clipPath>
</defs>
</svg>
