<svg width="41" height="44" viewBox="0 0 41 44" fill="none" xmlns="http://www.w3.org/2000/svg">
<path d="M27.6289 21.6633C27.6289 19.67 26.9774 17.9682 25.6744 16.5578C24.3714 15.1474 22.7992 14.4422 20.9576 14.4422C19.1161 14.4422 17.5438 15.1474 16.2408 16.5578C14.9378 17.9682 14.2863 19.67 14.2863 21.6633C14.2863 23.6567 14.9378 25.3585 16.2408 26.7689C17.5438 28.1793 19.1161 28.8845 20.9576 28.8845C22.7992 28.8845 24.3714 28.1793 25.6744 26.7689C26.9774 25.3585 27.6289 23.6567 27.6289 21.6633ZM31.2252 21.6633C31.2252 24.7474 30.2262 27.3707 28.2283 29.5332C26.2304 31.6958 23.8068 32.7771 20.9576 32.7771C18.1084 32.7771 15.6849 31.6958 13.6869 29.5332C11.689 27.3707 10.6901 24.7474 10.6901 21.6633C10.6901 18.5793 11.689 15.956 13.6869 13.7935C15.6849 11.6309 18.1084 10.5496 20.9576 10.5496C23.8068 10.5496 26.2304 11.6309 28.2283 13.7935C30.2262 15.956 31.2252 18.5793 31.2252 21.6633ZM34.0396 10.0983C34.0396 10.8129 33.8051 11.424 33.336 11.9318C32.8669 12.4395 32.3023 12.6934 31.6421 12.6934C30.9819 12.6934 30.4173 12.4395 29.9482 11.9318C29.4792 11.424 29.2446 10.8129 29.2446 10.0983C29.2446 9.38369 29.4792 8.77253 29.9482 8.26479C30.4173 7.75706 30.9819 7.50319 31.6421 7.50319C32.3023 7.50319 32.8669 7.75706 33.336 8.26479C33.8051 8.77253 34.0396 9.38369 34.0396 10.0983ZM20.9576 3.89263C20.836 3.89263 20.1715 3.88793 18.964 3.87853C17.7566 3.86913 16.8402 3.86913 16.2147 3.87853C15.5893 3.88793 14.7511 3.91614 13.7 3.96315C12.6489 4.01016 11.7542 4.10419 11.0158 4.24523C10.2775 4.38626 9.65637 4.56021 9.15255 4.76707C8.28389 5.14317 7.51947 5.68851 6.85929 6.4031C6.19911 7.11769 5.69529 7.94511 5.34782 8.88536C5.15672 9.4307 4.99602 10.103 4.86572 10.9022C4.73542 11.7014 4.64855 12.6699 4.60512 13.8076C4.56169 14.9453 4.53563 15.8526 4.52694 16.5296C4.51825 17.2066 4.51825 18.1985 4.52694 19.5055C4.53563 20.8124 4.53997 21.5317 4.53997 21.6633C4.53997 21.795 4.53563 22.5143 4.52694 23.8212C4.51825 25.1282 4.51825 26.1201 4.52694 26.7971C4.53563 27.4741 4.56169 28.3814 4.60512 29.5191C4.64855 30.6568 4.73542 31.6253 4.86572 32.4245C4.99602 33.2237 5.15672 33.896 5.34782 34.4413C5.69529 35.3816 6.19911 36.209 6.85929 36.9236C7.51947 37.6382 8.28389 38.1835 9.15255 38.5596C9.65637 38.7665 10.2775 38.9404 11.0158 39.0815C11.7542 39.2225 12.6489 39.3165 13.7 39.3635C14.7511 39.4106 15.5893 39.4388 16.2147 39.4482C16.8402 39.4576 17.7566 39.4576 18.964 39.4482C20.1715 39.4388 20.836 39.4341 20.9576 39.4341C21.0792 39.4341 21.7438 39.4388 22.9512 39.4482C24.1586 39.4576 25.0751 39.4576 25.7005 39.4482C26.3259 39.4388 27.1642 39.4106 28.2153 39.3635C29.2663 39.3165 30.1611 39.2225 30.8994 39.0815C31.6378 38.9404 32.2589 38.7665 32.7627 38.5596C33.6313 38.1835 34.3958 37.6382 35.0559 36.9236C35.7161 36.209 36.2199 35.3816 36.5674 34.4413C36.7585 33.896 36.9192 33.2237 37.0495 32.4245C37.1798 31.6253 37.2667 30.6568 37.3101 29.5191C37.3535 28.3814 37.3796 27.4741 37.3883 26.7971C37.397 26.1201 37.397 25.1282 37.3883 23.8212C37.3796 22.5143 37.3753 21.795 37.3753 21.6633C37.3753 21.5317 37.3796 20.8124 37.3883 19.5055C37.397 18.1985 37.397 17.2066 37.3883 16.5296C37.3796 15.8526 37.3535 14.9453 37.3101 13.8076C37.2667 12.6699 37.1798 11.7014 37.0495 10.9022C36.9192 10.103 36.7585 9.4307 36.5674 8.88536C36.2199 7.94511 35.7161 7.11769 35.0559 6.4031C34.3958 5.68851 33.6313 5.14317 32.7627 4.76707C32.2589 4.56021 31.6378 4.38626 30.8994 4.24523C30.1611 4.10419 29.2663 4.01016 28.2153 3.96315C27.1642 3.91614 26.3259 3.88793 25.7005 3.87853C25.0751 3.86913 24.1586 3.86913 22.9512 3.87853C21.7438 3.88793 21.0792 3.89263 20.9576 3.89263ZM40.9715 21.6633C40.9715 25.9697 40.9281 28.9503 40.8412 30.6051C40.6675 34.5166 39.5903 37.5442 37.6098 39.6879C35.6293 41.8317 32.8322 42.9976 29.2186 43.1857C27.6897 43.2797 24.9361 43.3267 20.9576 43.3267C16.9792 43.3267 14.2255 43.2797 12.6967 43.1857C9.08305 42.9976 6.28597 41.8317 4.30543 39.6879C2.32489 37.5442 1.24776 34.5166 1.07402 30.6051C0.987159 28.9503 0.943726 25.9697 0.943726 21.6633C0.943726 17.357 0.987159 14.3764 1.07402 12.7216C1.24776 8.81014 2.32489 5.78253 4.30543 3.63877C6.28597 1.495 9.08305 0.329087 12.6967 0.141037C14.2255 0.0470125 16.9792 0 20.9576 0C24.9361 0 27.6897 0.0470125 29.2186 0.141037C32.8322 0.329087 35.6293 1.495 37.6098 3.63877C39.5903 5.78253 40.6675 8.81014 40.8412 12.7216C40.9281 14.3764 40.9715 17.357 40.9715 21.6633Z" fill="white"/>
</svg>
