<svg width="40" height="40" viewBox="0 0 40 40" fill="none" xmlns="http://www.w3.org/2000/svg">
<circle cx="20" cy="20" r="20" fill="white" fill-opacity="0.16"/>
<path d="M20 13.4414C22.1361 13.4414 22.3891 13.4496 23.2327 13.4881C24.0127 13.5236 24.4363 13.654 24.7182 13.7635C25.0916 13.9087 25.3581 14.082 25.638 14.3619C25.918 14.6419 26.0913 14.9084 26.2365 15.2818C26.346 15.5637 26.4763 15.9873 26.5119 16.7673C26.5504 17.6109 26.5586 17.8639 26.5586 20C26.5586 22.1361 26.5504 22.3891 26.5119 23.2326C26.4763 24.0126 26.346 24.4362 26.2365 24.7181C26.0913 25.0915 25.918 25.358 25.638 25.638C25.3581 25.9179 25.0916 26.0913 24.7182 26.2364C24.4363 26.346 24.0127 26.4763 23.2327 26.5119C22.3892 26.5503 22.1362 26.5585 20 26.5585C17.8638 26.5585 17.6108 26.5503 16.7673 26.5119C15.9873 26.4763 15.5637 26.346 15.2818 26.2364C14.9084 26.0913 14.6419 25.9179 14.362 25.638C14.0821 25.358 13.9087 25.0915 13.7635 24.7181C13.654 24.4362 13.5237 24.0126 13.4881 23.2326C13.4496 22.3891 13.4414 22.1361 13.4414 20C13.4414 17.8639 13.4496 17.6109 13.4881 16.7673C13.5237 15.9873 13.654 15.5637 13.7635 15.2818C13.9087 14.9084 14.082 14.6419 14.362 14.362C14.6419 14.082 14.9084 13.9087 15.2818 13.7635C15.5637 13.654 15.9873 13.5236 16.7673 13.4881C17.6109 13.4496 17.8639 13.4414 20 13.4414ZM20 12C17.8273 12 17.5549 12.0092 16.7016 12.0481C15.8501 12.087 15.2686 12.2222 14.7597 12.42C14.2336 12.6244 13.7875 12.898 13.3427 13.3427C12.898 13.7875 12.6244 14.2336 12.42 14.7597C12.2222 15.2685 12.087 15.8501 12.0481 16.7016C12.0092 17.5549 12 17.8273 12 20C12 22.1726 12.0092 22.4451 12.0481 23.2984C12.087 24.1499 12.2222 24.7314 12.42 25.2403C12.6244 25.7663 12.898 26.2125 13.3427 26.6572C13.7875 27.102 14.2336 27.3755 14.7597 27.5799C15.2686 27.7777 15.8501 27.913 16.7016 27.9518C17.5549 27.9907 17.8273 27.9999 20 27.9999C22.1727 27.9999 22.4451 27.9907 23.2984 27.9518C24.1499 27.913 24.7314 27.7777 25.2403 27.5799C25.7664 27.3755 26.2125 27.102 26.6573 26.6572C27.102 26.2125 27.3756 25.7663 27.58 25.2403C27.7778 24.7314 27.913 24.1499 27.9519 23.2984C27.9908 22.4451 28 22.1726 28 20C28 17.8273 27.9908 17.5549 27.9519 16.7016C27.913 15.8501 27.7778 15.2685 27.58 14.7597C27.3756 14.2336 27.102 13.7875 26.6573 13.3427C26.2125 12.898 25.7664 12.6244 25.2403 12.42C24.7314 12.2222 24.1499 12.087 23.2984 12.0481C22.4451 12.0092 22.1727 12 20 12Z" fill="white"/>
<path d="M20.0036 15.8955C17.7348 15.8955 15.8955 17.7347 15.8955 20.0036C15.8955 22.2725 17.7348 24.1117 20.0036 24.1117C22.2725 24.1117 24.1117 22.2725 24.1117 20.0036C24.1117 17.7347 22.2725 15.8955 20.0036 15.8955ZM20.0036 22.6703C18.5308 22.6703 17.3369 21.4764 17.3369 20.0036C17.3369 18.5308 18.5308 17.3369 20.0036 17.3369C21.4764 17.3369 22.6703 18.5308 22.6703 20.0036C22.6703 21.4764 21.4764 22.6703 20.0036 22.6703Z" fill="white"/>
<path d="M25.2335 15.731C25.2335 16.2612 24.8037 16.691 24.2735 16.691C23.7433 16.691 23.3135 16.2612 23.3135 15.731C23.3135 15.2008 23.7433 14.771 24.2735 14.771C24.8037 14.771 25.2335 15.2008 25.2335 15.731Z" fill="white"/>
</svg>
