<svg width="20" height="20" viewBox="0 0 20 20" fill="none" xmlns="http://www.w3.org/2000/svg">
<path d="M11.072 2.458L14.311 5.768C15.1113 6.58609 15.6623 7.61502 15.8995 8.73458C16.1368 9.85414 16.0506 11.0181 15.6509 12.0905C15.2512 13.1629 14.5547 14.0994 13.6426 14.7906C12.7305 15.4818 11.6405 15.8992 10.5 15.994V17.498C10.5 17.6306 10.4473 17.7578 10.3536 17.8516C10.2598 17.9453 10.1326 17.998 10 17.998C9.8674 17.998 9.74022 17.9453 9.64645 17.8516C9.55268 17.7578 9.5 17.6306 9.5 17.498V15.994C8.35959 15.899 7.26974 15.4815 6.35778 14.7902C5.44581 14.099 4.74939 13.1624 4.34985 12.0901C3.95032 11.0177 3.86417 9.85383 4.10148 8.73435C4.33879 7.61487 4.88975 6.58602 5.69 5.768L8.928 2.458C9.06768 2.31529 9.23446 2.2019 9.41854 2.12449C9.60262 2.04708 9.80031 2.0072 10 2.0072C10.1997 2.0072 10.3974 2.04708 10.5815 2.12449C10.7656 2.2019 10.9323 2.31529 11.072 2.458V2.458ZM10.5 14.99C11.443 14.8959 12.3402 14.5374 13.0883 13.9558C13.8364 13.3741 14.405 12.5929 14.7285 11.7022C15.0521 10.8115 15.1174 9.84754 14.917 8.92132C14.7167 7.99511 14.2588 7.14434 13.596 6.467L10.357 3.157C10.3105 3.10953 10.2549 3.07182 10.1936 3.04608C10.1323 3.02034 10.0665 3.00708 10 3.00708C9.93352 3.00708 9.8677 3.02034 9.8064 3.04608C9.7451 3.07182 9.68955 3.10953 9.643 3.157L6.404 6.467C5.74125 7.14434 5.28332 7.99511 5.08296 8.92132C4.88259 9.84754 4.94795 10.8115 5.2715 11.7022C5.59504 12.5929 6.16362 13.3741 6.91173 13.9558C7.65984 14.5374 8.55704 14.8959 9.5 14.99V9.498C9.5 9.3654 9.55268 9.23822 9.64645 9.14445C9.74022 9.05068 9.8674 8.998 10 8.998C10.1326 8.998 10.2598 9.05068 10.3536 9.14445C10.4473 9.23822 10.5 9.3654 10.5 9.498V14.99V14.99Z" fill="#EDEADE"/>
</svg>
