<svg width="30" height="30" viewBox="0 0 41 44" fill="none" xmlns="http://www.w3.org/2000/svg">
<path d="M37.9276 0H3.81945C2.18832 0 0.864624 1.39909 0.864624 3.12193V40.2006C0.864624 41.9258 2.18832 43.3267 3.81945 43.3267H37.9276C39.5598 43.3267 40.8924 41.9258 40.8924 40.2006V3.12193C40.8924 1.39909 39.5598 0 37.9276 0ZM12.7362 36.9204H6.79652V16.2445H12.7362V36.9204ZM9.76636 13.4174C9.31425 13.4174 8.86658 13.321 8.44892 13.1337C8.03126 12.9463 7.6518 12.6717 7.33222 12.3256C7.01264 11.9794 6.7592 11.5685 6.58639 11.1163C6.41358 10.6641 6.32479 10.1795 6.32508 9.69014C6.32508 8.70231 6.68761 7.75495 7.33293 7.05645C7.97824 6.35796 8.85347 5.96554 9.76608 5.96554C10.6787 5.96554 11.5539 6.35796 12.1992 7.05645C12.8445 7.75495 13.2071 8.70231 13.2071 9.69014C13.2071 10.6782 12.8447 11.6258 12.1995 12.3247C11.5543 13.0236 10.6791 13.4166 9.76636 13.4174ZM34.9716 36.9204H29.0414V26.8662C29.0414 24.4675 28.998 21.3835 25.9554 21.3835C22.8654 21.3835 22.3946 23.9958 22.3946 26.6923V36.921H16.4599V16.2445H22.1555V19.068H22.2367C23.0294 17.4432 24.9663 15.7288 27.855 15.7288C33.8625 15.7288 34.9722 20.0097 34.9722 25.579V36.9204H34.9716Z" fill="white"/>
</svg>
