<svg width="60" height="60" viewBox="0 0 60 60" fill="none" xmlns="http://www.w3.org/2000/svg">
<rect width="60" height="60" rx="30" fill="#FCB513"/>
<g clip-path="url(#clip0_408_8826)">
<path d="M26.34 23.5303H22.2004V45.625H37.7644V23.5303H33.6249C33.0184 22.7257 32.1609 22.162 31.2102 21.8896C32.4406 18.2769 32.729 17.9446 32.729 17.1216C32.729 15.6071 31.4969 14.375 29.9824 14.375C28.4679 14.375 27.2358 15.6071 27.2358 17.1216C27.2358 17.9328 27.4777 18.1404 28.7545 21.8898C27.8038 22.162 26.9465 22.7257 26.34 23.5303ZM29.9824 16.2061C30.4867 16.2061 30.8979 16.6165 30.8979 17.1216C30.8979 17.4088 30.8256 17.4344 29.9824 19.8699C29.1136 17.3603 29.0669 17.4014 29.0669 17.1216C29.0669 16.6165 29.4781 16.2061 29.9824 16.2061ZM29.9824 35.4932C28.4679 35.4932 27.2358 34.2611 27.2358 32.7466C27.2358 31.5546 28.0035 30.5479 29.0669 30.1686V28.1689H30.8979V30.1686C31.9613 30.5479 32.729 31.5546 32.729 32.7466H30.8979C30.8979 32.2415 30.4867 31.8311 29.9824 31.8311C29.4781 31.8311 29.0669 32.2415 29.0669 32.7466C29.0669 33.2517 29.4781 33.6621 29.9824 33.6621C31.4969 33.6621 32.729 34.8942 32.729 36.4087C32.729 37.6007 31.9613 38.6074 30.8979 38.9866V40.9863H29.0669V38.9866C28.0035 38.6074 27.2358 37.6007 27.2358 36.4087H29.0669C29.0669 36.9138 29.4781 37.3242 29.9824 37.3242C30.4867 37.3242 30.8979 36.9138 30.8979 36.4087C30.8979 35.9036 30.4867 35.4932 29.9824 35.4932Z" fill="white"/>
<path d="M16.6333 25.4219V35.1136L15.6696 34.1981L14.375 35.4927L17.5007 38.6183L20.6263 35.4927L19.3317 34.1981L18.4033 35.1136V25.4219H16.6333Z" fill="white"/>
<path d="M41.597 25.4219V36.0291L40.6686 35.1136L39.374 36.4082L42.4997 39.5339L45.6254 36.4082L44.3307 35.1136L43.3671 36.0291V25.4219H41.597Z" fill="white"/>
</g>
<defs>
<clipPath id="clip0_408_8826">
<rect width="31.25" height="31.25" fill="white" transform="translate(14.375 14.375)"/>
</clipPath>
</defs>
</svg>
