<svg width="60" height="60" viewBox="0 0 60 60" fill="none" xmlns="http://www.w3.org/2000/svg">
<path d="M8.61328 28.1211C8.61328 28.6734 9.061 29.1211 9.61328 29.1211H16.4023C16.9546 29.1211 17.4023 28.6734 17.4023 28.1211V21.332C17.4023 20.7797 17.8501 20.332 18.4023 20.332H19.332C19.8843 20.332 20.332 20.7797 20.332 21.332V28.1211C20.332 28.6734 20.7797 29.1211 21.332 29.1211H28.1211C28.6734 29.1211 29.1211 28.6734 29.1211 28.1211V20.9386C29.1211 20.398 29.7747 20.1273 30.1569 20.5095V20.5095C30.3938 20.7465 30.778 20.7465 31.015 20.5095L31.9522 19.5723C32.3419 19.1826 32.3428 18.5509 31.9542 18.1601L19.5762 5.71302C19.1853 5.31987 18.5491 5.31987 18.1581 5.71301L5.7032 18.2371C5.31452 18.628 5.31539 19.2596 5.70515 19.6494L6.61978 20.564C6.86919 20.8134 7.27358 20.8134 7.523 20.564V20.564C7.92534 20.1617 8.61328 20.4466 8.61328 21.0156V28.1211Z" fill="white"/>
<path d="M13.9553 39.464L15.3519 40.8605L17.4233 38.7892L12.4222 33.7881L7.42114 38.7892L9.49253 40.8605L11.0129 39.3401C11.3089 46.3498 17.0597 51.9728 24.141 51.9728H25.6058V49.0431H24.141C18.7186 49.0431 14.3103 44.7983 13.9553 39.464Z" fill="white"/>
<path d="M46.1133 18.2812V20.6044L44.6484 19.1396L42.5771 21.2109L47.5781 26.212L52.5792 21.2109L50.5078 19.1396L49.043 20.6044V18.2812C49.043 12.6278 44.4425 8.02734 38.7891 8.02734H34.3945V10.957H38.7891C42.8274 10.957 46.1133 14.2429 46.1133 18.2812Z" fill="white"/>
<path d="M30.9763 53.9999C30.9763 54.5521 31.424 54.9999 31.9763 54.9999H38.7654C39.3176 54.9999 39.7654 54.5521 39.7654 53.9999V47.2108C39.7654 46.6585 40.2131 46.2108 40.7654 46.2108H41.695C42.2473 46.2108 42.695 46.6585 42.695 47.2108V53.9999C42.695 54.5521 43.1428 54.9999 43.695 54.9999H50.4841C51.0364 54.9999 51.4841 54.5521 51.4841 53.9999V46.7967C51.4841 46.2638 52.1285 45.9969 52.5053 46.3737V46.3737C52.739 46.6073 53.1177 46.6073 53.3513 46.3737L54.2926 45.4324C54.6831 45.0419 54.6835 44.4091 54.293 44.0186C51.9166 41.6423 44.2955 34.0211 41.9316 31.6572C41.5411 31.2667 40.9144 31.2716 40.5239 31.6621C38.1484 34.0376 30.5031 41.683 28.1336 44.0524C27.7431 44.4429 27.7566 45.0625 28.1472 45.4531L29.0824 46.3883C29.3194 46.6252 29.7035 46.6252 29.9405 46.3883V46.3883C30.3227 46.0061 30.9763 46.2768 30.9763 46.8173V53.9999Z" fill="white"/>
</svg>
