<svg width="60" height="60" viewBox="0 0 60 60" fill="none" xmlns="http://www.w3.org/2000/svg">
<path d="M16.875 21.6191H13.125V26.2504H9.375V21.6191H5.625V30.9379H16.875V21.6191Z" fill="white"/>
<path d="M26.25 26.2504H22.5V21.6191H18.75V30.9379H30V21.6191H26.25V26.2504Z" fill="white"/>
<path d="M23.4375 11.25H19.6875V15.9375H15.9375V11.25H12.1875V19.6875H23.4375V11.25Z" fill="white"/>
<path d="M3.75 42.2441H13.3219C11.9344 42.4316 10.7062 43.116 9.83437 44.1191H3.75V47.8691H8.4375C8.46562 50.9441 10.9781 53.4379 14.0625 53.4379C17.1469 53.4379 19.65 50.9441 19.6875 47.8691H30V44.1191H18.2906C17.4094 43.116 16.1906 42.4316 14.8031 42.2441H30V32.8691H3.75V42.2441ZM17.8125 47.8129C17.8125 49.8848 16.1344 51.5629 14.0625 51.5629C11.9906 51.5629 10.3125 49.8848 10.3125 47.8129C10.3125 45.741 11.9906 44.0629 14.0625 44.0629C16.1344 44.0629 17.8125 45.741 17.8125 47.8129Z" fill="white"/>
<path d="M14.0625 49.6875C15.098 49.6875 15.9375 48.848 15.9375 47.8125C15.9375 46.777 15.098 45.9375 14.0625 45.9375C13.027 45.9375 12.1875 46.777 12.1875 47.8125C12.1875 48.848 13.027 49.6875 14.0625 49.6875Z" fill="white"/>
<path d="M45.9375 49.6875C46.973 49.6875 47.8125 48.848 47.8125 47.8125C47.8125 46.777 46.973 45.9375 45.9375 45.9375C44.902 45.9375 44.0625 46.777 44.0625 47.8125C44.0625 48.848 44.902 49.6875 45.9375 49.6875Z" fill="white"/>
<path d="M56.25 38.4941V37.2285C56.25 36.4598 55.7813 35.766 55.0688 35.4848L48.8531 33.0191L43.8094 22.6691C43.5 22.0223 42.8438 21.6191 42.1219 21.6191H31.875V47.8691H40.3125C40.3406 50.9441 42.8531 53.4379 45.9375 53.4379C49.0219 53.4379 51.5344 50.9441 51.5625 47.8691H55.3125C55.8281 47.8691 56.25 47.4473 56.25 46.9316V42.2441H52.5V38.4941H56.25ZM35.625 23.4941H42.1219L46.7625 33.0285H35.625V23.4941ZM35.625 36.7785C35.625 36.2629 36.0469 35.841 36.5625 35.841H40.3125C40.8281 35.841 41.25 36.2629 41.25 36.7785C41.25 37.2941 40.8281 37.716 40.3125 37.716H36.5625C36.0469 37.716 35.625 37.2941 35.625 36.7785ZM45.9375 51.5629C43.8656 51.5629 42.1875 49.8848 42.1875 47.8129C42.1875 45.741 43.8656 44.0629 45.9375 44.0629C48.0094 44.0629 49.6875 45.741 49.6875 47.8129C49.6875 49.8848 48.0094 51.5629 45.9375 51.5629Z" fill="white"/>
</svg>
