<svg width="84" height="84" viewBox="0 0 84 84" fill="none" xmlns="http://www.w3.org/2000/svg">
<path d="M3.02409 75.0962H1.68009C1.17609 75.0962 0.840088 75.4322 0.840088 75.9362C0.840088 76.4402 1.17609 76.7762 1.68009 76.7762H3.02409C3.52809 76.7762 3.86409 76.4402 3.86409 75.9362C3.86409 75.4322 3.52809 75.0962 3.02409 75.0962Z" fill="white"/>
<path d="M82.3201 75.1802H80.1361C79.6321 75.1802 79.2961 75.5162 79.2961 76.0202C79.2961 76.5242 79.6321 76.8602 80.1361 76.8602H82.3201C82.8241 76.8602 83.1601 76.5242 83.1601 76.0202C83.1601 75.5162 82.7401 75.1802 82.3201 75.1802Z" fill="white"/>
<path d="M21.5881 67.6198C21.5881 66.1918 20.4961 65.0998 19.0681 65.0998H18.3121V40.5718C17.3041 40.9918 16.2961 41.2438 15.1201 41.2438C13.9441 41.2438 12.9361 40.9918 11.9281 40.4878V65.0158H11.1721C9.7441 65.0158 8.6521 66.1078 8.6521 67.5358V69.9718H21.5881V67.6198Z" fill="white"/>
<path d="M19.1696 37.8802C21.3999 35.6498 21.3999 32.0338 19.1696 29.8034C16.9393 27.5731 13.3232 27.5731 11.0928 29.8034C8.86249 32.0338 8.86249 35.6498 11.0928 37.8802C13.3232 40.1105 16.9393 40.1105 19.1696 37.8802Z" fill="white"/>
<path d="M69.3842 59.64C68.7122 59.64 68.1242 60.228 68.1242 60.9V67.452C68.1242 68.124 68.7122 68.712 69.3842 68.712H79.1282C79.8002 68.712 80.3882 68.124 80.3882 67.452V60.9C80.3882 60.228 79.8002 59.64 79.1282 59.64H75.4322V39.48C75.5162 39.396 75.5162 39.312 75.6002 39.228L81.4802 28.644C81.5642 28.476 81.6482 28.224 81.6482 27.972L80.0522 8.23204C79.9682 7.64404 79.4642 7.14004 78.8762 7.22404L65.3522 8.23204C64.7642 8.31604 64.2602 8.82004 64.3442 9.40804L64.7642 14.952L20.4122 28.644C21.7562 29.988 22.5122 31.836 22.5122 33.852V33.936L33.6842 30.492L27.5522 71.652H7.22416V75.096H6.55216C6.04816 75.096 5.71216 75.432 5.71216 75.936C5.71216 76.44 6.04816 76.776 6.55216 76.776H76.7762C77.2802 76.776 77.6162 76.44 77.6162 75.936C77.6162 75.432 77.2802 75.096 76.7762 75.096H75.8522V71.652H58.5482L53.6762 35.868L53.0882 31.584L52.1642 24.78L65.2682 20.748L65.9402 29.148C65.9402 29.4 66.0242 29.568 66.1922 29.736L73.7522 39.228V59.472L69.3842 59.64ZM36.6242 56.532L48.3842 48.132L50.9882 67.284L36.5402 57.204L36.6242 56.532ZM48.1322 46.284L36.9602 54.264L39.3122 37.212L48.1322 45.864V46.284ZM34.5242 71.736L36.2882 59.136L51.3242 69.636L51.5762 71.736H34.5242ZM47.7122 43.176L39.5642 35.112L40.4882 28.392L45.4442 26.88L47.7122 43.176ZM72.6602 18.48C70.8122 18.48 69.3842 16.968 69.3842 15.204C69.3842 13.356 70.8962 11.928 72.6602 11.928C74.5082 11.928 75.9362 13.44 75.9362 15.288C75.9362 16.968 74.5082 18.48 72.6602 18.48Z" fill="white"/>
</svg>
