<svg width="60" height="60" viewBox="0 0 60 60" fill="none" xmlns="http://www.w3.org/2000/svg">
<path d="M54.6916 29.3644C54.6142 28.9774 54.382 28.5904 54.1498 28.2808L50.1248 24.2558C49.97 24.101 49.8152 24.0236 49.6604 23.8688C49.3508 23.7139 49.0411 23.6365 48.6541 23.6365H46.1772V31.1447H54.769V29.7514C54.769 29.5966 54.769 29.4418 54.6916 29.3644ZM44.4743 31.9962V22.7851V16.9024C44.4743 15.7413 43.5455 14.8125 42.3844 14.8125H16.7637C15.6027 14.8125 14.6738 15.7413 14.6738 16.9024V35.8663H44.4743V31.9962ZM22.8786 39.7365C21.408 39.7365 20.2469 40.8976 20.2469 42.3683C20.2469 43.8389 21.408 45 22.8786 45C24.3493 45 25.5104 43.8389 25.5104 42.3683C25.5104 40.975 24.3493 39.7365 22.8786 39.7365ZM48.2671 39.7365C46.7964 39.7365 45.6354 40.8976 45.6354 42.3683C45.6354 43.8389 46.7964 45 48.2671 45C49.7378 45 50.8988 43.8389 50.8988 42.3683C50.9762 40.975 49.7378 39.7365 48.2671 39.7365ZM46.1772 32.8476V36.7178C46.1772 37.1822 45.7902 37.5692 45.3258 37.5692H14.7512V40.975C14.7512 41.5942 15.2157 42.0587 15.8349 42.0587H18.6214C18.7762 39.8913 20.6339 38.1111 22.8786 38.1111C25.1233 38.1111 26.981 39.8913 27.1358 42.0587H44.0099C44.1647 39.8913 46.0224 38.1111 48.2671 38.1111C50.5118 38.1111 52.3695 39.8913 52.5243 42.0587H53.608C54.2272 42.0587 54.6916 41.5942 54.6916 40.975V32.8476H46.1772ZM48.8863 35.4019H47.7253C47.2608 35.4019 46.8738 35.0149 46.8738 34.5505C46.8738 34.0861 47.2608 33.699 47.7253 33.699H48.8863C49.3508 33.699 49.7378 34.0861 49.7378 34.5505C49.6604 35.0149 49.3508 35.4019 48.8863 35.4019Z" fill="url(#paint0_linear_408_8779)"/>
<path d="M12.2748 18.6824H8.48206C8.01763 18.6824 7.63062 18.2954 7.63062 17.8309C7.63062 17.3665 8.01763 16.9795 8.48206 16.9795H12.2748C12.7393 16.9795 13.1263 17.3665 13.1263 17.8309C13.1263 18.3728 12.7393 18.6824 12.2748 18.6824Z" fill="url(#paint1_linear_408_8779)"/>
<path d="M12.2747 22.6306H6.0824C5.61798 22.6306 5.23096 22.2436 5.23096 21.7792C5.23096 21.3148 5.61798 20.9277 6.0824 20.9277H12.3521C12.8165 20.9277 13.2036 21.3148 13.2036 21.7792C13.1261 22.321 12.7391 22.6306 12.2747 22.6306Z" fill="url(#paint2_linear_408_8779)"/>
<path d="M12.2748 26.5779H8.48206C8.01763 26.5779 7.63062 26.1909 7.63062 25.7264C7.63062 25.262 8.01763 24.875 8.48206 24.875H12.2748C12.7393 24.875 13.1263 25.262 13.1263 25.7264C13.1263 26.2683 12.7393 26.5779 12.2748 26.5779Z" fill="url(#paint3_linear_408_8779)"/>
<path d="M12.2747 30.5252H6.0824C5.61798 30.5252 5.23096 30.1381 5.23096 29.6737C5.23096 29.2093 5.61798 28.8223 6.0824 28.8223H12.3521C12.8165 28.8223 13.2036 29.2093 13.2036 29.6737C13.2036 30.1381 12.7391 30.5252 12.2747 30.5252Z" fill="url(#paint4_linear_408_8779)"/>
<path d="M12.2748 34.4734H8.48206C8.01763 34.4734 7.63062 34.0864 7.63062 33.622C7.63062 33.1575 8.01763 32.7705 8.48206 32.7705H12.2748C12.7393 32.7705 13.1263 33.1575 13.1263 33.622C13.1263 34.0864 12.7393 34.4734 12.2748 34.4734Z" fill="url(#paint5_linear_408_8779)"/>
<defs>
<linearGradient id="paint0_linear_408_8779" x1="14.6738" y1="14.8125" x2="58.619" y2="22.2492" gradientUnits="userSpaceOnUse">
<stop stop-color="#34C57D"/>
<stop offset="1" stop-color="#31AF94"/>
</linearGradient>
<linearGradient id="paint1_linear_408_8779" x1="7.63062" y1="16.9795" x2="12.9304" y2="19.1587" gradientUnits="userSpaceOnUse">
<stop stop-color="#34C57D"/>
<stop offset="1" stop-color="#31AF94"/>
</linearGradient>
<linearGradient id="paint2_linear_408_8779" x1="5.23096" y1="20.9277" x2="11.8604" y2="24.8823" gradientUnits="userSpaceOnUse">
<stop stop-color="#34C57D"/>
<stop offset="1" stop-color="#31AF94"/>
</linearGradient>
<linearGradient id="paint3_linear_408_8779" x1="7.63062" y1="24.875" x2="12.9304" y2="27.0542" gradientUnits="userSpaceOnUse">
<stop stop-color="#34C57D"/>
<stop offset="1" stop-color="#31AF94"/>
</linearGradient>
<linearGradient id="paint4_linear_408_8779" x1="5.23096" y1="28.8223" x2="11.8604" y2="32.7768" gradientUnits="userSpaceOnUse">
<stop stop-color="#34C57D"/>
<stop offset="1" stop-color="#31AF94"/>
</linearGradient>
<linearGradient id="paint5_linear_408_8779" x1="7.63062" y1="32.7705" x2="12.9304" y2="34.9497" gradientUnits="userSpaceOnUse">
<stop stop-color="#34C57D"/>
<stop offset="1" stop-color="#31AF94"/>
</linearGradient>
</defs>
</svg>
