<svg width="85" height="84" viewBox="0 0 85 84" fill="none" xmlns="http://www.w3.org/2000/svg">
<g clip-path="url(#clip0_645_33803)">
<path d="M6.29321 28.9653H32.3622V31.8619H6.29321V28.9653Z" fill="white"/>
<path d="M6.2932 54.5973L8.62927 51.0924C9.40264 49.9338 10.6945 49.2415 12.0863 49.2415C13.4781 49.2415 14.77 49.9338 15.5433 51.091L16.24 52.1381H23.6725V40.5519H32.3622V34.7588H6.29175L6.2932 54.5973Z" fill="white"/>
<path d="M32.3621 60.8276H38.1552V72.4138H32.3621V60.8276Z" fill="white"/>
<path d="M49.7415 60.8276H55.5346V72.4138H49.7415V60.8276Z" fill="white"/>
<path d="M64.2241 60.8276H75.8103V72.4138H64.2241V60.8276Z" fill="white"/>
<path d="M41.0518 14.4829V40.5519H49.7414V14.4829H41.0518ZM46.8449 37.6553H43.9483V34.7588H46.8449V37.6553ZM46.8449 31.8622H43.9483V28.9657H46.8449V31.8622ZM46.8449 26.0691H43.9483V23.1726H46.8449V26.0691ZM46.8449 20.276H43.9483V17.3795H46.8449V20.276Z" fill="white"/>
<path d="M32.3621 49.2412H35.2586V52.1378H32.3621V49.2412Z" fill="white"/>
<path d="M26.5688 52.1379H29.4654V46.3448H38.1551V52.1379H41.0516V46.3448H49.7413V52.1379H52.6378V43.4482H26.5688V52.1379Z" fill="white"/>
<path d="M43.9482 49.2412H46.8448V52.1378H43.9482V49.2412Z" fill="white"/>
<path d="M41.0518 60.8276H46.8449V72.4138H41.0518V60.8276Z" fill="white"/>
<path d="M32.3622 26.069V20.2759C32.1435 19.4939 27.8015 17.3794 19.3277 17.3794C10.8538 17.3794 6.51189 19.4939 6.29175 20.2977V26.069H32.3622Z" fill="white"/>
<path d="M81.6035 72.414V55.0347H18.1719L24.1359 63.9821C25.7275 66.3689 26.569 69.1467 26.569 72.0157V72.414H29.4655V57.9312H58.431V72.414H61.3276V57.9312H78.7069V72.414H81.6035Z" fill="white"/>
<path d="M23.6724 72.0157C23.6724 69.7202 22.999 67.4985 21.7259 65.5882L13.1319 52.6986C12.6641 51.9976 11.5069 51.9976 11.0391 52.6986L2.44503 65.5882C1.17345 67.4971 0.5 69.7202 0.5 72.0157V72.414C0.5 78.8023 5.69786 84.0002 12.0862 84.0002C18.4746 84.0002 23.6724 78.8023 23.6724 72.414V72.0157ZM12.0862 81.1036C7.29386 81.1036 3.39655 77.2063 3.39655 72.414H6.2931C6.2931 75.6088 8.89131 78.2071 12.0862 78.2071V81.1036Z" fill="white"/>
<path d="M38.1553 8.68945H52.6395V11.586H38.1553V8.68945Z" fill="white"/>
<path d="M26.2765 75.3105C25.5552 78.8487 23.5306 81.9103 20.7383 84.0002H84.5001V75.3105H26.2765Z" fill="white"/>
<path d="M72.9139 34.7586H75.8104V52.1379H78.707V0H70.0173V26.069H72.9139V34.7586ZM72.9139 2.89655H75.8104V5.7931H72.9139V2.89655ZM72.9139 8.68966H75.8104V11.5862H72.9139V8.68966ZM72.9139 14.4828H75.8104V17.3793H72.9139V14.4828ZM72.9139 20.2759H75.8104V23.1724H72.9139V20.2759Z" fill="white"/>
<path d="M64.2241 28.9653H70.0172V34.7584H64.2241V28.9653Z" fill="white"/>
<path d="M72.9138 37.6553H61.3276V52.138H72.9138V37.6553ZM68.569 49.2415H65.6725V46.3449H68.569V49.2415ZM68.569 43.4484H65.6725V40.5518H68.569V43.4484Z" fill="white"/>
</g>
<defs>
<clipPath id="clip0_645_33803">
<rect width="84" height="84" fill="white" transform="translate(0.5)"/>
</clipPath>
</defs>
</svg>
