<svg width="32" height="33" viewBox="0 0 32 33" fill="none" xmlns="http://www.w3.org/2000/svg">
<g clip-path="url(#clip0_807_2714)">
<path d="M2.37615 1.67871C1.99651 2.17944 1.78516 2.79541 1.78516 3.45459V29.5454C1.78516 30.1577 1.96813 30.7329 2.29861 31.2134L16.5227 16.4058L2.37615 1.67871Z" fill="white"/>
<path d="M17.8247 15.0496L22.4392 10.2459L6.21878 0.899433C5.51477 0.493671 4.70704 0.39748 3.95337 0.608906L17.8247 15.0496Z" fill="white"/>
<path d="M17.825 17.7612L3.81348 32.3477C4.11558 32.449 4.4282 32.5 4.74107 32.5C5.24865 32.5 5.75648 32.3667 6.21905 32.1001L22.5561 22.6863L17.825 17.7612Z" fill="white"/>
<path d="M28.8579 13.9451L24.1157 11.2124L19.127 16.4055L24.2321 21.7205L28.8579 19.0549C29.7835 18.5217 30.3361 17.5664 30.3361 16.5C30.3361 15.4334 29.7835 14.4783 28.8579 13.9451Z" fill="white"/>
</g>
<defs>
<clipPath id="clip0_807_2714">
<rect width="32" height="32" fill="white" transform="translate(0 0.5)"/>
</clipPath>
</defs>
</svg>
