<svg width="70" height="70" viewBox="0 0 70 70" fill="none" xmlns="http://www.w3.org/2000/svg">
<path d="M18.9579 29.1679C18.3075 29.1679 17.6833 29.267 17.0621 29.3575C17.2633 28.6808 17.4704 27.9925 17.8029 27.3741C18.1354 26.4758 18.6546 25.697 19.1708 24.9125C19.6025 24.0637 20.3637 23.4891 20.9237 22.7629C21.51 22.057 22.3092 21.5875 22.9421 21.0012C23.5633 20.3887 24.3771 20.0825 25.0246 19.6508C25.7012 19.2629 26.2904 18.8341 26.9204 18.63L28.4925 17.9825L29.875 17.4079L28.4604 11.7554L26.7192 12.1754C26.1621 12.3154 25.4825 12.4787 24.7096 12.6741C23.9192 12.82 23.0762 13.2195 22.1371 13.5841C21.2096 13.9983 20.1362 14.2783 19.1387 14.9433C18.1354 15.5791 16.9775 16.11 15.9567 16.9616C14.9679 17.8395 13.775 18.6008 12.8942 19.7179C11.9317 20.762 10.9808 21.8587 10.2429 23.107C9.38832 24.297 8.8079 25.6037 8.1954 26.8958C7.64124 28.1879 7.19499 29.5091 6.8304 30.7925C6.13915 33.365 5.82999 35.8091 5.7104 37.9004C5.61124 39.9945 5.66957 41.7358 5.79207 42.9958C5.83582 43.5908 5.91749 44.1683 5.97582 44.5679L6.04874 45.0579L6.12457 45.0404C6.64333 47.4636 7.83754 49.6905 9.56905 51.4634C11.3006 53.2363 13.4986 54.4828 15.9089 55.0586C18.3193 55.6345 20.8434 55.5162 23.1893 54.7174C25.5352 53.9186 27.607 52.472 29.1651 50.5449C30.7232 48.6179 31.7039 46.2891 31.9937 43.8279C32.2835 41.3667 31.8707 38.8738 30.8029 36.6375C29.7351 34.4012 28.056 32.5129 25.9598 31.191C23.8636 29.8691 21.4361 29.1677 18.9579 29.1679ZM51.0412 29.1679C50.3908 29.1679 49.7667 29.267 49.1454 29.3575C49.3466 28.6808 49.5537 27.9925 49.8862 27.3741C50.2187 26.4758 50.7379 25.697 51.2542 24.9125C51.6858 24.0637 52.4471 23.4891 53.0071 22.7629C53.5933 22.057 54.3925 21.5875 55.0254 21.0012C55.6466 20.3887 56.4604 20.0825 57.1079 19.6508C57.7846 19.2629 58.3737 18.8341 59.0037 18.63L60.5758 17.9825L61.9583 17.4079L60.5437 11.7554L58.8025 12.1754C58.2454 12.3154 57.5658 12.4787 56.7929 12.6741C56.0025 12.82 55.1596 13.2195 54.2204 13.5841C53.2958 14.0012 52.2196 14.2783 51.2221 14.9462C50.2187 15.582 49.0608 16.1129 48.04 16.9645C47.0512 17.8425 45.8583 18.6037 44.9775 19.7179C44.015 20.762 43.0641 21.8587 42.3262 23.107C41.4716 24.297 40.8912 25.6037 40.2787 26.8958C39.7246 28.1879 39.2783 29.5091 38.9137 30.7925C38.2225 33.365 37.9133 35.8091 37.7937 37.9004C37.6946 39.9945 37.7529 41.7358 37.8754 42.9958C37.9192 43.5908 38.0008 44.1683 38.0592 44.5679L38.1321 45.0579L38.2079 45.0404C38.7267 47.4636 39.9209 49.6905 41.6524 51.4634C43.3839 53.2363 45.5819 54.4828 47.9923 55.0586C50.4026 55.6345 52.9267 55.5162 55.2726 54.7174C57.6185 53.9186 59.6903 52.472 61.2484 50.5449C62.8065 48.6179 63.7872 46.2891 64.077 43.8279C64.3669 41.3667 63.954 38.8738 62.8862 36.6375C61.8184 34.4012 60.1393 32.5129 58.0431 31.191C55.947 29.8691 53.5194 29.1677 51.0412 29.1679Z" fill="url(#paint0_linear_408_11556)"/>
<defs>
<linearGradient id="paint0_linear_408_11556" x1="34.9136" y1="11.7554" x2="34.9136" y2="55.4179" gradientUnits="userSpaceOnUse">
<stop stop-color="white"/>
<stop offset="1" stop-color="white" stop-opacity="0.24"/>
</linearGradient>
</defs>
</svg>
