<svg width="60" height="60" viewBox="0 0 60 60" fill="none" xmlns="http://www.w3.org/2000/svg">
<path d="M42.4935 36.0877V33.4343H43.0621C43.2129 33.4343 43.3575 33.3744 43.4641 33.2677C43.5708 33.1611 43.6307 33.0165 43.6307 32.8657V30.2122C43.6307 30.0614 43.5708 29.9168 43.4641 29.8102C43.3575 29.7035 43.2129 29.6436 43.0621 29.6436H37.8389C37.7536 29.6436 37.6694 29.6628 37.5926 29.6997C37.5157 29.7367 37.4481 29.7904 37.3949 29.857L36.3335 31.1838C36.2527 31.2846 36.2087 31.4099 36.2087 31.5391C36.2087 31.6683 36.2527 31.7937 36.3335 31.8945L37.3949 33.2212C37.4482 33.2878 37.5158 33.3415 37.5926 33.3783C37.6695 33.4152 37.7537 33.4343 37.8389 33.4343H40.2191V36.0877H42.4935Z" fill="white"/>
<path d="M28.6119 25.0948H39.8399C40.1415 25.0948 40.4308 24.975 40.644 24.7618C40.8573 24.5485 40.9771 24.2592 40.9771 23.9576C40.9771 23.656 40.8573 23.3668 40.644 23.1535C40.4308 22.9403 40.1415 22.8204 39.8399 22.8204H25.7679C26.811 23.4512 27.7672 24.2159 28.6119 25.0948Z" fill="white"/>
<path d="M43.9999 37.2246H32.1835C32.0015 37.9993 31.7627 38.7595 31.4688 39.499H43.9999C45.6073 39.5028 47.1478 40.1434 48.2838 41.2806C49.4199 42.4178 50.059 43.9588 50.0612 45.5662C50.0634 47.1737 49.4285 48.7165 48.2955 49.8568C47.1626 50.9971 45.6239 51.6419 44.0165 51.65L24.6736 51.7239C24.372 51.7244 24.083 51.8448 23.8701 52.0585C23.6573 52.2721 23.538 52.5616 23.5386 52.8632C23.5392 53.1648 23.6595 53.4539 23.8732 53.6667C24.0869 53.8796 24.3764 53.9988 24.678 53.9982H24.6824L44.0242 53.9244C46.2344 53.9145 48.3504 53.0287 49.9086 51.4613C51.4667 49.8938 52.3399 47.7725 52.3367 45.5624C52.3334 43.3522 51.4541 41.2335 49.8914 39.6706C48.3286 38.1077 46.21 37.2281 43.9999 37.2246Z" fill="white"/>
<path d="M34.8137 22.3466C35.4989 22.3466 36.1559 22.0744 36.6404 21.59C37.1248 21.1055 37.397 20.4485 37.397 19.7634C37.397 18.3367 35.9944 15.8077 34.8137 15.8077C33.633 15.8077 32.2301 18.3367 32.2301 19.7634C32.2301 20.1026 32.297 20.4386 32.4268 20.752C32.5566 21.0655 32.747 21.3503 32.9869 21.5901C33.2268 21.83 33.5116 22.0203 33.8251 22.1501C34.1385 22.2799 34.4745 22.3467 34.8137 22.3466Z" fill="white"/>
<path d="M29.3244 22.3466C29.6637 22.3467 29.9997 22.2799 30.3131 22.1501C30.6266 22.0203 30.9114 21.83 31.1513 21.5901C31.3912 21.3503 31.5815 21.0655 31.7114 20.752C31.8412 20.4386 31.908 20.1026 31.908 19.7634C31.908 18.3367 30.5055 15.8077 29.3248 15.8077C28.1441 15.8077 26.7416 18.3367 26.7416 19.7634C26.7416 20.4484 27.0137 21.1054 27.4981 21.5899C27.9824 22.0743 28.6394 22.3465 29.3244 22.3466Z" fill="white"/>
<path d="M43.4201 47.5785C43.4201 45.6556 41.5301 42.2471 39.9382 42.2471C38.3464 42.2471 36.4568 45.6556 36.4568 47.5785C36.4568 48.502 36.8236 49.3876 37.4766 50.0405C38.1296 50.6935 39.0152 51.0603 39.9386 51.0603C40.8621 51.0603 41.7477 50.6935 42.4006 50.0405C43.0536 49.3876 43.4201 48.502 43.4201 47.5785Z" fill="white"/>
<path d="M32.5393 51.0603C33.4627 51.0602 34.3482 50.6934 35.0011 50.0404C35.654 49.3874 36.0208 48.5019 36.0208 47.5785C36.0208 45.6556 34.1308 42.2471 32.539 42.2471C30.9471 42.2471 29.0571 45.6556 29.0571 47.5785C29.0571 48.0358 29.1472 48.4886 29.3222 48.911C29.4972 49.3335 29.7537 49.7174 30.0771 50.0407C30.4004 50.364 30.7843 50.6205 31.2068 50.7954C31.6293 50.9704 32.0821 51.0604 32.5393 51.0603Z" fill="white"/>
<path d="M18.6124 21.966C11.5884 21.966 5.87402 27.6804 5.87402 34.7044C5.87402 42.6804 17.3569 53.2564 17.8457 53.7027C18.0552 53.894 18.3287 54.0001 18.6124 54.0001C18.8962 54.0001 19.1696 53.894 19.3792 53.7027C19.868 53.2564 31.3508 42.6804 31.3508 34.7044C31.3508 27.6804 25.6364 21.966 18.6124 21.966ZM18.6124 43.0436C16.963 43.0436 15.3507 42.5545 13.9793 41.6381C12.6079 40.7218 11.539 39.4194 10.9078 37.8955C10.2766 36.3717 10.1114 34.6949 10.4332 33.0772C10.755 31.4595 11.5493 29.9736 12.7155 28.8073C13.8818 27.641 15.3678 26.8467 16.9855 26.525C18.6032 26.2032 20.28 26.3683 21.8038 26.9995C23.3276 27.6307 24.6301 28.6996 25.5464 30.071C26.4628 31.4424 26.9519 33.0548 26.9519 34.7042C26.9494 36.9151 26.0699 39.0349 24.5065 40.5983C22.9431 42.1617 20.8234 43.0411 18.6124 43.0436Z" fill="white"/>
<path d="M45.3015 24.95C45.5011 25.1053 45.7468 25.1896 45.9997 25.1896C46.2525 25.1896 46.4982 25.1053 46.6978 24.95C47.9718 23.9271 49.1618 22.8038 50.2566 21.591C52.7141 18.8605 53.9601 16.3727 53.9601 14.1967C53.9601 12.0855 53.1214 10.0607 51.6285 8.56787C50.1357 7.07501 48.1109 6.23633 45.9997 6.23633C43.8885 6.23633 41.8637 7.07501 40.3708 8.56787C38.878 10.0607 38.0393 12.0855 38.0393 14.1967C38.0393 16.3727 39.2853 18.8605 41.7428 21.591C42.8375 22.8038 44.0276 23.9271 45.3015 24.95ZM45.9997 10.406C46.7494 10.406 47.4823 10.6284 48.1057 11.0449C48.729 11.4614 49.2149 12.0534 49.5018 12.7461C49.7887 13.4387 49.8638 14.2009 49.7175 14.9362C49.5712 15.6715 49.2102 16.347 48.6801 16.8771C48.1499 17.4072 47.4745 17.7683 46.7392 17.9145C46.0039 18.0608 45.2417 17.9857 44.5491 17.6988C43.8564 17.4119 43.2644 16.926 42.8479 16.3027C42.4313 15.6793 42.209 14.9464 42.209 14.1967C42.2102 13.1917 42.6099 12.2282 43.3205 11.5176C44.0312 10.8069 44.9947 10.4072 45.9997 10.406Z" fill="white"/>
</svg>
