<svg width="60" height="60" viewBox="0 0 60 60" fill="none" xmlns="http://www.w3.org/2000/svg">
<path d="M42 6C35.3712 6 30 11.373 30 18C30 24.6288 35.3712 30 42 30C48.6252 30 54 24.6288 54 18C54 11.373 48.6252 6 42 6ZM36 19.0002H33V17.0004H36V19.0002ZM43.0002 27H40.9998V24H43.0002V27ZM46.176 23.7246L40.5426 18.6036L40.9998 9H43.0002L43.4004 17.4198L47.7246 22.1754L46.176 23.7246ZM48 19.0002V17.0004H51V19.0002H48Z" fill="url(#paint0_linear_408_8720)"/>
<path d="M44.8902 38.3368L43.7616 36.6412L42.7536 36.9034C37.3926 38.293 31.752 39.0004 25.9872 39.0004C20.244 39.0004 14.6124 38.293 9.2472 36.9028L8.2386 36.6406L7.11 38.3362C6.4992 39.2506 6 40.8988 6 42.0004V54.0004H10.0002L12 50.0002H40.0002L42 54.0004H46.0002V42.0004C46.0002 40.8988 45.4998 39.2506 44.8902 38.3368ZM16.0002 46.0006H11.0004V43.0006H16.0002V46.0006ZM31.9998 46.0006H19.9998V43.0006H31.9998V46.0006ZM40.9998 46.0006H36V43.0006H40.9998V46.0006Z" fill="url(#paint1_linear_408_8720)"/>
<path d="M26.532 22.0192C22.2012 21.976 17.9364 22.48 13.9998 23.4994L11.5236 29.9998H6V32.9998L10.0002 34C20.667 36.7654 32.1096 36.5662 42 34C34.5684 34 28.3224 28.8982 26.532 22.0192Z" fill="url(#paint2_linear_408_8720)"/>
<defs>
<linearGradient id="paint0_linear_408_8720" x1="30" y1="6" x2="56.6256" y2="9.39235" gradientUnits="userSpaceOnUse">
<stop stop-color="#34C57D"/>
<stop offset="1" stop-color="#31AF94"/>
</linearGradient>
<linearGradient id="paint1_linear_408_8720" x1="6" y1="36.6406" x2="47.5183" y2="48.8293" gradientUnits="userSpaceOnUse">
<stop stop-color="#34C57D"/>
<stop offset="1" stop-color="#31AF94"/>
</linearGradient>
<linearGradient id="paint2_linear_408_8720" x1="6" y1="22.0166" x2="42.6441" y2="34.0363" gradientUnits="userSpaceOnUse">
<stop stop-color="#34C57D"/>
<stop offset="1" stop-color="#31AF94"/>
</linearGradient>
</defs>
</svg>
