<svg width="49" height="48" viewBox="0 0 49 48" fill="none" xmlns="http://www.w3.org/2000/svg">
<path d="M37.4935 30.0877V27.4343H38.0621C38.2129 27.4343 38.3575 27.3744 38.4641 27.2677C38.5708 27.1611 38.6307 27.0165 38.6307 26.8657V24.2122C38.6307 24.0614 38.5708 23.9168 38.4641 23.8102C38.3575 23.7035 38.2129 23.6436 38.0621 23.6436H32.8389C32.7536 23.6436 32.6694 23.6628 32.5926 23.6997C32.5157 23.7367 32.4481 23.7904 32.3949 23.857L31.3335 25.1838C31.2527 25.2846 31.2087 25.4099 31.2087 25.5391C31.2087 25.6683 31.2527 25.7937 31.3335 25.8945L32.3949 27.2212C32.4482 27.2878 32.5158 27.3415 32.5926 27.3783C32.6695 27.4152 32.7537 27.4343 32.8389 27.4343H35.2191V30.0877H37.4935Z" fill="url(#paint0_linear_853_27750)"/>
<path d="M23.6119 19.0948H34.8399C35.1415 19.0948 35.4308 18.975 35.644 18.7618C35.8573 18.5485 35.9771 18.2592 35.9771 17.9576C35.9771 17.656 35.8573 17.3668 35.644 17.1535C35.4308 16.9403 35.1415 16.8204 34.8399 16.8204H20.7679C21.811 17.4512 22.7672 18.2159 23.6119 19.0948Z" fill="url(#paint1_linear_853_27750)"/>
<path d="M38.9999 31.2246H27.1835C27.0015 31.9993 26.7627 32.7595 26.4688 33.499H38.9999C40.6073 33.5028 42.1478 34.1434 43.2838 35.2806C44.4199 36.4178 45.059 37.9588 45.0612 39.5662C45.0634 41.1737 44.4285 42.7165 43.2955 43.8568C42.1626 44.9971 40.6239 45.6419 39.0165 45.65L19.6736 45.7239C19.372 45.7244 19.083 45.8448 18.8701 46.0585C18.6573 46.2721 18.538 46.5616 18.5386 46.8632C18.5392 47.1648 18.6595 47.4539 18.8732 47.6667C19.0869 47.8796 19.3764 47.9988 19.678 47.9982H19.6824L39.0242 47.9244C41.2344 47.9145 43.3504 47.0287 44.9086 45.4613C46.4667 43.8938 47.3399 41.7725 47.3367 39.5624C47.3334 37.3522 46.4541 35.2335 44.8914 33.6706C43.3286 32.1077 41.21 31.2281 38.9999 31.2246Z" fill="url(#paint2_linear_853_27750)"/>
<path d="M29.8137 16.3466C30.4989 16.3466 31.1559 16.0744 31.6404 15.59C32.1248 15.1055 32.397 14.4485 32.397 13.7634C32.397 12.3367 30.9944 9.80773 29.8137 9.80773C28.633 9.80773 27.2301 12.3367 27.2301 13.7634C27.2301 14.1026 27.297 14.4386 27.4268 14.752C27.5566 15.0655 27.747 15.3503 27.9869 15.5901C28.2268 15.83 28.5116 16.0203 28.8251 16.1501C29.1385 16.2799 29.4745 16.3467 29.8137 16.3466Z" fill="url(#paint3_linear_853_27750)"/>
<path d="M24.3244 16.3466C24.6637 16.3467 24.9997 16.2799 25.3131 16.1501C25.6266 16.0203 25.9114 15.83 26.1513 15.5901C26.3912 15.3503 26.5815 15.0655 26.7114 14.752C26.8412 14.4386 26.908 14.1026 26.908 13.7634C26.908 12.3367 25.5055 9.80773 24.3248 9.80773C23.1441 9.80773 21.7416 12.3367 21.7416 13.7634C21.7416 14.4484 22.0137 15.1054 22.4981 15.5899C22.9824 16.0743 23.6394 16.3465 24.3244 16.3466Z" fill="url(#paint4_linear_853_27750)"/>
<path d="M38.4201 41.5785C38.4201 39.6556 36.5301 36.2471 34.9382 36.2471C33.3464 36.2471 31.4568 39.6556 31.4568 41.5785C31.4568 42.502 31.8236 43.3876 32.4766 44.0405C33.1296 44.6935 34.0152 45.0603 34.9386 45.0603C35.8621 45.0603 36.7477 44.6935 37.4006 44.0405C38.0536 43.3876 38.4201 42.502 38.4201 41.5785Z" fill="url(#paint5_linear_853_27750)"/>
<path d="M27.5393 45.0603C28.4627 45.0602 29.3482 44.6934 30.0011 44.0404C30.654 43.3874 31.0208 42.5019 31.0208 41.5785C31.0208 39.6556 29.1308 36.2471 27.539 36.2471C25.9471 36.2471 24.0571 39.6556 24.0571 41.5785C24.0571 42.0358 24.1472 42.4886 24.3222 42.911C24.4972 43.3335 24.7537 43.7174 25.0771 44.0407C25.4004 44.364 25.7843 44.6205 26.2068 44.7954C26.6293 44.9704 27.0821 45.0604 27.5393 45.0603Z" fill="url(#paint6_linear_853_27750)"/>
<path d="M13.6124 15.966C6.58844 15.966 0.874023 21.6804 0.874023 28.7044C0.874023 36.6804 12.3569 47.2564 12.8457 47.7027C13.0552 47.894 13.3287 48.0001 13.6124 48.0001C13.8962 48.0001 14.1696 47.894 14.3792 47.7027C14.868 47.2564 26.3508 36.6804 26.3508 28.7044C26.3508 21.6804 20.6364 15.966 13.6124 15.966ZM13.6124 37.0436C11.963 37.0436 10.3507 36.5545 8.97928 35.6381C7.60786 34.7218 6.53898 33.4194 5.90779 31.8955C5.27659 30.3717 5.11144 28.6949 5.43322 27.0772C5.755 25.4595 6.54926 23.9736 7.71555 22.8073C8.88184 21.641 10.3678 20.8467 11.9855 20.525C13.6032 20.2032 15.28 20.3683 16.8038 20.9995C18.3276 21.6307 19.6301 22.6996 20.5464 24.071C21.4628 25.4424 21.9519 27.0548 21.9519 28.7042C21.9494 30.9151 21.0699 33.0349 19.5065 34.5983C17.9431 36.1617 15.8234 37.0411 13.6124 37.0436Z" fill="url(#paint7_linear_853_27750)"/>
<path d="M40.3015 18.95C40.5011 19.1053 40.7468 19.1896 40.9997 19.1896C41.2525 19.1896 41.4982 19.1053 41.6978 18.95C42.9718 17.9271 44.1618 16.8038 45.2566 15.591C47.7141 12.8605 48.9601 10.3727 48.9601 8.1967C48.9601 6.08548 48.1214 4.06073 46.6285 2.56787C45.1357 1.07501 43.1109 0.236328 40.9997 0.236328C38.8885 0.236328 36.8637 1.07501 35.3708 2.56787C33.878 4.06073 33.0393 6.08548 33.0393 8.1967C33.0393 10.3727 34.2853 12.8605 36.7428 15.591C37.8375 16.8038 39.0276 17.9271 40.3015 18.95ZM40.9997 4.40605C41.7494 4.40605 42.4823 4.62837 43.1057 5.04489C43.729 5.46141 44.2149 6.05343 44.5018 6.74608C44.7887 7.43873 44.8638 8.20091 44.7175 8.93622C44.5712 9.67154 44.2102 10.347 43.6801 10.8771C43.1499 11.4072 42.4745 11.7683 41.7392 11.9145C41.0039 12.0608 40.2417 11.9857 39.5491 11.6988C38.8564 11.4119 38.2644 10.926 37.8479 10.3027C37.4313 9.67931 37.209 8.94642 37.209 8.1967C37.2102 7.1917 37.6099 6.22819 38.3205 5.51755C39.0312 4.80691 39.9947 4.40718 40.9997 4.40605Z" fill="url(#paint8_linear_853_27750)"/>
<defs>
<linearGradient id="paint0_linear_853_27750" x1="0.874023" y1="0.236328" x2="54.2091" y2="7.07757" gradientUnits="userSpaceOnUse">
<stop stop-color="#34C57D"/>
<stop offset="1" stop-color="#31AF94"/>
</linearGradient>
<linearGradient id="paint1_linear_853_27750" x1="0.874023" y1="0.236328" x2="54.2091" y2="7.07757" gradientUnits="userSpaceOnUse">
<stop stop-color="#34C57D"/>
<stop offset="1" stop-color="#31AF94"/>
</linearGradient>
<linearGradient id="paint2_linear_853_27750" x1="0.874023" y1="0.236328" x2="54.2091" y2="7.07757" gradientUnits="userSpaceOnUse">
<stop stop-color="#34C57D"/>
<stop offset="1" stop-color="#31AF94"/>
</linearGradient>
<linearGradient id="paint3_linear_853_27750" x1="0.874023" y1="0.236328" x2="54.2091" y2="7.07757" gradientUnits="userSpaceOnUse">
<stop stop-color="#34C57D"/>
<stop offset="1" stop-color="#31AF94"/>
</linearGradient>
<linearGradient id="paint4_linear_853_27750" x1="0.874023" y1="0.236328" x2="54.2091" y2="7.07757" gradientUnits="userSpaceOnUse">
<stop stop-color="#34C57D"/>
<stop offset="1" stop-color="#31AF94"/>
</linearGradient>
<linearGradient id="paint5_linear_853_27750" x1="0.874023" y1="0.236328" x2="54.2091" y2="7.07757" gradientUnits="userSpaceOnUse">
<stop stop-color="#34C57D"/>
<stop offset="1" stop-color="#31AF94"/>
</linearGradient>
<linearGradient id="paint6_linear_853_27750" x1="0.874023" y1="0.236328" x2="54.2091" y2="7.07757" gradientUnits="userSpaceOnUse">
<stop stop-color="#34C57D"/>
<stop offset="1" stop-color="#31AF94"/>
</linearGradient>
<linearGradient id="paint7_linear_853_27750" x1="0.874023" y1="0.236328" x2="54.2091" y2="7.07757" gradientUnits="userSpaceOnUse">
<stop stop-color="#34C57D"/>
<stop offset="1" stop-color="#31AF94"/>
</linearGradient>
<linearGradient id="paint8_linear_853_27750" x1="0.874023" y1="0.236328" x2="54.2091" y2="7.07757" gradientUnits="userSpaceOnUse">
<stop stop-color="#34C57D"/>
<stop offset="1" stop-color="#31AF94"/>
</linearGradient>
</defs>
</svg>
