<svg width="85" height="84" viewBox="0 0 85 84" fill="none" xmlns="http://www.w3.org/2000/svg">
<path d="M28.3907 9.1875L11.5579 32.8125H60.5469L75.3125 9.1875H28.3907Z" fill="white"/>
<path d="M75.3125 14.1401L61.5312 36.1901V46.9217L75.3125 23.708V14.1401Z" fill="white"/>
<path d="M9.6875 61.0312V74.8125H58.9062V61.0312H41.8438C41.4813 61.0312 41.1875 60.7374 41.1875 60.375V49.875C41.1875 49.5163 41.4833 49.2188 41.8438 49.2188H58.9062V35.4375H9.6875V49.2188H26.0938C26.4562 49.2188 26.75 49.5126 26.75 49.875V60.375C26.75 60.7374 26.4562 61.0312 26.0938 61.0312H9.6875Z" fill="white"/>
<path d="M61.5312 72.8436L75.3125 49.3018V35.9702L61.5312 59.0623V72.8436Z" fill="white"/>
<path d="M47.4584 51.8438L43.8125 57.5129V51.8438H47.4584Z" fill="white"/>
<path d="M16.5439 51.8438H24.125V58.4062H11.6465L16.5439 51.8438Z" fill="white"/>
<path d="M61.5312 51.8438H50.5794L46.3589 58.4063H58.9062V58.3388L72.3167 35.8677L71.1964 35.7832L61.5312 51.8438Z" fill="white"/>
</svg>
