<svg width="48" height="48" viewBox="0 0 48 48" fill="none" xmlns="http://www.w3.org/2000/svg">
<path d="M34.1337 34.7373H18.96" stroke="#1F8578" stroke-width="2.8125" stroke-miterlimit="10" stroke-linecap="round" stroke-linejoin="round"/>
<path d="M43.3727 34.7363H46.5939V24.956L38.5269 16.6207H31.926V16.6326V34.6475" stroke="#1F8578" stroke-width="2.8125" stroke-miterlimit="10" stroke-linecap="round" stroke-linejoin="round"/>
<path d="M46.5937 24.9561H31.9253" stroke="#1F8578" stroke-width="2.8125" stroke-miterlimit="10" stroke-linecap="round" stroke-linejoin="round"/>
<path d="M11.2899 31.3343C13.0091 29.615 15.7963 29.615 17.5154 31.3343C19.2345 33.0535 19.2345 35.841 17.5154 37.5601C15.7963 39.2794 13.0091 39.2794 11.2899 37.5601C9.57069 35.841 9.57069 33.0535 11.2899 31.3343Z" stroke="#1F8578" stroke-width="2.8125" stroke-miterlimit="10" stroke-linecap="round" stroke-linejoin="round"/>
<path d="M35.8267 31.3343C37.5459 29.615 40.333 29.615 42.0522 31.3343C43.7714 33.0535 43.7714 35.841 42.0522 37.5601C40.333 39.2794 37.5459 39.2794 35.8267 37.5601C34.1076 35.841 34.1076 33.0535 35.8267 31.3343Z" stroke="#1F8578" stroke-width="2.8125" stroke-miterlimit="10" stroke-linecap="round" stroke-linejoin="round"/>
<path d="M5.84619 9.14818V34.7217H9.81828" stroke="#1F8578" stroke-width="2.8125" stroke-miterlimit="10" stroke-linecap="round" stroke-linejoin="round"/>
<path d="M31.9653 16.6318V9.14656H5.84619" stroke="#1F8578" stroke-width="2.8125" stroke-miterlimit="10" stroke-linecap="round" stroke-linejoin="round"/>
<path d="M15.6033 9.14844H5.84619" stroke="#1F8578" stroke-width="2.8125" stroke-miterlimit="10" stroke-linecap="round" stroke-linejoin="round"/>
<path d="M15.6031 14.7744H3.37524" stroke="#1F8578" stroke-width="2.8125" stroke-miterlimit="10" stroke-linecap="round" stroke-linejoin="round"/>
<path d="M14.5718 20.4004H1.40625" stroke="#1F8578" stroke-width="2.8125" stroke-miterlimit="10" stroke-linecap="round" stroke-linejoin="round"/>
</svg>
