<svg width="30" height="30" viewBox="0 0 41 44" fill="none" xmlns="http://www.w3.org/2000/svg">
<path d="M39.3308 0H2.50529C1.61967 0 0.904175 0.774465 0.904175 1.73307V41.5936C0.904175 42.5522 1.61967 43.3267 2.50529 43.3267H39.3308C40.2165 43.3267 40.932 42.5522 40.932 41.5936V1.73307C40.932 0.774465 40.2165 0 39.3308 0ZM31.6905 15.6897C31.7056 15.9442 31.7055 16.2096 31.7055 16.4696C31.7055 24.42 26.1117 33.5782 15.8896 33.5782C12.7374 33.5782 9.81536 32.5871 7.35365 30.8811C7.80396 30.9353 8.23426 30.9569 8.69458 30.9569C11.2964 30.9569 13.688 30.0037 15.5944 28.3898C13.1527 28.3357 11.1013 26.6026 10.4008 24.2196C11.2564 24.355 12.0269 24.355 12.9075 24.1113C11.6503 23.8348 10.5202 23.0957 9.70937 22.0196C8.89851 20.9435 8.45685 19.5967 8.45942 18.208V18.1322C9.19493 18.5817 10.0605 18.8579 10.9662 18.8959C10.2048 18.3467 9.58049 17.6026 9.14845 16.7297C8.71642 15.8568 8.49006 14.8819 8.48944 13.8916C8.48944 12.7705 8.75963 11.747 9.24496 10.8588C10.6404 12.7182 12.3818 14.239 14.3558 15.3223C16.3299 16.4056 18.4924 17.0271 20.7029 17.1465C19.9174 13.0576 22.7393 9.74851 26.1317 9.74851C27.7328 9.74851 29.1738 10.4742 30.1895 11.6441C31.4454 11.3895 32.6462 10.8804 33.7169 10.198C33.3017 11.5899 32.4311 12.7651 31.2753 13.5071C32.396 13.3771 33.4768 13.0413 34.4775 12.5702C33.722 13.7725 32.7763 14.8394 31.6905 15.6897Z" fill="white"/>
</svg>
