<svg width="40" height="40" viewBox="0 0 40 40" fill="none" xmlns="http://www.w3.org/2000/svg">
<circle cx="20" cy="20" r="20" fill="white"/>
<path fill-rule="evenodd" clip-rule="evenodd" d="M28 14.5391C27.4118 14.8004 26.7787 14.9764 26.1148 15.0559C26.7926 14.6495 27.3131 14.0063 27.5579 13.24C26.9243 13.6165 26.2209 13.889 25.4738 14.0367C24.8749 13.3989 24.0211 13 23.0777 13C21.265 13 19.7952 14.4698 19.7952 16.2824C19.7952 16.5395 19.8245 16.7901 19.8805 17.0307C17.1522 16.8941 14.7337 15.587 13.1146 13.601C12.8319 14.0858 12.6704 14.6495 12.6704 15.2511C12.6704 16.3896 13.249 17.3944 14.1305 17.9831C13.5919 17.9661 13.0863 17.8183 12.6432 17.5725V17.6136C12.6432 19.2044 13.7753 20.5307 15.276 20.8331C15.0009 20.9077 14.7108 20.9483 14.4116 20.9483C14.1999 20.9483 13.994 20.9275 13.7935 20.8891C14.2111 22.193 15.4238 23.1423 16.8599 23.1689C15.7368 24.0489 14.3214 24.5742 12.7834 24.5742C12.5178 24.5742 12.2565 24.5587 12 24.5278C13.4527 25.4589 15.1779 26.0029 17.0317 26.0029C23.0691 26.0029 26.3708 21.0011 26.3708 16.6638C26.3708 16.5214 26.3681 16.3795 26.3612 16.2393C27.0033 15.7753 27.56 15.1972 28 14.5391Z" fill="black"/>
</svg>
