<svg width="40" height="40" viewBox="0 0 40 40" fill="none" xmlns="http://www.w3.org/2000/svg">
<circle cx="20" cy="20" r="20" fill="white" fill-opacity="0.16"/>
<path fill-rule="evenodd" clip-rule="evenodd" d="M27.1277 14.848C27.3761 15.0936 27.5551 15.3993 27.6469 15.7346C28.1754 17.8374 28.0533 21.1584 27.6572 23.3423C27.5654 23.6776 27.3864 23.9833 27.1379 24.2289C26.8895 24.4745 26.5803 24.6515 26.2411 24.7422C24.9995 25.0769 20.0022 25.0769 20.0022 25.0769C20.0022 25.0769 15.0049 25.0769 13.7632 24.7422C13.4241 24.6515 13.1149 24.4745 12.8664 24.2289C12.618 23.9833 12.4389 23.6776 12.3472 23.3423C11.8156 21.2487 11.9613 17.9256 12.3369 15.7447C12.4287 15.4094 12.6077 15.1038 12.8562 14.8582C13.1046 14.6126 13.4138 14.4356 13.753 14.3449C14.9946 14.0101 19.9919 14 19.9919 14C19.9919 14 24.9892 14 26.2308 14.3347C26.57 14.4255 26.8792 14.6024 27.1277 14.848ZM22.547 19.5385L18.4014 21.9121V17.1648L22.547 19.5385Z" fill="white"/>
</svg>
