<svg width="48" height="48" viewBox="0 0 48 48" fill="none" xmlns="http://www.w3.org/2000/svg">
<circle cx="24" cy="24" r="24" fill="#1F8578"/>
<g clip-path="url(#clip0_408_12871)">
<path fill-rule="evenodd" clip-rule="evenodd" d="M29.1094 17.0164C31.1902 17.4992 31.9861 18.7159 32.9841 20.3906H29.1094V17.0164ZM16.949 20.5312C17.3564 20.5312 17.6521 20.7279 17.6521 21.1875C17.6521 21.5751 17.3384 21.8895 16.951 21.8906H12.7031C12.3148 21.8906 12 22.2056 12 22.5938C12 22.9821 12.3148 23.2969 12.7031 23.2969H19.0312C19.4233 23.2969 19.7371 23.6115 19.7371 24C19.7371 24.3884 19.4224 24.7031 19.034 24.7031H12.7031C12.3148 24.7031 12 25.0179 12 25.4062C12 25.7946 12.3148 26.1094 12.7031 26.1094H14.25V28.2188C14.25 28.6071 14.5648 28.9219 14.9531 28.9219H16.3665C16.6185 30.163 17.7151 31.0781 19.0078 31.0781C20.3005 31.0781 21.3972 30.163 21.6491 28.9219H28.7884C29.0403 30.163 30.137 31.0781 31.4297 31.0781C32.7224 31.0781 33.819 30.163 34.071 28.9219H35.2969C35.6852 28.9219 36 28.6071 36 28.2188V24C36 21.937 33.824 21.8 33.822 21.7969H28.4062C28.0179 21.7969 27.7031 21.4821 27.7031 21.0938V16.875H14.9531C14.5648 16.875 14.25 17.1898 14.25 17.5781V19.125H13.4062C13.0179 19.125 12.7031 19.4398 12.7031 19.8281C12.7031 20.2165 13.0179 20.5312 13.4062 20.5312H16.949ZM32.3412 27.4713C32.8445 27.9747 32.8445 28.7911 32.3412 29.2945C31.5315 30.1042 30.1406 29.5281 30.1406 28.3828C30.1406 27.2377 31.5315 26.6616 32.3412 27.4713ZM19.9193 27.4713C20.4227 27.9747 20.4227 28.7911 19.9193 29.2945C19.1096 30.1042 17.7188 29.5281 17.7188 28.3828C17.7188 27.2377 19.1096 26.6616 19.9193 27.4713Z" fill="white"/>
</g>
<defs>
<clipPath id="clip0_408_12871">
<rect width="24" height="24" fill="white" transform="translate(12 12)"/>
</clipPath>
</defs>
</svg>
