<svg width="48" height="48" viewBox="0 0 48 48" fill="none" xmlns="http://www.w3.org/2000/svg">
<circle cx="24" cy="24" r="24" fill="#1F8578"/>
<path d="M23.9552 23.0877C24.6624 23.0877 25.2357 22.5145 25.2357 21.8073C25.2357 21.1001 24.6624 20.5269 23.9552 20.5269C23.2481 20.5269 22.6748 21.1001 22.6748 21.8073C22.6748 22.5145 23.2481 23.0877 23.9552 23.0877Z" fill="white"/>
<path d="M24.1343 16.6956C21.3173 16.6212 19.002 18.891 19.002 21.6916V21.7154C19.002 22.7281 19.2735 23.7246 19.7874 24.5973L23.6237 31.1128C23.775 31.3698 24.1462 31.371 24.2993 31.1151L28.192 24.6071C28.7021 23.7542 28.9794 22.7819 28.9965 21.7894C29.0436 19.057 26.866 16.7678 24.1343 16.6956ZM23.9545 24.5814C22.4248 24.5814 21.1803 23.3369 21.1803 21.8072C21.1803 20.2775 22.4248 19.033 23.9545 19.033C25.4842 19.033 26.7287 20.2775 26.7287 21.8072C26.7287 23.3369 25.4842 24.5814 23.9545 24.5814Z" fill="white"/>
<path d="M18.5005 25.3551C18.2245 24.8864 18.0045 24.3893 17.842 23.8745C17.4082 24.2208 16.848 24.4151 16.2424 24.3741C15.0726 24.2949 14.1374 23.3317 14.0911 22.1601C14.039 20.8425 15.0958 19.754 16.402 19.754C16.8801 19.754 17.3249 19.8999 17.694 20.1494C17.876 19.4053 18.1867 18.7112 18.6009 18.0919C17.9651 17.7306 17.2398 17.5405 16.4369 17.5405C13.9865 17.5406 12 19.527 12 21.9775V21.9959C12 22.8816 12.237 23.7512 12.6864 24.5144L16.0662 30.2546C16.2175 30.5116 16.5887 30.5129 16.7418 30.2569L19.0825 26.3437L18.5005 25.3551Z" fill="white"/>
<path d="M31.5279 22.8859C31.9802 22.8859 32.3469 22.5193 32.3469 22.067C32.3469 21.6147 31.9802 21.248 31.5279 21.248C31.0756 21.248 30.709 21.6147 30.709 22.067C30.709 22.5193 31.0756 22.8859 31.5279 22.8859Z" fill="white"/>
<path d="M16.402 22.8857C16.8542 22.8857 17.2209 22.519 17.2209 22.0667C17.2209 21.6145 16.8542 21.2478 16.402 21.2478C15.9497 21.2478 15.583 21.6145 15.583 22.0667C15.583 22.519 15.9497 22.8857 16.402 22.8857Z" fill="white"/>
<path d="M31.5629 17.5405C30.7654 17.5405 30.0373 17.7348 29.4007 18.0949C29.8068 18.7027 30.1133 19.3824 30.2962 20.1108C30.71 19.8493 31.2115 19.7147 31.7463 19.7642C32.861 19.8673 33.751 20.7742 33.8341 21.8906C33.9351 23.2451 32.8615 24.3795 31.528 24.3795C31.0064 24.3795 30.5247 24.2058 30.1374 23.9134C29.972 24.4213 29.7505 24.9115 29.474 25.3737L28.8936 26.3442L31.1923 30.2539C31.3435 30.511 31.7149 30.5125 31.868 30.2564L35.2959 24.5254C35.7565 23.7553 35.9997 22.8748 35.9997 21.9774C35.9997 19.527 34.0133 17.5405 31.5629 17.5405Z" fill="white"/>
</svg>
