<svg width="48" height="48" viewBox="0 0 48 48" fill="none" xmlns="http://www.w3.org/2000/svg">
<circle cx="24" cy="24" r="24" fill="#1F8578"/>
<g clip-path="url(#clip0_408_12903)">
<path d="M24 30.5C24 26.916 26.916 24 30.5 24C30.7784 24 31.0738 24.0239 31.4292 24.0747C31.5723 24.0972 31.7178 24.0523 31.8277 23.9575C31.937 23.8623 32 23.7246 32 23.5796V19.5C32 19.2236 31.7764 19 31.5 19H25.4981C25.3653 19 25.2383 19.0527 25.1445 19.1465C25.0508 19.2407 24.998 19.3677 24.998 19.5005L25 21.5C25 21.7758 24.7759 22 24.5 22H19.5C19.2242 22 19 21.7759 19 21.5V19.5C19 19.2236 18.7764 19 18.5 19H12.5C12.2236 19 12 19.2236 12 19.5V31.5C12 31.7764 12.2236 32 12.5 32H23.5796C23.7246 32 23.8623 31.937 23.9576 31.8276C24.0523 31.7183 24.0952 31.5727 24.0747 31.4292C24.0239 31.0738 24 30.7784 24 30.5Z" fill="white"/>
<path d="M24.9962 16.9883L24.9967 17.5005C24.9972 17.7763 25.2208 18 25.4967 18H31.5001C31.6764 18 31.8395 17.9072 31.9298 17.7559C32.0201 17.604 32.0236 17.4165 31.9396 17.2612L29.2252 12.2612C29.1378 12.1001 28.9689 12 28.7857 12H25.0943C24.9537 12 24.8199 12.0591 24.7252 12.1626C24.6305 12.2661 24.5836 12.4048 24.5963 12.5449L24.9962 16.9883Z" fill="white"/>
<path d="M12.5 18H18.5C18.7764 18 19 17.7763 19 17.5L19.4048 12.5444C19.417 12.4048 19.3706 12.2661 19.2759 12.1626C19.1812 12.0591 19.0469 12 18.9068 12H15.2144C15.0313 12 14.8624 12.1001 14.775 12.2612L12.0606 17.2612C11.9766 17.4165 11.98 17.604 12.0703 17.7559C12.1607 17.9072 12.3238 18 12.5 18Z" fill="white"/>
<path d="M30.5 25C27.4673 25 25 27.4673 25 30.5C25 33.5327 27.4673 35.9999 30.5 35.9999C33.5327 35.9999 35.9999 33.5327 35.9999 30.5C35.9999 27.4673 33.5327 25 30.5 25ZM27.2637 30.9409C27.1016 30.854 27 30.6845 27 30.5C27 28.5703 28.5703 27 30.5 27C31.6641 27 32.749 27.5766 33.4014 28.5429C33.5567 28.7715 33.4961 29.0825 33.2676 29.2368C33.0391 29.3916 32.7285 29.3315 32.5733 29.1025C32.1065 28.4121 31.3321 27.9999 30.5 27.9999C29.7862 27.9999 29.1406 28.3012 28.6846 28.7831L29.2237 29.0527C29.3829 29.1323 29.4883 29.2909 29.4991 29.4687C29.5098 29.6469 29.4258 29.8173 29.2774 29.916L27.7774 30.9159C27.6934 30.9716 27.5967 30.9999 27.5 30.9999C27.4189 31 27.3379 30.9804 27.2637 30.9409ZM30.5 34C29.3359 34 28.251 33.4233 27.5986 32.457C27.4433 32.2285 27.5039 31.9175 27.7324 31.7632C27.9609 31.6084 28.2714 31.668 28.4267 31.8975C28.8936 32.5879 29.6679 33 30.5 33C31.1367 33 31.7187 32.7607 32.1611 32.3671C32.1563 32.3627 32.1514 32.3583 32.1465 32.3535L31.6464 31.8534C31.541 31.7475 31.4873 31.5995 31.5019 31.4506C31.5175 31.3017 31.5976 31.1669 31.7226 31.0839L33.2226 30.0839C33.3769 29.9813 33.5732 29.9726 33.7363 30.059C33.8984 30.1459 33.9999 30.3154 33.9999 30.4999C34 32.4297 32.4297 34 30.5 34Z" fill="white"/>
</g>
<defs>
<clipPath id="clip0_408_12903">
<rect width="24" height="24" fill="white" transform="translate(12 12)"/>
</clipPath>
</defs>
</svg>
