<svg width="48" height="48" viewBox="0 0 48 48" fill="none" xmlns="http://www.w3.org/2000/svg">
<circle cx="24" cy="24" r="24" fill="#1F8578"/>
<path fill-rule="evenodd" clip-rule="evenodd" d="M15.75 31.5H26.7756C26.551 31.0405 26.3758 30.5371 26.2964 30H15.75C15.3358 30 15 29.6642 15 29.25V19.5H31.5V24.8132C32.0418 24.9056 32.547 25.0967 33 25.3662V15.75C33 14.5074 31.9927 13.5 30.75 13.5H15.75C14.5074 13.5 13.5 14.5074 13.5 15.75V29.25C13.5 30.4927 14.5074 31.5 15.75 31.5ZM17.25 15.75C16.8358 15.75 16.5 16.0858 16.5 16.5C16.5 16.9142 16.8358 17.25 17.25 17.25H18.75C19.1642 17.25 19.5 16.9142 19.5 16.5C19.5 16.0858 19.1642 15.75 18.75 15.75H17.25ZM27 16.5C27 16.0858 27.3358 15.75 27.75 15.75H29.25C29.6642 15.75 30 16.0858 30 16.5C30 16.9142 29.6642 17.25 29.25 17.25H27.75C27.3358 17.25 27 16.9142 27 16.5Z" fill="white"/>
<path d="M16.5 21C16.0858 21 15.75 21.3358 15.75 21.75C15.75 22.1642 16.0858 22.5 16.5 22.5C16.9142 22.5 17.25 22.1642 17.25 21.75C17.25 21.3358 16.9142 21 16.5 21Z" fill="white"/>
<path d="M16.5 23.25C16.0858 23.25 15.75 23.5858 15.75 24C15.75 24.4142 16.0858 24.75 16.5 24.75C16.9142 24.75 17.25 24.4142 17.25 24C17.25 23.5858 16.9142 23.25 16.5 23.25Z" fill="white"/>
<path d="M15.75 26.25C15.75 25.8358 16.0858 25.5 16.5 25.5C16.9142 25.5 17.25 25.8358 17.25 26.25C17.25 26.6642 16.9142 27 16.5 27C16.0858 27 15.75 26.6642 15.75 26.25Z" fill="white"/>
<path d="M16.5 27.75C16.0858 27.75 15.75 28.0858 15.75 28.5C15.75 28.9142 16.0858 29.25 16.5 29.25C16.9142 29.25 17.25 28.9142 17.25 28.5C17.25 28.0858 16.9142 27.75 16.5 27.75Z" fill="white"/>
<path d="M18 21.75C18 21.3358 18.3358 21 18.75 21C19.1642 21 19.5 21.3358 19.5 21.75C19.5 22.1642 19.1642 22.5 18.75 22.5C18.3358 22.5 18 22.1642 18 21.75Z" fill="white"/>
<path d="M18.75 23.25C18.3358 23.25 18 23.5858 18 24C18 24.4142 18.3358 24.75 18.75 24.75C19.1642 24.75 19.5 24.4142 19.5 24C19.5 23.5858 19.1642 23.25 18.75 23.25Z" fill="white"/>
<path d="M18 26.25C18 25.8358 18.3358 25.5 18.75 25.5C19.1642 25.5 19.5 25.8358 19.5 26.25C19.5 26.6642 19.1642 27 18.75 27C18.3358 27 18 26.6642 18 26.25Z" fill="white"/>
<path d="M18.75 27.75C18.3358 27.75 18 28.0858 18 28.5C18 28.9142 18.3358 29.25 18.75 29.25C19.1642 29.25 19.5 28.9142 19.5 28.5C19.5 28.0858 19.1642 27.75 18.75 27.75Z" fill="white"/>
<path d="M20.25 21.75C20.25 21.3358 20.5858 21 21 21C21.4142 21 21.75 21.3358 21.75 21.75C21.75 22.1642 21.4142 22.5 21 22.5C20.5858 22.5 20.25 22.1642 20.25 21.75Z" fill="white"/>
<path d="M21 23.25C20.5858 23.25 20.25 23.5858 20.25 24C20.25 24.4142 20.5858 24.75 21 24.75C21.4142 24.75 21.75 24.4142 21.75 24C21.75 23.5858 21.4142 23.25 21 23.25Z" fill="white"/>
<path d="M20.25 26.25C20.25 25.8358 20.5858 25.5 21 25.5C21.4142 25.5 21.75 25.8358 21.75 26.25C21.75 26.6642 21.4142 27 21 27C20.5858 27 20.25 26.6642 20.25 26.25Z" fill="white"/>
<path d="M21 27.75C20.5858 27.75 20.25 28.0858 20.25 28.5C20.25 28.9142 20.5858 29.25 21 29.25C21.4142 29.25 21.75 28.9142 21.75 28.5C21.75 28.0858 21.4142 27.75 21 27.75Z" fill="white"/>
<path d="M22.5 21.75C22.5 21.3358 22.8358 21 23.25 21C23.6642 21 24 21.3358 24 21.75C24 22.1642 23.6642 22.5 23.25 22.5C22.8358 22.5 22.5 22.1642 22.5 21.75Z" fill="white"/>
<path d="M23.25 23.25C22.8358 23.25 22.5 23.5858 22.5 24C22.5 24.4142 22.8358 24.75 23.25 24.75C23.6642 24.75 24 24.4142 24 24C24 23.5858 23.6642 23.25 23.25 23.25Z" fill="white"/>
<path d="M22.5 26.25C22.5 25.8358 22.8358 25.5 23.25 25.5C23.6642 25.5 24 25.8358 24 26.25C24 26.6642 23.6642 27 23.25 27C22.8358 27 22.5 26.6642 22.5 26.25Z" fill="white"/>
<path d="M25.5 21C25.0858 21 24.75 21.3358 24.75 21.75C24.75 22.1642 25.0858 22.5 25.5 22.5C25.9142 22.5 26.25 22.1642 26.25 21.75C26.25 21.3358 25.9142 21 25.5 21Z" fill="white"/>
<path d="M24.75 24C24.75 23.5858 25.0858 23.25 25.5 23.25C25.9142 23.25 26.25 23.5858 26.25 24C26.25 24.4142 25.9142 24.75 25.5 24.75C25.0858 24.75 24.75 24.4142 24.75 24Z" fill="white"/>
<path d="M27.75 21C27.3358 21 27 21.3358 27 21.75C27 22.1642 27.3358 22.5 27.75 22.5C28.1642 22.5 28.5 22.1642 28.5 21.75C28.5 21.3358 28.1642 21 27.75 21Z" fill="white"/>
<path d="M29.25 21.75C29.25 21.3358 29.5858 21 30 21C30.4142 21 30.75 21.3358 30.75 21.75C30.75 22.1642 30.4142 22.5 30 22.5C29.5858 22.5 29.25 22.1642 29.25 21.75Z" fill="white"/>
<path fill-rule="evenodd" clip-rule="evenodd" d="M28.7006 32.9333C29.1044 33.3679 29.5058 33.7227 29.8053 33.9686C29.8398 33.997 29.8752 34.027 29.9114 34.0576C30.1534 34.2626 30.4336 34.5 30.75 34.5C31.0681 34.5 31.3447 34.2649 31.5852 34.0606C31.6226 34.0289 31.6591 33.9979 31.6947 33.9686C31.9942 33.7227 32.3956 33.3679 32.7994 32.9333C33.5743 32.0996 34.5 30.8228 34.5 29.375C34.5 27.2641 32.8496 25.5 30.75 25.5C28.6504 25.5 27 27.2641 27 29.375C27 30.8228 27.9257 32.0996 28.7006 32.9333ZM28.9091 29.3749C28.9091 28.3623 29.7047 27.4886 30.75 27.4886C31.7952 27.4886 32.5909 28.3623 32.5909 29.3749C32.5909 30.3877 31.7952 31.2614 30.75 31.2614C29.7047 31.2614 28.9091 30.3877 28.9091 29.3749Z" fill="white"/>
</svg>
