<svg width="48" height="48" viewBox="0 0 48 48" fill="none" xmlns="http://www.w3.org/2000/svg">
<circle cx="24" cy="24" r="24" fill="#1F8578"/>
<path d="M31.6005 29.1999C30.7809 29.1999 30.0784 29.6936 29.769 30.3999H26.2535C25.923 29.4684 25.0441 28.7998 24.0004 28.7998C22.9566 28.7998 22.0785 29.4684 21.7473 30.3999H18.2318C17.9224 29.6936 17.2199 29.1999 16.4003 29.1999C15.2956 29.1999 14.4004 30.0951 14.4004 31.1998C14.4004 32.3045 15.2956 33.1997 16.4003 33.1997C17.2206 33.1997 17.9231 32.7046 18.2318 31.9997H21.7473C22.0777 32.9295 22.9566 33.5998 24.0004 33.5998C25.0441 33.5998 25.923 32.9295 26.2535 31.9997H29.769C30.0777 32.7046 30.7801 33.1997 31.6005 33.1997C32.7052 33.1997 33.6004 32.3045 33.6004 31.1998C33.6004 30.0951 32.7052 29.1999 31.6005 29.1999ZM24.0004 31.9997C23.5581 31.9997 23.2005 31.6421 23.2005 31.1998C23.2005 30.7575 23.5581 30.3999 24.0004 30.3999C24.4427 30.3999 24.8003 30.7575 24.8003 31.1998C24.8003 31.6421 24.4427 31.9997 24.0004 31.9997Z" fill="white"/>
<path d="M24.0003 14.3999C20.9089 14.3999 18.4004 16.906 18.4004 19.9998C18.4004 21.5452 19.0268 22.9451 20.041 23.9593L24.0003 27.5999L27.9606 23.9577C28.9746 22.9451 29.6012 21.5452 29.6002 19.9984C29.6002 16.9077 27.0934 14.3999 24.0003 14.3999ZM24.0003 22.3998C22.6753 22.3998 21.6003 21.3249 21.6003 19.9998C21.6003 18.6748 22.6753 17.5998 24.0003 17.5998C25.3261 17.5998 26.4003 18.6748 26.4003 19.9998C26.4003 21.3249 25.3261 22.3998 24.0003 22.3998Z" fill="white"/>
</svg>
